<?xml version="1.0" encoding="UTF-8" standalone="no"?>
<!-- Created with Inkscape (http://www.inkscape.org/) -->

<svg
   width="60mm"
   height="60mm"
   viewBox="0 0 60 60"
   version="1.1"
   id="svg3646"
   inkscape:version="1.3 (0e150ed, 2023-07-21)"
   sodipodi:docname="bigstone.svg"
   xmlns:inkscape="http://www.inkscape.org/namespaces/inkscape"
   xmlns:sodipodi="http://sodipodi.sourceforge.net/DTD/sodipodi-0.dtd"
   xmlns="http://www.w3.org/2000/svg"
   xmlns:svg="http://www.w3.org/2000/svg">
  <sodipodi:namedview
     id="namedview3648"
     pagecolor="#ffffff"
     bordercolor="#666666"
     borderopacity="1.0"
     inkscape:pageshadow="2"
     inkscape:pageopacity="0.0"
     inkscape:pagecheckerboard="0"
     inkscape:document-units="mm"
     showgrid="false"
     inkscape:zoom="1.722634"
     inkscape:cx="93.751778"
     inkscape:cy="125.09912"
     inkscape:window-width="1312"
     inkscape:window-height="722"
     inkscape:window-x="0"
     inkscape:window-y="25"
     inkscape:window-maximized="0"
     inkscape:current-layer="layer1"
     inkscape:showpageshadow="2"
     inkscape:deskcolor="#d1d1d1" />
  <defs
     id="defs3643" />
  <g
     inkscape:label="Layer 1"
     inkscape:groupmode="layer"
     id="layer1">
    <path
       style="fill:none;stroke:#8b8b8b;stroke-width:4;stroke-linecap:butt;stroke-linejoin:miter;stroke-opacity:1;stroke-dasharray:none"
       d="m 31.025647,37.015745 c -1.279938,0 -2.559873,0 -3.839808,0 -0.604059,0 -0.890388,0.114483 -1.382331,-0.307184 -0.672682,-0.576583 -0.863115,-1.639332 -0.921554,-2.457476 -0.02553,-0.357471 0,-0.716765 0,-1.075148 0,-0.616463 -0.06024,-1.101466 0.153592,-1.689515 0.384859,-1.058363 1.104381,-1.808517 1.9967,-2.457477 0.298577,-0.217146 0.586343,-0.459655 0.921554,-0.614368 0.386176,-0.178236 1.533343,-0.425135 1.9967,-0.460777 0.357327,-0.02749 0.716764,0 1.075147,0 0.939819,0 1.705846,-0.08885 2.611067,0.307184 0.873792,0.382283 1.271437,0.990807 1.843109,1.689516 0.207589,0.253722 0.496686,0.461989 0.61437,0.767961 0.10608,0.275812 0.251145,2.164818 0.153591,2.457476 -0.130061,0.390186 -1.334828,1.788062 -1.689515,1.996702 -1.226932,0.721722 -3.548346,0.974294 -4.761363,0.921554 -2.521413,-0.109627 -4.963721,-0.715549 -7.218837,-1.843108 -1.372985,-0.686494 -2.655114,-1.641877 -3.532623,-2.918254 -0.371566,-0.540462 -0.550003,-1.064935 -0.460777,-1.689515 0.0229,-0.160274 0.03067,-0.355415 0.153592,-0.460777 0.818342,-0.701437 1.940207,-0.546918 2.918254,-0.614371 2.547982,-0.175723 5.253393,-0.41211 7.679617,0.614371 0.718735,0.30408 2.279218,1.395161 2.76466,2.150292 0.201552,0.313526 0.254474,0.706168 0.307184,1.075145 0.128709,0.900964 -0.01527,1.79333 -0.767961,2.457476 -0.914286,0.806726 -3.246885,1.360308 -4.300585,1.535925 -1.511009,0.251836 -3.80735,0.542901 -5.37573,0 -0.630809,-0.218358 -1.242959,-0.578974 -1.689516,-1.075147 -1.412024,-1.568916 -1.721094,-4.51303 -1.075146,-6.450875 0.22492,-0.674759 0.656805,-1.267889 1.075146,-1.843109 0.647257,-0.889978 1.540258,-1.87556 2.61107,-2.303884 0.336127,-0.134452 0.714045,-0.1278 1.075146,-0.153593 0.676095,-0.04829 1.466142,-0.113994 1.9967,0.460777 0.897701,0.972509 1.498564,3.001281 1.689516,4.146993 0.211093,1.266555 0.254818,2.556851 0.307184,3.839807 0.08249,2.021023 0.139282,4.450681 -0.460777,6.450878 -0.197376,0.657916 -0.5774,1.248659 -0.921554,1.843106 -0.220665,0.381148 -0.41178,0.816105 -0.767961,1.075148 -0.306771,0.223104 -1.743048,0.18601 -1.996701,0 -1.502415,-1.101773 -1.779354,-3.084698 -1.996699,-4.761363 -0.217593,-1.678572 -0.598959,-3.401269 -0.307185,-5.068546 1.505199,-8.601138 2.016687,-12.450143 6.911654,-18.277484 1.740649,-2.072201 3.674248,-3.474419 6.297285,-4.146993 1.582332,-0.4057261 3.849129,-0.2846782 5.222137,0.767962 0.894797,0.68601 1.559369,1.650819 2.150292,2.611069 1.47555,2.397766 1.982965,4.591125 2.303886,7.372431 0.261985,2.270536 0.393324,5.189095 -0.614371,7.37243 -0.45915,0.994828 -1.18482,1.875303 -1.996699,2.61107 -3.061964,2.774905 -7.459194,3.098559 -11.36583,2.918253 -3.565665,-0.164568 -5.762512,-0.354943 -8.754762,-2.150292 -1.668367,-1.001019 -3.262847,-3.154579 -2.918254,-5.222138 0.307837,-1.84702 1.039701,-2.225725 2.61107,-3.071846 0.686605,-0.369711 1.399601,-0.710423 2.150292,-0.921554 1.499461,-0.421724 3.648177,-0.613096 5.222138,-0.460777 0.779529,0.07544 1.572917,0.179635 2.303886,0.460777 1.175769,0.452219 2.014297,1.229696 2.611067,2.303885 0.512366,0.922255 0.93861,2.312483 0.767964,3.379029 -0.112665,0.704143 -0.347223,1.420953 -0.767964,1.996702 -1.219938,1.669391 -3.346193,2.854089 -5.222137,3.532621 -2.884036,1.043162 -6.160546,1.530154 -9.215539,1.382332 -1.504871,-0.07282 -3.049451,-0.223272 -4.454177,-0.767961 -4.436481,-1.720268 -6.5883268,-7.08623 -3.532622,-11.058647 1.222782,-1.589618 4.67939,-3.90774 6.604469,-4.607769 1.075884,-0.391231 2.243061,-0.472373 3.37903,-0.614369 1.733368,-0.216671 3.010681,-0.358269 4.60777,0.307184 0.656545,0.273561 1.340173,0.572212 1.843108,1.075147 1.195031,1.195031 1.751767,3.375384 1.9967,4.914954 0.201739,1.268077 0.307184,2.555783 0.307184,3.839806 0,1.181986 -0.07538,2.373593 -0.307184,3.532624 -0.181012,0.905052 -0.497518,1.791266 -0.921555,2.61107 -0.975291,1.885561 -2.976221,3.605072 -5.222138,3.532624 -0.89366,-0.02883 -1.773874,-0.300421 -2.611069,-0.614371 -1.92939,-0.723521 -2.963567,-1.4513 -3.839808,-3.379031 -0.416232,-0.915709 -0.696296,-1.91494 -0.767961,-2.918253 -0.155515,-2.177209 0.477691,-5.006837 1.535923,-6.911654 0.548779,-0.987803 2.54737,-3.003874 3.686215,-3.532623 0.765851,-0.355574 1.621593,-0.494957 2.457477,-0.614369 0.964307,-0.137759 1.958161,-0.31818 2.918253,-0.153593 0.881271,0.151075 1.72068,0.568599 2.457479,1.075146 1.767369,1.215068 3.425028,3.27646 4.300582,5.222139 0.842992,1.873315 1.177999,4.421308 1.228738,6.450876 0.05627,2.250652 0.07643,3.43185 -1.382328,5.222139 -0.596321,0.731848 -1.327497,1.380284 -2.150293,1.843109 -1.547916,0.870701 -4.289562,1.265706 -5.9901,1.228738 -1.288814,-0.02802 -2.594217,-0.128619 -3.839808,-0.460777 -1.084935,-0.289316 -2.176833,-0.704292 -3.071846,-1.382331 -1.758411,-1.33213 -2.778233,-3.739269 -3.071846,-5.836508 -0.533676,-3.811965 0.305712,-8.040287 3.225438,-10.751461 1.471886,-1.366752 3.297146,-1.782812 5.222138,-1.996701 0.865034,-0.09611 1.771381,-0.229005 2.61107,0 2.120174,0.57823 4.082993,2.852254 5.222138,4.454178 0.850141,1.195511 1.609915,2.475995 2.150292,3.839806 0.544312,1.373743 0.852321,2.839836 1.075145,4.300585 0.459587,3.012837 0.466096,6.394979 -0.307183,9.369131 -0.282546,1.086718 -0.700257,2.179905 -1.382332,3.071847 -0.684903,0.895644 -1.635294,1.58537 -2.611067,2.150293 -1.938642,1.12237 -4.216307,1.685808 -6.450878,1.228738 -1.238833,-0.253399 -2.448337,-0.731761 -3.532623,-1.382332 -3.803687,-2.282211 -5.045378,-6.484773 -4.607769,-10.751462 0.231849,-2.260523 0.713513,-4.552363 1.689515,-6.604468 1.56376,-3.287903 6.528032,-8.82179 9.522724,-10.905054 3.008403,-2.092802 6.261674,-2.939689 9.829906,-3.071846 2.883434,-0.106794 4.548703,0.02821 6.604471,2.150292 2.016445,2.081491 2.532838,4.270991 2.918253,7.065246 0.380249,2.756807 0.554559,6.468728 -0.307183,9.21554 -0.397579,1.267275 -1.037339,2.476786 -1.843109,3.532621 -1.496094,1.960401 -3.662458,3.068677 -5.990101,3.686215 -2.839566,0.753356 -6.047734,0.857025 -8.908354,0.153593 -2.849345,-0.700659 -5.457997,-2.10839 -7.679614,-3.993398 -0.74583,-0.632825 -1.473352,-1.323954 -1.9967,-2.150293 -0.468097,-0.7391 -0.728856,-1.604102 -0.921554,-2.457479 -0.370834,-1.642263 -0.315665,-2.931792 0.767961,-4.300582 1.26839,-1.602179 2.807264,-2.210229 4.761362,-2.611071 1.86435,-0.38243 4.612221,-0.487798 6.450877,0.153593 2.105038,0.734315 4.7307,2.565078 5.9901,4.454177 0.675042,1.012563 1.098328,2.195684 1.382329,3.379031 0.68226,2.842746 0.736809,6.052407 -0.614368,8.75476 -0.733036,1.466073 -1.88678,2.70741 -3.071846,3.839808 -2.219738,2.121083 -5.293744,3.787458 -8.293985,4.454179 -1.705863,0.379079 -3.474857,0.434697 -5.222138,0.460774 -3.864389,0.05768 -6.402106,0.01024 -9.522723,-2.611067 C 9.1743717,47.179695 7.4925604,43.947143 6.7580615,41.009146 6.4837566,39.911927 6.4791428,38.760751 6.4508768,37.630115 6.4077005,35.903064 6.321445,34.315841 7.6796153,33.022346 c 1.3486095,-1.28439 3.1612727,-1.554617 4.9149537,-1.689515 4.64109,-0.357008 8.894913,0.821788 12.133793,4.300585 1.63571,1.756873 2.110415,2.505459 2.457477,4.76136 0.08563,0.556625 0.14818,1.146188 0,1.689515 -0.369083,1.353299 -1.509968,2.514206 -2.764662,3.071847 -0.71567,0.318077 -1.528586,0.35002 -2.303885,0.460777 -2.496673,0.356669 -4.253486,0.566505 -6.758061,-0.307184 C 13.276413,44.583167 11.385072,43.039283 10.444277,41.009146 9.3478383,38.643147 9.2595111,35.005682 9.5227231,32.561569 9.713016,30.794563 9.9797392,29.005694 10.597869,27.33943 c 0.574253,-1.547985 1.49193,-2.961277 2.457477,-4.300584 0.950908,-1.319001 2.833051,-2.957385 4.454177,-3.532623 0.832922,-0.295553 1.730894,-0.380761 2.611069,-0.460777 0.815795,-0.07416 1.653243,-0.155658 2.457477,0 1.876767,0.363245 3.131565,1.293571 4.146993,2.918254 1.636609,2.618574 1.769303,5.76572 1.843106,8.754761 0.0544,2.203198 0.06519,4.432286 -0.307184,6.604471 -0.249068,1.452901 -0.876686,2.82852 -1.535922,4.146991 -1.195233,2.390463 -3.483806,5.047012 -6.297285,5.529324 -1.009227,0.173008 -2.074512,0.231936 -3.071846,0 C 14.740373,46.390977 12.265049,44.56735 10.444277,42.698662 9.5010072,41.73057 8.6243093,40.665087 7.9868,39.473224 6.8194723,37.290827 6.8306745,35.653146 6.7580615,33.32953 c -0.022389,-0.716415 -0.1405689,-1.447448 0,-2.150292 0.1213215,-0.606608 0.3305305,-1.252085 0.7679616,-1.689516 1.2020912,-1.202092 3.5235589,-1.684647 5.0685459,-1.843106 1.018605,-0.104473 2.048218,-0.02559 3.071846,0 2.925755,0.07314 2.982179,-0.100459 5.529323,1.075145 0.655102,0.302356 1.836041,0.987751 2.303885,1.689516 0.117093,0.175638 0.130281,0.404569 0.153592,0.61437 0.02827,0.254421 0.128985,0.546844 0,0.767961 -0.255376,0.437788 -0.681789,0.755544 -1.075146,1.075145 -1.612583,1.310225 -3.651795,1.896404 -5.682915,2.150293 -0.821895,0.102737 -1.964011,0.169624 -2.457477,-0.767961 -0.810702,-1.540336 -0.386538,-4.093612 0,-5.529324 0.425295,-1.579665 0.957911,-3.144561 1.689515,-4.607769 0.762137,-1.524274 1.77961,-2.909923 2.764662,-4.300584 1.70567,-2.408006 2.45816,-3.326539 4.761361,-4.914954 0.67959,-0.468683 1.379784,-0.932389 2.150293,-1.228739 0.581328,-0.223588 1.225976,-0.22303 1.843108,-0.307184 0.763855,-0.104162 1.823244,-0.286482 2.611067,0 0.240576,0.08748 0.472374,0.247782 0.614371,0.460777 0.409453,0.614178 0.43906,2.061589 0.307184,2.611069 -0.391364,1.630685 -1.394587,3.031885 -2.61107,4.146992 -0.596728,0.547001 -1.295519,0.977804 -1.996699,1.382331 -1.37798,0.794988 -2.16446,1.076563 -3.686215,1.228738 -0.660703,0.06607 -2.051226,0.09907 -2.61107,-0.460777 C 19.605237,22.062714 19.387249,19.874085 19.352631,19.199038 19.1845,15.9205 19.33307,14.186399 20.120592,10.905054 20.686938,8.5452788 21.19425,7.4625363 22.424477,5.529323 22.699343,5.0973899 22.98401,4.6626052 23.346031,4.3005845 c 0.521752,-0.5217525 0.86878,-0.5214262 1.535923,-0.4607769 0.310143,0.028195 0.656329,-0.00962 0.921554,0.1535923 0.431644,0.2656276 0.784497,0.6599359 1.075145,1.0751462 0.433493,0.6192748 0.777375,1.301899 1.075147,1.9967001 0.722702,1.686306 1.022393,3.0685618 1.075145,4.9149538 0.02635,0.922598 0.09997,1.877199 -0.15359,2.764661 -0.270547,0.946911 -0.787652,1.826091 -1.382332,2.61107 -1.448204,1.911628 -3.294074,3.283373 -5.529323,4.146992 -1.765122,0.681979 -5.48221,1.29232 -7.372431,1.382331 -1.824362,0.08687 -4.43144,-0.0626 -5.6829152,-1.689516 -0.4603073,-0.598399 -0.6307513,-1.581493 -0.4607769,-2.303884 0.2760527,-1.173225 1.3432832,-2.48568 2.1502921,-3.225439 1.858535,-1.703657 4.271891,-2.651878 6.758062,-2.918254 0.102798,-0.01101 2.766808,-0.07572 3.225438,0.153593 0.293214,0.146607 0.505263,0.458827 0.614369,0.767961 0.568968,1.612076 0.260846,3.899298 -0.153592,5.375731 -0.503654,1.794267 -1.205719,3.534712 -1.9967,5.222139 -0.749289,1.598482 -1.645777,3.129664 -2.611069,4.60777 -1.00057,1.532122 -2.71864,3.491714 -4.146992,4.761359 -0.192611,0.171209 -0.889208,0.784135 -1.228739,0.614371 -0.04579,-0.02289 0,-0.102397 0,-0.153594 0,-0.511974 -0.08152,-1.03048 0,-1.535922 0.175984,-1.091099 0.388664,-2.187363 0.767962,-3.225437 1.160961,-3.177371 3.465443,-7.35566 5.222138,-10.137094 1.526928,-2.417635 3.675816,-5.38208 6.604469,-6.297284 0.836467,-0.261396 1.735138,-0.279812 2.611069,-0.307185 0.76929,-0.02404 1.576264,-0.09731 2.303884,0.153592 0.805548,0.277776 1.515848,0.813519 2.150293,1.382331 0.864243,0.774837 1.69555,1.622527 2.303885,2.61107 1.162511,1.889078 1.793291,4.769648 2.150293,6.911653 0.191106,1.146634 0.517416,3.769172 0.153591,5.068546 -0.172966,0.617744 -0.480365,1.223815 -0.921552,1.689516 -0.956763,1.009914 -2.750346,1.776806 -4.146995,1.689515 -1.579075,-0.09869 -3.921838,-1.216083 -4.914952,-2.457476 -0.6724,-0.8405 -1.026754,-1.90232 -1.382331,-2.918254 -0.734377,-2.098221 -1.244961,-4.166517 -0.153593,-6.297285 1.416881,-2.76629 3.976864,-4.4176 6.60447,-5.836508 1.17127,-0.632486 2.412039,-1.150707 3.686214,-1.535923 1.758776,-0.531723 4.190643,-0.553057 5.990101,-0.460777 0.976841,0.0501 1.972693,0.05689 2.918253,0.307185 1.973287,0.52234 2.693604,1.311946 3.993402,2.764661 0.685829,0.766515 0.988954,1.265195 1.382328,2.150293 0.06576,0.147946 0.153594,0.298876 0.153594,0.460776 0,0.849434 -0.658395,1.122247 -1.382332,1.535924 -0.636452,0.363687 -1.316093,0.649311 -1.996699,0.921553 -2.190052,0.876021 -3.4275,1.234798 -5.836507,1.535924 -2.149719,0.268714 -5.219192,0.455555 -6.758062,-1.535924 -1.143452,-1.479761 -1.088324,-3.163879 -0.921554,-4.914953 0.301387,-3.164569 0.598141,-4.114533 1.996699,-6.9116542 0.346297,-0.6925921 1.401892,-2.3070923 1.996702,-3.0718461 0.267078,-0.3433868 0.189354,-0.3071847 0.460777,-0.3071847 0.0512,0 0.130697,-0.045792 0.153591,0 0.0944,0.1888069 0.08684,0.4141094 0.153593,0.6143694 0.1895,0.5684988 0.44658,1.1142347 0.614368,1.6895154 0.483394,1.6573499 0.558305,2.4089892 0.61437,4.1469922 0.05986,1.855731 0.245431,3.434768 -0.921554,5.068546 -0.548709,0.768192 -1.353846,1.336279 -2.150292,1.843108 -2.258113,1.436982 -3.273338,1.550174 -5.836508,1.843107 -1.288161,0.147219 -3.157057,0.318088 -4.454176,-0.153592 -0.841586,-0.306031 -1.781928,-1.154724 -2.150293,-1.9967 -0.189193,-0.432442 -0.283613,-0.910903 -0.307184,-1.382331 -0.03577,-0.715351 0.132145,-2.250559 0.614369,-2.918253 0.865064,-1.197781 2.443293,-2.341476 3.839807,-2.764662 0.887376,-0.268902 1.840313,-0.23421 2.764661,-0.307184 2.236473,-0.176564 4.16496,-0.42579 6.297285,0.614369 1.150366,0.561154 2.192276,1.374051 3.071846,2.303884 0.936816,0.990349 1.724637,2.144978 2.303886,3.379031 1.294461,2.757765 1.69944,6.579427 1.535922,9.522723 -0.20262,3.647146 -0.994714,6.750791 -2.611069,9.983499 -0.269034,0.538067 -1.811547,2.692426 -2.61107,3.22544 -0.322744,0.215165 -1.121857,0.25572 -1.382329,-0.153593 -0.668332,-1.050237 -0.594058,-3.19237 -0.61437,-4.146992 -0.03158,-1.484389 -0.05117,-2.970334 0,-4.454178 0.109278,-3.169058 0.108968,-4.561732 1.075147,-7.37243 0.238295,-0.693222 0.607751,-1.334228 0.921552,-1.9967 0.147024,-0.310382 0.278754,-0.630315 0.460777,-0.921554 0.07675,-0.122797 0.16519,-0.278785 0.307187,-0.307184 0.158755,-0.03175 0.329033,0.05949 0.460774,0.153592 0.882415,0.630294 1.091965,1.546384 1.382332,2.611069 0.585869,2.148184 0.875789,4.714949 0.921554,6.911655 0.04393,2.108695 -0.03213,4.327848 -0.921554,6.297284 -0.33318,0.737757 -0.872993,1.367518 -1.382332,1.9967 -0.787707,0.97305 -1.337029,1.547955 -2.611067,1.689515 -0.460777,0.0512 -1.016378,0.131038 -1.382331,-0.153593 -1.790772,-1.392822 -1.855137,-4.043588 -1.9967,-5.990098 -0.107696,-1.480815 -0.194408,-2.982235 0,-4.454178 0.328396,-2.486422 1.146173,-4.304501 2.764661,-6.143693 0.480708,-0.546258 1.050713,-1.033892 1.689515,-1.38233 0.512464,-0.279526 1.114407,-0.360758 1.689515,-0.460777 0.9939,-0.172852 2.30862,-0.365151 3.225438,0.307185 0.976307,0.715956 1.352418,2.351392 1.535925,3.37903 0.12632,0.7074 0.255217,1.438925 0.15359,2.150292 -0.361709,2.531983 -2.414505,4.225494 -4.300582,5.682917 -0.739905,0.571743 -1.569037,1.180547 -2.457479,1.535922 -0.195993,0.0784 -0.431088,0.258323 -0.614368,0.153593 -0.628862,-0.359352 -0.59763,-1.935604 -0.61437,-2.303886 -0.05388,-1.185463 -0.09346,-2.577735 0.460777,-3.686214 0.24339,-0.486781 0.67728,-0.857396 1.075147,-1.228739 0.37428,-0.349329 0.770814,-0.692592 1.228739,-0.921554 1.653558,-0.826779 3.894666,-0.622724 5.222136,0.767961 1.3471,1.411245 1.846612,3.553635 2.150293,5.37573 0.185933,1.115602 0.391771,2.25121 0.307186,3.379031 -0.206615,2.754884 -1.948719,5.057994 -4.454178,6.143694 -0.774756,0.335727 -1.617033,0.695703 -2.457476,0.614367 -2.085129,-0.201784 -3.482904,-2.204442 -4.300585,-3.839805 -1.377001,-2.754 -1.843106,-5.699977 -1.843106,-8.754763 0,-2.741615 0.348159,-6.149455 1.843106,-8.601169 1.315288,-2.157074 3.429518,-3.519082 5.836507,-4.146992 1.193069,-0.311236 2.453552,-0.335851 3.686217,-0.307185 1.628079,0.03786 3.731395,0.466203 5.068546,1.535923 1.527281,1.221826 2.134852,2.572193 2.457477,4.454177 0.164586,0.960092 0.274412,1.951679 0.15359,2.918254 -0.336105,2.68886 -1.110938,3.895317 -2.918253,5.836507 -1.890051,2.030055 -3.806219,3.071847 -6.604469,3.071847 -0.774758,0 -1.586386,-0.01487 -2.303885,-0.307184 -1.664171,-0.677997 -2.586826,-2.190739 -3.071845,-3.839808 -0.261633,-0.889548 -0.254288,-1.838947 -0.307186,-2.764663 -0.08598,-1.504722 -0.148529,-3.03246 0.460777,-4.454176 0.218146,-0.509008 0.489122,-1.036384 0.921554,-1.382331 0.37927,-0.303415 0.912622,-0.337169 1.382332,-0.460776 1.318236,-0.346905 1.509921,-0.404541 2.76466,-0.153593 0.90097,0.180194 1.252794,0.154977 1.535925,1.075146 0.439737,1.429152 -0.10813,3.059097 -1.075148,4.146992 -0.435586,0.490037 -0.990391,0.865052 -1.535922,1.228738 -0.533762,0.355844 -1.086636,0.702326 -1.689515,0.921554 -0.99015,0.360056 -2.354392,0.563862 -3.225438,-0.307183 -1.550577,-1.550578 -1.668266,-4.220442 -1.843108,-6.143693 -0.274376,-3.018119 -0.574014,-7.635298 1.689515,-10.137092 0.95155,-1.051715 2.78202,-1.604106 4.146992,-1.228739 3.169608,0.871643 5.334256,3.083513 7.372432,5.529323 0.945398,1.134479 1.818436,2.354883 2.457476,3.686216 1.230646,2.563845 1.611551,5.486026 1.382332,8.293985 -0.08992,1.101537 -0.319098,2.215493 -0.767964,3.225437 -0.386776,0.870249 -1.058526,1.590596 -1.689515,2.303886 -0.55221,0.624239 -1.136357,1.247796 -1.843106,1.689515 -0.585066,0.365665 -2.414953,0.825852 -3.225441,0.767961 -0.911439,-0.0651 -1.087895,-0.690867 -1.228738,-1.535922 -0.182734,-1.096415 -0.226843,-3.818541 0,-4.914955 0.223806,-1.081718 1.036143,-2.617899 1.689516,-3.532622 0.314661,-0.440526 0.571153,-0.683964 1.075147,-0.767962 0.151503,-0.02525 0.330531,-0.0814 0.460777,0 0.994082,0.621301 1.302274,1.86683 1.535922,2.918255 0.2466,1.109697 0.34538,2.248135 0.460778,3.379031 0.347749,3.407947 0.469156,4.182157 0,7.372429 -0.09938,0.675791 -0.273127,1.339921 -0.460778,1.996699 -0.107738,0.377084 -0.28517,1.246248 -0.767961,1.535925 -0.542835,0.325699 -0.823214,0.14143 -1.075147,-0.614371 -0.263554,-0.790665 -0.352052,-1.631164 -0.460777,-2.457476 -0.147543,-1.121323 -0.253389,-2.249323 -0.307184,-3.379031 -0.06668,-1.400315 -0.111845,-3.601939 0.307184,-5.068546 0.358383,-1.254337 0.383982,-1.113544 1.228741,-1.535922 0.08448,-0.04224 0.473813,-0.294148 0.614367,-0.153593 0.402151,0.402151 0.509426,1.656154 0.460777,1.996699 -0.09159,0.641093 -0.324752,1.263875 -0.61437,1.843109 -0.853948,1.707901 -1.797651,2.744086 -3.225437,3.993398 -0.577951,0.505709 -1.222029,0.930638 -1.843109,1.382332 -1.244068,0.904777 -1.34289,1.074766 -2.611067,1.535924 -0.0013,5.3e-4 -0.748885,0.239927 -0.921554,0.153591 -0.04579,-0.02289 -0.0426,-0.125193 0,-0.153591 0.13471,-0.08981 0.303709,-0.114326 0.460777,-0.153593 0.457922,-0.11448 0.917495,-0.225155 1.382329,-0.307184 0.800822,-0.141322 1.643864,-0.216178 2.457479,-0.153593 0.260286,0.02003 0.5413,0.02408 0.767961,0.153593 0.160274,0.09158 0.242369,0.287936 0.307184,0.460777 0.09166,0.244433 0.177228,0.507977 0.153593,0.767961 -0.06968,0.766461 -0.66027,1.554557 -1.228738,1.9967 -0.561433,0.436671 -1.202585,0.765926 -1.843109,1.075145 -1.963214,0.947761 -2.869229,1.195721 -4.914953,1.689515 -2.72896,0.658715 -1.367859,0.324575 -3.686217,0.61437 -0.309015,0.03863 -0.610132,0.153594 -0.921552,0.153594 -0.123875,0 0.0053,-0.201263 0.153591,-0.307187 0.300424,-0.214585 0.587904,-0.456324 0.921554,-0.614368 0.644454,-0.305268 1.313678,-0.563054 1.996699,-0.767961 2.529867,-0.75896 2.346643,-0.566734 4.761363,-0.767963 0.512749,-0.04273 1.022535,-0.119364 1.535922,-0.153591 0.265324,-0.0177 0.814985,-0.106571 1.075147,0.153591 0.0362,0.0362 0.02635,0.109691 0,0.153593 -0.131704,0.219506 -0.264123,0.45049 -0.460777,0.61437 -0.425429,0.354524 -0.88337,0.681313 -1.382331,0.921552 -0.890897,0.428953 -1.824292,0.769527 -2.764661,1.075148 -2.285354,0.742741 -4.215407,1.188622 -6.604471,1.382331 -0.816477,0.0662 -1.638315,0 -2.457476,0 -0.441944,0 -1.908874,0.263409 -2.303884,-0.460777 -0.197655,-0.362368 -0.194664,-0.81802 -0.153592,-1.228738 0.200677,-2.006777 0.738881,-2.509285 2.457476,-3.839808 2.272406,-1.759284 4.419579,-2.484737 7.218839,-2.764663 0.356602,-0.03566 0.716764,0 1.075147,0 0.204788,0 0.409578,0 0.614368,0 0.0512,0 0.11739,-0.0362 0.153593,0 0.0362,0.0362 0.03887,0.120274 0,0.153593 -0.334391,0.286621 -0.693663,0.547875 -1.075147,0.767961 -2.136556,1.23263 -3.958431,2.082951 -6.297285,2.918254 -1.006752,0.359555 -2.048753,0.611526 -3.071845,0.921554 -0.666434,0.201949 -1.323268,0.43715 -1.9967,0.614371 -0.301168,0.07925 -0.612537,0.114964 -0.921554,0.15359 -0.05535,0.0069 -0.458701,0.09894 -0.307185,-0.15359 0.131705,-0.219509 0.252472,-0.465582 0.460777,-0.614371 1.646861,-1.176329 3.130024,-1.390642 5.22214,-1.689515 1.321646,-0.188807 2.660933,-0.223907 3.993398,-0.307184 1.125313,-0.07033 2.251938,-0.184055 3.379031,-0.153593 0.774475,0.02093 1.540584,0.174437 2.303886,0.307183 0.771657,0.134202 1.135171,0.08003 1.535922,0.614371 0.06869,0.09159 0.131141,0.194926 0.153593,0.307184 0.03012,0.150611 0.07459,0.326514 0,0.460777 -0.194191,0.349544 -0.485214,0.638807 -0.767961,0.921554 -0.384834,0.384834 -0.79335,0.748604 -1.228741,1.075145 -0.391895,0.293923 -1.823675,1.120399 -2.303883,1.382332 -0.201004,0.109638 -0.40958,0.20479 -0.61437,0.307184 -0.102394,0.0512 -0.198578,0.189796 -0.307184,0.153593 -0.108606,-0.0362 -0.153594,-0.192704 -0.153594,-0.307184 0,-0.636746 0.337334,-1.964968 0.614371,-2.457476 0.231412,-0.411401 0.563171,-0.767964 0.921554,-1.075148 0.84224,-0.721918 1.651532,-1.022141 2.764661,-1.075145 0.564853,-0.0269 1.15027,-0.01669 1.689515,0.153591 0.972751,0.307186 1.638318,1.075147 1.996702,1.996702 0.234325,0.602556 0.559678,2.118875 0,2.76466 -0.43719,0.504447 -1.073923,0.816993 -1.689516,1.075145 -2.455161,1.029584 -5.033348,1.299636 -7.679615,1.382331 -3.357965,0.104937 -6.610205,0.09099 -9.676317,-1.535922 C 22.6197,49.287607 21.685222,48.256692 20.734961,47.30643 19.113622,45.68509 18.39263,44.727105 17.9703,42.545068 c -0.396988,-2.051105 -0.261971,-4.296804 1.689515,-5.529323 1.032896,-0.652354 2.213869,-0.706636 3.379031,-0.767961 0.414669,-0.02183 1.359744,-0.08809 1.843108,0.153593 0.387481,0.193741 0.442842,0.549659 0.153592,0.921555 -0.73424,0.944022 -2.694836,1.619697 -3.532623,1.843106 -2.951316,0.787018 -6.518056,1.026683 -9.522723,1.075147 C 10.022211,40.272766 7.0007707,40.35475 5.0685461,39.319631 4.3976477,38.960221 3.8077891,38.412552 3.3790307,37.783709 3.0142127,37.248642 2.8143303,36.586294 2.7646616,35.9406 2.7091301,35.218692 2.7285783,34.427805 3.0718461,33.790307 3.9419437,32.174412 6.6181617,30.855261 8.1403922,30.411277 10.309203,29.778708 14.203589,29.562536 16.434377,29.9505 c 2.135462,0.371385 3.473263,1.250886 4.914954,2.764663 0.600193,0.6302 1.314205,1.657315 1.38233,2.611067 0.08619,1.206672 -0.357323,1.448972 -1.38233,2.150292 -1.491413,1.02044 -1.779971,1.009658 -3.532623,1.228738 -0.611739,0.07647 -1.23038,0.221674 -1.843108,0.153594 -0.918619,-0.102069 -1.317981,-0.904923 -1.535923,-1.689516 -0.13771,-0.495757 -0.125052,-1.022188 -0.153592,-1.535922 -0.02357,-0.424188 -0.11089,-1.732219 0.307184,-2.150292 0.184595,-0.184595 0.511116,-0.106895 0.767962,-0.153594 0.306398,-0.05571 0.611207,-0.179453 0.921554,-0.153593 0.874926,0.07291 1.865953,0.77429 1.996699,1.689515 0.05545,0.388179 0.02959,0.940081 -0.307184,1.228741 -0.209332,0.179427 -0.511975,0.204788 -0.767962,0.307184 -0.779048,0.311618 -0.810087,0.38749 -1.689515,0.460777 -0.306124,0.02551 -0.627324,0.08827 -0.921554,0 -1.10782,-0.332345 -1.232037,-2.336392 -1.075146,-3.22544 0.190918,-1.081865 0.637079,-1.699247 1.689515,-2.150292 0.627831,-0.269068 1.31526,-0.41378 1.9967,-0.460775 1.810666,-0.124875 3.382317,0.188733 4.914954,1.228738 0.718952,0.48786 1.300342,1.164649 1.843108,1.843106 0.488196,0.610246 0.928163,1.275321 1.228738,1.996702 0.314947,0.75587 0.4399,2.414236 0.153593,3.225438 -0.14658,0.415308 -0.45654,0.763725 -0.767962,1.075145 -0.463355,0.463357 -1.300745,0.907153 -1.9967,0.767963 -1.065927,-0.213185 -0.457228,-3.406134 -0.307184,-3.686217 1.157906,-2.161423 4.088985,-3.851619 5.990099,-4.914953 1.638716,-0.916569 3.282506,-1.878221 5.068546,-2.457476 3.618669,-1.173623 8.833305,-1.523577 12.594569,-1.689516 1.380987,-0.06093 2.764663,0 4.146992,0 0.767964,0 1.5373,0.04594 2.303886,0 0.943456,-0.05654 1.879187,-0.204663 2.81878,-0.306993"
       id="path2" />
    <path
       style="fill:none;stroke:#000000;stroke-width:5;stroke-linecap:round;stroke-linejoin:miter;stroke-dasharray:none;stroke-opacity:1"
       d="m 34.612387,58.157082 c -0.255987,-0.749763 -0.183541,-1.714381 -0.767961,-2.249291 -0.41543,-0.380236 -1.126344,0 -1.689515,0 -0.972751,0 -1.945502,0 -2.918254,0 -0.35838,0 -0.716764,0 -1.075145,0 -0.307186,0 -0.615431,0.02551 -0.921554,0 -0.310347,-0.02585 -0.61437,-0.102394 -0.921554,-0.153591 -0.307185,-0.0512 -0.619431,-0.07806 -0.921554,-0.153593 -0.864234,-0.216059 -1.138374,-0.437835 -1.9967,-0.767961 -0.302219,-0.11624 -0.614369,-0.20479 -0.921554,-0.307184 -0.307185,-0.102397 -0.607421,-0.228653 -0.921554,-0.307187 -0.302123,-0.07553 -0.621105,-0.07165 -0.921554,-0.15359 -0.265992,-0.07254 -0.509809,-0.210379 -0.767961,-0.307187 -0.303185,-0.113694 -0.620913,-0.186928 -0.921554,-0.307184 -0.106293,-0.04252 -0.200892,-0.111075 -0.307185,-0.153593 -0.150321,-0.06013 -0.310456,-0.09346 -0.460777,-0.153591 -0.212585,-0.08503 -0.409579,-0.20479 -0.614369,-0.307184 -0.102395,-0.0512 -0.200892,-0.111077 -0.307184,-0.153593 -0.150321,-0.06013 -0.321949,-0.07029 -0.460777,-0.153593 -0.124172,-0.0745 -0.191339,-0.2203 -0.307185,-0.307184 -0.09158,-0.06869 -0.20479,-0.102394 -0.307185,-0.153593 -0.102395,-0.0512 -0.204789,-0.102394 -0.307184,-0.153591 -0.40958,-0.20479 -0.819159,-0.40958 -1.228739,-0.61437 -0.20479,-0.102394 -0.423861,-0.180179 -0.614369,-0.307184 -0.06024,-0.04016 -0.09335,-0.11343 -0.153592,-0.153593 -0.09525,-0.0635 -0.2156,-0.0849 -0.307185,-0.153591 -0.115846,-0.08689 -0.191338,-0.2203 -0.307185,-0.307187 -0.09158,-0.06869 -0.215599,-0.0849 -0.307184,-0.15359 -0.115847,-0.08689 -0.194109,-0.216726 -0.307185,-0.307187 -0.144144,-0.115313 -0.310565,-0.19989 -0.460777,-0.307184 -0.41661,-0.297579 -0.819159,-0.614367 -1.228738,-0.921554 -0.20479,-0.153591 -0.421719,-0.292209 -0.614369,-0.460777 C 10.126845,48.037463 9.9352244,47.818597 9.7304348,47.613807 9.3720527,47.255424 9.0136706,46.897043 8.6552885,46.538659 8.5528937,46.436266 8.4504989,46.333872 8.3481041,46.231476 8.245709,46.129082 8.1567659,46.011176 8.0409194,45.924292 7.9493347,45.855603 7.814685,45.85165 7.7337347,45.770698 7.7238922,45.760856 7.4456233,45.18494 7.42655,45.156331 7.3863876,45.096085 7.3131205,45.06298 7.2729578,45.002737 7.1459525,44.812229 7.1031503,44.571538 6.9657731,44.38837 6.8788882,44.272522 6.7454736,44.197031 6.6585887,44.081183 6.5898999,43.9896 6.5561936,43.876393 6.5049962,43.773999 6.1447949,43.053597 6.5774005,43.955009 6.1978115,43.006038 5.9194032,42.310017 6.1836299,42.984766 5.8906271,42.545261 5.7792113,42.378137 5.6111954,41.943815 5.5834424,41.7773 c -0.025252,-0.151503 0.021722,-0.308729 0,-0.460777 C 5.5535894,41.107552 5.4810476,40.906942 5.4298502,40.702152 5.3390792,40.33907 5.1616638,39.670806 5.1226655,39.319823 c -0.022614,-0.203538 0.0254,-0.411162 0,-0.61437 -0.026183,-0.209463 -0.1237392,-0.405397 -0.1535922,-0.61437 -0.021722,-0.152049 0,-0.307184 0,-0.460775 -0.051198,-0.153593 -0.1218411,-0.302022 -0.1535925,-0.460777 -0.020082,-0.100407 0.024834,-0.207849 0,-0.307187 -0.027766,-0.111061 -0.1311407,-0.194926 -0.1535922,-0.307184 -0.030122,-0.150608 0,-0.307183 0,-0.460777 0,-0.20479 0,-0.40958 0,-0.614367 0,-0.409581 0,-0.819161 0,-1.228739 0,-0.767963 0,-1.535924 0,-2.303886 0,-0.307183 -0.025511,-0.615431 0,-0.921554 0.014049,-0.168595 0.2454691,-1.463225 0.3071847,-1.689515 0.085198,-0.312391 0.2141411,-0.611407 0.3071844,-0.921555 0.060657,-0.202189 0.086839,-0.414107 0.1535925,-0.614367 0.087186,-0.261559 0.2346412,-0.50197 0.3071844,-0.767961 0.8540388,-3.131476 -0.7774191,1.811935 0.4607769,-2.150293 0.1304748,-0.41752 0.3071847,-0.81916 0.4607772,-1.228739 0.3071844,-0.819159 0.6074965,-1.640928 0.9215538,-2.457477 0.2736969,-0.711612 0.5826445,-1.318881 0.9215538,-1.9967 0.1023948,-0.20479 0.1741032,-0.428055 0.3071847,-0.614369 0.126252,-0.176753 0.3194169,-0.295857 0.4607769,-0.460777 0.1665941,-0.19436 0.3119874,-0.406064 0.4607769,-0.614369 0.3217132,-0.450399 0.5998402,-0.931932 0.9215532,-1.382331 0.14879,-0.208305 0.311988,-0.406064 0.460777,-0.614369 0.214588,-0.300423 0.40958,-0.614369 0.61437,-0.921554 0.102394,-0.153592 0.191868,-0.316633 0.307184,-0.460777 0.09046,-0.113076 0.216724,-0.194108 0.307185,-0.307185 0.278732,-0.179575 0.281659,-0.529137 0.460777,-0.767961 0.403083,-0.537445 0.165846,-0.124385 0.614369,-0.460777 0.231693,-0.17377 0.373394,-0.453719 0.614369,-0.614369 0.190508,-0.127006 0.4312,-0.169808 0.614369,-0.307185 0.231693,-0.17377 0.388217,-0.433447 0.614369,-0.614369 0.288289,-0.230631 0.633265,-0.383738 0.921554,-0.614369 0.226153,-0.180922 0.396411,-0.423656 0.61437,-0.6143698 2.213319,-1.936654 -0.645154,0.6656218 1.075146,-0.767961 1.094546,-1.0945462 -0.147627,0.08738 0.921553,-0.767962 0.113077,-0.09046 0.183013,-0.2326812 0.307185,-0.3071844 0.138829,-0.083297 0.321949,-0.070295 0.460777,-0.1535922 0.248344,-0.1490065 0.382676,-0.4405996 0.614369,-0.6143694 0.09159,-0.068689 0.20479,-0.1023948 0.307185,-0.1535922 0.102395,-0.051197 0.198578,-0.1173904 0.307184,-0.1535922 0.20026,-0.066753 0.425563,-0.059189 0.61437,-0.1535925 0.12952,-0.06476 0.183012,-0.2326812 0.307184,-0.3071844 0.138829,-0.083297 0.307185,-0.1023951 0.460777,-0.1535925 0.153593,-0.051197 0.307185,-0.1023948 0.460777,-0.1535922 0.306038,-0.1020128 0.766572,-0.268613 1.075146,-0.3071847 0.203209,-0.0254 0.411161,0.0254 0.614369,0 0.209463,-0.026183 0.40958,-0.1023948 0.61437,-0.1535922 0.342061,-0.085515 1.057346,-0.2746862 1.382331,-0.3071847 0.254716,-0.025471 0.511974,0 0.767961,0 0.307184,0 0.61437,0 0.921554,0 0.767961,0 1.535922,0 2.303883,0 1.638319,0 3.276637,0 4.914956,0 0.358381,0 0.716764,0 1.075145,0 0.255987,0 0.51354,-0.028269 0.767961,0 0.209801,0.023312 0.40958,0.1023948 0.61437,0.1535922 0.867632,0.2169081 0.407377,0.1121939 1.382332,0.3071847 0.672549,0.1345102 1.331579,0.2944968 1.996699,0.4607769 0.20479,0.051197 0.420344,0.070439 0.61437,0.1535925 0.16967,0.072715 0.291106,0.2344689 0.460775,0.3071844 0.388051,0.1663067 0.84069,0.1408779 1.228741,0.3071847 0.169669,0.072715 0.307184,0.2047898 0.460774,0.3071847 0.307187,0.2047896 0.614371,0.4095794 0.921555,0.6143691 0.153593,0.102395 0.300503,0.2156004 0.460777,0.3071844 0.477993,0.273139 0.666924,0.274185 1.075147,0.614369 0.166868,0.139056 0.29391,0.321722 0.460778,0.460778 0.141808,0.118174 0.316632,0.191868 0.460774,0.307184 0.113078,0.09046 0.194109,0.216724 0.307187,0.307185 0.144145,0.1153148 0.316632,0.1918688 0.460777,0.3071838 0.226152,0.180922 0.409577,0.40958 0.614368,0.614369 0.102396,0.102395 0.2203,0.191339 0.307183,0.307185 0.13738,0.18317 0.16981,0.4312 0.307187,0.614369 0.08688,0.115847 0.2203,0.191338 0.307184,0.307185 0.08307,0.110762 0.403032,0.777194 0.460777,0.921554 0.06013,0.150321 0.08119,0.315969 0.153593,0.460777 0.08255,0.165106 0.212209,0.302488 0.307184,0.460777 0.0589,0.09817 0.102394,0.204789 0.153591,0.307184 0.102396,0.20479 0.216993,0.40392 0.307186,0.61437 0.371319,0.86641 -0.08252,0.03594 0.307184,1.075146 0.08039,0.214383 0.22679,0.399985 0.307184,0.614369 0.07412,0.197652 0.07044,0.420345 0.153593,0.614369 0.07272,0.16967 0.215599,0.300504 0.307184,0.460777 0.113596,0.198795 0.20479,0.409579 0.307184,0.614369 0.102397,0.20479 0.234781,0.397157 0.307187,0.614369 0.08255,0.247661 0.07858,0.517915 0.15359,0.767962 0.07922,0.264079 0.219999,0.506403 0.307187,0.767962 0.06675,0.200259 0.07947,0.416717 0.153591,0.614369 0.08039,0.214383 0.22679,0.399985 0.307186,0.614369 0.147632,0.393689 0.121523,0.703827 0.307184,1.075146 0.08258,0.165171 0.403304,0.538071 0.460777,0.767962 0.02484,0.09934 -0.02484,0.207847 0,0.307184 0.02776,0.111063 0.125825,0.196122 0.153591,0.307185 0.02484,0.09934 -0.03238,0.210044 0,0.307184 0.02289,0.06869 0.102396,0.102395 0.153593,0.153593 0.0512,0.102395 0.131141,0.194928 0.153593,0.307185 0.03012,0.150609 -0.03012,0.310166 0,0.460777 0.0449,0.224515 0.251653,0.392242 0.307184,0.614368 0.06209,0.248346 -0.04208,0.515459 0,0.767961 0.02662,0.1597 0.126976,0.30108 0.153593,0.460777 0.0505,0.303006 -0.0505,0.618551 0,0.921555 0.02661,0.159697 0.126977,0.30108 0.153591,0.460777 0.02524,0.151503 0,0.307184 0,0.460777 0,0.307184 0,0.614368 0,0.921554 0,0.358381 0,0.716764 0,1.075145 0,0.153593 0.02172,0.308729 0,0.460777 -0.02985,0.208971 -0.115829,0.406683 -0.153591,0.614371 -0.06476,0.356179 -0.07068,0.722749 -0.153593,1.075145 -0.10686,0.454149 -0.740164,2.434545 -0.921554,2.918253 -0.136906,0.365083 -0.320807,0.711227 -0.460777,1.075148 -0.890162,2.314419 0.107886,-0.170064 -0.460777,1.535922 -0.0362,0.108606 -0.125826,0.196122 -0.153591,0.307184 -0.02484,0.09934 0.04579,0.215601 0,0.307186 -0.02289,0.04579 -0.11739,-0.0362 -0.153593,0 -0.0362,0.0362 0.02289,0.1078 0,0.153591 -0.03238,0.06476 -0.11343,0.09335 -0.153594,0.153593 -0.0635,0.09525 -0.102393,0.20479 -0.15359,0.307184 -0.153594,0.307184 -0.307187,0.614371 -0.460777,0.921555 -0.373304,0.746606 -0.617369,1.277331 -1.075148,1.996699 -0.137433,0.215966 -0.318781,0.401375 -0.460777,0.61437 -0.0635,0.09525 -0.09009,0.211931 -0.153591,0.307184 -0.04016,0.06024 -0.121213,0.08883 -0.153593,0.153593 -0.02289,0.04579 0.02289,0.1078 0,0.153591 -0.03238,0.06476 -0.102394,0.102396 -0.153591,0.153593 -0.102396,0.102394 -0.223017,0.189349 -0.307186,0.307184 -0.173517,0.242925 -0.285189,0.526532 -0.460777,0.767961 -0.235189,0.323387 -0.514753,0.612077 -0.767961,0.921555 -0.20759,0.253722 -0.382564,0.536156 -0.614368,0.767961 -0.13053,0.130529 -0.330251,0.176657 -0.460777,0.307186 -0.187074,0.187071 -0.07195,0.343157 -0.307187,0.460777 -0.04579,0.02289 -0.11739,-0.0362 -0.153591,0 -0.0362,0.0362 0.0362,0.117391 0,0.153591 -0.161901,0.161901 -0.431199,0.169807 -0.61437,0.307184 -0.390144,0.292608 -0.224224,0.321762 -0.614368,0.61437 -0.183171,0.137377 -0.423862,0.180179 -0.61437,0.307184 -0.06024,0.04016 -0.09335,0.11343 -0.153591,0.153593 -0.190508,0.127006 -0.423862,0.180179 -0.61437,0.307184 -0.06024,0.04016 -0.09335,0.11343 -0.153594,0.153594 -0.09525,0.0635 -0.204787,0.102393 -0.307183,0.15359 -0.204791,0.102397 -0.409581,0.20479 -0.614368,0.307187 -0.511977,0.255987 -1.023951,0.511974 -1.535925,0.767961 -0.102394,0.0512 -0.211931,0.09009 -0.307184,0.153593 -0.351467,0.23431 0.09604,0.121579 -0.460777,0.307184 -0.09714,0.03238 -0.215601,-0.04579 -0.307184,0 -0.129521,0.06476 -0.186698,0.226859 -0.307186,0.307184 -0.28288,0.188587 -0.629865,0.285766 -0.921552,0.460777 -0.15829,0.09497 -0.30249,0.212212 -0.460777,0.307184 -0.290595,0.174358 -0.618345,0.309173 -0.921555,0.460777 -0.20479,0.102396 -0.397158,0.234781 -0.61437,0.307184 -0.105646,0.03522 -0.370152,-0.04531 -0.460777,0 -0.06476,0.03238 -0.08883,0.121213 -0.153591,0.153593 -0.04579,0.02289 -0.102396,0 -0.153593,0 -0.0512,0 -0.102394,0 -0.153591,0 -0.358383,0 -0.716764,0 -1.075147,0 -0.153594,0 -0.311769,-0.03725 -0.460777,0 -0.07024,0.01757 -0.0849,0.130696 -0.153591,0.153593 -0.145711,0.04857 -0.307187,0 -0.460777,0 -0.255987,0 -0.511974,0 -0.767964,0 -0.460774,0 -0.921552,0 -1.382329,0 -0.106061,0 -0.567671,0.02334 -0.61437,0 -0.06476,-0.03238 -0.08883,-0.121213 -0.153591,-0.153593 -0.04579,-0.02289 -0.102396,0 -0.153593,0 -0.102396,0 -0.210045,0.03238 -0.307184,0 -0.06869,-0.02289 -0.0849,-0.130696 -0.153593,-0.153593 -0.09714,-0.03238 -0.210045,0.03238 -0.307184,0 -0.06869,-0.02289 -0.0849,-0.130694 -0.153593,-0.153591 -0.09714,-0.03238 -0.210045,0.03238 -0.307184,0 -0.06869,-0.02289 -0.09335,-0.113429 -0.153594,-0.153593 -0.09525,-0.0635 -0.211931,-0.09009 -0.307183,-0.153591 -0.06024,-0.04016 -0.09335,-0.113432 -0.153594,-0.153593 -0.09525,-0.0635 -0.226234,-0.07264 -0.307184,-0.153593 -0.08095,-0.08095 -0.07264,-0.226235 -0.153593,-0.307184 -0.08095,-0.08095 -0.211929,-0.09009 -0.307184,-0.153593 -0.0651,-0.0434 -0.429003,-0.397227 -0.460777,-0.460777 -0.02289,-0.04579 0.02289,-0.1078 0,-0.153591 -0.03238,-0.06476 -0.121211,-0.08883 -0.153591,-0.153593 -0.02289,-0.04579 0.0362,-0.117391 0,-0.153591 -0.0362,-0.0362 -0.11739,0.0362 -0.153593,0 -0.0362,-0.0362 0,-0.102396 0,-0.153593 0,-0.0512 0,-0.102394 0,-0.153593"
       id="path1" />
    <path
       style="fill:none;stroke:#747474;stroke-width:2;stroke-linecap:butt;stroke-linejoin:miter;stroke-opacity:1;stroke-dasharray:none"
       d="m 34.865452,32.407976 c -0.102393,0.0512 -0.193852,0.137403 -0.307183,0.153593 -0.253413,0.0362 -0.511974,0 -0.767962,0 -0.511974,0 -1.023948,0 -1.535922,0 -0.20479,0 -0.469561,0.144809 -0.61437,0 -0.144809,-0.144809 0,-0.40958 0,-0.61437 0,-0.511974 -0.02225,-1.024432 0,-1.535922 0.029,-0.666904 0.03204,-1.340326 0.153593,-1.9967 0.331722,-1.791297 0.694881,-2.501449 1.689516,-3.9934 0.323799,-0.485702 0.662379,-0.969564 1.075145,-1.382331 0.106336,-0.106336 0.879345,-0.935623 1.382331,-0.767961 0.247793,0.0826 0.296571,0.725512 0.307184,0.767961 0.138845,0.555384 0.321482,0.938888 0,1.535923 -0.597329,1.109327 -1.699882,1.599544 -2.76466,2.150293 -2.21691,1.146678 -2.737451,1.341078 -5.068547,1.996699 -0.812834,0.228611 -1.62388,0.479917 -2.457477,0.614371 -0.759846,0.122555 -1.536877,0.08967 -2.303885,0.15359 -0.462011,0.0385 -0.918718,0.153594 -1.38233,0.153594 -0.07102,0 -0.551321,-0.118039 -0.61437,-0.307184 -0.03238,-0.09714 0,-0.20479 0,-0.307187 0,-0.285001 -0.0426,-0.316955 0.460777,-0.460777 0.19691,-0.05626 0.40958,0 0.614369,0 0.20479,0 0.40958,0 0.61437,0 0.204789,0 0.415694,-0.04967 0.614369,0 0.483025,0.120756 0.946271,0.544933 1.228738,0.921554 0.444562,0.592749 0.307185,0.783037 0.307185,1.535925 0,0.669989 0.09714,1.23662 -0.307185,1.843106 -0.235291,0.352938 -1.022527,0.660022 -1.382331,0.767961 -0.250046,0.07502 -0.50892,0.121214 -0.767961,0.153593 -0.152406,0.01905 -0.352171,0.108607 -0.460777,0 -0.149265,-0.149264 -0.115831,-0.40668 -0.153592,-0.61437 -0.06476,-0.356179 -0.191491,-0.715113 -0.153592,-1.075145 0.217289,-2.06425 0.893894,-2.689622 2.457477,-4.300585 0.959451,-0.988526 2.004405,-1.893855 3.071845,-2.764661 1.070253,-0.8731 3.298013,-2.499231 4.761362,-3.071846 0.486214,-0.190258 1.017387,-0.24618 1.535922,-0.307185 0.989685,-0.116433 1.869538,0.03964 2.457477,0.921554 0.320146,0.480215 0.427723,1.314213 0.460777,1.843108 0.02874,0.45988 0.117266,0.936725 0,1.382331 -0.359182,1.364895 -1.427575,2.360321 -2.457476,3.225437 -0.674458,0.566547 -1.379054,1.110414 -2.150293,1.535925 -1.484019,0.818769 -2.824919,1.080617 -4.454176,1.382329 -1.274495,0.236019 -1.910691,0.470273 -3.071846,0.153593 -0.220895,-0.06024 -0.511975,-0.102394 -0.614369,-0.307184 -0.184595,-0.369191 -0.13298,-0.816488 -0.153593,-1.228738 -0.03068,-0.613603 -0.11187,-1.239009 0,-1.843109 0.378377,-2.043234 1.024451,-2.838049 2.303885,-4.454176 0.427533,-0.540044 0.880754,-1.063851 1.38233,-1.535924 0.641731,-0.603982 1.278125,-1.083377 2.150293,-1.228738 0.303006,-0.0505 0.630134,-0.09714 0.921554,0 0.865261,0.28842 1.325287,1.078227 1.689515,1.843108 0.306584,0.643827 0.578329,1.309279 0.767961,1.9967 0.442696,1.604772 0.626925,3.25348 0.460777,4.914952 -0.07294,0.729399 -0.14357,1.489446 -0.460777,2.150293 -0.554257,1.154705 -1.837285,2.146967 -2.918253,2.764663 -0.537112,0.306922 -1.092692,0.605192 -1.689516,0.767961 -0.287602,0.07844 -2.051743,0.209524 -2.611069,0.153593 -0.210045,-0.02101 -0.50249,0.0254 -0.614369,-0.153593 -0.19187,-0.306993 -0.11757,-0.714923 -0.153592,-1.075148 -0.06642,-0.664217 -0.23639,-1.33432 -0.153593,-1.996699 0.382852,-3.062811 1.948994,-5.591516 4.146994,-7.679615 0.999228,-0.949267 1.334114,-1.21207 2.611067,-1.382331 0.523142,-0.06975 1.692285,-0.02591 2.150292,0.307185 0.298577,0.217147 0.439338,0.596493 0.614371,0.921554 0.563179,1.045904 0.55431,1.34984 0.614368,2.61107 0.02679,0.562534 0.105378,1.136288 0,1.689516 -0.103175,0.541673 -0.367769,1.042723 -0.614368,1.535922 -0.710946,1.421895 -0.826723,1.557493 -1.996699,2.457476 -0.29263,0.2251 -0.580764,0.472374 -0.921555,0.614371 -1.091094,0.45462 -2.07164,-0.126344 -2.457476,-1.228738 -0.222459,-0.635593 -0.253487,-1.325449 -0.307187,-1.996702 -0.108376,-1.354712 -0.116181,-3.325863 1.075148,-4.300584 0.250608,-0.205043 0.602157,-0.253952 0.921554,-0.307185 0.464741,-0.07746 1.293794,-0.04457 1.689516,0.307185 0.716872,0.637221 0.806579,1.576008 0.921551,2.457478 0.171016,1.311113 0.289333,2.862516 -0.15359,4.146991 -0.752182,2.181323 -2.316041,3.906108 -4.454179,4.761363 -0.692129,0.276849 -1.412893,0.505124 -2.150292,0.614367 -1.042682,0.154472 -2.493276,0.153284 -3.37903,-0.614367 -1.057614,-0.916602 -1.31049,-2.582588 -1.382331,-3.839808 -0.0627,-1.097325 0.143299,-4.282572 0.767962,-5.375733 0.638547,-1.117457 2.787882,-2.65615 3.993399,-3.071845 0.732435,-0.252564 1.530964,-0.25388 2.303886,-0.307185 1.591561,-0.109763 3.708987,-0.09811 5.068546,0.921554 0.262257,0.196694 0.445706,0.486854 0.614367,0.767961 0.15103,0.251714 0.492779,1.215932 0.460778,1.535924 -0.147638,1.476391 -2.337483,2.063528 -3.379031,2.303884 -1.26302,0.291467 -2.550025,0.485391 -3.839808,0.61437 -1.274601,0.12746 -2.559178,0.124487 -3.839806,0.153591 -0.544074,0.01236 -4.066531,0.139356 -4.914954,-0.307184 -1.032857,-0.543608 -1.228739,-2.332437 -1.228739,-3.225438 0,-0.673396 0.01578,-1.389618 0.307185,-1.9967 0.856275,-1.783908 2.729722,-2.712764 4.454177,-3.379031 2.784075,-1.075665 5.469488,-1.425623 8.447577,-1.535923 1.350933,-0.05003 4.624411,0.08846 6.143691,0.614369 0.564213,0.195305 1.050076,0.57452 1.535925,0.921554 0.23567,0.168336 0.484849,0.355329 0.614368,0.614369 0.09159,0.18317 0.02896,0.411638 0,0.614369 -0.10663,0.746409 -0.612061,0.88982 -1.382332,1.228739 -1.565942,0.689015 -4.609071,1.529208 -6.143691,1.843107 -1.06403,0.217643 -2.152666,0.291393 -3.225437,0.460777 -0.87299,0.13784 -1.736149,0.335788 -2.611071,0.460777 -0.55981,0.07997 -1.125122,0.118319 -1.689515,0.153593 -0.310815,0.01942 -0.846023,0.148532 -0.921554,-0.153593 -0.171406,-0.685625 0.509782,-1.193874 1.075147,-1.38233 0.49532,-0.165107 1.018194,-0.239655 1.535922,-0.307185 0.661928,-0.08634 1.329625,-0.178299 1.9967,-0.153592 1.252236,0.04638 2.913142,0.354973 3.993401,1.075146 0.852919,0.568613 1.918962,1.955948 2.303884,2.918254 0.193907,0.484769 0.242424,1.017841 0.307183,1.535922 0.07167,0.573376 -0.0435,1.881989 -0.307183,2.303885 -1.210361,1.936581 -4.738556,1.797598 -6.604469,1.843109 -1.755544,0.04282 -3.999909,0.227134 -5.682915,-0.61437 -1.418631,-0.709316 -2.414085,-2.070532 -2.918254,-3.532624 -0.271692,-0.787906 -0.377848,-1.628177 -0.460777,-2.457477 -0.129916,-1.299159 -0.109281,-2.824426 0.614369,-3.993399 0.793469,-1.281758 1.970324,-1.81026 3.379031,-2.150292 2.216598,-0.535041 4.764619,-0.470328 6.604468,1.075146 1.663793,1.397584 2.445213,3.017744 3.071847,5.068545 0.258265,0.84523 0.354428,1.733688 0.460777,2.61107 0.09876,0.814795 0.124299,1.637242 0.153591,2.457476 0.03533,0.989206 0.219591,2.067796 -0.460774,2.918254 -0.186492,0.233114 -0.492398,0.345959 -0.767964,0.460777 -0.94035,0.391814 -1.733418,0.448233 -2.76466,0.153593 -0.772721,-0.220776 -2.27724,-1.219438 -2.918255,-1.689515 -0.322453,-0.236466 -0.529454,-0.689541 -0.921553,-0.767961 -0.251016,-0.0502 -0.40958,0.307184 -0.614369,0.460777"
       id="path3" />
  </g>
</svg>
