<?xml version="1.0" encoding="UTF-8" standalone="no"?>
<!-- Created with Inkscape (http://www.inkscape.org/) -->

<svg
   width="500mm"
   height="940mm"
   viewBox="0 0 500 940"
   version="1.1"
   id="svg5"
   inkscape:version="1.3 (0e150ed, 2023-07-21)"
   sodipodi:docname="container-blue.svg"
   xml:space="preserve"
   xmlns:inkscape="http://www.inkscape.org/namespaces/inkscape"
   xmlns:sodipodi="http://sodipodi.sourceforge.net/DTD/sodipodi-0.dtd"
   xmlns="http://www.w3.org/2000/svg"
   xmlns:svg="http://www.w3.org/2000/svg"><sodipodi:namedview
     id="namedview7"
     pagecolor="#ffffff"
     bordercolor="#666666"
     borderopacity="1.0"
     inkscape:pageshadow="2"
     inkscape:pageopacity="0.0"
     inkscape:pagecheckerboard="0"
     inkscape:document-units="mm"
     showgrid="false"
     inkscape:zoom="0.11778471"
     inkscape:cx="1252.2848"
     inkscape:cy="1859.3246"
     inkscape:window-width="1440"
     inkscape:window-height="777"
     inkscape:window-x="0"
     inkscape:window-y="25"
     inkscape:window-maximized="1"
     inkscape:current-layer="layer1"
     inkscape:showpageshadow="2"
     inkscape:deskcolor="#d1d1d1" /><defs
     id="defs2"><inkscape:path-effect
       effect="powerclip"
       id="path-effect7"
       is_visible="true"
       lpeversion="1"
       inverse="true"
       flatten="false"
       hide_clip="false"
       message="Use fill-rule evenodd on &lt;b&gt;fill and stroke&lt;/b&gt; dialogue if no flatten result after convert clip to paths." /><clipPath
       clipPathUnits="userSpaceOnUse"
       id="clipPath7"><circle
         style="display:none;fill:#333333;fill-opacity:0.15;stroke:#333333;stroke-width:0;stroke-linecap:butt;stroke-linejoin:bevel;stroke-dasharray:none;stroke-opacity:1"
         id="circle7"
         cx="1043.5747"
         cy="447.42966"
         r="17.5" /></clipPath></defs><g
     inkscape:label="Layer 1"
     inkscape:groupmode="layer"
     id="layer1"><path
       style="fill:none;stroke:#3a80b3;stroke-width:30;stroke-linecap:butt;stroke-linejoin:miter;stroke-opacity:1;stroke-dasharray:none"
       d="m 56.894335,136.0994 c -0.123841,-5.89095 -3.252039,-34.34048 1.510247,-46.246195 1.621523,-4.053805 4.492662,-7.487769 6.73899,-11.231652 11.393691,-18.989484 1.779683,-3.839353 13.477981,-20.216971 1.569201,-2.196878 2.764322,-4.664982 4.492662,-6.73899 2.71164,-3.25397 5.990212,-5.990212 8.985319,-8.985319 1.497555,-1.497555 2.995107,-2.995107 4.492662,-4.492662 0.748776,-0.748776 1.299194,-1.772761 2.246328,-2.246328 0.11752,-0.05876 6.621476,-0.05876 6.738986,0 0.94714,0.473567 1.91147,1.241739 2.24634,2.246328 0.47356,1.420704 0,2.995107 0,4.492662 0,5.241435 0,10.482874 0,15.724309 0,7.487769 0,14.975536 0,22.463302 0,2.246331 0.36929,4.523224 0,6.73899 -0.38928,2.335623 -1.78196,4.417132 -2.24634,6.738991 -0.29369,1.468472 0.47357,3.071955 0,4.492659 -0.33486,1.004591 -1.49755,1.497556 -2.24632,2.246326 -0.74878,0.74878 -1.2992,1.77277 -2.24634,2.24634 -0.68363,0.34181 -5.727332,0 -6.738985,0 -1.174652,0 -8.394668,0.29532 -8.985322,0 -3.117998,-1.559 -2.246328,-3.996943 -2.246328,-6.738994 0,-0.748779 0.748776,-2.246331 0,-2.246331 -0.748779,0 0,1.497552 0,2.246331 0,2.246328 0,4.492654 0,6.738994 0,5.99021 0,11.98042 0,17.97064 0,0.74877 0,1.49755 0,2.24633 0,0.74877 0.529463,1.71686 0,2.24633 -0.529466,0.52946 -1.497555,0 -2.246331,0 -0.748776,0 -1.576604,0.33486 -2.246331,0 -3.810357,-1.90518 -1.532014,-3.16742 -2.246328,-6.739 -0.464373,-2.32185 -1.85706,-4.40336 -2.246331,-6.73899 -0.369295,-2.21576 0,-4.49265 0,-6.73899 0,-1.49755 -0.473567,-3.07195 0,-4.49266 0.334862,-1.00458 1.497552,-1.497547 2.246331,-2.246326 0.748776,-0.748776 1.241739,-1.911466 2.246328,-2.246328 1.420704,-0.47357 2.995107,0 4.492662,0 2.995107,0 5.990212,0 8.985319,0 6.73899,0 13.477976,0 20.216966,0 0.13467,0 16.60967,-0.45366 17.97065,0 1.00459,0.334862 1.77276,1.299194 2.24633,2.246328 0.33486,0.669727 0,1.497556 0,2.246326 0,1.49756 0,2.99511 0,4.49266 0,3.55878 0.66972,6.06927 -2.24633,8.98533 -1.46654,1.46653 -10.17896,4.31721 -11.23166,4.49265 -2.21576,0.3693 -4.49265,0 -6.73899,0 -2.24632,0 -4.65332,0.83427 -6.73899,0 -5.719811,-2.28792 -7.102934,-11.01835 -8.985314,-15.7243 -0.621827,-1.55457 -1.716866,-2.90427 -2.246331,-4.492666 -0.236784,-0.710351 0,-1.497552 0,-2.246328 0,-1.497555 -0.473567,-3.071958 0,-4.492662 1.203049,-3.609152 4.160371,-1.816561 6.738985,-2.246329 3.04529,-0.507547 5.92188,-1.863399 8.98533,-2.246331 2.97197,-0.371496 5.99021,0 8.98531,0 2.99511,0 5.99022,0 8.98533,0 3.74388,0 7.51667,-0.464373 11.23165,0 3.26172,0.407715 11.65375,4.002641 13.47798,6.738991 1.71251,2.568776 1.49755,5.990215 2.24633,8.985325 0.74877,2.9951 2.24633,5.89803 2.24633,8.98531 0,3.81803 -1.03897,7.60956 -2.24633,11.23166 -2.8216,8.4648 -7.3404,13.77868 -15.72431,17.97064 -6.25483,3.12741 -18.45368,2.24633 -24.70963,2.24633 -3.74389,0 -7.81045,1.52053 -11.23165,0 -6.273807,-2.78836 -12.783334,-14.92321 -15.724316,-20.21697 -1.62624,-2.92723 -3.572721,-5.76554 -4.492659,-8.98532 -0.617114,-2.1599 0,-4.49266 0,-6.73899 0,-1.49756 0,-2.99511 0,-4.49266 0,-0.74878 -0.62302,-1.83099 0,-2.24634 1.970162,-1.313437 4.462253,-1.595829 6.73899,-2.246326 2.968498,-0.84814 5.916917,-1.905397 8.985319,-2.246328 3.720986,-0.413444 7.487766,0 11.231656,0 3.74388,0 7.48776,0 11.23165,0 4.49266,0 8.98532,0 13.47798,0 7.98695,0 11.16651,-1.339453 17.97064,4.492654 8.47165,7.26142 8.25182,13.70725 8.98532,24.70964 0.96414,14.4621 0.75094,24.87217 -6.73899,38.18761 -6.17275,10.97377 -17.30798,20.46166 -29.20229,24.70963 -4.9862,1.78078 -10.44312,1.8691 -15.72431,2.24633 -13.918026,0.99414 -17.669402,2.36492 -26.955965,-8.98532 C 72.037534,168.41458 72.682594,161.36581 71.882563,143.76513 71.026001,124.92077 70.406796,93.5753 85.360543,78.621553 97.790618,66.191481 118.28377,59.103974 134.77981,56.158254 c 11.08129,-1.978803 22.44505,-1.858405 33.69495,-2.246331 10.47665,-0.361265 20.97293,-0.387988 31.44862,0 16.11534,0.596865 48.51337,0.166465 58.40458,17.97064 2.93515,5.283266 3.00877,25.961932 2.24633,29.202287 -4.41413,18.76005 -16.51002,30.9892 -31.44862,42.68028 -11.20225,8.76697 -39.14526,24.28007 -53.91192,29.20229 -9.47728,3.15909 -19.3735,4.95194 -29.20229,6.73899 -5.78623,1.05204 -23.45913,3.13405 -31.44862,2.24633 -3.06841,-0.34094 -7.00889,0.12539 -8.98533,-2.24633 -2.44424,-2.93309 -1.56334,-7.47521 -2.24632,-11.23165 -0.81476,-4.48116 -1.89701,-8.93677 -2.24634,-13.47798 -0.40199,-5.226 -1.098228,-10.59922 0,-15.72431 4.42181,-20.63512 23.93233,-37.59045 42.68028,-44.926605 14.5833,-5.70651 38.02791,-8.228939 53.91192,-8.985322 13.06246,-0.622022 24.3005,-1.974437 35.94128,4.492662 2.77702,1.542786 5.44877,3.836001 6.73899,6.738991 1.84981,4.162074 1.94336,8.933434 2.24633,13.477984 0.44827,6.72406 2.44252,13.9362 0,20.21697 -3.09433,7.95686 -9.37853,14.50577 -15.72431,20.21697 -18.66203,16.79582 -40.87762,27.62846 -65.14357,33.69495 -22.80011,5.70002 -42.24966,4.49266 -65.143574,4.49266 -10.634742,0 -27.289485,4.07081 -29.202293,-11.23165 -0.464373,-3.71498 -0.615489,-7.53871 0,-11.23165 3.393625,-20.36176 8.947873,-24.44354 29.202293,-38.18761 25.090974,-17.02602 53.608664,-27.48326 83.114214,-33.694955 13.27004,-2.793693 26.93608,-3.186414 40.43394,-4.49266 9.71746,-0.9404 19.45049,-1.781958 29.20229,-2.246331 5.98344,-0.284924 12.00112,-0.497459 17.97063,0 3.07663,0.256384 6.80228,0.06329 8.98533,2.246331 2.85126,2.851256 3.87954,7.246252 4.49266,11.231645 4.15194,26.98764 -11.61577,46.84209 -31.44862,62.89725 -8.39347,6.79472 -17.2204,13.29757 -26.95596,17.97064 -9.18153,4.40713 -19.32191,6.51522 -29.20229,8.98532 -14.02484,3.50621 -26.47447,6.89949 -40.43394,2.24633 -6.50685,-2.16895 -6.73899,-14.32713 -6.73899,-17.97064 0,-20.25469 2.38092,-31.58321 17.97064,-47.17293 9.84862,-9.84862 21.88399,-17.32778 33.69495,-24.70963 12.21373,-7.633582 24.71668,-15.119864 38.18761,-20.216975 14.43748,-5.462831 29.75922,-8.362148 44.9266,-11.231652 23.26076,-4.400685 44.04918,-5.42629 67.3899,-4.49266 9.00927,0.360371 18.03014,0.971209 26.95596,2.246331 11.14192,1.591699 23.44079,1.954964 29.2023,13.477981 2.03689,4.073784 1.89701,8.936765 2.24634,13.477981 0.40198,5.225994 1.65748,10.751844 0,15.724304 -4.94446,14.83337 -18.72292,26.17521 -31.44864,33.69496 -27.34381,16.15771 -54.24554,20.82567 -85.36054,22.4633 -5.98193,0.31484 -11.98043,0 -17.97063,0 -1.39618,0 -15.39796,1.18392 -17.97065,-2.24633 -1.3478,-1.79707 0,-4.49266 0,-6.73899 0,-4.49266 -0.32009,-8.99674 0,-13.47798 0.43011,-6.02149 -0.20546,-12.45412 2.24633,-17.97064 8.74623,-19.67903 23.88111,-30.068587 40.43394,-42.680277 18.03813,-13.743336 21.75436,-17.539559 42.68029,-22.463299 5.87634,-1.382673 11.95157,-1.783326 17.97063,-2.246331 3.73285,-0.287142 7.48776,0 11.23164,0 1.49757,0 3.59413,-1.198044 4.49268,0 1.85237,2.469827 1.64086,5.957988 2.24631,8.985321 0.89323,4.466183 2.99511,8.985319 2.24634,13.477981 -0.82577,4.954603 -3.95277,9.298636 -6.73899,13.477981 -15.14663,22.719964 -36.34301,31.652314 -62.89725,33.694954 -1.7925,0.13788 -16.62261,1.34803 -20.21697,-2.24633 -6.61319,-6.61318 -5.49154,-19.46445 -4.49266,-26.95597 2.41599,-18.119958 5.38544,-17.548947 20.21697,-29.202287 5.06484,-3.979524 9.88738,-8.507751 15.72432,-11.23165 10.21538,-4.767178 22.69578,-5.338749 33.69496,-4.492659 4.5412,0.349324 9.33159,0.361608 13.47798,2.246328 15.94773,7.248977 17.71176,23.156479 20.21697,38.187614 0.74877,4.492654 1.79311,8.945954 2.24631,13.477984 0.29803,2.98024 0,5.99021 0,8.98531 0,0.74878 0.52948,1.71687 0,2.24634 -1.1839,1.18392 -2.86832,1.84024 -4.49265,2.24633 -1.45285,0.36321 -2.99511,0 -4.49265,0 -1.49757,0 -3.07197,0.47356 -4.49268,0 -5.52559,-1.84187 -4.83645,-19.02533 -4.49265,-22.46331 0.81515,-8.151606 2.89774,-16.375721 8.98533,-22.463297 8.72786,-8.727882 17.66083,-10.814568 29.20227,-13.477981 4.43799,-1.024151 8.94207,-1.833972 13.47798,-2.246328 3.72851,-0.338955 7.48779,0 11.23167,0 1.49754,0 2.99511,0 4.49265,0 0.74877,0 1.91146,-0.669727 2.24634,0 0.66971,1.33945 0,2.995107 0,4.492659 0,2.995107 0.72641,6.079641 0,8.985322 -2.6121,10.448313 -15.88709,21.441872 -24.70965,26.955965 -2.83961,1.77477 -5.99019,2.9951 -8.9853,4.49266 -5.16239,2.58119 -2.81834,2.24633 -6.73899,2.24633 -0.7488,0 -1.91148,0.66972 -2.24634,0 -0.66971,-1.33946 0,-2.99511 0,-4.49267 0,-2.24632 0,-4.49266 0,-6.738986 0,-0.748776 -0.33486,-1.576602 0,-2.246328 0.47358,-0.947137 1.29918,-1.772764 2.24634,-2.246331 0.66971,-0.334862 1.49754,0 2.24631,0 0.7488,0 1.831,-0.62302 2.24634,0 3.43024,5.145375 2.24634,12.506705 2.24634,17.970635 0,2.24634 0,4.49267 0,6.73899 0,2.24634 0,4.49267 0,6.739 0,0.74877 0.33486,1.5766 0,2.24633 -0.47358,0.94713 -1.29921,1.77276 -2.24634,2.24633 -2.99511,1.49755 -2.24634,-0.74878 -2.24634,-2.24633 0,-4.49266 -0.73858,-9.04645 0,-13.47798 0.27527,-1.65154 1.20042,-3.18524 2.24634,-4.49266 8.27535,-10.344172 12.55141,-8.98533 24.70962,-8.98533 4.55689,0 9.20464,-1.588389 11.23167,4.49266 9.84605,29.53816 -12.64721,51.01944 -33.69495,67.38991 -6.39318,4.97246 -13.62633,8.77038 -20.21697,13.47798 -12.23076,8.73625 -7.86688,7.41572 -17.97066,13.47798 -1.43571,0.86143 -2.81834,2.24633 -4.49265,2.24633 -3.45758,0 -2.85613,-7.98994 -2.24634,-13.47798 1.0876,-9.78838 1.83719,-19.71843 4.49268,-29.20229 6.05835,-21.63695 12.67269,-30.8492 26.95596,-47.17294 4.88116,-5.57848 10.02985,-10.97893 15.72429,-15.724304 4.42082,-3.684 21.90348,-15.608144 26.95596,-4.492662 6.58993,14.497836 5.71717,46.771716 4.49268,58.404586 -4.57846,43.49513 -10.44382,55.33694 -31.44864,94.34586 -12.73947,23.65905 -29.53745,50.70116 -49.41924,69.63623 -16.14395,15.3752 -20.10736,15.28601 -38.18763,20.21697 -2.9785,0.81232 -6.64128,4.2555 -8.98531,2.24634 -9.15283,-7.84527 -8.75318,-38.89055 -8.98533,-44.9266 -0.77766,-20.21938 -1.3907,-39.18896 6.739,-58.40459 6.50761,-15.38166 21.67569,-36.7115 35.94129,-47.17293 4.59853,-3.37226 10.2412,-5.17239 15.72429,-6.73899 5.09095,-1.45455 10.70136,-3.92065 15.72432,-2.24633 13.67459,4.55819 17.13042,29.22515 17.97063,38.18761 3.24586,34.62234 -0.0775,63.83544 -13.47798,96.5922 -10.86437,26.55734 -34.09019,59.32252 -53.91192,80.86789 -13.85647,15.06138 -40.56388,38.57281 -62.89723,40.43394 -15.06911,1.25574 -13.89136,-6.16429 -15.72432,-20.21697 -4.34921,-33.34396 -2.94008,-73.02093 13.47798,-103.33119 4.56708,-8.43156 10.99929,-15.87926 17.97064,-22.46331 6.6449,-6.27574 13.88686,-12.56456 22.4633,-15.7243 6.32349,-2.32971 14.43834,-3.46718 20.21698,0 16.81395,10.08835 19.30532,48.49561 20.21697,60.65092 1.23203,16.42694 2.32965,33.11173 0,49.41924 -6.1917,43.34185 -29.04202,81.41811 -67.38991,103.33119 -9.66472,5.5227 -20.34554,10.43858 -31.44862,11.23165 -27.35369,1.95384 -44.22345,-12.07167 -56.15825,-35.94127 -7.31352,-14.62704 -11.36283,-30.95678 -13.47798,-47.17293 -6.89708,-52.87764 5.59026,-110.56104 42.68027,-150.50413 12.81602,-13.80186 39.62127,-28.32829 58.40458,-33.69495 6.51957,-1.86273 13.66547,-3.9934 20.21697,-2.24633 18.63265,4.9687 15.72432,23.95913 15.72432,38.18762 0,12.0038 0.75314,24.31825 -2.24633,35.94127 -5.92104,22.94403 -23.35115,47.18108 -40.43395,62.89725 -18.71566,17.21842 -35.07398,28.13658 -60.65091,29.2023 -8.36432,0.34851 -18.21233,0.78639 -24.70963,-4.49268 -7.0219,-5.70529 -9.17579,-15.89879 -11.23165,-24.70962 -7.53788,-32.3052 -6.05285,-63.07693 6.73899,-94.34587 12.31587,-30.10545 41.78646,-65.60931 67.3899,-85.36054 8.24089,-6.35725 51.92754,-32.57538 69.63624,-29.20229 22.66124,4.31643 26.13128,43.51309 26.95596,56.15825 1.3653,20.93464 2.2679,42.40957 -2.24634,62.89723 -5.35586,24.30743 -15.08908,47.75671 -26.95596,69.63625 -22.69215,41.83869 -56.9296,81.09471 -96.59219,107.82384 -15.83081,10.66858 -33.64068,18.42188 -51.66559,24.70962 -19.2833,6.72674 -55.37458,15.24675 -76.375225,2.24634 -21.074345,-13.04602 -20.216971,-49.17789 -20.216971,-67.3899 0,-19.52572 0.42921,-39.30637 4.49266,-58.40457 9.329864,-43.85038 33.712856,-75.93852 69.636236,-101.08487 6.84708,-4.79296 19.36357,-12.26489 29.20229,-8.98532 13.23772,4.41257 10.6944,14.59929 11.23165,26.95596 0.45535,10.47298 1.4825,21.0711 0,31.44862 -3.34782,23.43475 -9.56448,36.60319 -24.70963,53.91192 -7.70039,8.80044 -15.78974,15.17909 -26.95596,17.97066 -2.17926,0.5448 -5.1506,1.58837 -6.73899,0 -10.89338,-10.8934 -7.85281,-33.41714 -6.739,-44.92662 1.24508,-12.86579 2.2892,-26.0518 6.739,-38.18761 3.64742,-9.94751 24.99451,-39.99379 33.69495,-49.41926 0.68323,-0.74017 16.13693,-14.06084 20.21697,-13.47798 9.6078,1.37254 8.98532,20.65957 8.98532,31.44862 0,17.75511 -2.17224,69.02575 -8.98532,87.60689 -4.15644,11.33572 -24.85762,37.10283 -35.94128,44.92659 -8.0574,5.68756 -27.36895,12.77718 -38.18762,11.23164 -12.480712,-1.78295 -21.103789,-13.89211 -24.709626,-24.70962 -3.114408,-9.34323 -3.790976,-19.37869 -4.492659,-29.2023 -0.987962,-13.83147 -1.045202,-46.11402 4.492659,-60.65091 2.883297,-7.56865 8.173529,-14.09645 13.477981,-20.21698 11.363045,-13.1112 25.852485,-20.05932 42.680275,-22.46329 4.13695,-0.59099 6.09257,-0.6787 6.73899,4.49266 1.11609,8.92874 -0.4443,23.85793 -4.49266,31.44862 -4.91017,9.20657 -17.18382,20.19942 -26.95597,24.70964 -4.94944,2.28436 -10.3473,3.59649 -15.724304,4.49266 -3.692946,0.6155 -7.958908,1.81819 -11.231653,0 -12.244652,-6.8026 -10.770827,-22.63521 -11.231649,-33.69496 -0.725789,-17.41893 -1.454203,-46.51086 6.73899,-62.89724 8.737957,-17.47591 32.061656,-32.17921 49.419266,-38.18761 9.30681,-3.22159 19.39069,-3.63948 29.20229,-4.49266 12.45874,-1.08337 28.89508,-2.84154 38.18761,8.98532 4.98247,6.34132 6.94964,14.65988 8.98532,22.4633 2.48601,9.52969 5.22019,19.38058 4.49266,29.20229 -2.02098,27.28317 -15.24427,43.64435 -33.69495,62.89724 -15.48875,16.16217 -30.55486,26.97792 -51.66559,33.69495 -8.21972,2.61538 -33.231052,8.72236 -42.680275,0 -14.024348,-12.94554 -14.402493,-43.15013 -13.477981,-58.40458 1.550136,-25.57726 7.510026,-48.52573 22.4633,-69.63623 16.261006,-22.95671 42.094276,-36.9912 69.636236,-40.43394 1.81752,-0.22719 20.64913,-1.13742 24.70963,2.24633 6.8367,5.69725 4.49266,18.12134 4.49266,24.70963 0,9.13903 2.57211,22.99489 -6.73899,29.20229 -3.90058,2.60039 -3.23489,-5.62979 -2.24633,-11.23165 1.60957,-9.12092 2.85773,-18.54657 6.73899,-26.95596 10.89672,-23.60955 26.59365,-40.72379 47.17293,-56.15825 16.06374,-12.04781 31.30674,-20.21698 51.66559,-20.21698 5.45118,0 12.62144,0.0108 15.72431,4.49266 11.14309,16.09559 -1.90944,81.69446 -2.24633,83.11422 -13.8955,58.55963 -30.68196,91.18245 -62.89724,141.5188 -10.09077,15.76683 -21.4004,30.81062 -33.69495,44.92659 -12.16543,13.96772 -30.60878,28.7224 -47.17293,38.18763 -3.50101,2.00057 -7.31976,5.47063 -11.23165,4.49265 -3.6321,-0.90802 -5.8815,-5.34096 -6.73899,-8.98533 -2.23608,-9.50333 -3.42111,-19.51037 -2.24633,-29.20227 3.34702,-27.61292 16.55794,-64.20726 31.44862,-87.60688 7.41251,-11.64822 17.608,-21.28782 26.95596,-31.44863 7.88651,-8.57229 15.16703,-18.02981 24.70963,-24.70963 3.80579,-2.66405 28.89169,-10.96874 35.94128,-6.73899 4.30714,2.58429 5.91323,8.52338 6.73899,13.47798 2.2192,13.3151 3.84207,27.02983 2.24634,40.43394 -4.24721,35.67653 -17.20789,68.50827 -35.94129,98.83852 -7.00565,11.3425 -16.17495,21.20702 -24.70963,31.44864 -16.52705,19.83245 -15.84591,23.61687 -38.18761,29.20227 -2.90568,0.72644 -6.86746,2.11786 -8.98532,0 -6.95254,-6.95253 -5.21656,-37.29701 -4.49266,-40.43394 2.56453,-11.11295 7.15161,-21.95907 13.47798,-31.44861 7.34823,-11.02236 16.40903,-21.18662 26.95596,-29.2023 14.39476,-10.94002 40.42355,-17.97063 58.40458,-17.97063 9.10926,0 19.1832,-0.25736 26.95597,4.49265 15.34528,9.37768 20.5332,46.70404 20.21697,58.4046 -1.01425,37.52723 -15.98747,63.2179 -35.94129,94.34586 -15.32022,23.89955 -31.68525,43.47575 -53.91192,60.65092 -7.7252,5.96947 -15.67365,12.02777 -24.70963,15.72429 -10.24472,4.19103 -34.97185,8.47418 -44.9266,-2.24631 -11.62484,-12.51906 -12.14817,-57.53738 -11.23165,-67.38991 1.70024,-18.27757 4.78625,-36.72422 11.23165,-53.91192 13.41662,-35.77767 40.14909,-72.39892 67.3899,-98.83854 19.59519,-19.01886 40.65521,-37.01465 69.63623,-35.94127 10.17749,0.37693 21.44234,2.38935 29.2023,8.98531 18.361,15.60687 22.11877,60.70652 22.46329,78.62157 0.43288,22.509 0.12739,45.35588 -4.49265,67.3899 -10.51584,50.15243 -27.81086,84.07236 -58.40458,123.54814 -10.70798,13.81675 -22.25222,27.31688 -35.94129,38.18763 -20.64029,16.3908 -69.05522,42.50261 -94.34586,15.72429 -15.30309,-16.20327 -17.7078,-50.29729 -15.72432,-69.63621 1.64919,-16.07953 5.09656,-32.21863 11.23166,-47.17294 11.34348,-27.64975 33.95531,-54.84217 58.40458,-71.88258 12.36245,-8.61623 26.23265,-15.17779 40.43394,-20.21697 18.25447,-6.47739 36.59412,-9.33627 49.41927,8.98533 14.4085,20.58358 14.80696,62.29339 13.47798,83.11422 -1.16054,18.18151 -3.34512,36.58844 -8.98533,53.91193 -10.47324,32.1678 -25.61349,50.09716 -51.66559,69.63621 -10.47859,7.85895 -21.65576,15.05733 -33.69495,20.21697 -11.6341,4.98605 -37.13893,12.28035 -49.41926,0 -12.91988,-12.91987 -10.7753,-51.26236 -8.98532,-62.89722 5.3244,-34.60867 18.82989,-65.94107 42.68027,-92.09955 11.50417,-12.61748 26.02864,-22.2816 40.43394,-31.44862 12.52161,-7.96829 40.92544,-21.13692 58.40458,-20.21697 6.3887,0.33626 13.44689,2.21525 17.97065,6.73899 13.59406,13.59406 15.82756,44.98703 13.47798,60.65092 -2.67041,17.80264 -7.82449,35.48975 -15.72432,51.66558 -8.0219,16.42578 -19.58588,31.01858 -31.44861,44.92662 -16.69301,19.5711 -43.17939,41.28966 -67.38991,51.66558 -9.18219,3.93523 -19.24418,5.94233 -29.20229,6.73899 -8.98775,0.71903 -19.26238,2.45531 -26.95596,-2.24634 -20.16414,-12.32251 -16.47674,-59.593 -15.72431,-71.88255 1.24894,-20.39943 2.7431,-41.18988 8.98532,-60.65091 6.64797,-20.72603 17.4321,-40.09541 29.20229,-58.40458 11.92018,-18.5425 33.07495,-40.75099 53.91192,-51.66561 9.56699,-5.01126 26.15855,-13.30028 38.18761,-6.73899 14.88237,8.11766 15.16219,22.44847 15.72432,38.18763 0.78309,21.92674 -2.16667,50.02993 -13.47799,69.63622 -5.56259,9.64184 -13.88144,17.62027 -22.4633,24.70965 -20.5391,16.96706 -36.4523,22.75072 -62.89724,24.70962 -8.99183,0.66606 -18.58439,1.10231 -26.95596,-2.24634 -7.39031,-2.95611 -13.03852,-9.47695 -17.97064,-15.72429 -6.44575,-8.16462 -12.11143,-17.2012 -15.72432,-26.95596 -7.09744,-19.16311 -8.29247,-44.94827 -6.73899,-65.1436 1.57229,-20.43964 2.82998,-29.68783 15.72432,-44.92659 3.77755,-4.46439 8.24725,-8.61629 13.47798,-11.23164 4.07378,-2.0369 8.92335,-2.24634 13.47798,-2.24634 3.81802,0 7.99397,0.22278 11.23165,2.24634 8.51698,5.3231 10.28589,22.26672 11.23165,29.20227 1.31909,9.67335 2.96753,19.46611 2.24633,29.2023 -1.54919,20.91405 -6.94052,37.79052 -20.21697,53.91193 -5.05998,6.14426 -10.92704,12.01716 -17.97064,15.72432 -7.55488,3.97623 -16.26672,5.47253 -24.70963,6.73899 -9.80204,1.47029 -27.280855,2.56005 -33.694955,-8.98533 -9.249008,-16.64822 -12.654688,-58.07464 -13.477981,-74.1289 -1.720024,-33.54043 -2.401477,-54.1991 11.23165,-85.36053 4.995055,-11.41728 12.8871,-21.37005 20.216971,-31.44864 8.439355,-11.6041 21.216595,-28.10383 38.187615,-24.70962 3.98972,0.79795 4.49266,13.96878 4.49266,15.72432 0,7.52509 0.13332,15.32434 -2.24633,22.46328 -2.23382,6.70144 -7.05429,12.27426 -11.23165,17.97066 -8.71264,11.88087 -15.0869,19.66841 -29.202295,24.70962 -4.986195,1.78078 -10.587744,3.53047 -15.724312,2.24634 -14.362959,-3.59074 -16.265202,-23.46232 -17.97064,-33.69495 -1.605002,-9.63004 -1.89788,-19.44566 -2.246331,-29.2023 -0.806185,-22.57325 -1.808485,-41.52855 6.73899,-62.89725 3.5081,-8.77025 11.832725,-17.6723 20.216971,-22.4633 2.055863,-1.17478 4.562602,-3.17907 6.738991,-2.24633 14.189296,6.08113 12.433596,27.74379 13.477976,38.18761 1.2688,12.68793 1.84806,25.44262 2.24634,38.18763 0.73942,23.66166 2.70812,53.21921 -11.231654,74.12889 -1.970665,2.95598 -7.034694,7.93607 -11.231653,8.9853 -1.45284,0.36322 -2.995107,0 -4.492659,0 -1.497552,0 -3.153209,0.66974 -4.492659,0 -1.034786,-0.51739 2.648709,-9.18649 -2.246331,-6.73899 -1.497553,0.7488 1.716865,2.90428 2.246331,4.49268 1.723813,5.17144 3.310133,10.40294 4.492659,15.72429 1.03133,4.64101 8.655817,48.04109 8.985321,51.66561 0.67791,7.45702 0,14.97552 0,22.46329 0,3.74388 0,7.48778 0,11.23166 0,1.49755 0,2.99511 0,4.49266 0,0.74877 -0.748778,2.24633 0,2.24633 0.748776,0 0,-1.49756 0,-2.24633 0,-3.74389 0,-7.48777 0,-11.23165 0,-5.24144 -0.741251,-10.53555 0,-15.72432 1.472637,-10.30845 4.902041,-20.28578 13.477985,-26.95596 3.18289,-2.47557 7.4561,-3.07684 11.23165,-4.49265 2.21707,-0.8314 4.46225,-2.89684 6.73899,-2.24634 12.13399,3.46686 12.55064,16.7553 13.47798,26.95596 0.88128,9.69413 0,19.4682 0,29.2023 0,11.23165 1.64598,22.58455 0,33.69496 -2.53509,17.11184 -11.41816,35.65363 -24.70963,47.17293 -5.06105,4.38623 -11.699804,6.63374 -17.970646,8.9853 -5.781429,2.16805 -11.838361,5.21412 -17.97064,4.49268 -20.062256,-2.36027 -30.127869,-17.9197 -35.941283,-35.94129 -7.588996,-23.52588 -7.586173,-54.05326 -6.73899,-78.62155 0.679648,-19.70979 0.194953,-48.63772 20.216971,-60.65091 3.273933,-1.96437 7.429304,-1.90066 11.231652,-2.24634 4.47421,-0.40674 9.255807,-1.53532 13.477981,0 14.5509,5.29124 15.930543,20.43433 17.97064,33.69495 1.711645,11.12568 1.471853,22.46506 2.246331,33.69495 0.723079,10.48467 3.052376,20.97001 2.246328,31.44862 -0.900869,11.7113 -9.050041,36.32726 -15.724309,47.17293 -2.219931,3.60741 -5.731351,6.27369 -8.985321,8.98533 -1.286246,1.07188 -2.818345,2.24634 -4.49266,2.24634 -10.978478,0 -10.384525,-10.89859 -11.231652,-20.21697 -0.949074,-10.43983 0,-20.96577 0,-31.44864 0,-27.27352 -2.360864,-24.89896 4.492662,-47.17293 0.04499,-0.14621 2.991067,-14.67684 8.985319,-13.47799 12.509597,2.50193 12.724958,26.32808 13.47798,31.44864 3.364418,22.87802 6.136029,73.07662 6.738991,96.59218 0.618384,24.11693 1.420227,48.23103 -4.49266,71.88258 -1.445627,5.7825 -7.433579,16.59033 -13.47798,20.21697 -1.284142,0.77047 -3.722175,1.28413 -4.49266,0 -1.964359,-3.27392 -2.04566,-7.41891 -2.246331,-11.23167 -0.550968,-10.46837 -0.37415,-20.9724 0,-31.44861 0.889918,-24.91772 0.306623,-34.3082 11.23165,-56.15826 5.020014,-10.04001 9.711584,-17.21543 20.216971,-20.21697 2.159906,-0.61711 4.869936,-1.24603 6.738986,0 10.68249,7.12166 8.65067,23.9899 8.98533,33.69495 0.89118,25.84445 0.23341,62.62621 -4.49266,87.60688 -2.33328,12.33302 -6.64207,24.25869 -11.231656,35.94129 -0.605242,1.54061 -17.851723,36.7511 -22.463299,42.68028 -1.657488,2.13103 -4.32426,3.28528 -6.738991,4.49265 -0.669726,0.33486 -1.951373,0.68823 -2.246331,0 -6.961118,-16.24261 -4.492659,-23.6597 -4.492659,-42.68028 0,-20.66057 -1.741289,-34.17107 4.492659,-53.91193 2.016755,-6.38638 5.778323,-12.09114 8.985322,-17.97063 1.29278,-2.37011 2.384507,-5.05245 4.492659,-6.73899 1.848972,-1.47918 4.492659,-2.99511 6.73899,-2.24634 3.013768,1.0046 5.681692,3.74333 6.738991,6.73899 3.568115,10.10968 5.031882,20.86457 6.738985,31.44864 5.97996,37.07572 4.49266,39.0303 4.49266,76.37521 0,16.11963 4.1698,47.8164 -11.231645,60.65091 -1.819027,1.51585 -4.403368,1.85706 -6.738991,2.24634 -10.440222,1.74003 -11.901233,-2.72584 -15.724311,-15.72432 -2.123332,-7.21931 -1.870544,-14.94755 -2.246329,-22.46328 -0.813585,-16.27172 -0.483639,-23.17279 2.246329,-38.18763 1.450882,-7.97983 0.136599,-9.03084 6.73899,-11.23164 0.710353,-0.23678 1.497555,0 2.246331,0 0.748776,0 1.830983,-0.62302 2.246331,0 1.313439,1.97016 2.246328,4.37115 2.246328,6.73899 0,17.63371 -2.960227,20.31748 -11.231649,35.94129 -8.537189,16.1258 -17.44961,33.06971 -29.202293,47.17293 -1.728337,2.07399 -4.829976,6.40167 -6.73899,4.49265 -0.529463,-0.52946 0,-1.49754 0,-2.24634 0,-4.49265 -0.827945,-9.06227 0,-13.47798 1.440669,-7.68355 3.111635,-15.53834 6.73899,-22.46328 11.067481,-21.12883 25.975207,-33.16539 44.926604,-47.17293 14.830415,-10.96161 26.996485,-18.87728 44.926605,-22.46331 2.93586,-0.58717 16.02001,-1.11125 20.21697,2.24634 9.22257,7.37803 7.31111,29.16856 4.49266,38.1876 -4.76171,15.23748 -12.59333,23.59803 -24.70963,33.69495 -6.18649,5.15541 -14.2252,8.98533 -22.46331,8.98533 -3.08728,0 -7.50696,0.46397 -8.98531,-2.24634 -7.835438,-14.36497 -3.870096,-56.00991 -2.24634,-65.14356 8.59907,-48.36973 17.84129,-69.4422 44.92661,-110.07019 15.53239,-23.2986 34.00356,-44.17065 58.40458,-58.40457 6.06332,-3.53695 30.04278,-13.31497 40.43394,-8.98533 18.30316,7.62632 15.43388,36.64003 15.72431,49.41927 0.73849,32.49348 -1.91799,80.14205 -11.23165,112.3165 -5.05916,17.47713 -17.94787,40.41116 -31.44862,53.91192 -0.38657,0.38656 -19.68669,17.62204 -24.70963,6.73899 -3.77842,-8.18658 -1.79607,-17.95074 -2.24633,-26.95596 -1.04765,-20.95294 -2.89154,-41.92805 -2.24633,-62.89725 0.85485,-27.7825 1.08406,-55.89987 6.73899,-83.1142 12.60523,-60.66266 34.1597,-105.23447 65.14357,-157.24312 16.44483,-27.60382 25.06455,-41.3799 51.6656,-56.15826 4.76518,-2.64731 10.3473,-5.38882 15.7243,-4.49265 20.18228,3.36373 13.62665,40.33488 13.47798,47.17293 -0.47305,21.76098 -0.80566,43.69202 -4.49265,65.14357 -4.5837,26.66873 -11.16793,53.1197 -20.21697,78.62157 -13.36194,37.65632 -31.95556,68.03506 -56.15826,98.83851 -5.0733,6.45692 -25.68042,33.69496 -40.43394,33.69496 -4.23572,0 -7.95801,-4.87606 -8.98532,-8.98533 -2.91135,-11.6454 -1.68862,-23.95043 -2.24633,-35.94127 -0.93995,-20.209 -3.30964,-40.44804 -2.24633,-60.65091 1.19109,-22.63079 3.48895,-45.40446 8.98532,-67.3899 5.96864,-23.8746 23.87288,-60.41012 40.43394,-80.86789 3.23642,-3.99793 23.21767,-24.02689 33.69495,-20.21697 5.07442,1.84523 7.67575,8.23968 8.98533,13.47798 3.28901,13.15601 4.20418,26.87609 4.49265,40.43394 0.78259,36.78087 -1.82676,90.06412 -13.47798,125.79448 -4.98416,15.28479 -14.44148,28.74767 -22.46331,42.68028 -6.21815,10.79995 -12.49487,21.66731 -20.21696,31.44861 -3.62376,4.5901 -8.36579,8.39156 -13.47798,11.23165 -1.96364,1.09093 -5.64808,1.96365 -6.73899,0 -7.73874,-13.92973 -4.8685,-62.59793 -4.49266,-67.38991 1.77198,-22.59269 2.44183,-45.69304 8.98532,-67.3899 11.10725,-36.82929 45.08953,-98.37642 69.63623,-130.28713 9.03898,-11.75067 20.52031,-21.43098 31.44864,-31.44864 6.20953,-5.69209 23.21978,-22.46328 35.94126,-22.46328 12.30273,0 12.23954,14.61974 13.47798,22.46328 3.12566,19.79568 2.86448,31.61419 0,51.66561 -0.97629,6.83398 -2.3096,13.66785 -4.49265,20.21697 -1.5884,4.76518 -4.29964,9.08712 -6.73899,13.47798 -1.31112,2.36001 -2.87282,4.57917 -4.49265,6.73899 -0.63537,0.84715 -1.49757,2.99511 -2.24634,2.24632 -8.42989,-8.42987 -6.64813,-36.89022 -6.73899,-40.43395 -0.47982,-18.71326 -0.65641,-37.45034 0,-56.15823 2.00022,-57.00609 3.79119,-90.57444 20.21697,-146.01148 4.86005,-16.40266 12.75339,-31.77931 20.21697,-47.17292 4.53827,-9.36017 10.51237,-17.9535 15.72432,-26.95596 5.21745,-9.01196 6.24644,-16.42582 15.72429,-20.21697 6.00716,-2.40286 7.92422,4.0335 8.98533,8.98532 3.14039,14.65521 2.24634,34.93702 2.24634,49.41926 0,8.23655 0,16.47309 0,24.70963 0,4.49265 0,8.98533 0,13.47798 0,3.83366 0.6848,11.91647 -2.24634,8.98533 -7.50644,-7.50644 -4.49265,-20.74309 -4.49265,-29.2023 0,-16.47309 0,-32.94617 0,-49.41926 0,-5.99021 0,-11.98043 0,-17.97064 0,-2.99511 0,-5.99021 0,-8.98532 0,-1.49755 0,-5.99021 0,-4.49266 0,14.97553 0,29.95107 0,44.9266 0,17.22186 0.74806,34.45998 0,51.6656 -1.43375,32.97624 -4.56324,62.64902 -13.47798,94.34587 -2.82369,10.03972 -7.12338,19.61628 -11.23167,29.20227 -2.63816,6.15577 -5.77831,12.09114 -8.9853,17.97066 -1.29278,2.37008 -2.87282,4.57917 -4.49268,6.73899 -0.63534,0.84714 -1.1874,2.24631 -2.24631,2.24631 -1.05894,0 -1.85306,-1.26312 -2.24634,-2.24631 -1.1466,-2.86647 -2.00954,-5.90714 -2.24634,-8.98533 -0.51684,-6.71915 0,-13.47798 0,-20.21697 0,-5.24145 0,-10.48287 0,-15.72432 0,-2.99511 2.84141,-9.93246 0,-8.9853 -4.14203,1.38067 -4.71937,7.36073 -6.73899,11.23164 -6.97032,13.35982 -13.69621,26.84904 -20.21697,40.43394 -11.45122,23.85671 -21.86048,48.21364 -33.69495,71.88256 -44.05503,88.11005 -40.3351,74.19181 -83.11421,154.99677 -43.78166,87.56335 -3.67232,9.75506 -38.18761,71.88258 -2.43936,4.39084 -4.49266,8.98531 -6.73899,13.47798 -0.74878,1.49755 -1.06241,3.30873 -2.24633,4.49266 -0.52947,0.52945 -0.16243,-1.51538 0,-2.24634 1.33945,-6.02753 2.54009,-12.11292 4.49266,-17.97063 5.54297,-16.62891 10.0045,-33.80563 17.97064,-49.41928 10.85755,-21.28078 25.0336,-40.70773 38.18761,-60.65091 10.06487,-15.2596 21.09249,-29.86312 31.44862,-44.92659 6.11796,-8.89884 11.56468,-18.26215 17.97064,-26.95596 4.09508,-5.5576 8.89164,-10.56466 13.47798,-15.72432 1.40702,-1.5829 2.37482,-4.49265 4.49267,-4.49265 1.49755,0 0.11486,2.99952 0,4.49265 -0.63433,8.24616 -0.29159,16.67346 -2.24633,24.70965 -13.37377,54.98102 -26.30414,78.99262 -51.66559,132.53346 -8.60103,18.15772 -17.77794,36.03893 -26.95597,53.91193 -5.05023,9.83466 -10.18507,19.63451 -15.72431,29.2023 -2.70535,4.67286 -6.12359,8.8992 -8.98532,13.47798 -0.88739,1.4198 -1.06241,5.67658 -2.24633,4.49265 -1.5884,-1.5884 -0.11806,-4.49578 0,-6.73899 0.63091,-11.98721 0.14527,-24.12278 2.24633,-35.94129 3.90992,-21.99331 7.91975,-44.21315 15.72431,-65.14357 8.37277,-22.45423 48.25153,-94.85823 62.89725,-119.05548 6.98969,-11.54822 14.75463,-22.61376 22.46329,-33.69496 4.27601,-6.14674 8.80041,-12.12368 13.47798,-17.97065 1.68653,-2.10815 6.35719,-7.16526 6.73899,-4.49266 1.76046,12.32311 -3.69242,50.17752 -4.49265,53.91193 -7.1564,33.39655 -20.14752,71.72052 -33.69496,103.33119 -9.2661,21.62093 -15.88476,30.00454 -24.70962,49.41925 -0.97983,2.15561 -0.93289,4.76885 -2.24634,6.73899 -0.41534,0.62304 -2.24634,0.74879 -2.24634,0 0,-22.01228 16.57491,-66.76009 20.21698,-76.37521 11.52789,-30.43364 24.6281,-60.26878 38.18763,-89.85321 11.16176,-24.35299 23.58207,-48.11488 35.94126,-71.88256 7.11327,-13.67935 14.60304,-27.16974 22.46331,-40.43394 2.06306,-3.48141 12.91942,-22.09094 20.21697,-26.95596 0.62301,-0.41534 0,1.49754 0,2.24631 0,4.49268 0.18703,8.98922 0,13.47798 -0.56195,13.48708 -0.19375,27.09214 -2.24634,40.43394 -2.45782,15.97592 -5.99958,31.87928 -11.23164,47.17294 -4.44791,13.00159 -25.62709,53.45451 -33.69495,67.3899 -2.70534,4.67288 -6.1236,8.89921 -8.98533,13.47798 -0.88739,1.41983 -0.74877,3.74388 -2.24631,4.49268 -0.94716,0.47355 -2.03867,-1.20798 -2.24634,-2.24634 -1.32977,-6.6488 -2.047,-13.43943 -2.24634,-20.21697 -0.55034,-18.71134 -2.24295,-37.57369 0,-56.15826 7.33181,-60.74924 21.50687,-91.08956 42.68028,-148.25779 5.84414,-15.77917 11.045,-31.8376 17.97063,-47.17293 3.59405,-7.95822 9.57284,-14.65303 13.47798,-22.46329 2.86107,-5.72214 4.09168,-12.14654 6.73899,-17.97066 6.56939,-14.45265 4.49268,-3.06165 4.49268,4.49268 0,18.82257 0.74657,39.69893 -2.24634,58.40458 -1.46328,9.14553 -4.19457,18.05045 -6.73899,26.95596 -5.19861,18.19516 -4.78753,16.31405 -11.23164,29.2023 -0.7488,1.49754 -1.06241,3.30872 -2.24634,4.49265 -0.52946,0.52946 0,-1.49754 0,-2.24634 0,-4.49265 0,-8.9853 0,-13.47798 0,-21.65937 -1.36628,-34.67544 4.49265,-56.15824 1.9404,-7.11475 6.08034,-13.43866 8.98533,-20.21697 1.5884,-3.70625 2.90425,-7.52541 4.49265,-11.23166 0.65956,-1.53893 1.06241,-3.30872 2.24634,-4.49266 0.52946,-0.52945 2.12323,-0.73858 2.24634,0 0.73858,4.43154 0,8.98533 0,13.47798 0,13.47799 0,26.95597 0,40.43395 0,48.72204 2.09164,86.21138 -6.73899,134.7798 -3.34865,18.41746 -9.94929,36.1056 -15.72432,53.91193 -3.21747,9.92055 -7.35833,19.51897 -11.23164,29.2023 -2.11786,5.29463 -3.96962,10.73941 -6.73899,15.72429 -1.02854,1.85134 -2.43806,3.97902 -4.49268,4.49268 -6.57611,1.64401 -6.28647,-10.71423 -6.73899,-20.21697 -0.46299,-9.7231 0,-19.4682 0,-29.2023 0,-29.80907 -1.04307,-27.5966 2.24634,-53.91193 0.20735,-1.65888 -0.45977,-13.24811 4.49265,-15.72432 0.66974,-0.33485 1.91148,-0.66971 2.24634,0 1.38067,2.76135 1.93913,5.91336 2.24634,8.98533 1.19441,11.94425 1.94633,23.94122 2.24631,35.94129 0.44913,17.96503 0,35.94127 0,53.91193 0,15.72429 1.30585,31.50293 0,47.17293 -0.9512,11.41449 -4.57592,22.44696 -6.73899,33.69495 -15.1457,78.75767 3.27284,-3.07951 -8.9853,33.69495 -0.47358,1.42071 1.05891,5.5516 0,4.49265 -1.67434,-1.67431 -2.0497,-4.37933 -2.24634,-6.73899 -0.55965,-6.7157 0,-13.47798 0,-20.21697 0,-13.47798 -0.39624,-26.96178 0,-40.43394 0.73504,-24.9913 0.10901,-40.65196 11.23164,-62.89725 2.61538,-5.23073 7.64125,-8.86174 11.23167,-13.47798 1.65748,-2.13106 1.98599,-5.73633 4.49265,-6.73899 2.19848,-0.8794 5.58906,0.17647 6.73899,2.24634 7.31441,13.16593 6.73899,62.98908 6.73899,65.14356 0,22.4758 1.27714,45.19202 -2.24634,67.3899 -8.33593,52.51649 -26.24042,93.31161 -51.66558,139.27249 -11.94956,21.60114 -34.05783,57.71967 -60.65092,67.3899 -2.81476,1.02354 -7.53075,2.61819 -8.98532,0 -3.29288,-5.92719 -2.02044,-13.44028 -2.24632,-20.21697 -0.52385,-15.71559 -2.31637,-31.62017 0,-47.17293 6.52439,-43.80664 17.2534,-68.36929 42.68026,-103.3312 17.42093,-23.95376 25.78595,-30.07584 49.41927,-42.68028 3.90932,-2.08497 15.12072,-8.19192 20.21697,-2.24631 7.19317,8.39206 5.26894,38.17781 4.49265,42.68026 -4.96998,28.82606 -13.32404,42.99135 -31.44861,65.14359 -6.03499,7.37608 -12.69415,14.36587 -20.21697,20.21697 -9.18925,7.14719 -25.14553,16.66584 -38.18761,11.23164 -11.79099,-4.91292 -15.06442,-35.97968 -15.72432,-40.43394 -4.06611,-27.44637 -4.36194,-57.90269 8.98533,-83.11423 3.02689,-5.71743 13.34008,-16.77852 20.21698,-20.21697 1.33945,-0.66971 3.07194,-0.47355 4.49265,0 8.07931,2.69312 2.81096,33.90858 2.24634,35.94129 -6.13911,22.1007 -22.06787,39.80014 -42.68029,49.41928 -4.93977,2.3052 -10.41273,3.26688 -15.72431,4.49265 -4.91649,1.13458 -19.34566,4.59769 -24.70963,0 -6.43928,-5.5194 -4.49266,-20.95043 -4.49266,-26.95596 0,-3.74389 0,-7.48777 0,-11.23165 0,-1.49756 -0.47357,-3.07197 0,-4.49267 0.67124,-2.01372 4.91247,-4.07284 6.73899,-2.24632 1.67432,1.67431 1.85706,4.40336 2.24633,6.73899 2.78917,16.73495 3.53712,32.44112 0,49.41925 -4.5545,21.86162 -10.89105,29.80669 -26.95596,44.92662 -13.31647,12.53315 -24.82183,20.24501 -42.68027,24.70962 -7.1168,1.77919 -20.05058,0.58237 -24.70963,-6.73899 -5.92421,-9.30947 -4.95894,-31.10841 -4.49266,-40.43394 0.37578,-7.51573 0.084,-15.25556 2.24633,-22.46331 3.62199,-12.07331 14.60442,-29.76661 24.70963,-38.1876 3.85873,-3.21562 8.75745,-5.02243 13.47798,-6.739 3.58816,-1.30479 7.452,-1.70637 11.23165,-2.24633 1.4825,-0.21178 3.66197,-1.24603 4.49266,0 5.83328,8.74993 6.97556,34.04653 6.73899,40.43394 -0.41938,11.32329 -0.79884,22.9829 -4.49266,33.69495 -6.13724,17.79799 -23.9372,41.16155 -38.18761,53.91192 -6.8115,6.09449 -14.47352,11.28554 -22.4633,15.72432 -2.08382,1.15769 -26.00664,10.79931 -31.44862,8.98533 -9.46884,-3.15629 -11.19679,-33.31149 -11.23165,-33.69495 -2.16543,-23.8197 0.71672,-47.88006 15.72431,-67.3899 2.92326,-3.80027 7.24237,-6.32582 11.23165,-8.98533 0.26734,-0.17823 10.13451,-6.72164 13.47798,-4.49265 1.39311,0.92874 1.88312,2.85821 2.24633,4.49265 1.14857,5.16858 2.24633,10.42966 2.24633,15.72432 0,16.59818 -2.96023,21.46628 -11.23165,35.94126 -2.67891,4.6881 -5.61228,9.26169 -8.98532,13.47798 -2.64604,3.30756 -5.73135,6.2737 -8.98532,8.98533 -1.32388,1.10323 -5.76133,3.224 -6.73899,2.24634 -3.79724,-3.79725 -2.52228,-11.86114 -2.24633,-15.72432 0.6468,-9.05521 2.67936,-29.39174 6.73899,-38.1876 2.00917,-4.35325 5.59509,-7.84143 8.98532,-11.23167 1.90901,-1.909 4.23233,-3.48999 6.73899,-4.49265 1.39044,-0.55618 2.9951,0 4.49266,0 0.74877,0 1.71686,-0.52946 2.24633,0 3.92064,3.92065 2.24633,11.58518 2.24633,15.72432 0,5.24142 0.797,10.5438 0,15.72429 -0.7201,4.68061 -2.87428,9.02742 -4.49266,13.47798 -1.55652,4.28043 -6.1605,15.97975 -8.98532,20.21697 -1.17478,1.76218 -3.22195,2.79839 -4.49266,4.49268 -1.00459,1.33945 -0.85322,3.56391 -2.24633,4.49265 -1.24604,0.83069 -2.99511,0 -4.49266,0 -0.74878,0 -1.57661,0.33486 -2.24633,0 -4.89366,-2.44684 -2.24633,-9.83824 -2.24633,-13.47798 0,-5.99022 -1.80384,-12.25849 0,-17.97063 2.82525,-8.94665 7.37216,-17.58619 13.47798,-24.70965 14.09815,-16.44785 38.40077,-30.77879 58.40458,-38.1876 13.07751,-4.84352 44.68589,-9.27185 58.40458,-11.23165 4.619,-0.65987 22.89146,-4.73313 29.2023,0 10.63578,7.97682 6.58712,20.97633 4.49265,31.44862 -5.13767,25.68837 -6.03813,27.33447 -24.70962,47.17293 -5.45524,5.79617 -11.14534,11.62912 -17.97065,15.72432 -6.77581,4.06548 -29.54648,6.73899 -35.94128,6.73899 -0.74878,0 0.0745,-1.50127 0,-2.24634 -0.67468,-6.74682 -2.74722,-13.45504 -2.24633,-20.21697 1.00938,-13.62657 2.41809,-27.47124 6.73899,-40.43394 13.52386,-40.57158 33.35282,-70.74958 60.65091,-103.3312 19.87466,-23.72135 38.09045,-39.84429 65.14357,-53.91192 2.00287,-1.04148 35.56151,-14.79103 42.68028,-11.23164 5.39951,2.69975 7.62788,9.84208 8.98533,15.72432 3.2167,13.93902 4.79062,28.37802 4.49265,42.68025 -1.00489,48.23429 -8.14255,86.3364 -29.2023,130.28716 -7.44895,15.54562 -18.43371,29.21955 -29.20227,42.68028 -7.2766,9.09574 -15.34242,17.78601 -24.70965,24.70962 -7.48208,5.53024 -37.09908,20.14479 -49.41925,17.97063 -20.05167,-3.53851 -23.3254,-31.0842 -24.70964,-44.92659 -1.86265,-18.62651 -1.38283,-37.48998 0,-56.15826 3.01137,-40.65344 8.18654,-78.01184 26.95595,-114.56284 6.36241,-12.38993 15.75123,-23.03015 24.70965,-33.69495 11.13494,-13.25586 24.30754,-28.20635 42.68026,-31.44861 5.94497,-1.04913 12.82933,-0.91755 17.97066,2.24634 16.78381,10.32848 15.42568,43.91477 15.72429,56.15823 0.42032,17.23303 0.77092,34.69357 -2.24631,51.66561 -6.13013,34.48188 -18.98124,59.30273 -38.18763,87.60688 -5.97556,8.80607 -12.69185,17.1845 -20.21697,24.70962 -2.07659,2.07658 -21.64184,18.51827 -29.20228,13.47798 -11.43799,-7.62532 -6.78169,-50.17159 -6.73899,-51.66558 0.40688,-14.24065 -0.84418,-28.7731 2.24631,-42.68028 5.18917,-23.35123 21.08777,-52.34287 40.43395,-67.38991 10.57301,-8.22343 23.27846,-13.60416 35.94129,-17.97063 15.38954,-5.30675 36.86609,-7.62 51.66558,2.24631 22.03342,14.68896 24.08833,35.17702 24.70965,60.65092 0.78335,32.11782 -4.37362,62.96305 -17.97066,92.09955 -7.55811,16.19596 -22.18912,33.29014 -35.94126,44.92659 -3.33301,2.82025 -7.14357,5.20597 -11.23167,6.73899 -2.10331,0.78875 -5.62449,1.95035 -6.73899,0 -2.62686,-4.59705 -2.24631,-10.42966 -2.24631,-15.72432 0,-14.24643 0.82875,-28.50451 2.24631,-42.68025 3.6509,-36.50898 5.65539,-55.11155 22.46331,-87.60688 4.67897,-9.04602 12.09744,-16.38927 17.97063,-24.70965 9.75262,-13.81617 4.28749,-13.44377 17.97066,-15.72429 8.8451,-1.4742 9.04359,4.23707 11.23164,15.72429 1.96646,10.32399 1.88415,20.94529 2.24634,31.44864 0.39285,11.39264 0.72758,45.02195 -2.24634,58.40458 -1.23706,5.56673 -4.18875,10.62381 -6.73899,15.72432 -1.08365,2.16728 -4.14467,9.96608 -8.98533,6.73899 -4.16827,-2.77887 -2.24631,-16.71603 -2.24631,-20.21697 0,-16.70413 -1.98961,-37.81857 13.47798,-49.41927 2.46983,-1.85238 6.01681,-1.3982 8.9853,-2.24634 2.27674,-0.65048 4.49268,-2.99511 6.73899,-2.24632 8.72633,2.90875 7.98492,13.71434 8.98533,20.21698 2.04862,13.31597 4.31223,22.14215 0,35.94126 -3.42003,10.94407 -11.90164,19.68008 -20.21697,26.95596 -2.03176,1.77782 -4.42396,3.10367 -6.73899,4.49268 -1.43571,0.86143 -2.90428,1.71685 -4.49265,2.24631 -4.50922,1.50307 -2.03639,-3.47445 0,-4.49265 0.66971,-0.33486 1.49754,0 2.24631,0 0.7488,0 2.06473,-0.72641 2.24634,0 0.72641,2.90568 0,5.99022 0,8.98533 0,2.99511 0,5.99019 0,8.9853 0,3.74388 0,7.48779 0,11.23167 0,2.99511 0.49239,6.03097 0,8.9853 -0.27525,1.65156 -1.3176,3.09954 -2.24634,4.49268 -0.35089,0.52634 -2.90205,3.83691 -4.49265,2.24631 -3.25091,-3.25091 -2.24634,-7.17989 -2.24634,-11.23164 0,-3.74388 0,-7.48776 0,-11.23164 0,-2.99511 -0.49239,-6.03097 0,-8.98533 0.43159,-2.58956 4.55594,-8.1121 6.73899,-8.98533 2.08569,-0.83426 4.49268,0 6.73899,0 0.7488,0 1.49757,0 2.24634,0 1.49754,0 3.43374,-1.05891 4.49265,0 1.05894,1.05894 0,2.99511 0,4.49268 0,2.24631 0,4.49265 0,6.73899 0,7.13748 1.0046,9.12759 -4.49265,15.72429 -0.54168,0.65 -13.97516,8.98533 -15.72432,8.98533 -0.74877,0 0,-1.49754 0,-2.24634 0,-5.45965 -1.24603,-9.65218 4.49268,-13.47798 2.56876,-1.71251 5.97154,-1.5766 8.9853,-2.24631 4.87971,-1.0844 19.73355,-4.9761 24.70965,0 1.67431,1.67431 1.67204,4.44185 2.24631,6.73899 0.92602,3.70403 2.24634,7.41362 2.24634,11.23164 0,6.62736 -3.16756,12.39988 -8.98533,15.72432 -1.60221,0.91554 -19.66936,4.4318 -20.21697,4.49265 -2.97677,0.33076 -6.10544,0.82283 -8.9853,0 -6.49528,-1.85579 -9.28984,-7.65249 -11.23167,-13.47798 -3.50573,-10.51721 -6.12317,-24.85683 -6.73899,-35.94129 -0.41534,-7.47622 0,-14.97552 0,-22.46328 0,-7.48779 0,-14.97555 0,-22.46331 0,-7.48776 -0.39354,-14.9859 0,-22.46331 0.19653,-3.73401 3.82386,-33.50596 4.49268,-38.18761 1.28823,-9.01771 2.86313,-17.99362 4.49265,-26.95596 0.0204,-0.11139 4.49096,-22.44465 4.49265,-22.46331 0.40675,-4.47421 -0.68313,-9.03755 0,-13.47798 0.82889,-5.38779 3.48808,-10.36648 4.49268,-15.72429 1.24955,-6.66433 0.99676,-13.55265 2.24631,-20.21697 1.0046,-5.35781 3.4236,-10.379 4.49268,-15.72432 1.1839,-5.9196 1.39258,-11.99449 2.24631,-17.97063 0.64413,-4.50887 1.43158,-8.99684 2.24634,-13.47798 0.683,-3.75645 1.77276,-7.44313 2.24634,-11.23167 0.27861,-2.22898 -0.36931,-4.52321 0,-6.73899 0.38925,-2.33561 1.78194,-4.41711 2.24631,-6.73899 0.29372,-1.46847 0,-2.99511 0,-4.49265 0,-0.74877 -0.33485,-1.5766 0,-2.24634 0.47358,-0.94713 1.91148,-1.24175 2.24634,-2.24632 0.47358,-1.4207 -0.47358,-3.07197 0,-4.49267 0.52946,-1.5884 3.87083,-3.80087 4.49265,-2.24632 2.46613,6.1653 4.34195,31.96159 4.49268,33.69496 0.84574,9.72613 1.55075,19.46423 2.24631,29.20227 0.80201,11.22799 1.82973,22.44609 2.24634,33.69495 0.33256,8.97917 0,17.97066 0,26.95596 0,11.98044 0,23.96085 0,35.94129 0,2.24634 0,4.49265 0,6.73899 0,0.87726 1.05894,6.73899 -2.24634,6.73899 -1.05891,0 -1.91145,-1.24174 -2.24631,-2.24633 -1.20737,-3.6221 -1.58282,-7.47171 -2.24634,-11.23165 -1.58305,-8.97064 -3.58624,-17.89192 -4.49265,-26.95596 -2.95243,-29.52419 -2.24634,-49.208 -2.24634,-78.62154 0,-11.98044 0,-23.96085 0,-35.94129 0,-17.22186 0,-34.44373 0,-51.66559 0,-2.24634 0,-4.49268 0,-6.73899 0,-1.49757 1.49754,-4.49268 0,-4.49268 -1.67431,0 -1.76522,2.88896 -2.24634,4.49268 -1.77424,5.91415 -2.38254,12.16782 -4.49265,17.97063 -3.89758,10.71838 -9.13551,20.90264 -13.47798,31.44862 -6.14116,14.91427 -11.32274,30.23121 -17.97063,44.92662 -14.48448,32.01828 -33.59103,66.46788 -51.66561,96.59217 -26.21457,43.69099 -24.63684,39.58815 -53.91192,78.62158 -6.73899,8.9853 -13.15003,18.22622 -20.21698,26.95596 -11.78934,14.5633 -18.9252,21.17153 -31.44861,33.69495 -2.99511,2.99511 -5.59674,6.44387 -8.98532,8.9853 -6.56573,4.92432 -15.05339,6.02136 -22.4633,8.98533 -1.55456,0.62182 -2.86834,1.84026 -4.49266,2.24634 -1.45284,0.36319 -3.03982,-0.36322 -4.49266,0 -1.62433,0.40608 -2.86834,1.84023 -4.49266,2.24631 -2.95351,0.73837 -8.44183,-0.92993 -11.23165,0 -1.00459,0.33489 -1.24174,1.91148 -2.24633,2.24634 -1.4207,0.47358 -3.03982,-0.36322 -4.49266,0 -1.62433,0.40608 -2.99511,1.49754 -4.49266,2.24634 -2.99511,1.49754 -5.8762,3.249 -8.98532,4.49265 -4.39697,1.75879 -9.24226,2.3748 -13.47798,4.49265 -2.41473,1.20738 -4.49266,2.99511 -6.73899,4.49268 -11.36012,7.57341 -1.85273,2.08889 -13.47798,6.73899 -1.55457,0.62182 -2.90427,1.71686 -4.49266,2.24631 -1.7576,0.58587 -4.49266,-0.94022 -4.49266,0 0,0.75751 2.65297,-0.45992 4.49266,0 2.29714,0.57431 4.38943,1.95265 6.73899,2.24634 3.71497,0.46437 7.48776,0 11.23165,0 8.23654,0 16.47308,0 24.70963,0 21.71452,0 43.42905,0 65.14357,0 7.48777,0 14.97553,0 22.4633,0 7.48777,0 14.98845,0.43969 22.46329,0 5.28553,-0.31091 10.50171,-1.37588 15.72432,-2.24634 3.76608,-0.62767 7.60955,-1.03896 11.23165,-2.24631 3.1768,-1.05894 5.90745,-3.17357 8.98533,-4.49268 2.17638,-0.93273 4.54051,-1.36691 6.73899,-2.24631 1.55455,-0.62182 2.90425,-1.71688 4.49265,-2.24634 0.71035,-0.23677 1.57662,0.33486 2.24634,0 0.94712,-0.47358 1.29918,-1.77276 2.24633,-2.24634 0.89065,-0.44532 6.27976,0.45924 6.739,0 0.52945,-0.52945 -0.52949,-1.71685 0,-2.24631 0.52945,-0.52948 2.24631,0.74877 2.24631,0 0,-0.7488 -1.49754,0 -2.24631,0 -4.49268,0 -8.98533,0 -13.47799,0 -13.47798,0 -26.96765,-0.5611 -40.43394,0 -30.24936,1.26037 -60.10428,5.82274 -89.85321,11.23164 -7.51288,1.36599 -14.93114,3.23731 -22.4633,4.49265 -5.95469,0.99246 -11.95159,1.78335 -17.97064,2.24634 -7.46571,0.57428 -15.03336,-0.92874 -22.4633,0 -2.34956,0.29369 -4.41714,1.78197 -6.739,2.24634 -2.53342,0.50668 -8.29191,0 -11.23164,0 -0.74878,0 -1.49756,0 -2.24634,0 -0.74877,0 -1.71686,0.52946 -2.24632,0 -0.52947,-0.52948 0.23678,-1.53598 0,-2.24634 -0.52947,-1.5884 -1.84026,-2.86835 -2.24634,-4.49265 -3.108013,-12.43208 -2.246326,-16.07672 -2.246326,-29.2023 0,-7.48776 0,-14.97552 0,-22.46331 0,-8.23653 0,-16.47309 0,-24.70962 0,-17.88337 -2.131055,-18.79158 4.492666,-33.69495 1.8219,-4.09927 6.20353,-10.22604 11.23165,-11.23164 7.20544,-1.44111 9.0263,1.14366 15.72431,4.49265 32.48151,16.24076 -7.59078,-4.67125 29.20229,17.97063 34.27288,17.13645 -3.54406,-2.77662 22.4633,13.47798 15.76897,9.85562 2.87754,-1.61512 15.72431,11.23167 1.49755,1.49754 3.54552,2.59836 4.49266,4.49265 0.66973,1.33945 -0.36321,3.03982 0,4.49265 0.40608,1.62433 2.24633,2.81834 2.24633,4.49268 0,3.84267 -3.18021,9.45226 -6.73899,11.23164 -2.47955,1.23978 -15.02848,3.92755 -17.97064,2.24634 -7.69452,-4.39687 -15.53259,-32.62133 -15.72431,-33.69495 -2.24155,-12.55266 -1.49756,-25.45842 -2.24633,-38.18763 -0.74878,-12.72919 -1.84805,-25.44263 -2.24633,-38.18761 -0.47786,-15.29143 -1.65301,-42.60143 4.49266,-58.40457 4.16627,-10.71327 14.42579,-20.03518 24.70963,-24.70965 8.27736,-3.76243 19.37728,-3.54772 22.4633,6.73899 1.52141,5.07138 1.89413,10.44139 2.24633,15.72432 0.60936,9.1404 1.41253,23.01264 -4.49266,31.44861 -2.74947,3.92782 -7.12039,6.51857 -11.23165,8.98533 -3.45766,2.0746 -7.19936,4.49265 -11.23165,4.49265 -5.45118,0 -12.45361,-0.1317 -15.72431,-4.49265 -6.67882,-8.90508 -9.09988,-20.52328 -11.23165,-31.44861 -3.89559,-19.96488 -5.72319,-40.33491 -6.73899,-60.65091 -1.23394,-24.6788 -3.24212,-49.6329 0,-74.1289 7.06061,-53.34685 22.63783,-92.94696 51.66559,-137.02614 6.60759,-10.03374 35.38305,-42.30812 49.41926,-51.66559 3.08403,-2.05602 17.11308,-6.63276 22.4633,-4.49267 1.55456,0.62182 2.07973,2.82665 2.24634,4.49267 0.59603,5.96049 0,23.96086 0,17.97064 0,-8.98533 0,-17.97064 0,-26.95596"
       id="path12" /><path
       style="fill:none;stroke:#000000;stroke-width:28.5635;stroke-linecap:butt;stroke-linejoin:miter;stroke-dasharray:none;stroke-opacity:1"
       d="m 57.63437,891.23266 c 18.295025,-0.62798 36.604086,-0.4205 54.90698,-0.4205 8.15639,0 -1.63951,-0.81974 6.95588,3.47794 2.07385,1.03693 4.75624,-0.73322 6.95588,0 2.45928,0.81975 4.44099,2.84923 6.95588,3.47793 2.2494,0.56231 4.63726,0 6.95588,0 5.79658,0 11.59313,0 17.38971,0 17.3897,0 34.77937,0 52.16908,0 6.95588,0 13.91175,0 20.86763,0 1.15931,0 2.31864,0 3.47794,0 1.15931,0 2.44102,0.51847 3.47794,0 1.46643,-0.73322 2.01151,-2.74471 3.47794,-3.47793 1.03692,-0.51847 2.31862,0 3.47793,0 1.15931,0 2.31863,0 3.47795,0 5.79656,0 11.59313,0 17.38968,0 1.15933,0 2.44102,0.51846 3.47795,0 1.46643,-0.73322 2.01151,-2.74471 3.47794,-3.47794 2.09481,-1.0474 17.82772,1.01331 20.86763,0 2.45926,-0.81974 4.49661,-2.65817 6.95589,-3.47793 1.09981,-0.36656 2.31862,0 3.47793,0 2.31863,0 4.63724,0 6.95588,0 12.75243,0 25.50486,0 38.25731,0 1.15935,0 2.31865,0 3.47796,0 1.15931,0 2.65818,-0.81975 3.47794,0 0.81974,0.81975 -0.81975,2.65818 0,3.47793 0.81974,0.81975 2.44101,-0.51846 3.47793,0 1.46645,0.73323 2.0115,2.7447 3.47795,3.47794 1.0369,0.51846 2.441,-0.51847 3.47793,0 1.46643,0.73322 2.01151,2.74473 3.47793,3.47793 2.07385,1.03692 5.31636,-1.63951 6.9559,0 0.81975,0.81975 -0.81975,2.6582 0,3.47795 0.11184,0.11184 9.5903,0 10.43379,0 12.75247,0 25.5049,0 38.25736,0 1.81866,0 12.99724,0.45726 13.91175,0 1.46642,-0.73322 2.01151,-2.74473 3.47793,-3.47795 2.40233,-1.20116 16.16886,1.22082 17.38968,0 0.81974,-0.81974 -0.81975,-2.65818 0,-3.47793 1.63953,-1.63952 5.31637,1.6395 6.9559,0 0.83691,-0.83692 -0.83692,-13.07485 0,-13.91176 0.81975,-0.81975 2.95945,1.03693 3.47792,0 1.5554,-3.11076 -1.55537,-7.32305 0,-10.43383 0.73323,-1.4664 2.74474,-2.0115 3.47793,-3.47792 1.00437,-2.00869 -0.85302,-17.45544 0,-20.86764 0.62875,-2.51489 2.65821,-4.4966 3.47795,-6.95587 0.76679,-2.30031 0,-17.45103 0,-20.86764 0,-18.54899 0,-37.09801 0,-55.64702 0,-38.25731 0,-76.51464 0,-114.77197 0,-11.59313 0,-23.18628 0,-34.77941 0,-3.47795 0,-6.95588 0,-10.43381 0,-3.47793 0.68211,-7.02342 0,-10.43382 -0.50837,-2.54197 -2.84921,-4.44097 -3.47795,-6.95587 -0.84352,-3.37411 1.09984,-7.13436 0,-10.43382 -9.85244,-19.7049 1.29615,5.18461 -3.47793,-13.91174 -0.62875,-2.51492 -2.8492,-4.44099 -3.47792,-6.9559 -0.68395,-2.73582 0,-17.25084 0,-20.86765 0,-12.75244 0,-25.50488 0,-38.25732 0,-41.73527 0,-83.47053 0,-125.20582 0,-5.79654 0,-11.59312 0,-17.38967 0,-5.79656 -0.57676,-11.62191 0,-17.3897 0.58821,-5.88202 2.82513,-11.51449 3.47792,-17.38971 1.0242,-9.21778 -1.31162,-18.6422 0,-27.8235 0.51847,-3.62922 2.87526,-6.81763 3.47793,-10.43383 0.57181,-3.4306 0,-6.95587 0,-10.43379 0,-3.47795 0,-6.95589 0,-10.43383 0,-13.91176 0,-27.82351 0,-41.73526 0,-41.73527 0,-83.47053 0,-125.2058 0,-12.752446 0,-25.504889 0,-38.257332 0,-1.159313 0,-2.318625 0,-3.477938 0,-1.159314 0.81974,-2.658182 0,-3.477938 -0.11184,-0.111851 -9.59031,0 -10.43379,0 -13.91177,0 -27.82353,0 -41.73528,0 -3.27565,0 -15.41123,-0.659494 -17.38969,0 -1.55539,0.518465 -2.01151,2.744725 -3.47793,3.477938 -1.03693,0.518455 -2.44102,-0.518465 -3.47796,0 -1.46641,0.733213 -2.01151,2.744726 -3.47794,3.477938 -1.03693,0.518465 -2.37811,-0.366602 -3.47793,0 -2.45929,0.819757 -4.49659,2.658183 -6.95588,3.47794 -2.19964,0.733213 -4.63725,0 -6.95586,0 -5.79658,0 -11.59314,0 -17.38971,0 -3.79756,0 -15.14049,-0.749733 -17.38969,0 -2.45927,0.819756 -4.4966,2.65818 -6.95589,3.477939 -2.26989,0.756639 -16.70937,0 -20.86762,0 -2.4016,0 -12.85434,0.528708 -13.91175,0 -1.46645,-0.733215 -2.01152,-2.744724 -3.47796,-3.477939 -1.03691,-0.518456 -2.31862,0 -3.47793,0 -2.31861,0 -4.70646,0.562347 -6.95589,0 -5.0298,-1.257452 -8.88194,-5.698428 -13.91174,-6.955878 -2.2494,-0.562348 -4.63726,0 -6.95589,0 -2.31862,-1.159314 -4.49659,-2.658182 -6.95585,-3.477938 -3.00688,-1.002289 -15.17663,1.106542 -17.38971,0 -1.46643,-0.733216 -2.01151,-2.744727 -3.47794,-3.47794 -2.07065,-1.035322 -14.4615,0.976063 -17.38971,0 -2.45927,-0.819757 -4.49659,-2.65818 -6.95587,-3.477938 -2.01468,-0.67156 -10.89783,0 -13.91175,0 -9.2745,0 -18.54901,0 -27.82351,0 -11.59313,0 -23.18627,0 -34.77939,0 -2.41904,0 -16.13197,-0.62887 -17.38971,0 -1.46643,0.733213 -2.0115,2.744724 -3.47794,3.477938 -2.11188,1.05594 -18.755744,-1.055942 -20.867618,0 -1.466436,0.733213 -2.011518,2.744724 -3.477945,3.47794 -2.111884,1.055939 -18.755746,-1.055943 -20.86763,0 -1.466427,0.733213 -2.011508,2.744725 -3.477945,3.477938 -1.378971,0.689486 -9.722795,-0.71102 -10.433815,0 -0.819747,0.819757 0,2.318625 0,3.477938 0,1.159313 0,2.318627 0,3.47794 0,10.433817 0,20.867632 0,31.301451 0,16.230381 0,32.460761 0,48.691141 0,5.79656 0,11.59313 0,17.38969 0,3.47794 0.571815,7.00321 0,10.43382 -0.602661,3.61619 -2.470794,6.90881 -3.477935,10.43382 -1.313157,4.59606 -2.692119,9.19683 -3.477945,13.91174 -0.765427,4.59254 0,15.51535 0,20.86765 0,2.31862 0.733223,4.75623 0,6.95588 -0.819747,2.45926 -2.658179,4.49659 -3.477936,6.95588 -1.104374,3.31311 1.129226,14.00201 0,17.38968 -0.819747,2.45929 -2.84921,4.44098 -3.477935,6.95589 -0.562406,2.2494 0,4.63725 0,6.95588 0,3.47793 0,6.95587 0,10.43381 0,3.47795 0.491887,6.99084 0,10.43381 -0.675993,4.73194 -2.801952,9.17983 -3.477945,13.91176 -0.491887,3.44299 0.491887,6.99083 0,10.43383 3.596557,8.97457 -5.517923,13.67787 -6.95588,20.86763 -0.682104,3.4104 0.571815,7.00321 0,10.4338 -0.602661,3.61621 -2.758961,6.83895 -3.477935,10.43382 -0.454736,2.27361 0.38121,4.6688 0,6.95589 -0.785797,4.71494 -2.692118,9.19683 -3.477935,13.91175 -0.940027,5.6399 0.93993,11.7498 0,17.38969 -0.602661,3.61618 -2.758971,6.83894 -3.477945,10.43383 -0.454736,2.27359 0,4.63723 0,6.95588 0,3.47793 0,6.95587 0,10.43379 0,13.91179 0,27.82354 0,41.73529 0,22.02692 0,44.05388 0,66.08083 0,1.35992 -0.500035,22.84554 0,24.34558 0.518465,1.55537 2.744732,2.01151 3.477945,3.47794 1.864767,3.72955 -1.864776,3.22634 0,6.9559 0.733223,1.46641 2.95948,1.92255 3.477935,3.47792 0.733223,2.19965 0,4.63724 0,6.9559 0,5.02974 -0.734484,20.67287 0,24.34556 0.508377,2.54195 2.969549,4.4139 3.477935,6.95587 1.337669,6.68835 -1.337669,14.17929 0,20.86763 0.718964,3.59489 2.875245,6.81763 3.477945,10.43383 0.571718,3.4306 0,6.95587 0,10.43379 0,3.47797 0,6.95591 0,10.43383 0,9.2745 0,18.54902 0,27.82351 0,2.84738 -0.751168,15.13628 0,17.38971 3.9964,11.98919 3.477935,2.57632 3.477935,10.43381 0,8.11518 0,16.23039 0,24.34559 0,2.31861 -0.562309,4.70647 0,6.95586 0.628754,2.5149 2.658179,4.49659 3.477945,6.95589 0.675023,2.02511 0,18.47454 0,20.86762 0,1.1593 -0.36666,2.37812 0,3.47794 0.819747,2.45927 2.31862,4.63725 3.477935,6.95587 0,3.47794 -0.682104,7.02343 0,10.43382 0.508377,2.54197 2.849211,4.44098 3.477936,6.95589 1.124706,4.4988 -1.466427,9.51247 0,13.91175 0.518465,1.55537 2.95948,1.92257 3.477945,3.47794 0.733223,2.19964 0,4.63723 0,6.95589 0,1.1593 -0.518465,2.44099 0,3.47794 0.733223,1.4664 2.744722,2.01151 3.477935,3.47792 0.518465,1.03693 0,2.31862 0,3.47792 0,2.31866 -0.733223,4.75626 0,6.95591 0.518465,1.55537 2.744722,2.01151 3.477945,3.47792 0.742632,1.48537 0,16.01484 0,17.38971 0,6.95587 0,13.91175 0,20.86761 0,3.22187 0.603243,7.276 0,10.43383 -0.700146,3.66515 -1.825278,7.23622 -2.737912,10.85432 z"
       id="path1" /><path
       style="fill:none;stroke:#000000;stroke-width:40;stroke-linecap:round;stroke-linejoin:miter;stroke-opacity:1;stroke-dasharray:none"
       d="m 56.894335,136.0994 c 5.744853,-3.43497 10.84608,-8.30749 17.234559,-10.30491 5.00262,-1.56412 10.482873,0 15.724311,0 17.221865,0 34.443725,0 51.665595,0 41.18272,0 82.36543,0 123.54816,0 24.70962,0 49.41925,0 74.1289,0 7.48776,0 14.97552,0 22.46328,0 2.24634,0 4.53628,-0.44055 6.73899,0 1.64182,0.32836 2.86835,1.84024 4.49268,2.24633 2.90568,0.72642 6.14391,-0.94714 8.9853,0 1.0046,0.33486 1.24174,1.91146 2.24634,2.24633 1.42071,0.47356 3.07194,-0.47357 4.49265,0 1.0046,0.33486 1.24174,1.91146 2.24634,2.24633 1.27786,0.42595 9.11598,0 11.23164,0 8.98533,0 17.97066,0 26.95596,0 3.74388,0 7.48779,0 11.23167,0 0.74877,0 1.71686,-0.52947 2.24631,0 0.52949,0.52946 -0.33485,1.5766 0,2.24633 0.47358,0.94713 1.49757,1.49755 2.24634,2.24633 0.74877,0.74877 1.29919,1.77276 2.24634,2.24633 0.45421,0.22711 7.9946,0.0468 8.9853,0 9.64946,-0.45572 19.29543,-0.982 28.94314,-1.473"
       id="path3" /><path
       style="fill:none;stroke:#000000;stroke-width:40;stroke-linecap:round;stroke-linejoin:miter;stroke-opacity:1;stroke-dasharray:none"
       d="m 46.460521,223.04788 c 26.444654,2.02593 52.848607,4.68137 79.333969,6.07779 11.96381,0.63078 23.96085,0 35.94128,0 1.05833,0 41.62194,0 42.68027,0 11.98043,0 23.96086,0 35.94128,0 5.99022,0 11.9937,-0.39846 17.97064,0 36.43369,2.42891 -3.43451,1.77293 29.20229,4.49266 4.47714,0.3731 8.98532,0 13.47798,0 4.49267,0 8.98533,0 13.47798,0 2.99511,0 6.02033,-0.42357 8.98533,0 2.34405,0.33487 4.40335,1.85706 6.73899,2.24633 2.21575,0.3693 4.49265,0 6.73899,0 0.74877,0 1.53598,-0.23678 2.24634,0 1.58837,0.52947 2.86832,1.84025 4.49265,2.24633 2.95351,0.73838 8.44182,-0.92994 11.23164,0 1.0046,0.33486 1.29921,1.77276 2.24634,2.24633 0.66971,0.33487 1.49754,0 2.24634,0 1.49754,0 3.03979,-0.36321 4.49265,0 1.62433,0.40608 2.90425,1.71687 4.49265,2.24633 0.71035,0.23679 1.49757,0 2.24634,0 1.49754,0 2.99511,0 4.49265,0 4.49268,0 8.98533,0 13.47798,0 11.98044,0 23.96085,0 35.94129,0 3.74388,0 7.48776,0 11.23164,0 1.49757,0 3.03983,0.36321 4.49268,0 1.6243,-0.40608 2.90425,-1.71686 4.49265,-2.24633 0.71036,-0.23678 1.49754,0 2.24634,0 1.49754,0 2.99511,0 4.49265,0 0.82495,0 8.89492,0.0904 8.98533,0 0.52946,-0.52946 -0.52948,-1.71686 0,-2.24633 0.52946,-0.52946 1.49754,0 2.24631,0 0.7488,0 1.86902,-0.64675 2.24634,0 3.65874,6.2711 6.17112,13.14418 9.25666,19.71627"
       id="path4" /><path
       style="fill:none;stroke:#000000;stroke-width:40;stroke-linecap:round;stroke-linejoin:miter;stroke-opacity:1;stroke-dasharray:none"
       d="m 32.548761,320.43018 c 81.954539,-4.52975 163.982619,-3.69763 245.996179,-3.69763 15.7243,0 31.44862,0 47.17293,0 6.739,0 13.4896,-0.39574 20.21698,0 6.02641,0.35448 11.94913,1.81623 17.97063,2.24633 4.48125,0.3201 8.98533,0 13.47798,0 8.23653,0 16.47309,0 24.70962,0 1.49757,0 2.99511,0 4.49268,0 1.49754,0 3.0398,-0.36322 4.49265,0 1.62433,0.40609 2.86835,1.84023 4.49265,2.24632 1.45286,0.36322 2.99511,0 4.49268,0 1.88105,0 9.52339,-0.42707 11.23164,0 1.62433,0.40608 2.90425,1.71688 4.49265,2.24634 1.43452,0.47815 10.63205,-0.5996 11.23167,0 0.52946,0.52945 0.23664,2.95671 0,2.24633 -1.71662,-5.15313 -2.98093,-10.44606 -4.4714,-15.66907"
       id="path5" /><path
       style="fill:none;stroke:#000000;stroke-width:40;stroke-linecap:round;stroke-linejoin:miter;stroke-opacity:1;stroke-dasharray:none"
       d="m 13.249949,408.09843 c 36.017293,0.99333 72.029108,2.21047 108.051881,2.97998 10.48048,0.22389 20.96574,0 31.44862,0 20.96575,0 41.93149,0 62.89724,0 17.97064,0 35.94128,0 53.91192,0 5.24145,0 10.49621,0.37343 15.72432,0 30.58544,-2.18466 1.59634,-1.98303 29.20228,-4.49265 3.7285,-0.33896 7.51067,0.41344 11.23166,0 3.0684,-0.34094 5.92188,-1.86341 8.98531,-2.24634 2.97198,-0.3715 5.99022,0 8.98533,0 6.73899,0 13.47798,0 20.21697,0 1.49754,0 3.02419,0.29369 4.49265,0 2.32188,-0.46437 4.41714,-1.78197 6.73899,-2.24634 1.46849,-0.29369 2.99511,0 4.49268,0 6.73899,0 13.47798,0 20.21697,0 0.96761,0 12.8701,0.30395 13.47798,0 0.94713,-0.47355 1.29918,-1.77276 2.24631,-2.24631 1.41187,-0.70594 7.57346,0.70593 8.98533,0 1.07836,-0.5392 2.38768,-3.82786 4.49265,-2.24634 3.02472,2.27253 5.46619,5.232 8.19928,7.84802"
       id="path6" /><path
       style="fill:none;stroke:#000000;stroke-width:40;stroke-linecap:round;stroke-linejoin:miter;stroke-opacity:1;stroke-dasharray:none"
       d="m 52.999795,439.89831 c 39.989207,7.61524 79.728955,16.68306 119.967625,22.84568 9.62191,1.47363 19.46819,0 29.20229,0 14.22676,0 28.45351,0 42.68027,0 50.91682,0 101.83364,0 152.75045,0 16.47309,0 32.94618,0 49.41927,0 5.99019,0 11.98041,0 17.97063,0 3.01038,0 1.4823,0 4.49265,0 0.7488,0 2.93402,-0.29625 2.24634,0 -9.61363,4.14182 -19.45402,7.73613 -29.18102,11.60418"
       id="path7" /><path
       style="fill:none;stroke:#000000;stroke-width:40;stroke-linecap:round;stroke-linejoin:miter;stroke-opacity:1;stroke-dasharray:none"
       d="m 29.070826,560.40797 c 103.281224,7.06229 206.721004,5.66722 310.125034,5.66722 20.21697,0 40.43394,0 60.65091,0 10.48287,0 20.96574,0 31.44861,0 0.49911,0 8.6065,-0.20783 8.98533,0 0.31906,0.17505 -0.25495,0.68175 -0.3824,1.02264"
       id="path8" /><path
       style="fill:none;stroke:#000000;stroke-width:40;stroke-linecap:round;stroke-linejoin:miter;stroke-opacity:1;stroke-dasharray:none"
       d="m 60.949765,657.19748 c 26.107567,-5.66447 51.909905,-12.9865 78.322705,-16.9934 11.1046,-1.6846 22.4633,0 33.69495,0 14.22676,0 28.45351,0 42.68027,0 7.48777,0 15.01269,-0.74507 22.4633,0 6.80178,0.68019 35.2877,7.50681 42.68027,8.98533 4.46619,0.89323 9.05935,1.14165 13.47798,2.24631 4.5943,1.14859 8.90918,3.24663 13.47798,4.49268 3.6835,1.00457 7.60955,1.03897 11.23166,2.24631 3.17678,1.05895 5.80853,3.43374 8.98531,4.49268 16.49142,5.49714 5.59146,0.15695 20.21697,2.24631 2.34405,0.33489 4.46228,1.59584 6.73899,2.24634 2.96852,0.84815 5.94005,1.73879 8.98533,2.24634 1.47717,0.2462 3.02419,-0.29371 4.49265,0 2.32188,0.46437 4.49268,1.49754 6.73899,2.24631 2.24634,0.7488 4.54051,1.36695 6.73899,2.24634 1.55456,0.62183 2.85086,1.91797 4.49268,2.24634 2.20271,0.44053 4.53628,-0.44056 6.73899,0 3.28358,0.65672 5.80853,3.43371 8.9853,4.49265 0.71035,0.23678 1.53599,-0.23677 2.24634,0 1.5884,0.52946 2.90425,1.71686 4.49265,2.24634 0.87411,0.29136 6.3904,-0.34861 6.73899,0 0.52949,0.52946 -0.52946,1.71686 0,2.24631 0.52949,0.52949 1.49757,0 2.24634,0 2.62186,0 11.72546,-0.43812 13.47798,0 1.62433,0.40609 2.86835,1.84026 4.49265,2.24634 1.45286,0.36322 2.99511,0 4.49268,0 1.49754,0 2.99511,0 4.49265,0 7.48776,0 14.97552,0 22.46331,0 0.74877,0 2.0565,0.72433 2.24631,0 3.45287,-13.17521 5.49466,-26.68037 8.24196,-40.02058"
       id="path9" /><path
       style="fill:none;stroke:#000000;stroke-width:40;stroke-linecap:round;stroke-linejoin:miter;stroke-opacity:1;stroke-dasharray:none"
       d="m 42.982586,737.78286 c 14.874764,0.4199 29.743995,1.15118 44.624288,1.25974 74.862576,0.5462 149.761696,0 224.633016,0 11.98042,0 23.96086,0 35.94127,0 5.24145,0 10.50099,-0.43527 15.72432,0 3.80484,0.31707 7.4431,1.77276 11.23164,2.24634 4.45796,0.55724 8.98533,0 13.47798,0 11.98044,0 23.96085,0 35.94129,0 1.49754,0 2.99511,0 4.49265,0 0.7488,0 1.71688,-0.52946 2.24634,0 0.52946,0.52945 -0.52946,1.71685 0,2.24634 1.05894,1.05891 3.1532,-0.66974 4.49265,0 0.94716,0.47355 1.21902,1.98948 2.24634,2.24631 2.17927,0.54483 4.53628,-0.44053 6.73899,0 1.64179,0.32837 2.86835,1.84025 4.49265,2.24634 2.03642,0.50911 8.62217,0 11.23167,0 0.74877,0 1.6669,-0.47427 2.24631,0 5.30675,4.34356 9.98731,9.40033 14.98095,14.10049"
       id="path10" /><path
       style="fill:none;stroke:#000000;stroke-width:40;stroke-linecap:round;stroke-linejoin:miter;stroke-opacity:1;stroke-dasharray:none"
       d="m 56.894335,817.77543 c 86.104805,-3.2657 41.425876,-2.3576 134.043725,-2.3576 32.1974,0 64.3948,0 96.59219,0 17.43347,0 28.09512,-0.90958 44.92662,2.24634 16.46954,3.08803 12.97969,4.32655 26.95596,8.9853 2.92885,0.97629 6.01681,1.39819 8.9853,2.24634 4.55348,1.30098 9.08103,2.73386 13.47798,4.49265 3.10915,1.24365 5.73667,3.68052 8.98533,4.49268 2.90568,0.72641 6.07965,-0.72644 8.98533,0 1.6243,0.40608 2.86832,1.84023 4.49265,2.24631 1.45283,0.36322 3.02419,-0.29368 4.49265,0 2.32188,0.46437 4.41714,1.78197 6.73899,2.24634 1.46849,0.29369 3.03983,-0.36322 4.49268,0 1.6243,0.40608 2.86832,1.84026 4.49265,2.24634 1.85695,0.46424 12.33641,-0.57081 13.47798,0 0.94713,0.47355 1.29919,1.77276 2.24634,2.24631 0.59066,0.29533 7.81066,0 8.9853,0 3.70287,0 7.542,0.29239 11.23167,0 4.58814,-0.36356 9.1662,-0.845 13.74931,-1.26751"
       id="path11" /></g></svg>
