<?xml version="1.0" encoding="UTF-8" standalone="no"?>
<!-- Created with Inkscape (http://www.inkscape.org/) -->

<svg
   width="225mm"
   height="225mm"
   viewBox="0 0 225 225"
   version="1.1"
   id="svg30005"
   inkscape:version="1.3 (0e150ed, 2023-07-21)"
   sodipodi:docname="crate2.svg"
   xmlns:inkscape="http://www.inkscape.org/namespaces/inkscape"
   xmlns:sodipodi="http://sodipodi.sourceforge.net/DTD/sodipodi-0.dtd"
   xmlns="http://www.w3.org/2000/svg"
   xmlns:svg="http://www.w3.org/2000/svg">
  <sodipodi:namedview
     id="namedview30007"
     pagecolor="#ffffff"
     bordercolor="#666666"
     borderopacity="1.0"
     inkscape:pageshadow="2"
     inkscape:pageopacity="0.0"
     inkscape:pagecheckerboard="0"
     inkscape:document-units="mm"
     showgrid="false"
     inkscape:zoom="0.73850533"
     inkscape:cx="368.98853"
     inkscape:cy="398.10139"
     inkscape:window-width="1440"
     inkscape:window-height="777"
     inkscape:window-x="0"
     inkscape:window-y="25"
     inkscape:window-maximized="1"
     inkscape:current-layer="layer1"
     inkscape:showpageshadow="2"
     inkscape:deskcolor="#d1d1d1" />
  <defs
     id="defs30002" />
  <g
     inkscape:label="Layer 1"
     inkscape:groupmode="layer"
     id="layer1">
    <path
       style="fill:none;stroke:#a25027;stroke-width:12;stroke-linecap:butt;stroke-linejoin:miter;stroke-opacity:1;stroke-dasharray:none"
       d="m 19.125304,52.004803 c -0.29508,-2.47266 -1.072191,-4.934804 -0.885241,-7.417982 0.0568,-0.75442 2.615377,-1.307687 3.040011,-1.520005 0.21363,-0.106815 0.293038,-0.399854 0.506668,-0.506669 0.151059,-0.07553 0.346446,0.05341 0.506668,0 0.358269,-0.119422 0.675558,-0.337778 1.013337,-0.506669 1.937169,-0.968584 0.0877,0.0085 2.533342,-1.520005 0.835096,-0.521936 1.764353,-0.904814 2.533343,-1.520005 0.932535,-0.74603 1.577959,-1.816804 2.533341,-2.533343 5.978744,-3.416424 1.360207,-0.364622 6.080021,-4.560014 0.631148,-0.56102 1.351116,-1.013338 2.026674,-1.520005 0.459005,-0.344255 2.805803,-2.162905 3.546679,-2.533343 0.151058,-0.07553 0.35561,0.07553 0.506669,0 0.21363,-0.106815 0.293039,-0.399854 0.506669,-0.506669 0.302117,-0.151059 0.774491,0.238847 1.013336,0 0.119422,-0.119422 -0.119423,-0.387244 0,-0.506667 0.119422,-0.119425 0.387247,0.119423 0.506669,0 0.119422,-0.119425 -0.119422,-0.387246 0,-0.506669 0.119422,-0.119423 0.506669,-0.16889 0.506669,0 0,0.238845 -0.374182,0.307936 -0.506669,0.506669 -0.209481,0.314222 -0.28008,0.711216 -0.506669,1.013336 -0.286615,0.382154 -0.714926,0.640323 -1.013336,1.013338 -0.760804,0.951003 -1.247008,2.104409 -2.026674,3.04001 -0.458716,0.550457 -1.090083,0.946774 -1.520005,1.520005 -2.980115,3.973486 0.157155,1.36285 -4.053347,5.573352 -1.101027,1.101024 -2.445655,1.938986 -3.546679,3.04001 -2.463853,2.463853 -4.534344,5.308041 -6.586691,8.106695 -0.859158,1.171581 -1.70637,2.352165 -2.533342,3.546679 -0.693229,1.001332 -1.295946,2.065708 -2.026673,3.040012 -3.360816,3.360814 0.477691,-0.955384 -1.013337,2.026672 -0.07553,0.151061 -0.506669,0.168891 -0.506669,0 0,-0.238845 0.337779,-0.337778 0.506669,-0.506667 0.337779,-0.33778 0.675558,-0.675558 1.013337,-1.013338 6.072649,-6.072648 -0.273036,-0.01357 7.093358,-6.080019 1.569874,-1.292839 2.971964,-2.782906 4.560014,-4.053348 1.79377,-1.435015 3.746133,-2.661179 5.573353,-4.053348 1.720392,-1.310775 3.346294,-2.742573 5.066686,-4.053348 1.827221,-1.392169 3.726043,-2.687944 5.573353,-4.053348 2.037252,-1.505794 3.997126,-3.118011 6.080019,-4.560014 2.311085,-1.599983 4.7147,-3.062343 7.09336,-4.560017 2.181574,-1.373585 4.441674,-2.623338 6.586688,-4.053347 13.349115,-8.899409 -0.874146,-0.12463 9.6267,-6.58669 0.838701,-0.516124 1.678308,-1.031414 2.533341,-1.520005 0.327893,-0.187366 0.655069,-0.387245 1.013338,-0.506668 0.160224,-0.05341 0.453261,-0.160223 0.506669,0 0.160221,0.480668 0.0833,1.020231 0,1.520005 -0.376602,2.25961 -1.856808,2.475746 -3.040012,4.053347 -0.226589,0.302119 -0.297185,0.699115 -0.506666,1.013337 -0.264978,0.397464 -0.799709,0.586077 -1.013339,1.013337 -0.07553,0.151059 0.07553,0.355609 0,0.506669 -0.106815,0.21363 -0.320161,0.357462 -0.506669,0.506668 -0.659402,0.527522 -1.351116,1.013337 -2.026674,1.520005 -1.351113,1.013337 -2.673572,2.066054 -4.053345,3.040011 -1.492454,1.053497 -3.10887,1.93031 -4.560017,3.04001 -1.426125,1.090567 -2.641655,2.437492 -4.053348,3.546678 -0.957641,0.752433 -2.026674,1.351116 -3.040009,2.026674 -0.506669,0.337781 -1.032854,0.647973 -1.520005,1.013339 -0.191077,0.143306 -0.293039,0.399851 -0.506669,0.506666 -0.151059,0.07553 -0.387247,-0.119422 -0.506669,0 -0.119423,0.119425 0.119422,0.387247 0,0.506669 -0.267036,0.267039 -0.77742,0.211775 -1.013336,0.506669 -0.03041,0.03801 -1.970402,3.963311 -2.026674,4.053348 -0.447556,0.71609 -1.072449,1.310582 -1.520005,2.026674 -0.400306,0.64049 -0.675558,1.351116 -1.013338,2.026674 -0.337778,0.675555 -0.70658,1.336474 -1.013335,2.026671 -3.548343,7.983768 0.950145,-2.027049 -1.520005,4.560017 -0.265203,0.707208 -0.675558,1.351116 -1.013339,2.026674 -2.429634,4.859269 0.647663,-1.165791 -2.53334,4.560015 -0.366805,0.660249 -0.613032,1.386183 -1.013338,2.026673 -1.688894,2.702232 -1.182227,1.520008 -3.546679,3.546679 -0.544036,0.466318 -0.936934,1.103527 -1.520005,1.520008 -0.614611,0.439007 -1.412065,0.574328 -2.026674,1.013335 -0.58307,0.416478 -0.969547,1.061289 -1.520004,1.520005 -2.178064,1.815052 -0.754907,0.377455 -3.040013,1.520005 -0.54465,0.272327 -0.997841,0.700042 -1.520004,1.013338 -0.323832,0.194299 -0.689507,0.31237 -1.013336,0.506669 -0.522163,0.313296 -0.997844,0.70004 -1.520005,1.013336 -3.173122,1.903873 1.445189,-1.257485 -2.026674,1.520005 -0.475503,0.380402 -1.044504,0.632936 -1.520006,1.013338 -0.373014,0.29841 -0.631184,0.72672 -1.013337,1.013335 -0.302118,0.22659 -0.655068,0.387247 -1.013337,0.50667 -0.160222,0.05341 -0.506668,0.168888 -0.506668,0 0,-0.238845 0.363361,-0.315593 0.506668,-0.50667 2.116201,-2.821598 -0.24729,-0.259376 2.533342,-3.040009 1.351116,-1.351116 2.615351,-2.795101 4.053348,-4.053348 0.635511,-0.556072 1.42956,-0.92289 2.026674,-1.520005 5.404464,-5.404463 -2.533343,1.182227 3.546678,-3.546678 4.751819,-3.695859 0.295691,-0.534906 7.093358,-5.066686 1.520005,-1.013336 3.052328,-2.008434 4.560017,-3.04001 1.701419,-1.16413 3.365264,-2.382549 5.066683,-3.546679 9.268042,-6.341292 0.07232,-0.186089 8.613362,-5.066683 7.187896,-4.107371 -0.323151,-0.178033 5.066687,-3.546679 0.64049,-0.400307 1.386181,-0.613031 2.026673,-1.013338 0.71609,-0.447556 1.293487,-1.101043 2.026672,-1.520005 0.463708,-0.264975 1.02413,-0.308319 1.520007,-0.506669 0.350637,-0.140256 0.655066,-0.387244 1.013336,-0.506667 0.160223,-0.05341 0.346445,0.05341 0.506669,0 0.358267,-0.119425 0.655069,-0.387246 1.013336,-0.506669 0.320444,-0.106815 0.692893,0.106815 1.013338,0 0.358267,-0.119422 0.655068,-0.387246 1.013335,-0.506669 0.480669,-0.160224 1.023176,0.09937 1.520005,0 0.523706,-0.10474 0.993198,-0.418867 1.520008,-0.506669 0.499774,-0.0833 1.013335,0 1.520004,0 0.506667,-0.168889 0.996302,-0.401926 1.520005,-0.506666 0.548688,-0.109739 3.005064,0 3.546679,0 1.182227,0 2.364451,0 3.546679,0 0.168888,0 0.33778,0 0.506669,0 0.168889,0 0.387244,-0.119425 0.506669,0 0.119422,0.119422 0,0.337777 0,0.506666 0,1.084212 0.122073,2.034021 -0.506669,3.040012 -1.230183,1.968291 -4.778378,5.403377 -6.080022,6.586688 -2.304299,2.094818 -4.654619,4.143375 -7.093357,6.080022 -3.30648,2.625733 -6.764584,5.054722 -10.13337,7.600027 -7.913608,5.97917 -17.089816,13.194916 -25.33342,18.746731 -3.964625,2.670054 -8.052707,5.155184 -12.160041,7.600027 -2.988318,1.778759 -6.051521,3.430143 -9.120033,5.066683 -1.999314,1.0663 -4.053347,2.026674 -6.080021,3.04001 -3.46727,1.733637 -2.238897,0.718894 -4.0533471,2.533343 -0.1688894,0.168889 0.2830303,-0.422804 0.5066691,-0.506669 1.151248,-0.431718 2.397694,-0.575628 3.546678,-1.013336 12.465455,-4.748744 2.176176,-2.245024 19.253399,-6.586691 14.241539,-3.620727 23.089248,-5.4903 38.000133,-6.586688 4.716174,-0.346779 9.457812,0 14.186715,0 3.996039,0 13.093414,-0.629317 17.226726,1.520005 4.55021,2.366108 6.6725,7.522419 7.60003,12.160043 0.53098,2.654924 0.42934,5.400294 0.50667,8.106694 0.18166,6.35839 0.74233,10.93031 -2.02668,16.72006 -1.27391,2.66363 -5.48167,6.79418 -8.10669,8.10669 -2.054633,1.02732 -4.34425,1.52836 -6.586691,2.02668 -5.006195,1.11248 -9.451989,1.92546 -14.186718,-1.01334 -6.121807,-3.79974 -12.501144,-12.89591 -14.693384,-19.2534 -1.90084,-5.51244 -2.459807,-11.4247 -3.040009,-17.226727 -0.605219,-6.052182 -0.886077,-12.169542 -0.506669,-18.240062 0.299648,-4.794356 0.617976,-9.781379 2.533343,-14.186718 2.61612,-6.01708 10.179457,-11.879622 16.213388,-14.186714 11.707696,-4.476473 22.46508,1.735552 30.90677,9.6267 6.42128,6.002499 14.95489,17.59694 18.74673,25.840089 3.35529,7.294094 5.06669,15.298256 5.06669,23.306742 0,2.72327 -0.0176,5.57202 -1.01334,8.1067 -1.86153,4.73846 -6.72255,8.21624 -11.1467,10.13337 -6.25991,2.71262 -11.93438,3.40672 -18.74673,2.53334 -3.29122,-0.42195 -6.676953,-1.01377 -9.626705,-2.53334 -2.768415,-1.42616 -5.099714,-3.68765 -7.093357,-6.08002 -5.12267,-6.1472 -8.392726,-14.14149 -8.106693,-22.293413 0.188211,-5.364091 1.470964,-10.756942 3.546678,-15.706722 6.535238,-15.584032 18.229747,-26.91461 34.960117,-30.400103 8.47011,-1.764607 14.93217,-1.183005 21.78674,4.560014 7.87316,6.596425 11.60252,15.906263 14.69339,25.33342 1.73558,5.293534 3.15213,10.715977 4.05335,16.213391 0.75483,4.604513 1.62597,20.243553 0.50667,25.840093 -0.6397,3.19845 -1.77837,6.37915 -3.54668,9.12003 -5.18315,8.03387 -15.07511,11.7917 -24.32009,11.1467 -3.96554,-0.27666 -8.14379,-0.66654 -11.65337,-2.53334 -7.48298,-3.98031 -18.17464,-15.80468 -21.786743,-23.30675 -2.114611,-4.39188 -2.845054,-9.36303 -3.546678,-14.18671 -0.656818,-4.515626 -1.272363,-9.181606 -0.50667,-13.680049 1.136926,-6.679438 6.104083,-13.600322 12.160041,-16.720058 2.76842,-1.426155 6.01504,-1.787829 9.12003,-2.026674 7.17611,-0.552008 14.17452,0.329306 20.26674,4.560014 7.19855,4.998998 11.25022,11.684715 14.18672,19.76007 1.30214,3.580913 1.93468,7.383707 2.53334,11.146707 0.77608,4.87824 2.05337,14.63997 -0.50667,19.76007 -1.17497,2.34993 -3.37572,4.13352 -5.57335,5.57335 -6.28838,4.11997 -11.36932,5.07472 -18.74674,4.56002 -4.09929,-0.286 -8.3028,-0.60973 -12.16004,-2.02668 -4.54241,-1.66864 -9.02483,-3.90672 -12.66671,-7.09336 -13.258057,-11.6008 -19.971661,-29.080688 -22.293409,-46.106824 -0.365106,-2.677451 -0.108003,-5.40662 0,-8.106693 0.06113,-1.528138 -0.2184,-3.21346 0.506669,-4.560017 0.577398,-1.072306 1.858494,-1.731293 3.04001,-2.026674 1.638469,-0.409617 3.431841,-0.423847 5.066686,0 9.507032,2.464787 12.379684,6.299663 19.760064,13.680048 4.39438,4.394372 8.85719,8.769998 12.66671,13.680049 7.74337,9.980331 12.50367,18.953201 16.21339,30.906771 1.43347,4.61894 2.48566,9.38233 3.04001,14.18672 0.46462,4.02663 0.75843,8.17828 0,12.16004 -1.30249,6.83808 -6.09277,12.93379 -12.16004,16.21339 -6.96674,3.7658 -21.27666,4.25912 -27.866762,3.54668 -17.72316,-1.91602 -23.272623,-4.9424 -37.493461,-15.20005 -9.189186,-6.62827 -15.861927,-12.21196 -20.773406,-22.29342 -2.868922,-5.88884 -4.696118,-17.32346 0.506667,-22.80007 1.717482,-1.80788 4.186203,-2.87155 6.586691,-3.54668 3.106118,-0.8736 6.407896,-1.23791 9.6267,-1.01334 4.130336,0.28816 8.326683,0.96871 12.160041,2.53334 9.779103,3.99147 16.873953,10.55954 23.306749,18.74673 2.433687,3.09743 4.471408,6.53765 6.080019,10.13337 1.288442,2.88005 1.878642,6.03359 2.533342,9.12003 0.53033,2.50014 1.10793,5.04602 1.01334,7.60003 -0.1428,3.85559 -2.41832,9.2871 -5.573354,11.65337 -4.720955,3.54072 -13.856631,5.06669 -19.253401,5.06669 -8.106695,0 -16.720057,-1.52001 -22.800079,-7.60003 -7.522533,-7.52253 -9.828572,-17.81599 -11.146705,-27.86676 -0.659207,-5.02646 -0.506669,-10.13056 -0.506669,-15.20005 0,-3.5507 -0.18968,-7.15829 0.506669,-10.64004 0.504499,-2.52249 1.446009,-5.07429 3.040009,-7.09336 2.433558,-3.082504 6.950887,-3.243849 10.13337,-1.52 5.950087,3.22296 11.329646,11.41407 14.186715,16.72005 6.360615,11.81258 7.97126,18.16992 9.6267,31.41345 1.129676,9.03739 2.226273,19.55865 -1.520005,28.37343 -1.321191,3.10868 -3.691562,5.71823 -6.080021,8.10669 -3.90297,3.90297 -9.08966,6.74313 -14.693384,7.09336 -2.885292,0.18033 -6.158146,0.51288 -8.613362,-1.01334 -8.253238,-5.13039 -16.280159,-19.86188 -19.253401,-27.86676 -3.163822,-8.51799 -4.960135,-23.53078 -5.573353,-32.93345 -0.18685,-2.86503 -0.110346,-5.74436 0,-8.61336 0.05878,-1.52823 0.255244,-3.05147 0.506669,-4.56002 0.0878,-0.52681 0.0487,-1.24522 0.506669,-1.52 1.798582,-1.07915 5.749542,2.18712 6.080019,2.53334 2.495651,2.61449 4.63218,5.57301 6.586691,8.61336 4.524981,7.03887 9.583912,16.54891 11.653375,24.82675 0.823319,3.29329 0.731427,6.75046 1.013335,10.13337 0.397296,4.76755 1.427523,8.83408 -1.013335,13.17338 -1.93593,3.44165 -4.970637,3.9529 -8.613365,4.56002 -3.611417,0.6019 -9.248987,1.1024 -12.66671,-1.01334 -4.425592,-2.73965 -6.098928,-7.97868 -7.093358,-12.66671 -0.634697,-2.99214 -0.8283,-6.06691 -1.013337,-9.12003 -0.239909,-3.9585 -0.484207,-9.38764 1.520005,-13.17338 1.484744,-2.80452 4.118212,-3.87834 7.093359,-4.05335 6.871052,-0.40418 14.246056,5.26373 17.733393,10.64004 2.305045,3.55361 3.727231,7.63501 5.066684,11.65337 3.005164,9.01549 4.451191,17.92251 5.066686,27.3601 0.219824,3.37063 0.105503,6.75723 0,10.13337 -0.14814,4.74043 0.150683,5.63626 -2.026674,9.12003 -0.253177,0.40508 -0.569812,0.83593 -1.013338,1.01333 -1.632789,0.65312 -2.435442,-0.68319 -3.04001,-2.02667 -1.184306,-2.63179 -2.2964,-5.31815 -3.040009,-8.10669 -3.560567,-13.35213 -3.276039,-15.34801 -3.546679,-28.8801 -0.09727,-4.86335 -0.7738,-14.85925 2.026671,-19.76007 3.420235,-5.98541 8.472128,-6.74773 14.693387,-7.09336 6.42131,-0.35674 12.51463,0.40693 18.240062,3.54668 2.636568,1.44586 4.835967,3.58685 7.093358,5.57335 4.137935,3.64138 6.341729,5.81282 8.613362,10.64004 1.202314,2.55491 2.145538,7.50493 -0.506667,9.6267 -1.004374,0.8035 -2.319004,1.13636 -3.546678,1.52 -2.459056,0.76846 -6.502339,1.57428 -9.120034,1.01334 -2.654284,-0.56877 -3.427979,-2.72155 -4.053345,-5.06668 -0.350843,-1.31566 -0.743302,-2.71244 -0.50667,-4.05335 0.289068,-1.63806 0.969259,-3.27601 2.026674,-4.56002 4.247862,-5.15811 6.629051,-4.53606 13.17338,-5.06668 3.539082,-0.28695 7.098801,-0.76578 10.640031,-0.50667 7.25052,0.53053 12.17909,2.31803 18.24007,6.08002 4.59762,2.8537 8.11694,5.82322 10.64003,10.64004 0.81817,1.56195 1.15676,3.34125 1.52001,5.06668 0.31506,1.49656 0.59647,3.0333 0.50667,4.56002 -0.14782,2.51287 -1.24453,5.65451 -3.54668,7.09336 -1.67632,1.0477 -3.64718,1.58217 -5.57335,2.02667 -5.89472,1.36032 -11.10359,1.7838 -16.72006,-1.52 -6.75238,-3.97199 -11.408568,-11.80136 -14.186717,-18.74674 -2.30093,-5.75232 -3.960765,-14.35507 -3.546678,-20.7734 0.334576,-5.18595 1.555747,-8.7244 6.586688,-11.14671 5.948177,-2.86393 12.749737,-2.54872 18.746727,0 3.70769,1.57577 7.02354,4.02566 10.13337,6.58669 2.67499,2.20293 5.10613,4.76113 7.09336,7.60003 3.03525,4.33607 4.97693,11.65041 5.57335,16.72006 0.31574,2.68372 0.63406,5.4799 0,8.10669 -0.5851,2.42401 -1.86167,4.74851 -3.54667,6.58669 -5.21139,5.68515 -11.16058,7.47452 -18.74674,8.1067 -4.37919,0.36493 -8.88749,0.46372 -13.17338,-0.50667 -9.839527,-2.22782 -15.813062,-6.57809 -23.306744,-12.66671 -4.1216,-3.3488 -8.462219,-7.46219 -11.146705,-12.16004 -0.794925,-1.39113 -1.10717,-3.01189 -1.520005,-4.56002 -0.2647,-0.99263 -0.857745,-2.07455 -0.506667,-3.04001 0.408118,-1.12233 1.465191,-1.99927 2.533341,-2.53334 4.845097,-2.42255 9.376441,-2.49582 14.693384,-2.02668 3.070016,0.27089 6.215523,0.48938 9.120031,1.52001 4.63332,1.64408 8.289325,5.31019 11.146705,9.12003 2.3567,3.14227 3.55216,5.36113 4.05335,9.12003 0.15625,1.17186 0.28673,2.39975 0,3.54668 -0.23885,0.95538 -0.86575,1.79731 -1.52001,2.53334 -2.01091,2.26228 -3.7214,2.5354 -6.58668,3.54668 -1.51089,0.53325 -2.98891,1.20578 -4.560022,1.52001 -1.829221,0.36584 -3.716311,0.3298 -5.573353,0.50666 -1.689671,0.16093 -3.37267,0.4008 -5.066683,0.50667 -1.011364,0.0632 -2.031704,0.10083 -3.040012,0 -1.486583,-0.14866 -2.65692,-0.49431 -3.04001,-2.02667 -0.138025,-0.5521 0.0033,-1.64912 0.506669,-2.02667 0.42726,-0.32045 0.994545,-0.41113 1.520005,-0.50667 1.339668,-0.24358 2.691718,-0.50667 4.053348,-0.50667 4.302628,0 8.388831,0.74449 12.160041,3.04001 3.157197,1.92177 6.433247,5.77313 8.106697,9.12003 0.71654,1.43308 1.13141,3.00563 1.52,4.56002 0.57103,2.28411 0.96187,4.48878 -0.50667,6.58669 -1.56703,2.23861 -5.31809,3.16635 -7.600022,3.54667 -2.338224,0.38971 -4.733229,0.72794 -7.093358,0.50667 -6.987688,-0.65509 -12.283085,-2.93563 -18.240062,-6.58668 -4.209847,-2.58023 -9.068599,-6.83875 -11.653375,-11.14671 -2.611691,-4.35282 -2.789279,-7.39619 -3.040009,-12.16004 -0.07101,-1.34925 -0.283099,-2.73223 0,-4.05335 0.800767,-3.73691 2.92894,-4.11249 6.586688,-5.06668 4.34944,-1.13464 8.233958,-1.18383 12.666713,-1.01334 5.699865,0.21923 9.414888,0.29519 14.693384,3.04001 2.940055,1.52883 6.571391,5.45213 8.613361,8.1067 0.60044,0.78056 0.99807,1.69824 1.52001,2.53334 1.2007,1.92112 1.01333,0.84446 1.01333,2.53334 0,0.16889 0.11943,0.38724 0,0.50667 -0.11942,0.11942 -0.33778,0 -0.50667,0 -0.16888,0 -0.38724,0.11942 -0.50666,0 -0.52874,-0.52873 0.60398,-0.86067 1.52,-1.01334 1.50855,-0.25143 3.0321,-0.44024 4.56002,-0.50667 5.1599,-0.22434 10.74386,-0.13428 15.70672,1.52001 4.41521,1.47173 10.50928,6.00297 13.68004,9.6267 0.40099,0.45827 0.64798,1.03285 1.01334,1.52 0.14331,0.19108 0.50667,0.26782 0.50667,0.50667 0,2.62812 -8.42048,2.52592 -8.61336,2.53334 -4.7093,0.18113 -11.23097,0.2703 -15.70672,-1.52 -3.23416,-1.29367 -10.09219,-6.44538 -12.16005,-9.6267 -0.96095,-1.47839 -1.15675,-3.34125 -1.52,-5.06669 -0.5304,-2.51938 -1.0169,-5.71251 0.50667,-8.10669 1.71577,-2.69622 5.47143,-2.72378 8.10669,-3.04001 2.3536,-0.28243 4.73637,-0.7592 7.09336,-0.50667 4.39428,0.47082 9.6971,2.88713 13.17338,5.57335 1.88995,1.46042 3.42671,3.33025 5.06668,5.06669 8.1665,8.64687 1.00946,0.75419 4.56002,6.08002 0.17545,0.26318 1.35179,0.84308 1.01334,1.52 -0.10682,0.21363 -0.28491,0.41797 -0.50667,0.50667 -0.64655,0.25862 -1.3398,0.39219 -2.02668,0.50667 -1.3431,0.22385 -2.69359,0.57823 -4.05334,0.50667 -3.55058,-0.18688 -7.36085,-1.14383 -10.13337,-3.54668 -3.63857,-3.15342 -5.06669,-8.55098 -5.06669,-13.17338 0,-1.19423 0.0125,-2.45949 0.50667,-3.54668 0.93831,-2.06428 4.31708,-3.17553 6.08002,-3.54668 1.82543,-0.3843 3.70929,-0.43497 5.57336,-0.50667 8.5056,-0.32714 15.71258,0.26767 23.30674,4.56002 1.67639,0.94752 3.01951,2.3913 4.56002,3.54668 1.16227,0.87171 2.46081,1.56813 3.54668,2.53334 0.34108,0.30318 2.06242,2.82346 1.52,3.54668 -1.20693,1.60924 -5.86175,1.91068 -6.58669,2.02667 -5.34756,0.85561 -9.78773,1.33338 -15.20005,1.52001 -1.40989,0.0486 -10.03892,0.20037 -12.16004,-0.50667 -2.70357,-0.90119 -3.91386,-4.01646 -3.54668,-6.58669 0.0755,-0.52871 0.0794,-1.19956 0.50667,-1.52 2.21495,-1.66122 7.42199,-2.37587 9.6267,-2.53335 5.97361,-0.42668 11.51597,-0.0945 17.22673,2.02668 6.22928,2.31373 10.49438,5.64159 15.20005,10.13336 1.64359,1.56889 3.22968,3.22469 4.56001,5.06669 1.42215,1.96912 2.29462,4.19939 2.53335,6.58669 0.084,0.84025 0.18318,1.709 0,2.53334 -0.16385,0.73731 -0.41715,1.56297 -1.01334,2.02668 -2.1638,1.68295 -5.58404,1.90053 -8.1067,2.02667 -2.78225,0.13911 -6.90744,0.34629 -9.6267,-1.01334 -1.17981,-0.5899 -2.36135,-1.40225 -3.04001,-2.53334 -1.48869,-2.48116 -2.01483,-7.32936 -1.52,-10.13337 0.22353,-1.26665 0.61051,-2.63718 1.52,-3.54668 3.48723,-3.48723 7.51595,-3.70934 12.16005,-4.05335 4.64829,-0.34431 8.0484,-0.4403 12.16004,2.02668 1.74388,1.04633 3.12197,2.6153 4.56001,4.05335 3.05396,3.05395 2.17392,2.03536 3.04001,5.06668 0.14673,0.51353 0.50667,0.98593 0.50667,1.52 0,2.25066 -2.21555,2.48868 -4.05335,3.04002 -4.93463,1.48039 -8.48458,2.11948 -13.68004,1.52 -2.07528,-0.23945 -4.23139,-0.54704 -6.08002,-1.52 -1.47952,-0.7787 -2.55797,-2.19844 -3.54668,-3.54668 -2.09328,-2.85447 -2.64366,-5.11711 -2.02668,-8.61337 0.25077,-1.42103 0.49966,-3.03299 1.52001,-4.05334 1.33519,-1.33519 3.23482,-2.07538 5.06668,-2.53334 2.2997,-0.57493 4.72288,-0.50667 7.09336,-0.50667 4.35341,0 7.67352,0.3879 11.65337,2.02667 1.87268,0.7711 3.95026,2.2482 5.57336,3.54668 0.1865,0.14921 0.39985,0.29304 0.50667,0.50667 0.0755,0.15106 0,0.33778 0,0.50666 0,0.1689 0.11942,0.38725 0,0.50667 -0.95985,0.95985 -3.21123,0.50667 -4.05335,0.50667 -4.53234,0 -9.87821,0.63486 -13.68005,-2.53334 -2.21856,-1.8488 -2.31585,-3.97681 -2.53334,-6.58669 -0.0701,-0.84153 -0.31362,-1.74929 0,-2.53334 1.39019,-3.47549 4.13366,-3.26937 7.60003,-3.54668 4.72922,-0.37834 8.91642,-0.40587 13.17337,2.02667 1.76575,1.009 3.12198,2.61531 4.56002,4.05335 0.78904,0.78904 3.62762,4.15425 4.05335,5.57335 0.24265,0.80884 0,1.6889 0,2.53334 0,1.90613 0.47769,2.43685 -1.52001,3.54668 -1.69654,0.94253 -5.33936,1.52001 -7.09336,1.52001 -1.69731,0 -3.56314,0.2809 -5.06668,-0.50667 -5.30492,-2.77877 -7.81096,-8.38413 -9.6267,-13.68005 -2.01014,-5.86291 -2.28205,-10.68898 -2.53334,-16.72005 -0.0633,-1.51869 0,-3.04001 0,-4.56002 0,-0.17738 -0.47769,-2.28725 0.50667,-2.53334 2.38428,-0.59607 3.31938,1.44714 4.56001,3.54668 1.42221,2.40682 2.50841,5.00436 3.54668,7.60002 2.40835,6.02088 3.51871,10.63279 4.05335,17.22673 0.24568,3.03007 0.42992,6.11057 0,9.12003 -0.72028,5.04193 -3.28279,6.72157 -7.60003,9.12003 -4.25342,2.36302 -11.48891,5.65175 -16.72006,4.05335 -3.62966,-1.10906 -7.05546,-3.28839 -9.6267,-6.08002 -3.49304,-3.79245 -6.03573,-8.4516 -8.10669,-13.17338 -4.32449,-9.85985 -5.32409,-18.411 -5.57335,-28.8801 -0.14739,-6.19004 0.34847,-14.38677 7.09336,-17.22673 1.74027,-0.73274 3.68511,-1.01333 5.57335,-1.01333 2.22139,0 4.54086,0.14779 6.58669,1.01333 5.97596,2.52829 12.04917,9.59946 14.18671,15.70673 0.71976,2.05643 1.67018,6.79301 0.50667,9.12003 -1.63573,3.27146 -6.02571,4.49366 -9.12003,5.06668 -2.49652,0.46232 -5.10732,0.98913 -7.60003,0.50667 -7.83565,-1.51658 -12.26234,-6.51573 -15.70672,-13.68005 -2.4534,-5.10308 -3.98816,-10.65485 -5.06668,-16.21339 -1.13007,-5.82418 -1.22858,-11.80775 -1.52001,-17.73339 -0.37688,-7.66325 -0.98217,-14.75572 2.53335,-21.78674 1.07347,-2.14696 2.56278,-4.24187 4.56001,-5.573357 3.61059,-2.40706 9.24933,-1.771586 12.66671,0.506669 2.28757,1.525048 4.13666,3.735946 5.57335,6.080018 3.85438,6.28872 5.03231,12.54612 5.57336,19.76007 0.48439,6.45864 0.60151,12.36222 -2.53335,18.24006 -1.41505,2.65323 -3.60022,4.82427 -5.57335,7.09336 -2.05402,2.36213 -5.14899,5.89382 -8.61336,6.58669 -4.47588,0.89518 -4.83977,-2.16756 -5.57335,-6.08002 -1.34429,-7.16952 -1.20922,-15.0923 -0.50667,-22.29341 0.69439,-7.11756 0.6689,-8.99857 4.56001,-14.18672 0.85985,-1.14646 1.80215,-2.31792 3.04001,-3.04001 2.17656,-1.26966 4.63301,-0.40935 6.08003,1.52001 1.35953,1.81271 2.32347,3.93041 3.04001,6.08002 2.43869,7.3161 2.35682,12.50009 2.53334,20.26674 0.0844,3.71461 0.31731,7.44471 0,11.1467 -0.42302,4.93524 -1.01105,6.24586 -3.54668,9.6267 -0.28662,0.38216 -0.67556,0.67556 -1.01334,1.01334 -0.16889,0.16889 -0.41796,0.72843 -0.50667,0.50667 -1.22967,-3.07418 0.0705,-9.94813 0.50667,-11.65338 1.70348,-6.65905 6.31879,-18.05247 9.6267,-24.32008 1.312,-2.4859 2.90674,-4.8201 4.56002,-7.09336 1.05595,-1.45194 2.27719,-2.78386 3.54668,-4.05335 0.43058,-0.43058 0.92924,-0.86564 1.52,-1.01333 0.23172,-0.0579 0.43114,0.28008 0.50667,0.50667 0.27233,0.81697 0.4287,1.6757 0.50667,2.53334 0.26039,2.86427 0.62894,5.73988 0.50667,8.61336 -0.47936,11.26499 -1.92402,20.1615 -5.57336,30.90677 -1.3125,3.86461 -3.20228,7.51603 -5.06668,11.14671 -1.34956,2.6281 -2.92123,5.14185 -4.56002,7.60003 -0.73168,1.09753 -1.66472,2.04731 -2.53334,3.04001 -0.31456,0.3595 -0.58607,1.22696 -1.01333,1.01333 -0.45318,-0.22659 -0.0266,-1.01403 0,-1.52 0.42889,-8.149 1.12659,-17.65041 2.53334,-25.33342 1.15827,-6.32596 2.70308,-12.58953 4.56001,-18.74674 1.35845,-4.50432 3.30151,-8.81235 5.06669,-13.17337 1.10664,-2.73406 2.31774,-5.42539 3.54668,-8.1067 0.62939,-1.37322 1.35111,-2.70223 2.02667,-4.05335 0.16889,-0.33777 0.23963,-0.7463 0.50667,-1.01333 0.11942,-0.11943 0.43114,-0.15106 0.50667,0 0.31141,0.62283 0.37834,1.34225 0.50667,2.02667 0.37864,2.01944 0.78004,4.03868 1.01333,6.08002 1.23892,10.84052 1.2366,14.45383 1.01334,25.84009 -0.0762,3.88738 -0.0888,7.78777 -0.50667,11.65338 -0.2599,2.40412 -0.95991,4.74098 -1.52,7.09335 -0.28479,1.1961 -0.66004,2.369 -1.01334,3.54668 -0.15347,0.51155 0.0274,1.52001 -0.50667,1.52001 -0.50667,0 0,-1.01334 0,-1.52001 0,-2.19556 -0.19878,-4.40014 0,-6.58669 0.30923,-3.40155 0.65076,-6.83025 1.52001,-10.13337 0.8301,-3.1544 2.24976,-6.12715 3.54668,-9.12003 1.21581,-2.80573 3.37794,-6.81213 5.06668,-9.6267 0.31329,-0.52216 0.64797,-1.03285 1.01333,-1.52 0.14331,-0.19108 0.26783,-0.50667 0.50667,-0.50667 0.16889,0 0.0331,0.34106 0,0.50667 -0.13656,0.68282 -0.33777,1.35111 -0.50667,2.02667 -0.50666,2.02667 -0.83665,4.1059 -1.52,6.08002 -0.42101,1.21625 -4.69086,10.90172 -5.57335,12.66671 -0.60894,1.21788 -1.41774,2.3288 -2.02668,3.54668 -0.23884,0.47769 -0.37713,1.00188 -0.50666,1.52001 -0.041,0.16384 -0.11943,0.62609 0,0.50667 0.26703,-0.26704 0.23963,-0.7463 0.50666,-1.01334 0.93273,-0.93272 2.0757,-1.63332 3.04002,-2.53334 0.5776,-0.5391 9.34146,-9.38425 9.62669,-9.6267 1.57079,-1.33517 3.40424,-2.32755 5.06669,-3.54668 0.79898,-0.58592 2.8779,-2.45229 4.05335,-3.04001 0.15106,-0.0755 0.33777,0 0.50666,0 0.16889,0 0.46571,-0.16385 0.50667,0 0.16385,0.65538 0.11106,1.36031 0,2.02667 -0.39754,2.38523 -0.8728,4.76345 -1.52,7.09336 -3.53213,12.71567 -2.51382,9.48817 -9.12003,20.26674 -2.35922,3.84924 -3.93878,6.7289 -6.58669,10.13336 -0.29328,0.37707 -0.74837,0.61588 -1.01334,1.01334 -0.0937,0.14053 -0.16889,0.50667 0,0.50667 0.16889,0 -0.0627,-0.34986 0,-0.50667 0.28051,-0.70127 0.59437,-1.39823 1.01334,-2.02667 0.77782,-1.16674 5.89975,-7.76791 6.58669,-8.61337 0.98188,-1.20847 2.10576,-2.30101 3.04001,-3.54667 0.88636,-1.18182 1.25023,-2.69128 2.53334,-3.54669 0.14052,-0.0937 0.33778,0 0.50667,0 0.16889,0 0.4657,-0.16384 0.50666,0 0.16385,0.65539 0,1.35112 0,2.02668 0,1.35111 0,2.70223 0,4.05335 0,3.48616 0.18486,7.18241 -0.50666,10.64003 -0.17837,0.89184 -0.69399,1.68176 -1.01334,2.53335 -0.18753,0.50007 -0.26782,1.04231 -0.50667,1.52 -0.35164,0.70328 -0.90152,0.50667 -1.52,0.50667 -0.16889,0 -0.50667,-0.16889 -0.50667,0 0,1.05432 0.71053,0.20387 1.01334,0.50667 0.11942,0.11942 -0.0755,0.35561 0,0.50667 0.10681,0.21363 0.43113,0.28008 0.50666,0.50666 0.10682,0.32045 -0.10681,0.6929 0,1.01334 0.15106,0.45318 0.79971,0.58608 1.01334,1.01334 0.0755,0.15106 -0.11942,0.38725 0,0.50667 0.11942,0.11942 0.38725,0.11942 0.50667,0 0.11942,-0.11942 0,-0.33778 0,-0.50667 0,-0.22818 0.0771,-1.36581 0,-1.52001 -0.10682,-0.21363 -0.36784,-0.31231 -0.50667,-0.50667 -1.99035,-2.78648 -4.3558,-6.73501 -5.57335,-9.6267 -1.74141,-4.13584 -3.14095,-8.40948 -4.56002,-12.66671 -1.45284,-4.35852 -2.93907,-8.71626 -4.05334,-13.17338 -0.31726,-1.269 -2.32058,-13.97931 -2.53335,-16.21338 -0.068,-0.71441 -0.42804,-3.85899 0.50667,-4.56002 1.17403,-0.88052 4.23446,-0.50667 5.06668,-0.50667 1.6889,0 3.38618,-0.16805 5.06669,0 3.53595,0.3536 7.23427,1.37236 10.13337,3.54668 1.24566,0.93425 2.13497,2.27963 3.04001,3.54668 1.68695,2.36173 2.04685,3.14089 2.53334,5.57335 0.0331,0.16561 0,0.33778 0,0.50667 0,0.33778 0.28105,0.82597 0,1.01334 -0.42157,0.28105 -1.01334,0 -1.52,0 -5.03659,0 -5.39465,0.56619 -10.64004,-3.04001 -3.45696,-2.37666 -6.6603,-5.1403 -9.6267,-8.1067 -8.406,-8.406 -12.88842,-14.62894 -18.74673,-24.826751 -2.06928,-3.602069 -3.94851,-7.323529 -5.57336,-11.146705 -2.88877,-6.797114 -3.02676,-8.698368 -4.05334,-15.200053 -0.10148,-0.642708 -1.09,-4.483354 0,-5.573353 2.24082,-2.240828 7.29189,-1.946161 9.6267,-2.026671 4.45889,-0.153755 12.67739,-0.451094 16.72006,2.026671 2.95453,1.810848 5.07086,4.786133 7.09335,7.600027 3.3202,4.6194 5.47695,10.15801 6.58669,15.706722 0.12794,0.639699 0.81452,7.58077 0.50667,9.120031 -0.4536,2.268019 -4.24687,2.866991 -5.57335,3.04001 -4.65026,0.606552 -12.28541,-0.176552 -16.21339,-2.533341 -10.35403,-6.212416 -15.3857,-14.731812 -20.77341,-25.333422 -2.47228,-4.864823 -4.4752,-9.98438 -6.08002,-15.200051 -1.98035,-6.436143 -2.32049,-11.776003 -2.02667,-18.240065 0.0618,-1.360226 0.0761,-2.761591 0.50667,-4.053345 0.11942,-0.35827 0.63568,-0.506669 1.01333,-0.506669 1.02732,0 2.19346,-0.07533 3.04001,0.506669 1.96819,1.353129 3.6893,3.115389 5.06669,5.066683 5.80805,8.228074 10.8671,19.418379 13.68005,28.880099 3.9949,13.437407 5.78985,27.095455 6.58668,41.040144 0.49645,8.68777 0.72249,16.57928 -2.02667,24.82675 -0.66919,2.00759 -1.91844,3.77884 -3.04001,5.57335 -0.57315,0.91705 -1.16154,1.88449 -2.02667,2.53335 -1.42582,1.06936 -2.86786,0.59887 -3.54668,-1.01334 -1.09863,-2.60925 -1.92415,-5.34191 -2.53334,-8.1067 -1.58949,-7.21382 -3.13712,-14.45692 -4.05335,-21.78674 -2.49695,-19.975614 -2.02667,-27.002439 -2.02667,-45.600154 0,-4.391129 -0.31286,-8.793414 0,-13.17338 0.28573,-4.000227 0.59232,-9.211717 4.56001,-11.653374 1.01707,-0.625893 2.41873,-0.898999 3.54668,-0.506669 8.51502,2.961746 13.25303,9.300321 18.24006,16.720058 4.00819,5.963406 7.45855,12.30422 10.64004,18.746731 6.8588,13.889067 11.31471,24.637908 14.18672,39.520138 0.73883,3.82848 0.70646,7.76635 1.01333,11.65337 0.14184,1.79667 1.73498,8.85645 -1.01333,11.14671 -1.23087,1.02572 -2.96438,1.37495 -4.56002,1.52 -9.34327,0.84939 -12.68645,-3.77897 -19.76007,-11.65337 -11.52039,-12.82458 -15.9739,-21.9204 -22.29341,-37.493464 -2.14888,-5.295458 -4.06967,-10.6999 -5.57335,-16.213388 -1.5105,-5.538478 -2.22329,-12.349083 -2.53335,-18.240063 -0.0532,-1.011936 -0.12568,-2.0345 0,-3.040012 0.0469,-0.374732 0.1689,-0.844447 0.50667,-1.013336 0.45318,-0.226589 1.01586,-0.05042 1.52001,0 4.87177,0.487178 4.50627,0.26747 8.10669,5.573353 3.9749,5.857737 6.15968,11.026997 8.1067,17.733393 0.6742,2.322243 1.04577,4.722188 1.52,7.09336 1.19461,5.97304 1.01334,4.005657 1.01334,8.613362 0,0.50667 0,1.013339 0,1.520005 0,0.168889 -0.16889,0.506669 0,0.506669 0.16889,0 0,-0.33778 0,-0.506669 0,-0.506666 -0.0459,-1.015418 0,-1.520005 0.3932,-4.325156 0.66984,-5.660966 2.53334,-10.133369 0.8715,-2.09159 1.95499,-4.090805 3.04001,-6.080019 1.15064,-2.10951 3.49899,-6.291625 5.57336,-8.106696 0.54178,-0.474054 3.68711,-0.976622 4.05334,0 0.41933,1.118193 0.43654,2.354511 0.50667,3.546679 0.2492,4.236331 0.21887,7.217013 -2.02667,11.146705 -1.009,1.765745 -2.65952,3.079078 -4.05335,4.560017 -3.77844,4.014592 -3.6017,4.012406 -8.10669,6.586688 -1.35185,0.772483 -3.72832,2.35866 -5.57336,1.520005 -3.28625,-1.493753 -4.13754,-4.348043 -5.06668,-7.600024 -1.34567,-4.709837 -1.01334,-6.333035 -1.01334,-11.146708 0,-1.520004 -0.10829,-3.043872 0,-4.560014 0.0614,-0.858983 -0.10227,-1.924402 0.50667,-2.533343 0.7553,-0.755296 1.98011,-0.880848 3.04001,-1.013336 1.67585,-0.209481 3.42372,-0.391184 5.06669,0 4.48225,1.067202 7.57451,3.847513 10.64003,7.093358 2.87913,3.048492 4.03464,4.743201 5.06669,8.613362 0.68298,2.56118 0.95953,5.345324 -1.01334,7.600026 -1.51268,1.72878 -3.58913,2.895883 -5.57335,4.053348 -5.13424,2.994975 -7.87025,3.591716 -13.68005,4.560017 -4.01634,0.669388 -11.20654,2.155679 -15.20005,-0.506669 -7.60957,-5.073044 -9.18807,-14.017164 -10.64004,-22.29341 -0.50297,-2.866957 -1.40635,-21.241864 -1.52001,-25.33342 -0.0657,-2.363542 0,-4.728906 0,-7.09336 0,-1.013336 0,-2.026674 0,-3.04001 0,-0.168889 0.16889,-0.506669 0,-0.506669 -0.16888,0 0,0.33778 0,0.506669 0,0.675558 0.0321,1.351881 0,2.026674 -0.1368,2.872827 0.0315,5.788075 -0.50666,8.613362 -1.90873,10.020813 -4.48719,16.26013 -10.13337,24.826754 -4.25411,6.454507 -8.25318,11.236848 -14.69339,15.200053 -3.38747,2.084596 -8.64323,4.035213 -12.6667,4.560014 -1.842185,0.240284 -3.717893,0.09277 -5.573358,0 -1.527452,-0.07637 -3.14585,0.07564 -4.560017,-0.506667 -1.561684,-0.643048 -2.898243,-1.8079 -4.053347,-3.040012 -3.148992,-3.358925 -5.091139,-7.710072 -6.080022,-12.160041 -0.477689,-2.149612 -0.323797,-4.392247 -0.506667,-6.58669 -0.154916,-1.859 -0.397126,-3.711126 -0.506669,-5.573353 -0.05951,-1.011587 0,-2.026674 0,-3.04001 0,-0.506669 0.281049,-1.098431 0,-1.520004 -0.187364,-0.281051 -0.675558,0 -1.013335,0 -1.013339,0 -2.033617,-0.118401 -3.040013,0 -1.875308,0.220622 -3.751643,0.516506 -5.573352,1.013335 -3.971219,1.083062 -7.030667,2.660349 -10.640036,4.560017 -3.558995,1.873155 -7.12447,3.878681 -10.13337,6.586688 -0.887661,0.798899 -1.805207,1.586768 -2.53334,2.533343 -1.381967,1.796556 -4.021849,6.732659 -5.066686,8.613363 -0.844447,1.520004 -1.688894,3.040012 -2.533341,4.560017 -0.844446,1.520004 -1.593061,3.097355 -2.533343,4.560014 -0.584784,0.909669 -1.37782,1.668206 -2.026674,2.533343 -0.365363,0.487151 -0.74101,0.975352 -1.013335,1.520008 -0.07553,0.15106 0.119422,0.38724 0,0.50667 -0.119423,0.11942 -0.465707,0.16384 -0.506669,0 -0.163846,-0.65539 0,-1.35112 0,-2.026678 0,-1.688894 -0.186508,-3.388119 0,-5.066683 1.024376,-9.219391 1.344821,-7.853887 4.560017,-16.213392 0.709628,-1.845037 1.343281,-3.718435 2.026673,-5.573352 0.498849,-1.354021 0.922891,-2.739695 1.520005,-4.053346 0.251981,-0.55436 0.58275,-1.950593 1.013336,-1.520007 0.597114,0.597114 0,1.688896 0,2.533343 0,4.152133 0.331219,6.099699 -1.013336,10.13337 -1.396486,4.18946 -3.367251,6.889662 -5.573352,10.640036 -0.690375,1.173636 -1.326121,2.379091 -2.026674,3.546678 -0.313299,0.522161 -0.647973,1.032854 -1.013339,1.520005 -0.290819,0.387763 -1.273561,1.013338 -0.506666,1.013338 0.168889,0 -0.135112,-0.405336 0,-0.506669 1.274638,-0.955979 2.750336,-1.616408 4.053345,-2.533343 3.259725,-2.293879 6.446454,-4.690504 9.626701,-7.093357 4.420174,-3.339687 8.775305,-6.764631 13.173379,-10.13337 7.003057,-5.36404 11.558976,-9.059346 18.746731,-13.680045 1.973646,-1.268773 4.028999,-2.407222 6.080022,-3.546679 0.990373,-0.550206 2.026674,-1.013338 3.04001,-1.520005 0.33778,-0.168891 0.699113,-0.297188 1.013338,-0.506669 0.198731,-0.132487 0.267822,-0.506669 0.506666,-0.506669 0.168892,0 0.02389,0.339476 0,0.506669 -0.145282,1.01699 -0.167293,2.07037 -0.506666,3.04001 -2.306725,6.590641 -4.913363,10.504056 -8.613365,16.720057 -6.905572,11.601363 -7.021742,11.993028 -15.200053,22.80008 -1.957723,2.586998 -3.785981,5.305988 -6.080019,7.600028 -1.624327,1.62433 -3.677502,2.75618 -5.573353,4.05335 -1.314963,0.89971 -2.677088,1.73052 -4.053347,2.53334 -1.350042,0.78752 -2.029278,1.31681 -3.546679,1.01333 -0.370316,-0.0741 -0.771573,-0.21655 -1.013338,-0.50666 -3.486351,-4.18363 -3.424312,-12.33205 -3.546679,-17.226731 -0.09708,-3.883245 -0.316047,-7.781793 0,-11.653372 0.361474,-4.428058 0.621742,-8.95858 2.026674,-13.173379 1.504918,-4.514755 4.056023,-8.636389 6.586691,-12.666712 4.983541,-7.936752 12.678253,-16.112541 21.786741,-19.253399 4.710427,-1.624285 11.377417,-1.880129 16.213389,-2.026674 2.700993,-0.08185 5.410448,-0.17975 8.106695,0 4.958097,0.330539 9.501497,1.418204 14.186717,3.04001 7.12568,2.466583 4.52666,1.862852 10.13337,5.066686 0.98367,0.562097 2.02667,1.013336 3.04001,1.520005 0.33778,0.168889 0.69911,0.297185 1.01334,0.506666 0.19873,0.13249 0.33777,0.337781 0.50666,0.506669 0.16889,0.168889 0.39986,0.29304 0.50667,0.50667 0.0755,0.151058 0,0.337777 0,0.506669 0,0.168889 0,0.337777 0,0.506666 0,0.675558 0,1.351116 0,2.026674 0,3.403227 0.16659,2.713723 -0.50667,6.080022 -0.13656,0.682826 -0.19525,1.403839 -0.50666,2.026674 -0.26536,0.530701 -1.38853,1.392375 -2.02668,1.520005 -0.49683,0.09937 -1.01334,0 -1.52,0 -0.67556,0 -1.35389,0.06116 -2.02668,0 -1.18932,-0.10812 -2.4424,-0.05197 -3.54668,-0.50667 -3.52579,-1.451795 -7.3675,-4.587769 -9.6267,-7.600026 -1.26971,-1.692942 -2.13019,-3.662738 -3.04001,-5.573353 -0.78205,-1.642298 -1.53983,-3.314049 -2.026672,-5.066683 -0.632357,-2.276486 -0.506667,-4.762381 -0.506667,-7.093358 0,-0.33778 -0.238847,-0.77449 0,-1.013335 1.333559,-1.333564 4.722289,-1.44014 6.080019,-1.520008 3.17957,-0.187034 7.12509,-0.03956 10.13337,1.013339 2.44921,0.857221 6.65312,3.914687 8.61336,5.573352 1.71236,1.448919 2.85628,2.488819 3.54668,4.560015 0.10682,0.320447 0,0.675558 0,1.013338 0,0.337778 0,0.675558 0,1.013336 0,0.33778 0.15106,0.711218 0,1.013338 -0.84538,1.690769 -3.07144,1.363313 -4.56001,1.520005 -2.02253,0.212897 -4.05055,0.637603 -6.08003,0.506669 -6.2122,-0.400788 -14.21587,-2.294589 -19.760063,-5.066686 -4.574098,-2.287048 -10.352802,-7.080073 -13.680048,-11.146706 -1.39442,-1.704292 -2.47727,-3.648413 -3.546679,-5.573352 -1.78612,-3.215016 -1.520005,-2.760783 -1.520005,-5.573352 0,-0.337779 -0.202668,-0.743114 0,-1.013337 1.462625,-1.950167 4.967658,-1.013337 6.586689,-1.013337 3.37779,0 6.794023,-0.508161 10.133369,0 11.343657,1.726209 17.075167,4.982151 26.853427,11.146705 6.27214,3.954176 10.77381,7.445298 15.20005,13.173379 1.20429,1.558493 2.39297,3.206429 3.04001,5.066686 1.41342,4.063587 1.30604,10.77527 0,14.693384 -2.42321,7.269654 -9.70743,17.424944 -14.18671,22.800079 -8.53661,10.243928 -17.83097,18.539139 -30.400108,23.306749 -3.21859,1.22084 -7.184752,1.77987 -10.640038,2.02667 -0.842301,0.0602 -1.778045,0.37765 -2.533341,0 -2.714003,-1.357 -1.572823,-6.68065 -1.520007,-8.10669 0.09397,-2.53723 -0.168516,-5.152487 0.506669,-7.600031 0.984568,-3.569057 5.173858,-10.196952 8.106696,-12.66671 3.291437,-2.771735 6.559904,-3.116218 10.640039,-2.533343 1.74553,0.249364 3.62616,0.503166 5.06668,1.520007 1.57318,1.11048 2.5913,2.888094 3.54668,4.560015 3.13631,5.488532 3.84138,11.544596 3.54668,17.733392 -0.13282,2.7893 -0.21835,6.20226 -2.02667,8.61337 -0.79145,1.05525 -1.97324,1.7575 -3.04002,2.53334 -2.44843,1.78068 -1.81576,1.52 -4.05334,1.52 -0.33778,0 -0.86228,0.30212 -1.01334,0 -0.45943,-0.91885 -0.44634,-2.01447 -0.50667,-3.04001 -0.13734,-2.33478 -0.0594,-8.23433 0.50667,-10.64003 0.2946,-1.25204 0.61051,-2.63719 1.52001,-3.54668 1.85084,-1.850846 5.39055,-1.897129 7.60002,-1.013339 3.02885,1.211539 5.26111,4.321689 6.58669,7.093359 2.34916,4.91188 3.61907,10.85732 4.05335,16.21339 0.25933,3.1984 0.44144,6.44831 0,9.6267 -0.68566,4.93675 -3.2403,11.03513 -6.08002,15.20005 -1.5649,2.29518 -4.33596,5.33332 -7.09336,6.58669 -1.04128,0.47331 -3.72129,1.05097 -4.56002,-0.50667 -0.91294,-1.69547 -1.29501,-3.6609 -1.52,-5.57335 -0.92162,-7.8338 -0.89596,-16.19382 1.52,-23.81342 2.37865,-7.50187 7.39144,-13.01652 14.69339,-15.70672 3.2913,-1.21258 5.4002,-1.483 8.61336,0 0.98189,0.45318 1.86942,1.17305 2.53334,2.02668 0.65329,0.83994 2.09964,5.42743 1.52001,6.58668 -1.3924,2.7848 -5.67856,5.58195 -8.10669,6.5867 -6.79592,2.8121 -16.39375,3.69577 -23.30675,4.05334 -9.687306,0.50107 -18.718885,0.75302 -27.866766,-3.04001 -4.392084,-1.82111 -10.197095,-6.77738 -12.66671,-11.1467 -1.051182,-1.85979 -1.590966,-3.98863 -2.026674,-6.08003 -0.74376,-3.57004 -1.012444,-7.831787 1.013336,-11.146701 4.257439,-6.966717 14.124431,-7.697801 21.280074,-8.106693 2.866446,-0.163798 5.808565,-0.61355 8.613362,0 5.992011,1.310751 9.583722,4.561784 12.666718,9.6267 1.02782,1.688579 1.47316,3.675624 2.02667,5.573354 1.03768,3.55778 2.47102,9.36931 1.52,13.17338 -0.51325,2.05299 -1.69996,3.93552 -3.04001,5.57335 -3.335889,4.0772 -8.133216,7.49998 -13.173378,9.12003 -2.073865,0.6666 -12.021658,1.52001 -14.186714,1.52001 -1.865445,0 -3.769329,-0.0319 -5.573353,-0.50667 -0.813165,-0.21399 -5.078412,-2.34475 -6.080022,-3.54668 -0.341905,-0.41029 -0.377134,-1.00188 -0.506666,-1.52001 -0.04096,-0.16384 -0.119425,-0.38724 0,-0.50667 0.119422,-0.11942 0.337778,0 0.506666,0 1.013339,0 2.026674,0 3.040013,0 3.270689,0 8.920162,-0.1683 12.16004,0.50667 3.511124,0.73149 7.668543,2.19106 10.13337,5.06669 2.045401,2.3863 2.53334,5.62464 2.53334,8.61336 0,1.36163 -0.05349,2.76934 -0.506666,4.05335 -1.102236,3.123 -4.207071,7.02036 -6.586691,9.12003 -3.513185,3.09987 -4.773239,3.32888 -9.120031,4.05335 -2.170272,0.36171 -6.375003,0.95929 -8.613362,0 -1.817164,-0.77879 -5.475476,-5.10891 -6.080022,-6.58669 -1.742043,-4.25833 -1.909554,-11.9971 -2.026674,-16.21339 -0.08441,-3.03884 -0.101277,-6.08171 0,-9.12003 0.14482,-4.34461 -0.148834,-5.85677 2.026674,-9.12004 0.397462,-0.59619 0.905579,-1.15135 1.520005,-1.52 0.289642,-0.17379 0.699717,-0.12545 1.013338,0 2.37917,0.95167 2.70633,3.14568 3.546679,5.57335 2.430076,7.02023 2.915266,9.94302 4.053345,17.22673 0.394552,2.52512 0.817319,5.05179 1.013338,7.60003 0.142486,1.85231 0,3.71556 0,5.57335 0,0.84445 0,1.68889 0,2.53334 0,0.3028 0.119422,1.01334 -0.506669,1.01334 -0.238845,0 -0.374179,-0.30794 -0.506669,-0.50667 -0.546259,-0.81939 -1.179558,-1.60928 -1.520005,-2.53335 -0.850112,-2.30744 -1.493226,-4.69284 -2.026674,-7.09335 -0.819232,-3.68656 -1.643309,-7.38973 -2.026674,-11.14671 -0.637937,-6.25178 -0.506666,-17.64523 -0.506666,-24.32008 0,-2.70223 0,-5.40446 0,-8.10669 0,-1.85779 -0.123579,-3.719689 0,-5.573358 0.04632,-0.694809 0.120404,-1.447276 0.506666,-2.026673 1.015759,-1.523638 4.576643,-1.485636 5.573353,-1.520005 3.544572,-0.122227 7.09336,0 10.640038,0 11.303646,0 25.368391,-0.285441 36.480121,1.013335 14.56654,1.702584 28.78124,5.750746 42.56015,10.640041 2.21693,0.78665 4.3664,1.75624 6.58669,2.53334 1.16051,0.40618 2.40509,0.5567 3.54668,1.01333 3.00176,1.20071 0.24504,1.01334 2.53334,1.01334 0.16889,0 0.43114,0.15106 0.50667,0 0.15106,-0.30212 0,-0.67556 0,-1.01334 0,-3.88445 -0.12524,-7.77093 0,-11.653368 0.65416,-20.278928 0.50667,3.169926 0.50667,-15.200053 0,-3.689088 -0.48067,-3.611681 0.50667,-6.080021 0.14025,-0.350637 0.19244,-0.803855 0.50667,-1.013336 0.28105,-0.187367 0.68855,-0.0928 1.01333,0 0.87451,0.249857 1.70756,0.632203 2.53335,1.013336 2.90238,1.339561 6.90303,3.356358 9.12003,5.573352 4.24929,4.249299 6.94575,10.915359 8.10669,16.720058 0.12455,0.622726 1.44081,8.470872 -0.50667,9.120032 -0.9056,0.30187 -1.40495,-0.0354 -1.52,-1.01334 -0.29666,-2.52157 -0.39394,-5.063563 -0.50667,-7.600023 -0.71908,-16.17939 -1.24732,-32.503514 0.50667,-48.640168 0.31504,-2.898413 0.94823,-5.754497 1.52,-8.613363 1.17719,-5.88592 1.01334,-2.089631 1.01334,-6.080021 0,-0.166391 0.0503,-1.444514 0,-1.520005 -0.26497,-0.397465 -0.67556,-0.675558 -1.01334,-1.013338 -0.16889,-0.168889 -0.30793,-0.374179 -0.50666,-0.506669 -0.51247,-0.341641 -2.03897,-0.958406 -2.53335,-1.013336 -1.00714,-0.111906 -2.02667,0 -3.04001,0 -1.85778,0 -3.71556,0 -5.57335,0 -2.70223,0 -5.41045,-0.17975 -8.1067,0 -6.07044,0.404696 -12.03087,2.016733 -17.73339,4.053348 -5.96107,2.128954 -0.32285,-0.122547 -3.54668,2.026674 -0.14052,0.09368 -0.46571,-0.163849 -0.50667,0 -0.51271,2.05087 1.14411,5.918689 1.52001,7.093357 0.81386,2.543331 1.58628,5.10323 2.53334,7.600027 0.91233,2.405231 1.92683,4.774236 3.04001,7.093357 0.91574,1.907783 1.91844,3.778837 3.04001,5.573352 0.57315,0.917044 1.3229,1.712267 2.02667,2.533344 0.73508,0.857583 1.3663,1.520004 2.53335,1.520004 0.16889,0 0.38724,0.119423 0.50667,0 0.11942,-0.119422 -0.0937,-0.366143 0,-0.506669 0.26497,-0.397462 0.7997,-0.586076 1.01333,-1.013335 0.47769,-0.955384 0.67556,-2.026674 1.01334,-3.040013 0.50667,-1.520004 1.01334,-3.040009 1.52,-4.560014 1.09569,-3.287067 2.85265,-8.183203 3.54668,-11.653374 0.29994,-1.499661 0.30455,-3.044074 0.50667,-4.560017 0.6455,-4.841208 0.50667,-1.216806 0.50667,-5.573353 0,-1.013336 0.18127,-2.043017 0,-3.040009 -0.1627,-0.894827 -0.72573,-1.670516 -1.01334,-2.533343 -0.16889,-0.675558 -0.33778,-1.351116 -0.50667,-2.026672 -0.16888,-0.168891 -0.39985,-0.293039 -0.50666,-0.506669 -0.0755,-0.151061 0.16889,-0.506669 0,-0.506669 -0.16889,0 -0.0627,0.349859 0,0.506669 0.28051,0.701276 0.69173,1.343266 1.01333,2.026674 1.02963,2.187967 2.04474,4.382876 3.04001,6.586688 5.1711,11.450278 2.74431,5.88731 6.58669,15.706722 0.88451,2.260415 2.12175,4.623808 2.53334,7.093358 0.0555,0.333182 0,0.675558 0,1.013335 0,0.168892 0.11943,0.387247 0,0.50667 -0.11942,0.119422 -0.33777,0 -0.50666,0"
       id="path2" />
    <path
       style="fill:none;stroke:#000000;stroke-width:20;stroke-linecap:round;stroke-linejoin:round;stroke-dasharray:none;stroke-opacity:1"
       d="m 19.125304,24.129971 c 0,9.291612 0,18.583222 0,27.874834 0,1.703463 0,3.406925 0,5.110388 0,0.46458 0,0.929159 0,1.393739 0,0.464582 0.06722,0.93383 0,1.393743 -0.09239,0.632087 -0.394271,1.224747 -0.475292,1.858322 -0.157209,1.229315 0.157206,2.487328 0,3.716644 -0.08102,0.633575 -0.39427,1.224749 -0.475294,1.858323 -0.0786,0.614657 0,1.238882 0,1.858322 0,0.774301 0,1.548601 0,2.322902 0,0.61944 0.0786,1.243666 0,1.858323 -0.08102,0.633575 -0.403155,1.223723 -0.475292,1.858323 -0.08747,0.769564 0,1.548602 0,2.322902 0,0.619441 0,1.238882 0,1.858323 0,0.619441 0.08962,1.245107 0,1.858323 -0.07085,0.484787 -0.392929,0.910692 -0.475293,1.39374 -0.13023,0.763767 0,1.548602 0,2.322905 0,2.013182 0,4.026363 0,6.039545 0,4.955523 0,9.911058 0,14.866588 0,4.33608 0,8.67216 0,13.00826 0,1.08402 0,2.16804 0,3.25205 0,0.92917 -0.08606,1.86214 0,2.78749 0.07314,0.78639 0.38608,1.53811 0.475293,2.3229 0.06998,0.61566 0,1.23889 0,1.85833 0,1.23888 0,2.47777 0,3.71664 0,0.77431 -0.07883,1.55245 0,2.3229 0.08039,0.78572 0.39491,1.53719 0.475292,2.32291 0.07883,0.77045 0,1.5486 0,2.32291 0,0.92914 0,1.85832 0,2.78747 0,1.70346 0,3.40692 0,5.11039 0,0.46458 0,0.92916 0,1.39375 0,0.46457 -0.06722,0.93381 0,1.39373 0.09239,0.63209 0.382912,1.22623 0.475294,1.85832 0.06722,0.45992 -0.07814,0.93548 0,1.39375 0.08236,0.48305 0.353781,0.91865 0.475292,1.39375 0.195931,0.76604 0.243161,1.56654 0.475292,2.3229 0.24516,0.79877 0.743662,1.51385 0.950585,2.32289 0.278034,1.08707 0.864024,6.71409 0.950587,7.43329 0.149244,1.23998 0.400287,2.47028 0.475293,3.71664 0.08373,1.39134 -0.08893,2.7902 0,4.18124 0.06988,1.09289 0.389372,2.16025 0.475293,3.25205 0.07291,0.92643 0,1.85833 0,2.78749 0,1.23887 0,2.47777 0,3.71664 0,1.54861 0,3.0972 0,4.64581 0,0.20922 0.07233,1.25236 0,1.39373 -0.1002,0.1959 -0.375092,0.26871 -0.475293,0.46459 -0.140217,0.27412 0.108973,1.07419 0,1.39375 -0.112027,0.3285 -0.389372,0.59322 -0.475293,0.92915 -0.07685,0.30048 0.1002,0.63533 0,0.92917 -0.07085,0.20776 -0.375091,0.26869 -0.475292,0.46458 -0.141706,0.27702 0.224055,0.71015 0,0.92916 -0.112028,0.1095 -0.363266,-0.1095 -0.475295,0 -0.237644,0.23229 0.237647,1.16146 0,1.39374 -0.112027,0.1095 -0.363264,-0.1095 -0.475291,0 -0.237647,0.23228 0.237647,1.16145 0,1.39374 -0.112028,0.10951 -0.363266,-0.10951 -0.475294,0 -0.13005,0.12712 0.128921,1.60629 0,1.85833 -0.100199,0.19588 -0.375091,0.26869 -0.475292,0.46458 -0.07085,0.13851 0.07085,0.32607 0,0.46458 -0.1002,0.19588 -0.375092,0.2687 -0.475292,0.46458 -0.07085,0.1385 0,0.30973 0,0.46457 0,0.15486 0,0.30972 0,0.46459 0,0.61944 0,1.23888 0,1.85832 0,0.15486 -0.141707,0.39533 0,0.46458 0.283409,0.13851 0.667174,-0.1385 0.950584,0 0.400804,0.19587 0.592098,0.66636 0.950585,0.92915 0.283411,0.20778 0.621662,0.33599 0.950587,0.46459 1.519566,0.59413 1.819385,0.46459 3.32705,0.46459 0.158432,0 0.316863,0 0.475293,0 0.158432,0 0.363266,0.10949 0.475294,0 0.112027,-0.1095 0,-0.30972 0,-0.46459 0.15843,0 0.363265,0.1095 0.475292,0 0.112028,-0.1095 -0.112027,-0.35508 0,-0.46459 0.07375,-0.072 1.240931,0.0602 1.42588,0 3.442744,-1.12172 -0.749351,0.13395 1.425877,-0.92915 0.141705,-0.0692 0.333589,0.0692 0.475294,0 0.2004,-0.0979 0.274893,-0.36664 0.475293,-0.46458 0.141705,-0.0692 0.324992,0.0489 0.475293,0 0.336083,-0.10951 0.614502,-0.35508 0.950586,-0.46458 0.153074,-0.0499 1.891299,-0.002 1.901171,0 0.491276,0.096 0.950587,0.30972 1.42588,0.46458 0.792155,0.15486 1.579613,0.33477 2.376464,0.46458 1.105033,0.18003 2.228527,0.24981 3.327049,0.46458 3.829353,0.74861 4.081114,1.24116 8.079981,1.85833 1.572728,0.24273 3.171624,0.28273 4.752929,0.46458 1.112602,0.12793 2.2198,0.29806 3.32705,0.46458 0.952491,0.14323 1.892843,0.37084 2.851757,0.46457 0.945869,0.0925 1.901173,0 2.85176,0 1.584308,0 3.168619,0 4.752927,0 6.675639,0 -2.078502,-0.19588 3.32705,0.46458 1.729284,0.21129 3.491501,-0.14146 5.228222,0 0.960369,0.0781 1.890509,0.39748 2.851757,0.46458 1.26423,0.0883 2.537366,-0.0773 3.802343,0 1.274824,0.0778 2.527521,0.3867 3.802345,0.46459 1.26498,0.0773 2.534896,0 3.802343,0 1.742743,0 3.485476,0 5.228226,0 5.228216,0 10.456426,0 15.684656,0 3.64391,0 7.28782,0 10.93173,0 1.10903,0 2.21803,0 3.32706,0 0.31686,0 0.63372,0 0.95059,0 0.31686,0 0.64998,0.0979 0.95057,0 0.21257,-0.0692 0.27489,-0.36664 0.4753,-0.46459 0.14171,-0.0692 0.33359,0.0692 0.47529,0 0.20041,-0.0979 0.27491,-0.36664 0.47529,-0.46458 0.14172,-0.0692 0.31687,0 0.4753,0 0.31686,0 0.63988,0.0607 0.95058,0 0.49128,-0.096 0.95059,-0.30971 1.42588,-0.46458 0.94704,-0.30856 2.37217,-0.8125 3.32706,-0.92915 0.62882,-0.0769 1.2738,0.0876 1.90116,0 0.99194,-0.13853 1.86922,-0.73708 2.85176,-0.92916 0.62142,-0.12149 1.29996,0.19587 1.90118,0 0.21255,-0.0692 0.27488,-0.36665 0.47529,-0.46459 0.14465,-0.0707 1.21183,0 1.42587,0 1.10903,0 2.21803,0 3.32706,0 3.64391,0 7.28783,0 10.93174,0 1.74275,0 3.48548,0 5.22822,0 0.47529,0 0.95058,0 1.42588,0 0.63372,0 1.27382,-0.0875 1.90116,0 0.49597,0.0692 0.92992,0.39533 1.42589,0.46459 1.09787,0.15329 2.23312,-0.17822 3.32704,0 0.49419,0.0805 0.92991,0.39532 1.42587,0.46458 0.62737,0.0875 1.26746,0 1.90119,0 1.10901,0 2.21803,0 3.32705,0 3.32704,0 6.65409,0 9.98115,0 1.10901,0 2.21804,0 3.32705,0 0.31686,0 0.64998,-0.0979 0.95059,0 0.33608,0.1095 0.61451,0.35507 0.95057,0.46458 2.23896,0.7295 4.81423,1.01657 7.1294,1.39373 0.95058,0.15486 1.90361,0.29607 2.85176,0.46458 0.79481,0.14125 1.57357,0.3774 2.37646,0.46459 0.62986,0.0685 1.26746,0 1.90118,0 0.47529,0 0.95059,0 1.42587,0 0.15843,0 0.36327,0.1095 0.47529,0 0.0191,-0.0187 0,-1.68771 0,-1.85832 0,-0.15487 0.11203,-0.35507 0,-0.46458 -0.98338,-0.96124 0.0385,1.46889 -0.95057,-0.46458 -0.0708,-0.13851 0,-0.30973 0,-0.46458 0,-0.30972 0.10019,-0.63534 0,-0.92918 -0.0708,-0.20775 -0.3751,-0.26869 -0.4753,-0.46457 -0.0724,-0.14139 0,-1.18451 0,-1.39374 0,-1.23888 0,-2.47776 0,-3.71664 0,-1.54861 -0.12151,-3.10177 0,-4.64581 0.0712,-0.90485 0.75595,-4.99325 0.95058,-6.03954 0.24485,-1.3163 0.84285,-3.84672 0.95059,-5.1104 0.079,-0.92594 0,-1.85831 0,-2.78748 0.15843,-1.23888 0.32604,-2.47668 0.4753,-3.71665 1.0493,-8.7181 0.0118,0.67567 0.47529,-9.29161 0.0794,-1.70872 0.39205,-3.40182 0.4753,-5.11038 0.0753,-1.54684 0,-3.0972 0,-4.64581 0,-1.5486 0,-3.0972 0,-4.64579 0,-6.96872 0,-13.93744 0,-20.90613 0,-6.96871 0,-13.93744 0,-20.90614 0,-2.63262 0,-5.26524 0,-7.89786 0,-0.92916 0.086,-1.86215 0,-2.78749 -0.0731,-0.78639 -0.40217,-1.53651 -0.4753,-2.322905 -0.0861,-0.92535 0.0789,-1.86153 0,-2.78748 -0.0801,-0.93873 -0.40139,-1.84829 -0.47529,-2.78749 -0.085,-1.08083 0.14657,-2.177551 0,-3.252063 -0.17268,-1.265808 -0.69438,-2.464431 -0.9506,-3.716645 -0.21969,-1.073762 -0.31686,-2.168041 -0.47529,-3.252063 -0.47516,-3.251229 -0.91497,-6.510166 -1.42587,-9.756191 -0.31124,-1.977423 -0.42555,-2.849631 -0.95059,-4.645804 -0.13763,-0.47087 -0.39293,-0.910696 -0.47529,-1.393745 -0.0782,-0.458259 0.0781,-0.935481 0,-1.393741 -0.0823,-0.483049 -0.31687,-0.92916 -0.4753,-1.393742 -1.11464,-3.268572 0.33609,0.766519 -1.42586,-3.252063 -0.19736,-0.450114 -0.31687,-0.929163 -0.47531,-1.393742 -0.15842,-0.464581 -0.39293,-0.910694 -0.47529,-1.39374 -0.0782,-0.458262 0.0933,-0.938185 0,-1.393744 -0.0696,-0.339552 -0.31686,-0.619441 -0.4753,-0.929159 -0.15841,-0.774302 -0.3949,-1.537187 -0.47529,-2.322905 -0.0788,-0.770458 0,-1.5486 0,-2.322901 0,-2.168044 0,-4.336086 0,-6.504131 0,-1.858319 0,-3.716642 0,-5.574965 0,-0.619439 -0.10427,-1.247309 0,-1.858322 0.0583,-0.341565 0.38937,-0.593222 0.47529,-0.929163 0.0769,-0.30047 0,-0.61944 0,-0.92916 0,-0.483128 -0.0934,-2.422036 0,-2.787483 0.0859,-0.335938 0.36328,-0.600653 0.4753,-0.929161 0.0893,-0.262116 0,-1.088462 0,-1.393742 0,-1.084021 0,-2.168042 0,-3.252063 0,-0.112673 -0.0153,-1.378801 0,-1.393743 0.11204,-0.109502 0.36326,0.109504 0.47529,0 0.0191,-0.01869 0,-1.68771 0,-1.858322 0,-0.15486 0.11202,-0.355078 0,-0.46458 -0.11203,-0.109503 -0.31686,0 -0.47529,0 -0.15844,0 -0.31686,0 -0.4753,0 -2.0596,0 -4.11919,0 -6.1788,0 -1.58431,0 -3.17025,0.07032 -4.75294,0 -9.1145,-0.404959 -2.36043,-0.430919 -11.88231,-1.393741 -2.52636,-0.255457 -5.06979,-0.30972 -7.60469,-0.464581 -2.5349,-0.15486 -5.07047,-0.299441 -7.60468,-0.464579 -2.21876,-0.144585 -4.43183,-0.387004 -6.6541,-0.464582 -4.27492,-0.149234 -8.55844,0.160697 -12.83291,0 -2.06417,-0.0776 -4.11877,-0.315424 -6.17881,-0.464581 -2.21761,-0.160564 -4.44307,-0.233023 -6.6541,-0.46458 -2.22782,-0.233313 -4.41924,-0.773127 -6.6541,-0.929161 -2.21241,-0.154467 -4.43748,0.07738 -6.65411,0 -2.22226,-0.07758 -4.43192,-0.384134 -6.6541,-0.46458 -2.05818,-0.07451 -4.12085,0.08046 -6.17881,0 -1.90622,-0.07453 -3.79772,-0.379907 -5.703496,-0.464582 -1.58268,-0.07032 -3.1706,0.07734 -4.75293,0 -1.59023,-0.07772 -3.162522,-0.390553 -4.752932,-0.46458 -1.740769,-0.08102 -3.486992,0.07092 -5.228223,0 -2.505925,-0.102059 -8.71112,-0.700018 -11.407031,-0.929161 -5.231575,-0.444666 -10.459241,-0.882977 -15.684665,-1.393742 -4.615453,-0.451142 -5.232072,-0.525505 -9.981151,-0.929161 -1.900589,-0.161544 -3.797722,-0.379905 -5.703516,-0.46458 -1.582674,-0.07031 -3.16862,0 -4.752929,0 -1.58431,0 -3.168619,0 -4.752928,0 -1.58431,0 -3.17106,0.0859 -4.752931,0 -1.275344,-0.06925 -2.528277,-0.375627 -3.802342,-0.464581 -1.738311,-0.121367 -3.485482,0 -5.228222,0 -0.950586,0 -1.901171,0 -2.851758,0 -0.214052,0 -1.281231,-0.07069 -1.425878,0 -0.659726,0.322429 -0.475294,0.826637 -0.475294,1.393741 0,0.248186 -0.06801,2.18994 0,2.322903 0.04549,0.08893 1.810192,1.813858 1.901172,1.858323 1.170624,0.57212 -0.429063,-1.348555 1.42588,0.464581 0.112027,0.109503 -0.112028,0.355077 0,0.46458 0.112027,0.109503 0.333587,-0.06925 0.475292,0 0.200401,0.09794 0.274892,0.366638 0.475294,0.46458 0.141704,0.06925 0.363264,-0.109502 0.475292,0 0.112027,0.109503 -0.112028,0.355079 0,0.464581 0.112027,0.109502 0.363266,-0.109502 0.475292,0 0.112028,0.109502 0.112028,0.355078 0,0.464582 -0.112026,0.109501 -0.363265,-0.109504 -0.475292,0 -0.112028,0.109501 0,0.309719 0,0.464579 0,0.464581 0,0.929161 0,1.393741 z"
       id="path1" />
    <path
       style="fill:none;stroke:#000000;stroke-width:20;stroke-linecap:round;stroke-linejoin:miter;stroke-opacity:1;stroke-dasharray:none"
       d="m 20.551181,159.7875 c 0.749633,-0.73787 1.389585,-1.607 2.248898,-2.21362 1.30421,-0.92069 3.634246,-1.63807 5.066684,-2.53334 0.716089,-0.44756 1.324052,-1.05159 2.026674,-1.52001 0.819391,-0.54626 1.726573,-0.95527 2.533343,-1.52001 0.885933,-0.62015 1.668206,-1.37782 2.53334,-2.02667 0.487154,-0.36536 1.044504,-0.63293 1.520005,-1.01333 0.74603,-0.59683 1.26237,-1.45345 2.026674,-2.02668 0.30212,-0.22659 0.711219,-0.28008 1.013338,-0.50667 0.382154,-0.28661 0.631182,-0.72672 1.013336,-1.01333 0.30212,-0.22659 0.689507,-0.31237 1.013338,-0.50667 0.522161,-0.3133 1.013336,-0.67556 1.520005,-1.01334 0.506669,-0.33778 1.013336,-0.67556 1.520005,-1.01334 0.506669,-0.33777 0.975352,-0.74101 1.520005,-1.01333 2.402316,-1.20116 2.411052,-0.68357 4.560017,-2.02668 0.716089,-0.44755 1.310584,-1.07244 2.026673,-1.52 0.640491,-0.40031 1.386184,-0.61303 2.026674,-1.01334 0.71609,-0.44755 1.339517,-1.02918 2.026674,-1.52 0.991029,-0.70788 2.026672,-1.35112 3.04001,-2.02668 0.506669,-0.33778 1.044503,-0.63293 1.520005,-1.01333 0.746029,-0.59683 1.262366,-1.45345 2.026673,-2.02668 0.30212,-0.22659 0.675558,-0.33778 1.013336,-0.50667 0.33778,-0.33777 0.640324,-0.71492 1.013338,-1.01333 0.951003,-0.76081 2.104409,-1.24701 3.04001,-2.02668 0.55046,-0.45871 0.936934,-1.10352 1.520005,-1.52 1.229222,-0.87802 2.772367,-1.22606 4.053348,-2.02667 0.716089,-0.44756 1.351115,-1.01334 2.026673,-1.52001 2.322285,-1.74171 1.731063,-1.2983 4.053348,-3.04001 0.675558,-0.50667 1.310585,-1.07245 2.026674,-1.52001 1.982261,-1.23891 1.873147,-0.63206 3.546679,-2.02667 2.166406,-1.80534 0.939136,-1.04725 2.533343,-3.04001 2.005581,-2.50698 -0.100105,0.60677 2.53334,-2.02667 0.597115,-0.59712 0.970447,-1.38553 1.520008,-2.02668 0.466315,-0.54403 1.053687,-0.97597 1.520005,-1.52 0.549558,-0.64116 0.970446,-1.38552 1.520004,-2.02668 2.220357,-2.59042 0.694553,-0.57879 3.04001,-2.53334 0.55046,-0.45872 1.013338,-1.01333 1.520005,-1.52 1.182222,-1.182231 2.288432,-2.445717 3.546682,-3.546683 0.63551,-0.556072 1.42956,-0.92289 2.02667,-1.520005 0.59712,-0.597114 0.92289,-1.429559 1.52001,-2.026673 0.59711,-0.597115 1.42955,-0.922891 2.02667,-1.520005 0.59712,-0.597117 0.96393,-1.391164 1.52001,-2.026674 0.62912,-0.719 1.39754,-1.307677 2.02667,-2.026674 0.55607,-0.635513 1.00156,-1.360109 1.52,-2.026674 0.66393,-0.853623 1.34188,-1.696371 2.02668,-2.533343 1.67057,-2.041805 3.4838,-3.969509 5.06668,-6.080022 7.50768,-10.010232 -3.89691,4.256225 4.56002,-6.080019 0.68479,-0.836975 1.26199,-1.768663 2.02667,-2.533343 1.5004,-1.500394 2.98971,-2.200701 4.56002,-3.546679 5.32449,-4.56385 -2.28448,1.523839 3.04001,-3.040009 0.64115,-0.549561 1.37795,-0.979406 2.02667,-1.520008 0.36698,-0.30581 0.64032,-0.714925 1.01334,-1.013335 0.4755,-0.380402 1.08942,-0.582753 1.52,-1.013338 0.43059,-0.430583 0.58275,-1.08942 1.01334,-1.520005 0.59711,-0.597115 1.39116,-0.963933 2.02667,-1.520005 0.719,-0.629124 1.31261,-1.391952 2.02668,-2.026674 2.45615,-2.183249 3.28117,-2.407057 6.08002,-4.560014 1.04552,-0.804252 1.98476,-1.741903 3.04001,-2.533343 0.9743,-0.730729 2.09742,-1.255467 3.04001,-2.026674 0.92428,-0.75623 1.64076,-1.73994 2.53334,-2.533343 0.94269,-0.837941 2.45702,-1.806901 3.54668,-2.533341 0.50667,-0.33778 1.03285,-0.647972 1.52001,-1.013338 0.19107,-0.143306 0.29303,-0.399852 0.50666,-0.506666 0.15107,-0.07553 0.35561,0.07553 0.50667,0 0.24668,-0.123341 1.89814,-1.923844 2.02668,-2.026674 0.951,-0.760804 2.02667,-1.351116 3.04001,-2.026674 0.50667,-0.337781 1.01333,-0.675558 1.52,-1.013339 0.33778,-0.337777 0.63119,-0.72672 1.01334,-1.013335 0.30212,-0.226589 0.69911,-0.297188 1.01334,-0.506669 0.39746,-0.264975 0.58607,-0.799706 1.01333,-1.013336 0.15106,-0.07553 0.67509,-0.01262 0.50667,0 -0.16842,0.01262 -0.33778,0 -0.50667,0"
       id="path3" />
    <path
       style="fill:none;stroke:#000000;stroke-width:20;stroke-linecap:round;stroke-linejoin:miter;stroke-opacity:1;stroke-dasharray:none"
       d="m 40.513484,205.78098 c 15.12721,-18.98144 4.192569,-7.35076 16.740047,-17.807 0.917432,-0.76452 1.645679,-1.73444 2.533343,-2.53334 0.803812,-0.72343 1.729528,-1.30324 2.533343,-2.02667 0.887661,-0.7989 1.640763,-1.73994 2.53334,-2.53334 0.631148,-0.56102 1.351116,-1.01334 2.026674,-1.52001 0.675558,-0.50667 1.310585,-1.07245 2.026674,-1.52 1.28098,-0.80062 2.796458,-1.18875 4.053348,-2.02668 5.560933,-3.70729 -0.705078,-0.39093 5.573352,-4.05335 0.978615,-0.57085 2.08419,-0.91175 3.04001,-1.52 1.824707,-1.16118 3.294817,-2.81304 5.066686,-4.05335 6.778543,-4.74498 -1.486686,1.82817 4.560014,-3.54668 0.808265,-0.71845 1.688894,-1.35111 2.533344,-2.02667 2.53334,-2.02667 5.066683,-4.05335 7.600031,-6.08002 0.84444,-0.67556 1.72507,-1.30822 2.53334,-2.02668 1.2496,-1.11076 2.27726,-2.4586 3.54667,-3.54667 0.64116,-0.54956 1.38553,-0.97045 2.02668,-1.52001 0.54403,-0.46632 0.97597,-1.05369 1.52,-1.52 0.64116,-0.54956 1.42956,-0.92289 2.02668,-1.52001 0.43058,-0.43058 0.6235,-1.0522 1.01333,-1.52001 3.61068,-3.61067 -0.28825,0.487 2.53335,-3.04001 0.29841,-0.37301 0.67555,-0.67555 1.01333,-1.01333 0.67556,-0.67556 1.28065,-1.42985 2.02668,-2.02668 0.4755,-0.3804 1.0445,-0.63293 1.52,-1.01333 2.50698,-2.00559 -0.60677,0.1001 2.02668,-2.53335 0.43058,-0.43058 1.02449,-0.65939 1.52,-1.01333 0.68716,-0.49083 1.35112,-1.01334 2.02667,-1.52001 0.67556,-0.50667 1.39117,-0.96393 2.02668,-1.52 0.719,-0.62913 1.30767,-1.39755 2.02667,-2.02668 0.63551,-0.55607 1.38553,-0.97044 2.02668,-1.52 0.54403,-0.46632 1.01333,-1.01334 1.52,-1.52001 0.67556,-0.67556 1.35112,-1.35111 2.02668,-2.02667 0.67555,-0.67556 1.35111,-1.35112 2.02667,-2.02667 0.67556,-0.67556 1.44012,-1.27254 2.02667,-2.02668 0.6046,-0.77734 1.01334,-1.68889 1.52001,-2.53334 0.67556,-1.01334 1.26587,-2.08901 2.02667,-3.04001 0.59683,-0.74603 1.35112,-1.35112 2.02668,-2.02667 1.68889,-1.6889 3.37779,-3.37779 5.06668,-5.06669 8.40666,-8.406664 -2.68281,2.52737 6.58669,-6.080019 5.11645,-4.750988 1.96598,-2.515695 7.60002,-7.093357 1.31078,-1.065006 2.76407,-1.949082 4.05335,-3.040012 3.27257,-2.769098 1.71632,-1.833478 4.05335,-4.560015 0.46632,-0.544036 1.06129,-0.969547 1.52,-1.520007 0.77967,-0.935599 1.3188,-2.048981 2.02668,-3.04001 0.49082,-0.687154 1.01334,-1.351116 1.52,-2.026674 0.50667,-0.675558 0.97045,-1.385522 1.52001,-2.026674 1.38114,-1.611328 3.20368,-2.932414 4.56001,-4.560014 0.38984,-0.467802 0.53784,-1.139605 1.01334,-1.520007 0.41704,-0.333635 1.06204,-0.231889 1.52001,-0.506667 0.40962,-0.245771 0.63118,-0.726723 1.01333,-1.013338 0.30212,-0.226589 0.69912,-0.297185 1.01334,-0.506667 0.19873,-0.13249 0.29304,-0.399854 0.50667,-0.506669 0.15106,-0.07553 0.38725,0.119423 0.50667,0 0.11942,-0.119422 -0.11942,-0.387247 0,-0.506669 0.11942,-0.119422 0.35561,0.07553 0.50667,0 0.49857,-0.249288 1.52809,-1.777386 2.02667,-2.026674 0.15106,-0.07553 0.35561,0.07553 0.50667,0 0.21363,-0.106815 0.33778,-0.337777 0.50667,-0.506669 0.16888,-0.168889 0.37418,-0.307935 0.50667,-0.506666 0.20948,-0.314222 0.23963,-0.7463 0.50666,-1.013339 0.61712,-0.617114 1.13201,-0.237334 1.52001,-1.013335 0.0755,-0.151059 -0.11942,-0.387247 0,-0.506669 0.11942,-0.119423 0.34434,0.04661 0.50667,0 2.0137,-0.578266 4.00067,-1.245857 6.00101,-1.868784"
       id="path4" />
    <path
       style="fill:none;stroke:#000000;stroke-width:20;stroke-linecap:butt;stroke-linejoin:miter;stroke-opacity:1;stroke-dasharray:none"
       d="m 177.39784,207.63931 c -0.85296,-0.77118 -5.59303,-5.05979 -5.78714,-5.21751 -0.66837,-0.54304 -1.50951,-0.85698 -2.14961,-1.43307 -0.66309,-0.59678 -1.86681,-2.47649 -2.50789,-3.22442 -0.32973,-0.38469 -0.74116,-0.6935 -1.0748,-1.07481 -1.00709,-1.15095 -1.8501,-2.43963 -2.86615,-3.58268 -0.78543,-0.88361 -1.67192,-1.67192 -2.50788,-2.50788 -0.35827,-0.35827 -0.75045,-0.68558 -1.07481,-1.07481 -0.27565,-0.33079 -0.44755,-0.73857 -0.71653,-1.0748 -0.58948,-0.73684 -1.59272,-1.40708 -2.14962,-2.14962 -0.16022,-0.21363 -0.16944,-0.52771 -0.35827,-0.71654 -0.18882,-0.18882 -0.49434,-0.21014 -0.71653,-0.35826 -0.14053,-0.0937 -0.23885,-0.23885 -0.35827,-0.35827 -0.11943,-0.11942 -0.26459,-0.21775 -0.35827,-0.35827 -0.14813,-0.22219 -0.21014,-0.49435 -0.35827,-0.71654 -0.0937,-0.14052 -0.28274,-0.20721 -0.35827,-0.35827 -0.0534,-0.10681 0.0534,-0.25145 0,-0.35827 -0.0476,-0.0951 -0.97968,-1.02724 -1.0748,-1.0748 -0.10682,-0.0534 -0.27383,0.0844 -0.35827,0 -0.0844,-0.0845 0.0844,-0.27382 0,-0.35827 -1.39823,-1.39823 -0.19241,0.0829 -1.07481,-0.35827 -0.30212,-0.15106 -0.43549,-0.52917 -0.71654,-0.71653 -0.66141,-0.44095 -1.48819,-0.63387 -2.14961,-1.07481 -1.0748,-0.71654 0.71654,0 -1.0748,-1.07481 -0.32384,-0.1943 -0.73703,-0.18938 -1.07481,-0.35827 -0.38513,-0.19256 -0.68968,-0.52397 -1.07481,-0.71653 -0.33777,-0.16889 -0.73702,-0.18938 -1.0748,-0.35827 -2.34432,-1.17216 0.22743,-0.20665 -2.14962,-1.79135 -0.31422,-0.20948 -0.75097,-0.16397 -1.0748,-0.35827 -0.28964,-0.17378 -0.45278,-0.50552 -0.71654,-0.71653 -0.33623,-0.26899 -0.73857,-0.44756 -1.07481,-0.71654 -0.26376,-0.21101 -0.47768,-0.47769 -0.71653,-0.71654 -0.35827,-0.23884 -0.73034,-0.45818 -1.07481,-0.71654 -0.13511,-0.10133 -0.23884,-0.23884 -0.35827,-0.35826 -0.47769,-0.47769 -0.95538,-0.95539 -1.43307,-1.43308 -0.35827,-0.35827 -0.77081,-0.66947 -1.07481,-1.0748 -0.16022,-0.21363 -0.19804,-0.50291 -0.35827,-0.71654 -0.20266,-0.27023 -0.50552,-0.45278 -0.71653,-0.71654 -0.26899,-0.33623 -0.44756,-0.73857 -0.71654,-1.0748 -0.21101,-0.26376 -0.50553,-0.45278 -0.71654,-0.71654 -0.80392,-1.0049 -1.34569,-2.21952 -2.14961,-3.22442 -0.21101,-0.26376 -0.51387,-0.44631 -0.71654,-0.71654 -0.16022,-0.21363 -0.19804,-0.50291 -0.35827,-0.71654 -0.20266,-0.27022 -0.51387,-0.44631 -0.71653,-0.71653 -0.16023,-0.21363 -0.16945,-0.52772 -0.35827,-0.71654 -0.18883,-0.18882 -0.50291,-0.19804 -0.71654,-0.35827 -0.27022,-0.20267 -0.47769,-0.47769 -0.71654,-0.71653 -0.59711,-0.59712 -1.14262,-1.25075 -1.79134,-1.79135 -0.33079,-0.27565 -0.73857,-0.44755 -1.07481,-0.71654 -0.6594,-0.52752 -1.15019,-1.24178 -1.79134,-1.79134 -0.45336,-0.3886 -1.01085,-0.65258 -1.43307,-1.07481 -0.30448,-0.30447 -0.41207,-0.77033 -0.71654,-1.0748 -0.30447,-0.30447 -0.77034,-0.41207 -1.07481,-0.71654 -0.30447,-0.30447 -0.45818,-0.73034 -0.71654,-1.07481 -0.10133,-0.13511 -0.26458,-0.21774 -0.35826,-0.35827 -0.29626,-0.44437 -0.39609,-1.00581 -0.71654,-1.43307 -0.20267,-0.27022 -0.51387,-0.44631 -0.71654,-0.71654 -0.16022,-0.21362 -0.22088,-0.48755 -0.35827,-0.71653 -0.44307,-0.73845 -1.00581,-1.40191 -1.43307,-2.14961 -0.26498,-0.46371 -0.45156,-0.96937 -0.71654,-1.43308 -0.21363,-0.37385 -0.47769,-0.71654 -0.71654,-1.07481 -0.47769,-0.71653 -0.8951,-1.47715 -1.43307,-2.14961 -0.21101,-0.26376 -0.47769,-0.47769 -0.71654,-0.71654 -0.23884,-0.23884 -0.47769,-0.47769 -0.71654,-0.71653 -0.11942,-0.11942 -0.2072,-0.28274 -0.35826,-0.35827 -0.10682,-0.0534 -0.25146,0.0534 -0.35827,0 -0.30212,-0.15106 -0.41442,-0.56548 -0.71654,-0.71654 -0.10681,-0.0534 -0.25145,0.0534 -0.35827,0 -0.15106,-0.0755 -0.20721,-0.28274 -0.35827,-0.35827 -0.21363,-0.10681 -0.54765,0.16889 -0.71654,0 -0.0844,-0.0844 0.11943,-0.35827 0,-0.35827 -0.11942,0 -0.0844,0.27383 0,0.35827 0.0844,0.0844 0.27383,-0.0844 0.35827,0 0.0845,0.0844 -0.0534,0.25146 0,0.35827 0.15106,0.30212 0.56548,0.41442 0.71654,0.71654 0.0534,0.10681 0,0.23885 0,0.35827 1.93442,1.29074 3.86883,2.58149 5.80325,3.87224"
       id="path5" />
    <path
       style="fill:none;stroke:#000000;stroke-width:20;stroke-linecap:round;stroke-linejoin:miter;stroke-opacity:1;stroke-dasharray:none"
       d="m 209.71776,178.37072 c -3.74564,-3.92526 -7.42215,-7.91767 -11.23691,-11.77578 -13.79227,-13.94899 1.46179,2.14561 -7.16537,-6.80711 -5.50924,-5.71713 -10.814,-11.63546 -16.48037,-17.1969 -0.80405,-0.78917 -1.92873,-1.1664 -2.86615,-1.79134 -2.68858,-1.79239 -2.49443,-1.80753 -5.01576,-3.94095 -0.71202,-0.60249 -1.45945,-1.16393 -2.14961,-1.79135 -0.62484,-0.56803 -1.1665,-1.2233 -1.79134,-1.79134 -0.69016,-0.62742 -1.45945,-1.16393 -2.14961,-1.79135 -1.12472,-1.02246 -2.0805,-2.22348 -3.22442,-3.22441 -2.68958,-2.35338 -0.27857,-0.008 -2.50788,-1.79135 -2.55252,-2.04201 1.51681,0.77237 -1.79135,-1.43307 -0.35826,-0.23885 -0.71653,-0.47769 -1.0748,-0.71654 -0.23885,-0.23885 -0.44631,-0.51387 -0.71654,-0.71654 -0.21363,-0.16022 -0.52771,-0.16944 -0.71654,-0.35826 -0.18882,-0.18883 -0.16944,-0.52772 -0.35827,-0.71654 -0.18882,-0.18883 -0.49434,-0.21015 -0.71653,-0.35827 -0.14053,-0.0937 -0.20721,-0.28274 -0.35827,-0.35827 -0.10682,-0.0534 -0.25145,0.0534 -0.35827,0 -1.49103,-0.74551 0.383,0.0247 -0.35827,-0.71654 -0.0844,-0.0844 -0.40774,-0.10869 -0.35827,0 0.79034,1.73639 1.77597,3.37709 2.66396,5.06563"
       id="path6" />
    <path
       style="fill:none;stroke:#000000;stroke-width:20;stroke-linecap:round;stroke-linejoin:miter;stroke-opacity:1;stroke-dasharray:none"
       d="M 81.066946,103.86703 C 75.384884,89.590866 77.171986,90.351516 70.220662,81.326989 64.928297,74.456199 59.452155,67.728872 54.09857,60.905675 52.624206,59.026586 51.291405,57.038448 49.799345,55.173377 48.423737,53.453865 46.842735,51.903013 45.500123,50.157615 44.975057,49.47503 44.573563,48.704462 44.067047,48.008002 43.617284,47.389578 43.111666,46.813774 42.633974,46.216659 42.156282,45.619545 41.741608,44.966027 41.200898,44.425316 40.778676,44.003092 40.190046,43.772735 39.767824,43.35051 39.227114,42.8098 38.842775,42.130696 38.334748,41.559167 37.120113,40.1927 36.569898,39.860672 35.11033,38.693018 34.513215,38.215326 33.922589,37.729411 33.318987,37.259942 32.847653,36.893349 32.339274,36.573735 31.885913,36.185136 31.50122,35.855402 31.251017,35.361708 30.811107,35.11033 c -0.427519,-0.244295 -0.980495,-0.164304 -1.433076,-0.358267 -0.395769,-0.169617 -0.700952,-0.502907 -1.074806,-0.71654 -3.074412,-1.537205 0.0241,0.08611 -2.50788,-1.433073 -0.228983,-0.13739 -0.502907,-0.198046 -0.716538,-0.35827 -0.270223,-0.202665 -0.446314,-0.513868 -0.716537,-0.716536 -0.42726,-0.320445 -0.988697,-0.420286 -1.433075,-0.716537 -0.140524,-0.09368 -0.217744,-0.264586 -0.358268,-0.35827 -0.222189,-0.148126 -0.494349,-0.210142 -0.716538,-0.358269 -0.140524,-0.09368 -0.207209,-0.282739 -0.358268,-0.358267 -0.213631,-0.106815 -0.547648,0.168889 -0.716538,0 -0.08444,-0.08445 0.08445,-0.273825 0,-0.35827 -0.08444,-0.08444 -0.322366,0.113898 -0.358268,0 -0.541717,-1.718548 -0.864008,-3.498707 -1.296011,-5.24806"
       id="path7" />
    <path
       style="fill:none;stroke:#000000;stroke-width:20;stroke-linecap:butt;stroke-linejoin:miter;stroke-opacity:1;stroke-dasharray:none"
       d="M 107.92037,80.05361 C 103.63469,74.694549 100.53227,68.498478 96.374274,63.055288 92.150887,57.526488 87.529844,52.313088 83.118335,46.933196 82.148597,45.750593 81.19112,44.557714 80.252183,43.35051 79.885592,42.879176 79.574079,42.363725 79.177379,41.917434 78.616357,41.286287 77.983148,40.723206 77.386034,40.126091 76.788919,39.528977 76.191805,38.931863 75.594691,38.334748 74.28104,37.021097 73.018842,35.653892 71.653735,34.393793 70.8447,33.646991 69.954891,32.990985 69.145856,32.24418 68.401252,31.556854 67.743228,30.779307 66.996243,30.094568 66.308684,29.464307 65.53419,28.933489 64.84663,28.303225 64.099646,27.618489 63.413557,26.870152 62.697018,26.153613 61.980481,25.437076 61.234732,24.748605 60.547405,24.004001 59.800603,23.194965 59.144598,22.305157 58.397795,21.496121 57.023142,20.006914 55.531646,18.629971 54.09857,17.196896 52.784919,15.883245 51.512938,14.526556 50.157615,13.255941 50.045873,13.151182 47.302374,10.953159 46.933196,10.74806 46.371015,10.435738 45.71707,10.319131 45.141853,10.031523 44.371598,9.6463957 43.791819,8.9182791 42.992241,8.5984484 41.51653,8.0081638 42.861989,9.184732 41.917434,8.2401795"
       id="path8" />
  </g>
</svg>
