<?xml version="1.0" encoding="UTF-8" standalone="no"?>
<!-- Created with Inkscape (http://www.inkscape.org/) -->

<svg
   width="500mm"
   height="500mm"
   viewBox="0 0 500 500"
   version="1.1"
   id="svg3702"
   inkscape:version="1.3 (0e150ed, 2023-07-21)"
   sodipodi:docname="tree.svg"
   xmlns:inkscape="http://www.inkscape.org/namespaces/inkscape"
   xmlns:sodipodi="http://sodipodi.sourceforge.net/DTD/sodipodi-0.dtd"
   xmlns="http://www.w3.org/2000/svg"
   xmlns:svg="http://www.w3.org/2000/svg">
  <sodipodi:namedview
     id="namedview3704"
     pagecolor="#ffffff"
     bordercolor="#666666"
     borderopacity="1.0"
     inkscape:pageshadow="2"
     inkscape:pageopacity="0.0"
     inkscape:pagecheckerboard="0"
     inkscape:document-units="mm"
     showgrid="false"
     inkscape:zoom="0.21513994"
     inkscape:cx="1169.0065"
     inkscape:cy="1248.0249"
     inkscape:window-width="1312"
     inkscape:window-height="722"
     inkscape:window-x="0"
     inkscape:window-y="25"
     inkscape:window-maximized="0"
     inkscape:current-layer="layer1"
     inkscape:showpageshadow="2"
     inkscape:deskcolor="#d1d1d1" />
  <defs
     id="defs3699">
    <clipPath
       clipPathUnits="userSpaceOnUse"
       id="clipPath1492">
      <rect
         style="fill:#dabb7f;stroke:#333333;stroke-width:0;stroke-linecap:round;stroke-linejoin:round;stroke-miterlimit:4;stroke-dasharray:none;stroke-dashoffset:188.976"
         id="rect1494"
         width="53.252838"
         height="25.186342"
         x="47.904255"
         y="49.943756"
         rx="0.81433457"
         ry="0" />
    </clipPath>
    <clipPath
       clipPathUnits="userSpaceOnUse"
       id="clipPath2010">
      <rect
         style="fill:#dabb7f;stroke:#333333;stroke-width:0;stroke-linecap:round;stroke-linejoin:round;stroke-miterlimit:4;stroke-dasharray:none;stroke-dashoffset:188.976"
         id="rect2012"
         width="50"
         height="20.158905"
         x="87"
         y="18.226004"
         rx="0" />
    </clipPath>
  </defs>
  <g
     inkscape:label="Layer 1"
     inkscape:groupmode="layer"
     id="layer1">
    <path
       style="color:#000000;fill:#5e954c;fill-opacity:0.8;-inkscape-stroke:none"
       d="m 305.35352,32.966797 c -5.40365,-0.317864 -10.12131,0.588588 -14.09961,1.472656 -7.21312,1.602916 -17.6278,4.678167 -24.03711,13.949219 -1.68372,-0.963238 -4.23596,-1.91211 -8.01172,-1.91211 -1.93582,0 -4.92383,0.670927 -7.25391,2.601563 -2.33008,1.930636 -3.42077,4.504352 -3.81055,6.193359 -0.77954,3.378015 -0.19116,4.473844 -0.0293,5.283203 0.32374,1.61872 0.0937,2.637583 0.0937,-0.61914 0,7.216625 0.0597,9.843584 3.08594,18.417969 0.37369,1.058789 0.84465,2.401449 1.27734,3.646484 -1.57436,1.184848 -3.10651,2.521805 -4.50391,4.212891 -1.12134,1.357016 -2.02854,3.00902 -2.8125,4.763671 -2.53329,1.188518 -5.05028,2.631281 -7.48633,4.494141 -2.23763,1.711136 -4.08609,3.551873 -5.76562,5.400387 -2.35871,0.17636 -5.00002,0.53067 -7.93164,1.41016 -6.26979,1.88094 -10.96933,4.95738 -14.79688,7.25391 -0.80778,0.48467 -1.75383,1.11054 -2.61523,1.64062 -2.28757,-5.03025 -5.27959,-9.9781 -9.54102,-14.505858 C 187.80034,86.772849 176.29605,80.504612 163.29297,77.503906 156.2287,75.873615 150.0708,76.178977 145.23828,76 c -4.6099,-0.170736 -9.35685,-0.211545 -14.16601,-0.0918 -4.5387,-3.346556 -9.87805,-6.058126 -16.40821,-7.146484 -4.80453,-0.800753 -7.93344,-0.148438 -9.1875,-0.148438 -1.1747,0 -2.63403,-0.186695 -5.17968,-0.01758 -2.54566,0.169117 -6.009872,1.051395 -8.886724,2.695313 -2.91201,1.664005 -3.763199,2.552114 -5.951172,4.335937 -1.093986,0.891912 -2.193833,1.829187 -3.27539,2.865234 -1.081558,1.036048 -2.038574,1.364241 -3.761719,4.810547 -2.32012,4.640238 -2.29574,8.129445 -2.412109,11.275391 -0.0553,1.49501 -0.0072,2.197621 0.0098,3.408203 -1.278315,1.962712 -2.40972,4.130912 -3.193359,6.677732 -2.112359,6.86519 -0.486328,11.1308 -0.486328,11.84375 0,2.3471 -0.249602,5.488 0.0293,9.39258 0.718755,10.06258 3.329835,19.10799 7.474609,27.64453 -0.331547,0.52296 -0.618362,0.92671 -0.953125,1.4707 l 2.574219,1.58399 c 1.168602,2.17436 2.337527,4.34727 3.708984,6.4668 0.885785,1.36893 1.936975,3.05835 3.113281,4.78906 -4.3086,0.94428 -9.806539,1.98537 -15.771484,5.78125 -6.886693,4.38245 -11.335922,10.10144 -15.017578,14.75195 -4.139498,5.22883 -9.580476,11.48303 -12.78125,20.28516 -6.680864,18.37238 -4.620646,43.86131 -4.34961,56.87109 0.203329,9.75975 0.284098,19.89905 1.277344,30.32813 1.35681,14.2465 3.118049,28.46964 13.101563,42.29297 2.787515,3.85963 6.751088,8.79967 13.865234,11.31054 4.263773,1.50488 6.71086,1.19517 9.730469,1.11133 3.019608,-0.0838 6.166266,-0.38143 9.240234,-0.75977 6.147937,-0.75666 11.068518,-1.56943 14.712889,-2.58984 18.68358,-5.23142 34.04874,-15.74504 46.1836,-29.27734 0.12425,0.74555 0.1555,1.48227 0.29296,2.22851 1.18771,6.44757 2.06855,15.36092 7.87891,23.88282 0.91526,1.34238 2.01131,2.39742 3.08594,3.48437 -0.0153,2.38752 -0.0108,4.28766 -0.0762,7.29688 -0.41139,18.92383 -0.67736,36.44952 2.60742,56.1582 0.55878,3.35267 0.43568,8.28094 3.90234,14.43359 1.73333,3.07633 5.14538,6.55807 9.5332,8.01953 4.38783,1.46147 8.78089,1.00723 12.81641,-0.17968 5.47856,-1.61135 9.75111,-4.54841 13.86133,-7.75586 0.22657,1.15003 0.34442,2.28563 0.61914,3.43945 0.60548,2.54299 0.86707,9.35172 8.56055,14.16016 4.63226,2.89519 9.4928,2.13099 12.06836,1.34765 2.57556,-0.78334 4.10495,-1.70385 4.83007,-2.0664 0.92374,-0.46188 1.50026,-1.00313 2.28125,-1.50782 2.11679,-0.60256 3.46335,-1.51117 3.9375,-1.68359 3.5257,-1.28207 6.75029,-2.88798 9.57813,-4.88867 4.60042,2.36915 8.45029,1.86133 10.0293,1.86133 2.70978,0 6.90756,0.062 11.6914,-2.72852 10.58579,-6.17505 17.59425,-16.32975 20.95117,-27.14648 3.46698,-11.17137 4.7764,-26.65182 5.2168,-39.56641 4.60753,5.24824 9.65471,9.97809 15.19727,13.56445 11.46223,7.41675 25.3797,9.37215 38.19922,7.79688 1.264,1.11211 2.48626,1.67246 3.4375,2.04101 1.52925,0.59252 2.72966,0.78272 4.10156,0.81836 1.3719,0.0356 2.89052,0.051 5.35547,-1.11328 1.70963,-0.80753 4.09007,-3.18827 5.42968,-6.09961 0.0653,0.0941 0.0515,0.0707 0.1211,0.17188 0.32494,0.90103 0.97807,2.70268 3.04297,4.76758 4.08954,4.08982 5.45127,3.33669 7.95117,3.46679 1.24995,0.065 2.72492,0.25838 5.55469,-1.05273 1.41488,-0.65556 3.31846,-1.89289 4.76171,-4.16406 1.44326,-2.27118 1.94532,-5.38266 1.63086,-7.58399 -0.71166,-4.98162 -2.24905,-8.18763 -2.75195,-9.99805 -0.0162,-0.0582 -0.0307,-0.10979 -0.0469,-0.16796 0.99058,0.15293 1.75637,0.36432 2.84179,0.5 2.52155,0.3152 6.41772,1.00445 11.41211,-0.24415 3.42515,-0.85629 7.78223,-3.68121 9.625,-7.74218 1.84278,-4.06097 1.27476,-7.56526 0.66016,-9.86328 -1.22921,-4.59606 -3.26475,-6.97329 -3.80078,-7.77735 -5.14479,-7.7172 -9.87469,-11.07738 -14.65625,-16.17773 -2.68369,-2.8626 -2.66314,-2.96365 -3.85742,-4.35742 -2.54933,-3.71809 -5.3472,-7.31595 -8.6875,-10.65625 -1.60669,-1.60669 -4.07998,-4.31249 -8.61133,-6.125 -0.71009,-0.28404 -1.66898,-0.46319 -2.75782,-0.52344 -5e-4,-3.4e-4 -0.001,3.4e-4 -0.002,0 -0.45328,-0.30496 -0.62733,-0.48221 -1.18555,-0.81445 -0.35884,-0.21359 -0.76586,-0.45567 -1.21289,-0.69727 -1.54133,-12.27035 -4.33443,-24.50722 -9.82031,-36.57617 -0.76647,-1.68625 -1.60899,-3.29233 -2.47851,-4.86328 3.35304,1.8961 7.03984,3.37789 11.21484,4.21289 2.31636,0.46327 5.69478,0.65435 9.17383,-1.25196 0.5503,-0.30153 0.99865,-0.70463 1.47461,-1.08203 4.43071,0.11224 8.68751,-0.48486 12.62304,-1.46875 0.0247,-0.006 0.0803,-0.0212 0.10547,-0.0273 1.48193,1.27438 3.14308,2.51822 5.03516,3.66992 0.2703,0.16453 0.55912,0.28308 0.83203,0.44141 -0.1461,2.91823 0.0371,5.30132 0.0371,7.38086 0,1.95998 -0.49756,5.32014 0.084,9.97265 0.44355,3.54826 0.7265,8.66092 3.42188,14.38867 4.47456,9.50843 12.05828,18.25438 24.00976,21.83985 6.5577,1.96728 12.98104,2.10497 18.76368,1.66015 8.47591,-0.65198 17.36881,-2.02299 25.36718,-7.19921 7.99838,-5.17623 13.81128,-15.06826 14.29493,-26.67579 0.33806,-8.1136 -1.66432,-14.67088 -2.65039,-19.76562 -1.30853,-6.76065 -2.44479,-14.50198 -5.38086,-22.57617 -2.99868,-8.24638 -7.21453,-16.96986 -12.95508,-24.85352 1.4986,-1.40341 2.86095,-2.956 3.97656,-4.84375 2.51616,-4.25765 2.94924,-8.25603 3.40625,-11.91211 0.2074,-1.65922 0.93699,-4.15035 -0.41992,-8.35351 -1.35692,-4.20317 -4.85019,-7.12691 -7.29492,-8.59375 -5.93647,-3.56187 -10.58913,-3.2956 -13.72657,-2.97461 -3.79162,-7.61977 -7.84737,-15.9905 -14.01171,-23.88086 -5.43929,-6.96228 -12.04733,-13.50143 -20.02344,-18.52344 -4.87241,-3.06782 -10.26206,-5.11934 -15.83008,-6.16601 1.54925,-5.29513 0.0294,-8.73717 0.0156,-8.88868 -0.4075,-4.48249 -1.46301,-8.29915 -3.13281,-11.9375 -0.11747,-3.2464 -0.33694,-6.24985 -0.54492,-8.84961 -0.26663,-3.3329 -0.36974,-7.468232 -1.92578,-12.326168 -1.55604,-4.857935 -5.37764,-10.464997 -11.07617,-13.630859 -5.14103,-2.856098 -7.57101,-2.359804 -10.62891,-2.580078 -3.05789,-0.220274 -5.5537,-0.263783 -8.22656,0.0332 -0.057,0.0063 -0.0786,0.01881 -0.13477,0.02539 -4.2172,-3.300584 -8.42982,-6.331861 -12.55664,-9.089844 -0.43451,-2.946939 -0.86325,-7.08194 -3.31054,-11.976563 -3.01447,-6.028908 -7.68991,-10.39309 -13.08008,-13.310546 -2.31854,-2.723978 -4.97865,-5.285237 -8.51953,-7.308594 -5.27775,-3.015859 -10.46209,-3.644256 -14.65039,-3.890625 z M 161.47656,119.57031 c 5.12408,4.94094 8.68181,11.93964 12.6211,21 1.24834,2.87119 2.3782,6.06788 3.36328,9.35938 -0.13871,1.08843 -0.37881,2.36838 -0.5,3.33789 -0.69323,5.54579 -0.53361,10.85789 -0.10742,15.88476 -3.15006,-2.75148 -6.26806,-5.15671 -10.03516,-6.78711 -2.63938,-1.14231 -5.28325,-1.77871 -8.01953,-2.17187 -0.42543,-0.40997 -0.91958,-0.83839 -1.28125,-1.19727 0.94625,-1.62839 1.89617,-3.4893 2.66797,-5.80468 3.00837,-9.02517 1.79492,-17.41504 1.79492,-21.92579 0,-1.333 1.00105,-5.10326 -0.24414,-10.91406 -0.066,-0.3082 -0.18803,-0.48758 -0.25977,-0.78125 z m 55.0625,11.55274 c -0.003,0.0368 -0.007,0.0746 -0.01,0.11132 -1.03959,0.83097 -2.05029,1.73985 -3.07813,2.61329 -0.0258,-0.13809 -0.0597,-0.26666 -0.0859,-0.4043 1.09055,-0.83383 2.09921,-1.56778 3.17383,-2.32031 z M 106.56055,152.0918 c 1.28097,0.79657 2.48347,1.44195 3.61718,1.94531 0.18017,0.94656 0.30946,1.79925 0.5,2.75195 0.28547,1.42732 0.55572,2.54191 0.85157,3.86914 -0.67251,-0.41867 -1.37809,-0.97685 -2.28125,-1.81054 -1.00554,-0.92819 -2.28613,-2.75065 -3.73438,-4.92188 0.3522,-0.61368 0.70289,-1.1898 1.04688,-1.83398 z m 279.95703,6.4375 c 4.1032,0.32278 8.1644,1.34533 10.71484,2.95117 5.27908,3.32387 10.20613,8.07002 14.41016,13.45117 2.9584,3.78675 5.56185,8.42086 8.13476,13.32813 -4.08086,2.27003 -7.57524,6.84085 -8.79687,10.88085 -2.31523,0.67821 -4.56423,1.64184 -6.7461,2.875 -0.5952,-0.46147 -1.26594,-0.90816 -1.8789,-1.37109 -3.86048,-13.45843 -9.46382,-24.19217 -17.07422,-35.98828 -1.24821,-1.93473 -2.6168,-4.02281 -3.96289,-6.08008 1.67396,-0.13275 3.42201,-0.18668 5.19922,-0.0469 z m -102.48828,4.22656 c -0.0501,0.3796 -0.11149,0.77428 -0.13672,1.13476 -0.14253,-0.23008 -0.33989,-0.40605 -0.47266,-0.64843 0.20053,-0.16466 0.40997,-0.32034 0.60938,-0.48633 z m 21.99023,2.80859 c -0.0428,0.0833 -0.0331,0.0369 -0.082,0.13477 0.0419,-0.0838 -0.006,-0.0742 0.01,-0.13281 0.0121,0.003 0.059,-0.005 0.0723,-0.002 z m 0.41797,0.29102 c 0.52047,0.95742 1.22025,2.28493 1.9668,4.19922 -0.84006,0.17333 -1.70699,0.32222 -2.60157,0.42187 0.005,-0.20635 -0.0111,-0.27307 -0.004,-0.47656 0.0507,-1.43928 0.41568,-3.05164 0.63867,-4.14453 z m 58.43359,7.75 c 0.65436,1.02309 1.21174,1.87282 1.92383,2.97656 3.64881,5.65564 6.46341,10.44409 8.83985,15.25 -2.46941,0.30744 -4.94765,0.80992 -7.3711,1.7793 -1.44072,0.57629 -2.69885,1.4555 -3.83203,2.42578 -0.77573,-0.19416 -1.60897,-0.41594 -2.22461,-0.53906 1.25127,0.25026 0.66331,0.0361 -1.13672,-0.25196 -0.27173,-0.0435 -0.71307,-0.0776 -1.0957,-0.12109 0.001,-0.40475 0.008,-0.72826 0.008,-1.13867 0,-0.899 -0.0634,-1.43497 -0.084,-2.26367 3.57515,-5.74094 3.37815,-9.91185 3.78125,-14.5586 0.073,-0.84134 0.0683,-1.54354 0.12304,-2.33594 0.3604,-0.39835 0.71052,-0.82099 1.06836,-1.22265 z M 95.296875,188.8125 c -6.610742,5.60663 -12.480868,12.20529 -16.587891,19.39258 -3.091367,5.40989 -5.0594,10.63085 -6.585937,15.83398 -1.164414,1.19357 -2.385312,2.25654 -3.480469,3.60938 -2.169109,2.67948 -4.128888,5.46821 -5.900391,8.33789 0.429533,-8.16756 1.1773,-15.74392 2.650391,-19.79492 1.462482,-4.02183 5.025161,-8.67858 9.355469,-14.14844 3.515294,-4.44038 6.6827,-8.00316 9.578125,-9.8457 1.75948,-1.11967 5.661957,-2.06076 10.970703,-3.38477 z m 40.912105,18.54492 c 1.53793,-0.15357 3.01296,0.0459 4.51368,0.43164 1.00119,1.74646 1.85524,4.40541 2.40429,7.17188 -0.61168,0.0269 -1.27018,-0.003 -1.84961,0.0547 -0.60481,0.0605 -1.37882,0.18743 -2.07422,0.2754 -0.3631,-0.0481 -0.74469,-0.18122 -1.10546,-0.22071 -3.15223,-2.48779 -6.5316,-4.13355 -9.95118,-5.26172 3.16999,-1.32826 5.76485,-2.22173 8.0625,-2.45117 z m 40.38868,1.86524 c 0.13314,0.54142 0.23466,1.04542 0.35351,1.56836 -0.70075,0.42464 -1.439,0.81302 -2.11914,1.25976 -0.1066,-0.21745 -0.20353,-0.43296 -0.3125,-0.65039 0.62795,-0.9044 1.36213,-1.54704 2.07813,-2.17773 z m -55.06446,27.82421 v 9.32032 c -3.41953,-0.51894 -6.32177,-0.66016 -11.13672,-0.66016 -5.3654,0 -8.14375,0.0671 -11.148433,0.38086 0.3876,-1.55676 1.052973,-3.2053 1.714843,-4.85156 8.47329,-3.90378 10.62815,-3.86592 20.57031,-4.18946 z m 71.22071,28.07813 c -0.22007,2.28433 -0.38203,4.5552 -0.52735,6.82227 -0.0326,-0.10224 -0.0297,-0.16723 -0.0644,-0.27149 -0.82812,-2.48433 -1.57043,-3.8626 -2.12695,-4.76953 0.91107,-0.5266 1.83145,-1.1936 2.71875,-1.78125 z m -89.69532,2.46094 c 0.52224,-0.019 2.31528,0.0241 3.14649,0.0527 -2.30164,0.87124 -4.87278,1.70956 -7.17383,2.17969 -0.461544,0.0943 -0.595386,0.0196 -1.025391,0.082 0.0059,-0.21983 0.01609,-0.40599 0.02148,-0.62695 0.0071,-0.2931 2.09e-4,-0.51656 0.0059,-0.80664 2.286707,-0.45994 4.082617,-0.84666 5.025387,-0.88086 z m 350.34571,4.02734 c 0.12789,0.67183 0.24823,1.2562 0.38086,1.94141 1.21719,6.28885 2.41221,11.19876 2.26757,14.66992 -0.25631,6.15151 -1.52716,7.35083 -4.26562,9.12305 -2.73846,1.77222 -8.23345,3.20411 -15.10156,3.73242 -4.06096,0.31238 -7.85529,0.0727 -10.75391,-0.79688 -0.53276,-0.15983 -1.43524,-0.76404 -2.47461,-1.57617 2.70562,0.62266 5.14751,0.79486 7.07813,0.94336 4.26107,0.32776 8.23965,-0.52317 11.91211,-2.35937 3.55976,-1.77991 5.25583,-4.6289 6.08007,-6.55665 0.82425,-1.92774 1.03346,-3.35194 1.16407,-4.52734 0.25306,-2.27758 0.29,-4.4241 0.2207,-6.51562 1.41694,-1.47151 2.65471,-3.3493 3.20703,-5.5586 0.24416,-0.97658 0.20703,-1.6874 0.28516,-2.51953 z m -261.71094,12.86914 c -0.003,0.15503 -0.0108,0.31187 -0.0137,0.4668 -0.11777,0.0224 -0.23839,0.0388 -0.35547,0.0625 0.11079,-0.17806 0.26997,-0.35284 0.36914,-0.5293 z M 75.457031,295.45117 c 0.218981,0.45318 0.503545,0.90326 0.753906,1.35547 0.05893,0.49741 0.187875,1.13154 0.25586,1.66211 -0.266964,-0.73162 -0.587166,-1.58589 -1.009766,-3.01758 z m 93.175779,5.44727 c 0.38916,0.45148 0.76838,0.90643 1.18164,1.34765 -0.33391,0.74998 -0.67158,1.46501 -0.95703,2.14649 -0.10268,-1.1514 -0.14535,-2.33141 -0.22461,-3.49414 z m -98.316404,20.54492 c 6.452761,2.70075 13.10435,2.83398 17.94336,2.83398 1.03831,0 2.218777,-0.15652 3.302734,-0.19531 1.496964,0.79021 3.011597,1.53613 4.707031,1.98633 -0.160599,0.0378 -6.183917,1.28493 -11.375,1.92383 -2.616491,0.32203 -5.232753,0.55184 -7.164062,0.60547 -0.894509,0.0248 -1.67072,-0.0841 -2.136719,-0.14258 -0.425147,-0.31475 -1.635692,-1.26195 -3.013672,-3.16992 -0.934724,-1.29424 -1.533945,-2.56597 -2.263672,-3.8418 z m 232.472654,15.20508 c 5.65918,4.52221 11.93138,7.92577 18.3418,10.7539 2.20743,1.21159 4.45558,2.30233 6.75391,3.1875 1.25941,1.82314 2.32498,3.15607 3.19921,4.15039 0.28655,0.63353 0.33818,0.899 0.67969,1.58204 0.73525,1.47046 1.15793,1.88932 1.74805,2.58007 0.44671,1.4475 0.86154,3.08223 1.30273,4.46094 0.27766,0.86768 0.58786,1.57022 0.87696,2.41406 -6.5453,-0.37312 -12.92467,-1.68586 -16.39844,-3.93359 -5.24061,-3.39099 -12.08591,-11.91299 -18.07813,-21.04492 0.55107,-1.32427 1.05308,-2.76179 1.57422,-4.15039 z m 29.625,19.64062 c 0.0529,0.0671 0.19553,0.21749 0.23828,0.27735 0.61034,0.85448 0.19323,0.79727 -0.23828,-0.27735 z m -150.76367,0.55078 c 0.0474,0.004 0.0972,0.0139 0.14453,0.0176 v 1.92383 c 0,3.06443 -0.11847,6.33126 -0.18359,9.73828 0.0265,-3.87356 -0.0476,-7.57751 0.0391,-11.67969 z m -0.041,12.58399 c -0.0555,3.50706 -0.0546,7.17153 0.21094,11.02148 -0.0579,-0.83919 0.0122,1.26708 0.11719,3.19141 0.10495,1.92433 0.30253,4.38037 0.78516,7.0918 0.48262,2.71142 1.18012,5.68168 2.82421,8.89843 1.13169,2.2142 3.00278,4.75285 5.7168,6.71289 -2.55902,2.03845 -4.85077,3.52791 -6.63672,4.55078 -0.28744,-1.32606 -0.30785,-1.38031 -0.66015,-3.49414 -2.13432,-12.80592 -2.42191,-25.08051 -2.35743,-37.97265 z m 182.67188,13.42383 c 1.72333,0.94193 4.15334,1.61702 6.13672,1.56836 -2.38857,0.0791 -4.71273,-0.6271 -5.83789,-1.25782 -0.18116,-0.10155 -0.16108,-0.12443 -0.31641,-0.21679 0.011,-0.03 0.007,-0.0637 0.0176,-0.0937 z M 228.72852,406.7793 c 0.30414,1.34441 0.57084,2.69839 0.96484,4.0957 -0.72596,0.99124 -1.42111,1.99272 -2.24219,2.97461 -0.095,-1.14383 -0.22293,-1.588 -0.3164,-2.94336 -0.0973,-1.41056 -0.0737,-2.62989 -0.13672,-3.97852 0.60988,-0.0267 1.14948,-0.086 1.73047,-0.14843 z"
       id="path2" />
    <path
       style="fill:none;stroke:#000000;stroke-width:20;stroke-linecap:round;stroke-linejoin:miter;stroke-dasharray:none;stroke-opacity:1"
       d="m 181.72598,312.04848 c 0,38.94431 0,77.8886 0,116.83288 0,9.4686 -0.56277,6.69118 1.22982,14.75783 0.83203,3.74417 1.06298,5.98228 3.68946,8.60875 0.40994,0.40994 0.67983,1.04648 1.22982,1.22981 0.77781,0.25929 1.65568,-0.16079 2.45964,0 1.27117,0.25423 2.40614,1.0465 3.68946,1.22983 1.62328,0.23188 3.27952,0 4.91928,0 8.46667,0 3.83153,0 12.29819,0 2.45965,0 4.91928,0 7.37892,0 2.0497,0 4.13921,0.40198 6.1491,0 3.59268,-0.71853 11.68957,-4.92432 14.75784,-7.37891 0.9054,-0.72432 1.55423,-1.73532 2.45964,-2.45965 1.15417,-0.92334 2.53529,-1.5363 3.68946,-2.45964 1.81081,-1.44865 3.0641,-3.5279 4.91927,-4.91927 0.73333,-0.55001 1.81147,-0.58166 2.45964,-1.22983 6.28485,-6.28484 -5.1566,1.71526 3.68946,-4.91927 0.73333,-0.54999 1.72632,-0.67985 2.45964,-1.22984 0.92571,-0.69426 5.45482,-5.22337 6.1491,-6.1491 0.54999,-0.73332 0.67983,-1.7263 1.22982,-2.45962 0.69569,-0.9276 1.86309,-1.46539 2.45964,-2.45964 0.0372,-0.062 2.38633,-7.20786 2.45964,-7.37891 6.84795,-13.69592 -1.33393,3.55713 3.68946,-9.83856 0.64371,-1.71659 2.1001,-3.12158 2.45964,-4.91929 0.48237,-2.41187 -0.24473,-4.93149 0,-7.37892 0.16817,-1.68182 1.02016,-3.24209 1.22981,-4.91926 0.20339,-1.62711 0,-3.27954 0,-4.91929 0,-2.0497 0,-4.0994 0,-6.14911 0,-2.0497 0,-4.0994 0,-6.1491 0,-1.22981 0.17394,-2.472 0,-3.68945 -0.23902,-1.67323 -1.04317,-3.2394 -1.22981,-4.91927 -0.22635,-2.03716 0.22636,-4.11194 0,-6.1491 -0.18666,-1.67989 -1.04317,-3.2394 -1.22982,-4.91929 -0.22635,-2.03716 0.22634,-4.11192 0,-6.1491 -1.5281,-13.75283 -1.22982,2.33021 -1.22982,-8.60873 0,-0.40994 0,-0.81989 0,-1.22983 0,-0.40992 -0.40994,-1.22981 0,-1.22981 0.57974,0 0.86765,0.77711 1.22982,1.22981 1.28044,1.60057 2.63489,3.16169 3.68944,4.91929 1.41486,2.35807 2.37266,4.96475 3.68949,7.37891 1.14461,2.09847 2.45962,4.0994 3.68945,6.1491 1.22981,2.0497 2.40615,4.13248 3.68946,6.14911 1.58705,2.49396 3.50372,4.78374 4.91926,7.37891 1.05712,1.93804 1.28964,4.27707 2.45965,6.1491 0.92178,1.47487 2.57604,2.35334 3.68946,3.68945 0.94622,1.13549 1.5363,2.5353 2.45964,3.68946 0.72432,0.9054 1.63976,1.63976 2.45965,2.45965 0.81986,0.81989 1.49487,1.81647 2.45962,2.45964 1.5254,1.01693 3.27953,1.63976 4.91929,2.45965 1.63975,0.81986 3.2027,1.81591 4.91926,2.45962 1.58261,0.59348 3.31582,0.69532 4.9193,1.22983 2.09431,0.69811 4.05479,1.76152 6.1491,2.45962 2.83125,0.94377 5.7563,1.58197 8.60872,2.45965 2.47803,0.76248 4.91929,1.63976 7.37894,2.45965 4.91926,1.63975 9.75516,3.55491 14.75782,4.91926 2.01663,0.54999 4.10858,0.77639 6.1491,1.22984 1.64997,0.36666 3.24604,0.99078 4.91927,1.22981 2.02911,0.28987 4.0994,0 6.1491,0 1.27892,0 6.41154,0.24185 7.37894,0 2.67681,-0.66921 4.35091,-3.12111 6.14907,-4.91927 1.22984,-1.22983 2.45965,-2.45964 3.68949,-3.68945 2.0497,-2.0497 4.29336,-3.92227 6.14907,-6.14911 1.85507,-2.22609 2.48891,-3.748 3.68948,-6.1491 0.40992,-0.81989 0.72134,-1.69693 1.22981,-2.45964 0.32158,-0.48237 0.97055,-0.71128 1.22981,-1.22981 0.18333,-0.36666 0,-0.81989 0,-1.22984 0,-0.81986 0.16079,-1.65568 0,-2.45962 -0.85592,-4.27963 -2.64607,-5.67103 -4.91926,-9.83856 -4.64482,-8.51551 -3.10671,-6.73118 -7.37891,-15.98766 -1.1524,-2.49687 -2.45965,-4.91929 -3.68949,-7.37893 -1.63975,-3.27951 -3.10012,-6.65504 -4.91926,-9.83856 -1.46664,-2.56662 -3.27951,-4.91927 -4.91929,-7.37891 -1.63976,-2.45965 -3.20107,-4.97343 -4.91927,-7.37891 -1.19137,-1.66791 -2.49809,-3.25136 -3.68946,-4.9193 -3.22413,-4.51376 -6.22016,-9.30653 -9.83855,-13.52801 -1.13189,-1.32051 -2.5576,-2.36892 -3.68946,-3.68946 -1.33392,-1.55625 -2.49809,-3.25135 -3.68945,-4.91926 -0.85911,-1.20274 -1.41452,-2.64433 -2.45965,-3.68946 -1.04516,-1.04515 -2.42205,-1.69918 -3.68946,-2.45964 -8.1988,-4.9193 2.86957,2.86956 -3.68945,-3.68946 -0.28988,-0.28988 -0.93996,0.28988 -1.22984,0 -0.28988,-0.28988 -0.36666,-1.04651 0,-1.22984 1.3833,-0.69162 7.36769,1.22704 7.37891,1.22984 3.27954,0.81987 6.59548,1.5058 9.83856,2.45965 7.46202,2.19469 14.67477,5.18419 22.13676,7.37891 3.24311,0.95385 6.57225,1.58861 9.83856,2.45964 21.64823,5.77284 -2.0429,-0.044 14.75785,3.68946 1.64997,0.36666 3.24604,0.99079 4.91926,1.22981 2.02912,0.28988 4.09941,0 6.14911,0 1.27891,0 6.41151,0.24186 7.37891,0 0.88929,-0.22233 1.60856,-0.88937 2.45964,-1.22981 9.39504,-3.75804 -2.29576,1.83891 7.37892,-3.68946 1.59176,-0.90958 3.52734,-1.26656 4.91929,-2.45964 1.55625,-1.33392 2.1332,-3.58537 3.68945,-4.91929 1.39195,-1.19309 3.42744,-1.39404 4.91927,-2.45962 1.41528,-1.01092 2.45965,-2.45965 3.68945,-3.68949 1.22984,-1.22981 2.603,-2.33134 3.68949,-3.68945 0.57261,-0.71578 0.67982,-1.7263 1.22981,-2.45962 3.56618,-4.75493 1.88066,0.18169 3.68945,-6.1491 0.63207,-2.21218 2.26457,-9.1176 2.45965,-11.0684 0.20394,-2.03951 -0.18558,-4.10781 0,-6.1491 0.22574,-2.48332 1.02275,-4.89394 1.22981,-7.37891 0.20426,-2.45113 0,-4.91927 0,-7.37891 0,-1.63976 -0.20339,-3.29219 0,-4.91928 0.20965,-1.67718 1.02018,-3.24211 1.22983,-4.91928 0.30507,-2.44065 0,-4.91928 0,-7.37892 0,-0.81988 0,-1.63976 0,-2.45964 0,-0.81988 0.19884,-1.66424 0,-2.45964 -0.72495,-2.89982 -3.01535,-3.92783 -4.91929,-6.14909 -9.83855,-13.11808 2.86959,2.86957 -8.60875,-8.60874 -1.44933,-1.44936 -2.24009,-3.46992 -3.68945,-4.91928 -1.52543,-1.52543 -6.51383,-4.7525 -8.60872,-6.1491 -3.93772,-2.62513 -7.82085,-5.69991 -12.29821,-7.37892 -1.5826,-0.59347 -3.26929,-0.86316 -4.91926,-1.22982 -2.04052,-0.45344 -4.06919,-1.02182 -6.1491,-1.22982 -2.03954,-0.20395 -4.10959,0.20396 -6.14911,0 -2.07991,-0.20799 -4.06918,-1.02183 -6.1491,-1.22982 -2.03954,-0.20395 -4.0994,0 -6.1491,0 -2.0497,-0.40994 -4.07159,-0.99898 -6.1491,-1.22982 -1.62973,-0.18108 -3.27951,0 -4.91927,0 -4.50934,0 -9.01869,0 -13.52801,0 -2.45965,0 -4.91929,0 -7.37894,0 -0.40992,0 -0.93993,0.28988 -1.22981,0 -0.28987,-0.28987 0,-0.81987 0,-1.22981 0,-0.40994 0,-0.81989 0,-1.22983 0,-2.86957 0,-5.73915 0,-8.60873 0,-2.0497 -0.20394,-4.10957 0,-6.1491 0.39606,-3.9605 2.23364,-10.03408 3.68946,-13.52802 1.05767,-2.53842 2.70229,-4.81225 3.68945,-7.37891 1.07136,-2.78549 1.3883,-5.82326 2.45965,-8.60874 0.98719,-2.56667 2.81985,-4.77008 3.68946,-7.37892 0.78853,-2.36561 0.44129,-5.01331 1.22981,-7.37892 0.46741,-1.40221 1.99226,-2.28725 2.45964,-3.68946 0,-8.72277 -0.8696,-0.72041 1.22984,-4.91928 0.18333,-0.36666 0,-0.81988 0,-1.22982 0,-0.40994 0,-0.81988 0,-1.22982 0,-0.81988 0.19883,-1.66424 0,-2.459631 -0.96494,-3.85975 -2.73757,-6.56599 -4.91929,-9.83856 -0.81989,-1.22982 -1.69918,-2.42204 -2.45965,-3.68946 -0.47159,-0.78602 -0.67982,-1.72632 -1.22981,-2.45964 -0.6957,-0.92759 -1.76395,-1.53205 -2.45965,-2.45964 -0.54998,-0.73332 -0.67982,-1.72632 -1.22981,-2.45964 -0.69569,-0.92759 -1.63975,-1.63976 -2.45964,-2.45964 -1.63976,-1.63976 -3.10846,-3.47063 -4.91927,-4.919276 -1.15419,-0.923338 -2.45964,-1.639761 -3.68948,-2.459641 -1.22981,-0.81988 -2.40612,-1.726316 -3.68945,-2.459638 -3.1835,-1.819151 -6.72926,-2.975978 -9.83856,-4.919279 -1.73813,-1.086339 -3.18114,-2.603122 -4.91927,-3.689461 -1.55464,-0.971651 -3.27951,-1.639758 -4.91929,-2.459638 -1.63976,-0.81988 -3.23419,-1.737463 -4.91927,-2.459638 -2.38304,-1.02131 -5.05994,-1.300155 -7.37891,-2.459641 -4.24944,-2.124713 -2.74214,-2.916663 -7.37894,-3.689458 -1.21308,-0.202182 -2.47636,0.202181 -3.68945,0 -1.27871,-0.21312 -2.41075,-1.016702 -3.68946,-1.229821 -1.21309,-0.202181 -2.45964,0 -3.68945,0 -1.63976,0 -3.27951,0 -4.91927,0 -6.55905,0 -13.11809,0 -19.67711,0 -1.63979,0 -3.27954,0 -4.9193,0 -1.63975,0 -3.29599,-0.231896 -4.91927,0 -1.28332,0.18333 -2.44299,0.873686 -3.68946,1.229821 -1.62519,0.464341 -3.29409,0.765479 -4.91928,1.22982 -2.49293,0.712266 -4.91928,1.639758 -7.37892,2.459638 -1.22982,0.40994 -2.48583,0.748369 -3.68946,1.22982 -0.85109,0.340437 -1.63976,0.819881 -2.45964,1.229821 -0.81988,0.409937 -1.69693,0.721349 -2.45964,1.229817 -0.96475,0.643168 -1.42256,1.941103 -2.45963,2.459641 -0.36667,0.18333 -0.93995,-0.289872 -1.22982,0 -0.28988,0.28987 0.18333,0.863158 0,1.229818 -0.25927,0.518538 -0.81988,0.81988 -1.22982,1.22982 -0.81988,0.81988 -1.73532,1.554234 -2.45964,2.459641 -3.86868,4.835842 -1.3123,2.837558 -4.91928,8.608737 -1.08634,1.738137 -2.4981,3.251367 -3.68946,4.919277 -1.71821,2.40549 -3.27952,4.91928 -4.91928,7.37892 -0.81988,1.22982 -1.5363,2.53529 -2.45964,3.68946 -0.72432,0.9054 -1.76395,1.53205 -2.45964,2.45964 -0.54999,0.73332 -0.72135,1.69693 -1.22982,2.45964 -0.32158,0.48237 -0.97055,0.71128 -1.22982,1.22982 -0.18333,0.36666 0.18333,0.86315 0,1.22982 -0.51854,1.03707 -1.9411,1.42256 -2.45964,2.45963 -0.18333,0.36667 0.28987,0.93995 0,1.22983 -0.64817,0.64817 -1.90964,0.49649 -2.45964,1.22982 -0.7778,1.03707 -0.51074,2.610831 -1.22982,3.689451 -0.96475,1.44713 -2.45964,2.45964 -3.68946,3.68946 -2.45963,2.45964 -4.91927,4.91928 -7.37891,7.37892 -1.63976,1.63976 -3.41012,3.15859 -4.91928,4.91928 -0.96191,1.12223 -1.4145,2.64431 -2.45964,3.68946 -0.64817,0.64817 -1.81147,0.58165 -2.45964,1.22982 -0.73498,0.73498 1.32929,2.45964 -1.22982,2.45964 -0.40994,0 0.18333,-0.86316 0,-1.22982 -0.25927,-0.51854 -0.88197,-0.76603 -1.22982,-1.22982 -0.88684,-1.18245 -1.72632,-2.40615 -2.45964,-3.68946 -0.90957,-1.59176 -1.48799,-3.36464 -2.45964,-4.91928 -1.08634,-1.73814 -2.45964,-3.27952 -3.68946,-4.91928 -1.22982,-1.63976 -2.45964,-3.27952 -3.68946,-4.91928 -2.91615,-3.8882 -3.78174,-5.525451 -7.37891,-8.608741 -12.79603,-10.96801 3.79403,4.18074 -11.06838,-7.37891 -1.83049,-1.42371 -3.17408,-3.39223 -4.91928,-4.91928 -2.25642,-1.97437 -8.49714,-6.30757 -11.06838,-7.37892 -6.49466,-2.70611 -11.50787,-2.82203 -18.44729,-3.68946 -3.27952,-0.40994 -6.53995,-1.023656 -9.83856,-1.229816 -3.27313,-0.204571 -6.55904,0 -9.83856,0 -6.14909,0 -12.302737,-0.236332 -18.447291,0 -9.974831,0.383645 -11.655988,-0.385326 -18.447295,3.689456 -0.994251,0.59655 -1.63976,1.63976 -2.459641,2.45964 -1.171654,1.17165 -2.087366,1.8281 -2.459638,3.68946 -0.241189,1.20594 0.173922,2.472 0,3.68946 -0.239035,1.67324 -0.898339,3.26188 -1.22982,4.91928 -0.489029,2.44514 -0.81988,4.91928 -1.22982,7.37892 -0.40994,2.45964 -1.022739,4.893961 -1.229821,7.378911 -0.204261,2.45115 0,4.91928 0,7.37892 0,4.50934 0,9.01868 0,13.52802 0,8.46666 0,3.83153 0,12.29819 0,1.22982 0,2.45964 0,3.68946 0,1.22982 -0.241186,2.48352 0,3.68946 0.179771,0.89886 0.819881,1.63976 1.229821,2.45964 0.40994,0.81988 0.721352,1.69694 1.22982,2.45964 0.321583,0.48238 0.908235,0.74744 1.22982,1.22982 0.508466,0.7627 0.679826,1.72632 1.229818,2.45964 0.695693,0.92759 1.639761,1.63976 2.459641,2.45964 0.81988,0.81988 1.532051,1.76395 2.459638,2.45964 0.733324,0.54999 1.726316,0.67983 2.459641,1.22982 0.927586,0.69569 1.532051,1.76395 2.459638,2.45964 0.733324,0.54999 1.673616,0.7582 2.45964,1.22982 5.146241,3.08774 2.452556,2.28091 8.608738,4.91928 1.191527,0.51065 2.497931,0.71916 3.689458,1.22981 1.685076,0.72218 3.202699,1.81593 4.919279,2.45964 3.152288,1.18211 5.635574,0.97306 8.608734,2.45964 1.32202,0.66101 2.33091,1.87741 3.68946,2.45964 5.51651,2.36422 3.82231,0.0664 8.60874,2.45964 0.51854,0.25927 0.74744,0.90824 1.22982,1.22982 0.7627,0.50847 1.69694,0.72135 2.45964,1.22982 0.48238,0.32158 0.71128,0.97055 1.22982,1.22982 0.36666,0.18333 1.63976,0 1.22982,0 -7.79198,0 -8.5392,2.42487 -15.98766,6.1491 -3.61119,1.8056 -7.415225,3.20015 -11.068374,4.91928 -3.317621,1.56123 -6.559039,3.27952 -9.838558,4.91928 -3.279518,1.63976 -6.559036,3.27952 -9.838557,4.91928 -2.459638,1.22982 -5.058881,2.21307 -7.378917,3.68945 -4.128963,2.62753 -6.531404,5.30159 -9.838558,8.60874 -1.22982,1.22982 -2.353347,2.57603 -3.689458,3.68946 -1.135478,0.94623 -2.644315,1.41449 -3.689459,2.45964 -2.652699,2.6527 -3.451317,6.60904 -4.919278,9.83856 -3.323977,7.31273 -5.184429,8.8784 -7.37892,17.21746 -1.16641,4.43238 -1.639759,9.0187 -2.459639,13.52804 -0.81988,4.50932 -1.560786,9.03375 -2.459639,13.52802 -0.741213,3.70604 -1.990855,7.31808 -2.459639,11.06836 -0.355928,2.84742 0,5.73916 0,8.60875 0,2.0497 0,4.0994 0,6.14908 0,1.31466 -0.266362,7.27694 0,8.60874 0.603187,3.01594 2.356148,5.94212 3.689459,8.60875 0.409939,0.81987 0.721351,1.69693 1.229819,2.45962 0.321583,0.48239 0.81988,0.81989 1.22982,1.22984 0.40994,0.81986 0.721351,1.69693 1.229819,2.45964 0.321583,0.48236 1.046491,0.67982 1.22982,1.22981 0.259268,0.7778 -0.19885,1.66423 0,2.45965 0.444643,1.77855 1.879897,3.18005 2.459638,4.91926 0.129636,0.38892 -0.183329,0.86318 0,1.22984 0.259271,0.51853 0.819881,0.81986 1.229821,1.22981 0.40994,0.40995 0.679828,1.04648 1.22982,1.22981 0.777806,0.25927 1.66424,-0.19883 2.459638,0 0.889286,0.22233 1.570355,1.00751 2.459641,1.22984 0.795401,0.19883 1.639758,0 2.459638,0 0.81988,0 1.639761,0 2.459641,0 4.509338,0 9.018677,0 13.528016,0 5.329219,0 10.658438,0 15.987654,0 2.0497,0 4.099401,0 6.149099,0 0.81988,0 1.66424,0.19883 2.459641,0 0.889283,-0.22233 1.570355,-1.00751 2.459638,-1.22984 0.795401,-0.19883 1.63976,0 2.459638,0 0.81988,0 1.63976,0 2.459646,0 4.50933,0 9.01867,0 13.52801,0 6.1491,0 12.2982,0 18.4473,0 0.87921,0 6.74938,0.20984 7.37892,0 0.54999,-0.18333 0.67982,-1.04648 1.22981,-1.22981 0.77781,-0.25926 1.66424,0.19886 2.45964,0 3.56677,-0.8917 1.43922,-0.95948 3.68946,-2.45965 1.52541,-1.01692 3.39388,-1.44269 4.91928,-2.45964 0.48238,-0.32158 0.74745,-0.90824 1.22982,-1.22981 0.7627,-0.50848 1.69694,-0.72136 2.45964,-1.22981 0.48238,-0.3216 0.71128,-0.97057 1.22982,-1.22984 0.73332,-0.36666 1.72632,0.36666 2.45964,0 4.0788,-4.07879 -1.15949,0.57976 2.45964,-1.22981 1.03707,-0.51853 1.42256,-1.94111 2.45964,-2.45964 0.36666,-0.18333 0.81988,0 1.22982,0 0.81988,-0.40995 1.69693,-0.72134 2.45964,-1.22981 0.48237,-0.32158 0.74744,-0.90824 1.22982,-1.22984 0.7627,-0.50845 1.69693,-0.72133 2.45964,-1.22981 0.48237,-0.32157 0.74744,-0.90823 1.22981,-1.22981 0.76271,-0.50848 1.69694,-0.72136 2.45965,-1.22983 0.96475,-0.64315 1.42256,-1.94109 2.45963,-2.45962 0.36667,-0.18333 0.93995,0.28985 1.22982,0 1.04515,-1.04516 1.63976,-2.45965 2.45964,-3.68949 z"
       id="path1" />
    <path
       style="fill:none;stroke:#9e7241;stroke-width:15;stroke-linecap:butt;stroke-linejoin:miter;stroke-dasharray:none;stroke-opacity:1"
       d="m 211.66978,243.50981 c 0.50571,-0.30138 1.33252,-0.34512 1.51714,-0.90412 0.25076,-0.75923 0,-8.76488 0,-9.83856 0,-6.96898 0,-13.93795 0,-20.90693 0,-0.81988 0.25927,-1.68183 0,-2.45964 -0.28362,-0.85086 -2.91446,-1.89809 -1.22982,-2.45964 1.16671,-0.3889 2.45964,0 3.68946,0 2.45964,0 4.91928,0 7.37892,0 2.45964,0 5.01392,-0.67572 7.37892,0 7.68684,2.19624 12.75708,7.08216 18.44729,12.29819 2.1368,1.95874 4.59285,3.70357 6.1491,6.1491 1.39195,2.18735 1.74737,4.88599 2.45964,7.37892 3.81038,13.33632 6.1854,25.41261 -1.22982,38.12441 -1.12513,1.9288 -6.29705,7.98921 -8.60874,9.83856 -0.71578,0.57263 -1.69693,0.72135 -2.45964,1.22982 -0.48237,0.32158 -0.67982,1.04649 -1.22982,1.22982 -0.7778,0.25927 -1.63975,0 -2.45963,0 -0.81988,0 -1.72632,0.36666 -2.45964,0 -1.03708,-0.51854 -1.70506,-1.57929 -2.45964,-2.45964 -1.70826,-1.99297 -3.42516,-3.99093 -4.91928,-6.1491 -5.70265,-8.23716 -8.53652,-13.23913 -11.06838,-23.36657 -1.30773,-5.23093 -1.81722,-10.63415 -2.45964,-15.98766 -0.85989,-7.16577 -1.7353,-18.2439 -1.22982,-25.82621 0.16587,-2.48805 0.54479,-4.9813 1.22982,-7.37892 0.15927,-0.55744 0.74745,-0.90824 1.22982,-1.22982 0.7627,-0.50847 1.56079,-1.05005 2.45964,-1.22982 2.05397,-0.41079 7.06712,0.26631 8.60874,1.22982 1.96648,1.22905 3.39222,3.17408 4.91928,4.91928 8.57657,9.8018 7.73617,18.09327 8.60873,30.74549 0.45216,6.55626 1.43509,13.10849 1.22982,19.67712 -0.43135,13.80332 -2.08547,22.57447 -8.60873,34.43495 -0.86295,1.56898 -8.95328,12.66727 -12.2982,14.75782 -1.43331,0.89583 -3.2421,1.02018 -4.91928,1.22984 -1.62709,0.20339 -3.52876,0.86905 -4.91928,0 -6.67489,-4.17182 -7.78996,-16.61004 -8.60874,-22.13676 -0.8432,-5.69166 -1.02445,-11.46736 -1.22981,-17.21748 -0.20484,-5.7355 0,-11.47831 0,-17.21747 0,-10.35496 -1.19311,-19.75056 3.68945,-29.51568 0.81989,-1.63975 3.18006,-1.87989 4.91928,-2.45963 6.13766,-2.04589 16.06411,-1.73505 22.13676,0 8.76366,2.5039 11.04836,5.1009 17.21747,12.29819 2.29498,2.67747 4.57203,5.4546 6.1491,8.60874 1.73923,3.47846 2.69973,7.30739 3.68946,11.06838 1.06393,4.04293 2.23991,8.12339 2.45964,12.29819 0.29943,5.68928 -1.73423,15.95242 -4.91928,20.90694 -1.881,2.92601 -4.59615,5.29183 -7.37892,7.37892 -1.99879,1.49908 -10.19301,5.52564 -13.52801,4.91927 -2.70561,-0.49192 -5.35178,-1.83124 -7.37892,-3.68946 -3.02189,-2.77005 -5.8851,-6.02102 -7.37892,-9.83855 -5.21698,-13.33228 -3.68946,-28.01605 -3.68946,-41.81387 0,-6.96898 0,-13.93796 0,-20.90694 0,-4.91927 -0.54324,-9.86864 0,-14.75783 0.4009,-3.6081 2.37632,-9.18199 6.1491,-11.06838 1.09998,-0.54999 2.45964,0 3.68946,0 1.63976,0 3.36366,-0.51854 4.91928,0 4.89261,1.63087 9.97924,6.81696 12.29819,11.06838 5.36485,9.83555 8.90971,16.83871 9.83856,27.05603 0.12556,1.38115 0.56876,8.03998 -1.22982,9.83856 -0.91665,0.91665 -2.40312,1.06903 -3.68946,1.22982 -4.98154,0.62269 -7.72659,0.60712 -11.06837,-3.68946 -5.05891,-6.50431 -6.84937,-19.11279 -7.37892,-27.05603 -0.19088,-2.86323 0,-5.73916 0,-8.60874 0,-2.0497 -0.5631,-4.17826 0,-6.1491 0.31853,-1.11487 1.46539,-1.86309 2.45964,-2.45964 1.1116,-0.66696 2.40614,-1.04649 3.68946,-1.22982 7.47777,-1.06825 14.59413,3.53338 18.44729,9.83856 2.77892,4.54732 4.7319,9.62051 6.1491,14.75784 1.88189,6.82184 3.04877,13.85933 3.68946,20.90693 1.07718,11.84898 0.25648,26.72503 -3.68946,38.12441 -1.68022,4.85395 -4.70047,9.14512 -7.37892,13.52802 -5.33337,8.72733 -4.61989,8.03246 -12.2982,12.2982 -1.6026,0.89033 -3.10439,2.20036 -4.91927,2.45962 -3.93802,0.56259 -7.41862,-5.52762 -8.60874,-7.37891 -2.28232,-3.55026 -4.69002,-7.108 -6.1491,-11.06837 -2.40968,-6.54057 -2.88912,-17.79349 -3.68946,-24.5964 -1.46172,-12.42459 -1.22982,-4.46971 -1.22982,-13.52801 0,-0.81988 -0.25927,-1.68184 0,-2.45964 0.18333,-0.54999 0.81988,-0.81988 1.22982,-1.22982 2.3893,-2.38931 0.65008,-1.22982 6.1491,-1.22982 9.06651,0 5.76983,-0.40436 14.75784,1.22982 0.57256,0.1041 9.20698,1.16317 9.83855,3.68946 0.29828,1.1931 0,2.45964 0,3.68946 0,2.2984 0.3889,5.35551 -1.22982,7.37891 -2.39808,2.99761 -11.6173,5.60018 -14.75783,2.45964 -4.61478,-4.61477 -3.68946,-11.37615 -3.68946,-17.21747 0,-2.45964 0,-4.91928 0,-7.37892 0,-2.34547 -0.51854,-6.42329 1.22982,-8.60874 1.94965,-2.43706 9.12313,-4.55454 11.06837,-4.91928 8.95209,-1.67851 16.75198,-1.22981 25.82622,-1.22981 4.0994,0 8.1988,0 12.2982,0 2.45962,0 4.91927,0 7.37891,0 1.22981,0 2.45965,0 3.68946,0 0.40995,0 1.22981,-0.40994 1.22981,0 0,0.57974 -0.72644,0.94218 -1.22981,1.22981 -2.38763,1.36437 -4.79851,2.73879 -7.37891,3.68946 -5.232,1.92758 -10.55465,3.66551 -15.98766,4.91928 -7.93246,1.83057 -22.45563,3.27497 -30.74549,3.68946 -3.27543,0.16377 -6.55904,0 -9.83856,0 -1.42229,0 -4.96256,0.54999 -6.1491,-1.22982 -0.45479,-0.68218 0,-1.63976 0,-2.45964 0,-6.22125 -1.31181,-4.87008 4.91928,-8.60874 5.31428,-3.18857 9.87233,-4.92603 15.98765,-6.14909 5.47468,-1.09494 10.66947,-2.12728 15.98766,0 2.21937,0.88774 4.77833,1.73121 6.1491,3.68945 1.71144,2.44493 1.90965,5.67545 2.45964,8.60874 1.03966,5.54485 2.18451,15.2272 0,20.90694 -0.94229,2.44993 -3.0632,4.29301 -4.91928,6.14909 -3.35238,3.35238 -7.51384,6.42205 -12.2982,7.37892 -2.00989,0.40198 -4.0994,0 -6.1491,0 -1.22982,0 -2.63489,0.63274 -3.68945,0 -1.26743,-0.76045 -1.85935,-2.33879 -2.45964,-3.68946 -2.65962,-5.98414 -3.21544,-10.58116 -3.68946,-17.21747 -0.29207,-4.08898 0,-8.1988 0,-12.2982 0,-0.40994 0,-0.81988 0,-1.22982 0,-0.40994 -0.28987,-1.51969 0,-1.22982 0.64817,0.64818 0.81988,1.63976 1.22982,2.45964 0.40994,0.81988 0.86873,1.6171 1.22982,2.45964 2.10744,4.91737 3.82769,9.4376 4.91927,14.75784 0.28757,1.40155 -1.01143,-2.67678 -1.51714,-4.01516"
       id="path4" />
    <path
       style="fill:none;stroke:#000000;stroke-width:25;stroke-linecap:round;stroke-linejoin:miter;stroke-dasharray:none;stroke-opacity:1"
       d="m 243.55649,305.61714 c -1.54399,0.92845 -2.95502,2.12669 -4.63195,2.78532 -1.72427,0.67726 -4.89425,-0.81153 -6.1491,-1.22981 -3.69771,-1.23256 -4.2002,-1.04052 -7.37892,-3.68945 -1.33611,-1.11342 -2.35335,-2.57604 -3.68946,-3.68946 -1.13547,-0.94623 -2.53529,-1.5363 -3.68946,-2.45965 -0.9054,-0.72432 -1.63976,-1.63975 -2.45963,-2.45963 -1.63977,-1.63976 -3.47063,-3.10847 -4.91928,-4.91928 -0.92334,-1.15417 -1.53631,-2.53529 -2.45964,-3.68946 -0.72433,-0.90541 -1.76395,-1.53205 -2.45964,-2.45964 -0.54999,-0.73332 -0.58165,-1.81147 -1.22982,-2.45964 -0.64817,-0.64817 -1.95118,-0.46712 -2.45964,-1.22982 -0.45479,-0.68218 0.25927,-1.68183 0,-2.45964 -0.18333,-0.54999 -0.81988,-0.81988 -1.22982,-1.22982 -0.40994,-0.81988 -1.0075,-1.57035 -1.22982,-2.45964 -0.19885,-0.7954 0.19885,-1.66424 0,-2.45964 -0.22232,-0.88928 -0.93995,-1.59002 -1.22982,-2.45964 -1.06899,-3.20697 -1.63976,-6.55903 -2.45964,-9.83855 -0.40994,-1.63976 -1.02017,-3.24211 -1.22982,-4.91928 -0.20339,-1.6271 0,-3.27952 0,-4.91928 0,-3.27952 0,-6.55904 0,-9.83856 0,-0.66119 -0.25609,-9.07029 0,-9.83856 0.18333,-0.54999 1.04649,-0.67982 1.22982,-1.22982 0.25927,-0.7778 -0.36666,-1.72631 0,-2.45963 0.51854,-1.03708 1.63976,-1.63976 2.45964,-2.45964 0.81988,-0.81988 1.63976,-1.63976 2.45964,-2.45964 2.45964,-2.45964 4.91928,-4.91928 7.37892,-7.37892 1.22982,-1.22982 2.36893,-2.55759 3.68945,-3.68946 3.1125,-2.66785 6.55904,-4.91928 9.83856,-7.37892 1.63976,-1.22982 3.12752,-2.69404 4.91928,-3.68946 0.0268,-0.0149 12.20478,-4.87775 12.2982,-4.91927 2.68812,-1.19473 5.57759,-3.18427 8.60874,-3.68946 1.66588,-0.27765 6.57229,0 8.60873,0 1.22982,0 2.45964,0 3.68946,0 1.22982,0 2.47637,-0.20218 3.68946,0 3.39445,0.56574 4.54597,1.80082 7.37892,3.68946 1.22982,0.81988 2.48671,1.60053 3.68946,2.45963 1.66791,1.19137 3.27952,2.45964 4.91928,3.68946 1.63976,1.22982 3.37672,2.33973 4.91927,3.68946 1.74522,1.52705 3.27954,3.27952 4.91929,4.91928 8.76406,8.76407 -0.69969,-1.18205 6.1491,7.37892 2.35374,2.94217 4.63587,3.59589 6.14908,7.37892 0.9629,2.40725 1.63978,4.91927 2.45965,7.37891 0.40994,1.22983 1.0465,2.40615 1.22983,3.68946 0.23188,1.62328 0,3.27952 0,4.91928 0,4.91928 0,9.83856 0,14.75784 0,1.63976 0,3.27952 0,4.91928 0,1.63976 0.20339,3.29218 0,4.91928 -0.20965,1.67717 -0.76549,3.29408 -1.22983,4.91927 -0.35613,1.24647 -0.65009,2.52998 -1.22981,3.68946 -0.66101,1.32202 -1.63976,2.45964 -2.45965,3.68946 -0.81989,1.22982 -1.63976,2.45964 -2.45965,3.68946 -0.81986,1.22982 -1.69918,2.42204 -2.45962,3.68946 -0.47162,0.78602 -0.58166,1.81147 -1.22983,2.45964 -0.64818,0.64817 -1.69693,0.72135 -2.45965,1.22982 -1.80964,1.20643 -3.10962,3.71285 -4.91926,4.91928 -0.76272,0.50847 -1.72633,0.67982 -2.45965,1.22982 -0.92758,0.69569 -1.55424,1.73532 -2.45965,2.45964 -1.15416,0.92332 -2.53526,1.53631 -3.68944,2.45962 -0.90541,0.72433 -1.55424,1.73533 -2.45964,2.45965 -1.15417,0.92334 -2.45964,1.63976 -3.68946,2.45965 -4.45216,2.96809 -2.36744,1.79863 -6.1491,3.68945 -0.81988,0.40995 -1.69694,0.72136 -2.45964,1.22981 -2.27954,1.51972 -0.11278,1.22984 -2.45964,1.22984 -4.91928,0 -9.83856,0 -14.75783,0 -0.40994,0 -0.81988,0 -1.22982,0 -0.40994,0 -1.08492,0.38346 -1.22982,0 -0.47428,-1.25521 0.5859,-2.99638 -0.28733,-4.01516 -1.83293,-2.13842 -4.78406,-2.97876 -7.09159,-4.59359 -0.47499,-0.3324 -0.74745,-0.90823 -1.22982,-1.22981 -0.7627,-0.50848 -1.81147,-0.58166 -2.45964,-1.22984 -0.64817,-0.64815 -0.67983,-1.7263 -1.22982,-2.45962 -0.69569,-0.9276 -1.63976,-1.63976 -2.45964,-2.45964 -0.40994,-0.40994 -0.97055,-0.71129 -1.22982,-1.22982 -0.18333,-0.36666 0.28987,-0.93995 0,-1.22982 -0.28987,-0.28987 -0.93995,0.28987 -1.22982,0 -0.28987,-0.28987 0.11391,-0.83602 0,-1.22982 -0.39755,-1.3744 -1.01143,-2.67678 -1.51714,-4.01516"
       id="path3" />
  </g>
</svg>
