<?xml version="1.0" encoding="UTF-8" standalone="no"?>
<!-- Created with Inkscape (http://www.inkscape.org/) -->

<svg
   width="25mm"
   height="25mm"
   viewBox="0 0 25 25"
   version="1.1"
   id="svg6315"
   inkscape:version="1.3 (0e150ed, 2023-07-21)"
   sodipodi:docname="player-hand.svg"
   xmlns:inkscape="http://www.inkscape.org/namespaces/inkscape"
   xmlns:sodipodi="http://sodipodi.sourceforge.net/DTD/sodipodi-0.dtd"
   xmlns="http://www.w3.org/2000/svg"
   xmlns:svg="http://www.w3.org/2000/svg">
  <sodipodi:namedview
     id="namedview6317"
     pagecolor="#ffffff"
     bordercolor="#666666"
     borderopacity="1.0"
     inkscape:pageshadow="2"
     inkscape:pageopacity="0.0"
     inkscape:pagecheckerboard="0"
     inkscape:document-units="mm"
     showgrid="false"
     inkscape:zoom="3.7682395"
     inkscape:cx="39.673699"
     inkscape:cy="65.547851"
     inkscape:window-width="1312"
     inkscape:window-height="727"
     inkscape:window-x="0"
     inkscape:window-y="25"
     inkscape:window-maximized="0"
     inkscape:current-layer="layer1"
     width="15mm"
     inkscape:showpageshadow="2"
     inkscape:deskcolor="#d1d1d1" />
  <defs
     id="defs6312" />
  <g
     inkscape:label="Layer 1"
     inkscape:groupmode="layer"
     id="layer1">
    <path
       style="fill:none;stroke:#ffb600;stroke-width:2.5;stroke-linecap:butt;stroke-linejoin:miter;stroke-opacity:1;stroke-dasharray:none"
       d="m 8.0044009,9.829966 c 0,-0.093619 -0.073104,-0.222373 0,-0.2808562 0.09138,-0.073104 0.2340469,0 0.3510703,0 0.280856,0 0.5617122,0 0.8425685,0 0.4680934,0 0.9366493,-0.020783 1.4042803,0 1.431602,0.063627 2.380833,0.1152411 3.721345,0.7723542 0.58881,0.288633 1.121422,0.691611 1.614923,1.123425 0.854731,0.74789 1.624084,1.779784 1.965993,2.878776 0.28484,0.915558 0.299318,2.405404 -0.07021,3.30006 -0.455013,1.101609 -1.526764,2.168261 -2.59792,2.668133 -0.499199,0.23296 -1.067565,0.288871 -1.614923,0.351071 -0.890154,0.101153 -1.969532,0.08511 -2.738347,-0.491499 -0.412348,-0.30926 -0.734599,-0.742006 -0.9829969,-1.193638 -0.4990534,-0.90737 -0.7612327,-2.444123 -0.8425685,-3.440488 -0.043798,-0.536523 -0.04026,-1.078124 0,-1.614923 0.067618,-0.901577 0.1927862,-1.378773 0.7021404,-2.106422 0.274349,-0.391927 0.561285,-0.631926 1.053211,-0.631926 0.192999,0 0.411922,0.01872 0.561712,0.140428 0.694003,0.563877 0.863293,1.694381 0.982997,2.457491 0.0982,0.626003 0.127229,1.262259 0.140428,1.89578 0.0085,0.406602 0.01379,1.900796 -0.351071,2.387277 -0.183095,0.244128 -0.481713,0.398493 -0.772354,0.491498 -0.312872,0.100119 -0.669258,0.167582 -0.982997,0.07021 C 9.5054747,18.331687 8.8100976,17.365237 8.4959033,16.57051 8.1111735,15.597371 8.0483199,14.294631 8.2150471,13.27045 c 0.078523,-0.482354 0.1632807,-0.989232 0.4212841,-1.404281 0.689575,-1.109316 1.5328658,-1.460678 2.7383478,-1.755351 0.83938,-0.2051817 2.092065,-0.3481255 2.94899,0 0.355638,0.144478 0.697241,0.384501 0.912782,0.702141 0.545932,0.804531 0.537294,2.164414 0.280857,3.019203 -0.189506,0.631684 -0.524226,1.222473 -0.912783,1.755352 -1.338595,1.835787 -3.490464,3.197948 -5.8277657,3.159631 C 8.1013463,18.736077 7.3920815,18.599697 6.8107623,18.255651 6.1981817,17.893104 5.7199794,17.310492 5.3362671,16.710942 4.5529383,15.486991 4.4051934,14.110655 4.3532708,12.708742 4.3315961,12.123558 4.2878512,11.523051 4.4234848,10.953391 4.6909989,9.8298311 5.2984754,9.4005761 6.3894779,9.1278256 6.9589385,8.9854605 7.5588171,8.9535891 8.144829,8.9873975 c 1.8081453,0.104316 3.590239,0.8432152 4.774555,2.2468495 0.27707,0.32838 0.472357,0.724502 0.631926,1.123425 0.402064,1.005158 0.294741,2.195411 -0.912782,2.597919 -1.087915,0.362638 -3.312281,0.202817 -4.2830568,-0.07021 C 6.8630378,14.46563 5.9512469,13.707175 4.914983,12.638528 4.3538338,12.059843 3.8820965,11.476295 3.7213442,10.672535 3.6154296,10.142961 3.7141581,9.3801622 4.1426286,8.9873975 4.9212534,8.273658 6.6302939,7.8947972 7.5129027,7.7235446 9.0275597,7.429656 11.092004,7.2565944 12.638528,7.2320464 c 0.63228,-0.010036 1.266138,0.011642 1.895779,0.070214 0.727567,0.067681 1.359278,0.1656392 1.895779,0.7021404 0.170389,0.1703887 0.289746,0.3988942 0.35107,0.6319263 0.186549,0.7088835 -0.124705,1.0925479 -0.772354,1.4744949 -1.567663,0.924519 -2.945091,1.123125 -4.774555,1.263853 -0.952225,0.07325 -3.2588985,0.21261 -4.2830569,-0.491498 C 6.2722606,10.416413 6.1622021,9.1778782 6.1788357,8.4958993 6.1915066,7.9763854 6.2217945,7.4430617 6.3894779,6.9511901 6.7289555,5.9553892 7.5768331,4.7642822 8.4958993,4.2128426 8.9592361,3.9348404 9.5099115,3.8229672 10.040608,3.7213442 c 1.06775,-0.2044626 2.324769,-0.2991237 3.30006,0.3510703 0.496489,0.3309922 0.903853,0.8124531 1.193639,1.3340667 0.309197,0.5565553 0.458896,1.1972457 0.561712,1.8255652 0.109673,0.6702253 0.150229,1.3617982 0.07021,2.0362074 -0.223857,1.8868002 -1.118823,3.7661472 -2.94899,4.5639122 -0.437597,0.190748 -0.931217,0.344784 -1.40428,0.280857 C 9.2181811,13.897512 8.7033514,11.976297 8.5661131,10.672535 8.4999332,10.043824 8.5220449,8.701615 8.9171834,8.144829 9.2070676,7.736356 9.6436004,7.4125639 10.110822,7.2320464 10.706716,7.001815 11.368157,6.9732056 12.006601,6.9511901 c 1.477212,-0.050938 2.918468,0.1203082 4.212843,0.9127826 0.550641,0.3371271 1.012584,0.8208092 1.404281,1.334067 0.624926,0.8188683 0.760584,1.7545363 0.842568,2.7383473 0.02915,0.349766 0.101137,1.358541 -0.210642,1.755351 -0.28525,0.363046 -0.999603,0.544777 -1.404281,0.280857 -0.349039,-0.227635 -0.602185,-0.602618 -0.772354,-0.982997 -0.236444,-0.528522 -0.327989,-1.113703 -0.421284,-1.685137 -0.09458,-0.579316 -0.188187,-1.170311 -0.140428,-1.7553512 0.118486,-1.4514573 0.84871,-2.9456703 2.176635,-3.6511301 0.392167,-0.208339 0.820503,-0.39595 1.263853,-0.4212844 0.996678,-0.056953 1.730888,0.5402805 2.246849,1.334067 0.848262,1.3050178 0.984394,2.5355205 1.053211,4.0724147 0.03561,0.795306 0.04984,1.600278 -0.07021,2.387277 -0.190923,1.251606 -0.648592,2.199287 -1.614923,3.019204 -0.367478,0.311799 -0.801032,0.567773 -1.263853,0.70214 -0.293059,0.08508 -0.637266,0.06099 -0.912783,-0.07021 -0.254453,-0.121168 -0.439756,-0.37785 -0.561712,-0.631926 -0.286343,-0.596547 -0.327965,-1.529688 -0.35107,-2.176635 -0.01086,-0.304067 -0.03774,-0.610872 0,-0.912783 0.06442,-0.515396 0.139633,-0.842039 0.561712,-1.123425 0.08029,-0.05353 0.188426,-0.09794 0.280856,-0.07021 0.665171,0.199551 0.55526,0.775613 0.631927,1.404281 0.07106,0.58267 0.196609,1.17106 0.140428,1.755351 -0.140741,1.463701 -0.697065,2.566661 -1.685137,3.651131 -0.492446,0.540489 -1.051795,1.03889 -1.685137,1.40428 -1.00034,0.57712 -2.428132,0.85211 -3.580917,0.912783 -0.607824,0.03199 -1.315216,0.05482 -1.685137,-0.561712 -0.160655,-0.267759 -0.166482,-0.603664 -0.210642,-0.912783 -0.04976,-0.348313 -0.150164,-0.710565 -0.07021,-1.053211 0.236308,-1.012748 0.98264,-1.507694 1.895779,-1.895779 0.464986,-0.197619 0.976132,-0.268009 1.474495,-0.35107 0.347063,-0.05784 0.70578,-0.125803 1.053211,-0.07021 0.258386,0.04134 0.505928,0.177942 0.70214,0.35107 0.505729,0.446231 0.654519,1.029967 0.631927,1.685137 -0.01234,0.35781 -0.03769,0.739734 -0.210642,1.053211 -0.216006,0.391511 -0.540735,0.734965 -0.912783,0.982996 -0.66493,0.443287 -2.239165,0.982997 -3.089418,0.982997 -0.907363,0 -1.554624,-0.389644 -1.895779,-1.263853 -0.2336382,-0.598697 -0.2871221,-1.256298 -0.3510703,-1.895779 -0.076887,-0.768874 -0.058682,-1.54444 -0.070214,-2.317063 -0.011874,-0.795671 -0.013486,-1.591633 0,-2.387278 0.01628,-0.960459 -0.051345,-1.853034 0.3510704,-2.738347 0.096849,-0.213069 0.224409,-0.43515 0.4212839,-0.561713 0.158726,-0.102038 0.382701,-0.129884 0.561713,-0.07021 0.75222,0.25074 0.964044,0.928006 1.334066,1.544709"
       id="path2" />
    <path
       style="fill:none;stroke:#000000;stroke-width:5;stroke-linecap:round;stroke-linejoin:miter;stroke-opacity:1;stroke-dasharray:none"
       d="m 11.936387,22.538708 c -0.497981,0 -0.711933,0.02613 -1.193638,-0.07021 -0.16708,-0.03342 -0.329854,-0.08655 -0.491499,-0.140428 C 9.5008691,22.077938 9.3155099,21.984332 8.5661131,21.625925 8.0637146,21.385647 7.7103078,21.200673 7.2320464,20.923785 6.9958343,20.78703 6.755168,20.656627 6.529906,20.502501 6.3096692,20.351812 6.1165954,20.164033 5.8979797,20.011002 5.6479831,19.836005 5.3739438,19.696875 5.1256252,19.519504 4.8817278,19.345292 4.6537408,19.149671 4.4234848,18.957792 4.0396339,18.637916 3.7096776,18.340307 3.3702741,17.974795 3.1571573,17.745285 2.7579235,17.271805 2.5979196,16.991798 2.5094854,16.837039 2.4619724,16.662139 2.3872775,16.5003 2.3214839,16.357747 2.2370212,16.223942 2.1766353,16.079016 2.0145434,15.689995 2.0228503,15.592661 1.9659932,15.166233 c -0.022421,-0.16816 -0.1325821,-1.05241 -0.1404281,-1.193638 -0.011684,-0.210318 0,-0.421285 0,-0.631927 0,-0.187237 0,-0.374475 0,-0.561712 0,-0.813365 -0.038839,-1.737068 0.070214,-2.527706 C 1.9291668,10.00919 2.0362072,9.7831567 2.1064213,9.5491098 2.1766353,9.3150631 2.2468494,9.0810161 2.3170634,8.8469694 2.4132792,8.5262499 2.6123857,7.8368048 2.7383478,7.5129027 2.9862766,6.8753709 3.014472,6.8885474 3.3702741,6.3192638 3.4872975,6.1320264 3.5907715,5.9356053 3.7213442,5.7575515 3.848949,5.5835451 4.0032469,5.4307771 4.1426286,5.2660533 4.2607044,5.1265089 4.3714143,4.9806404 4.4936986,4.844769 4.6929786,4.6233468 4.914983,4.4234848 5.1256252,4.2128426 5.4292722,3.9091954 5.7464787,3.5305148 6.1086216,3.30006 6.1098122,3.2992927 6.9469438,2.8810624 6.9511901,2.8787756 7.1173305,2.7893158 7.2660083,2.6641747 7.4426886,2.5979196 7.8054268,2.4618927 8.3277571,2.4318403 8.7065412,2.3872775 8.8939435,2.36523 9.0799265,2.3288339 9.2682538,2.3170634 c 0.1868728,-0.01168 0.3744748,0 0.5617122,0 0.35107,0 0.70214,0 1.053211,0 0.444689,0 0.889378,0 1.334066,0 0.257452,0 0.515146,-0.011183 0.772355,0 0.550484,0.023934 1.078596,0.082945 1.614923,0.2106421 0.410078,0.097638 1.025638,0.3111921 1.404281,0.4914983 0.264772,0.1260824 0.516483,0.2779966 0.772354,0.4212844 0.720374,0.4034091 1.16602,0.643755 1.825565,1.1234245 0.2424,0.1762905 0.464972,0.3784457 0.702141,0.5617125 0.277796,0.214661 0.582237,0.3963887 0.842568,0.6319263 0.233493,0.2112558 0.421968,0.4674804 0.631927,0.7021404 0.187922,0.210031 0.387078,0.4107231 0.561712,0.6319264 0.372376,0.4716758 0.569781,0.8132908 0.842569,1.3340669 0.145701,0.278157 0.308562,0.5494917 0.421284,0.8425686 0.155898,0.4053337 0.487373,1.8155612 0.561712,2.1766352 0.126222,0.613078 0.31618,1.759252 0.35107,2.387277 0.02467,0.444005 0,0.889378 0,1.334067 0,0.643883 0.02501,1.393427 -0.07021,2.036208 -0.116267,0.784803 -0.39917,1.651965 -0.842568,2.317063 -0.101397,0.152096 -0.241393,0.275047 -0.35107,0.421284 -0.101265,0.135019 -0.167953,0.295836 -0.280857,0.421284 -0.100253,0.111393 -0.239677,0.180603 -0.35107,0.280857 -0.123012,0.110711 -0.228058,0.240359 -0.35107,0.35107 -0.111392,0.100253 -0.235083,0.185957 -0.35107,0.280856 -0.141477,0.115754 -0.280856,0.234047 -0.421284,0.35107 -0.123388,0.102823 -0.617157,0.519056 -0.772355,0.631927 -0.353398,0.257016 -0.526182,0.340797 -0.912782,0.561712 -0.508506,0.290575 -1.009638,0.601786 -1.544709,0.842568 -0.277463,0.124858 -0.561713,0.234047 -0.842569,0.351071 -1.115844,0.464935 -0.553921,0.254854 -1.685137,0.631926 -0.280856,0.09362 -0.556107,0.206127 -0.842568,0.280856 -0.253199,0.06605 -0.515764,0.08911 -0.772355,0.140428 -0.21159,0.04232 -0.421882,0.09101 -0.631926,0.140428 -0.18787,0.0442 -0.372018,0.104861 -0.561713,0.140429 -0.185462,0.03477 -0.374475,0.04681 -0.561712,0.07021 -0.187237,0.0234 -0.373497,0.05677 -0.561712,0.07021 -0.140072,0.01 -0.280857,0 -0.421285,0 -0.163832,0 -0.327665,0 -0.4914979,0 -0.3990509,0 -0.8381344,0.01155 -1.1936389,-0.210643 C 8.6223371,25.224428 8.5712915,25.131035 8.4958993,25.066413 8.4070485,24.990256 8.3049429,24.930688 8.2150431,24.855771 8.113333,24.771013 8.0278056,24.668534 7.9341868,24.574915 7.8873775,24.528106 7.8351125,24.486179 7.7937587,24.434487 7.7410428,24.368592 7.7060466,24.28974 7.6533308,24.223845 7.479177,24.006153 7.5165494,24.160924 7.3724745,23.872775 c -0.033099,-0.0662 -0.046809,-0.140428 -0.070214,-0.210643 -0.023405,-0.07021 -0.046809,-0.140428 -0.070214,-0.210642 -0.023405,-0.07021 -0.046809,-0.140428 -0.070214,-0.210642 -0.023405,-0.07021 -0.055699,-0.138067 -0.070214,-0.210642 -0.015838,-0.07919 0,-0.259182 0,-0.35107 0,-0.280856 0,-0.561712 0,-0.842569 0,-0.04681 0,-0.09362 0,-0.140428 0,-0.04681 0.011353,-0.09502 0,-0.140428 -0.012692,-0.05077 -0.057521,-0.08966 -0.070214,-0.140428 -0.011353,-0.04541 0.00918,-0.09453 0,-0.140428 -0.014515,-0.07258 -0.055699,-0.138067 -0.070214,-0.210642 -0.00918,-0.0459 0.00918,-0.09453 0,-0.140428 -0.02903,-0.14515 -0.1160928,-0.275274 -0.1404278,-0.421284 -0.015391,-0.09234 0,-0.187238 0,-0.280857"
       id="path1" />
  </g>
</svg>
