<?xml version="1.0" encoding="UTF-8" standalone="no"?>
<!-- Created with Inkscape (http://www.inkscape.org/) -->

<svg
   width="68.5mm"
   height="68.5mm"
   viewBox="0 0 68.5 68.5"
   version="1.1"
   id="svg6315"
   inkscape:version="1.3 (0e150ed, 2023-07-21)"
   sodipodi:docname="player-base.svg"
   xmlns:inkscape="http://www.inkscape.org/namespaces/inkscape"
   xmlns:sodipodi="http://sodipodi.sourceforge.net/DTD/sodipodi-0.dtd"
   xmlns="http://www.w3.org/2000/svg"
   xmlns:svg="http://www.w3.org/2000/svg">
  <sodipodi:namedview
     id="namedview6317"
     pagecolor="#ffffff"
     bordercolor="#666666"
     borderopacity="1.0"
     inkscape:pageshadow="2"
     inkscape:pageopacity="0.0"
     inkscape:pagecheckerboard="0"
     inkscape:document-units="mm"
     showgrid="false"
     inkscape:zoom="1.2436127"
     inkscape:cx="80.008831"
     inkscape:cy="124.63687"
     inkscape:window-width="1312"
     inkscape:window-height="411"
     inkscape:window-x="0"
     inkscape:window-y="25"
     inkscape:window-maximized="0"
     inkscape:current-layer="layer1"
     width="70mm"
     inkscape:showpageshadow="2"
     inkscape:deskcolor="#d1d1d1" />
  <defs
     id="defs6312" />
  <g
     inkscape:label="Layer 1"
     inkscape:groupmode="layer"
     id="layer1">
    <path
       style="fill:none;stroke:#ffc200;stroke-width:4;stroke-linecap:butt;stroke-linejoin:miter;stroke-dasharray:none;stroke-opacity:1"
       d="m 23.647678,29.789432 c 0,-1.840301 0,-3.680601 0,-5.520901 0,-0.160026 0.0506,-0.631892 0,-0.480079 -0.12902,0.387052 -0.16003,0.800131 -0.24004,1.200197 -0.40006,1.280208 -0.74908,2.577503 -1.20019,3.840626 -0.74967,2.099054 -1.60865,4.157475 -2.4004,6.241018 -0.72851,1.917145 -1.44023,3.840628 -2.16035,5.76094 -0.48008,1.28021 -0.97712,2.554187 -1.44023,3.840628 -0.25712,0.7142 -0.48008,1.440233 -0.72012,2.160352 -0.08,0.240038 -0.12688,0.493805 -0.24004,0.720116 -0.0506,0.101212 -0.28206,0.345102 -0.24004,0.240041 0.19934,-0.498356 0.48008,-0.960157 0.72012,-1.440236 2.93624,-5.87249 0.86606,-2.00353 4.56074,-8.161332 0.53633,-0.893884 3.87115,-6.623878 4.56075,-7.681253 0.43708,-0.670198 0.96015,-1.280208 1.44023,-1.920314 0.78801,-1.050679 0.43723,-0.677267 0.96016,-1.200195 0.08,-0.08001 0.12688,-0.240038 0.24004,-0.240038 0.08,0 0,0.160025 0,0.240038 0,0.320053 0,0.640104 0,0.960157 0,1.280207 0.1109,2.56523 0,3.840625 -0.43628,5.017133 -1.23494,9.048549 -2.40039,13.922272 -0.34765,1.453779 -0.83767,2.87057 -1.2002,4.320707 -0.1979,0.791612 -0.2966,1.605311 -0.48008,2.400392 -0.0569,0.246541 -0.24004,0.97314 -0.24004,0.720117 0,-0.565778 0.11148,-1.129298 0.24004,-1.680274 1.66042,-7.116064 1.57038,-5.94025 5.04082,-13.922272 1.94061,-4.463396 4.220925,-9.755047 6.481062,-14.162312 0.588727,-1.148017 1.280207,-2.240365 1.920314,-3.360548 0.32005,-0.560091 0.61826,-1.133242 0.960157,-1.680274 0.129447,-0.207118 0.438639,-0.405794 0.480076,-0.240039 0.07763,0.310496 -0.01683,0.640547 0,0.960157 0.06322,1.201197 0.212074,2.398052 0.24004,3.600587 0.09777,4.204034 0.03577,10.035514 -0.480078,14.16231 -0.397322,3.178572 -1.311788,6.490163 -2.160352,9.601568 -0.153268,0.561978 -0.295876,1.127662 -0.480079,1.680273 -0.05658,0.169733 -0.196646,0.653651 -0.24004,0.480079 -0.116435,-0.465743 0,-0.960157 0,-1.440236 0,-1.680273 -0.146828,-3.366976 0,-5.04082 0.254124,-2.896997 0.549076,-5.80712 1.200197,-8.641411 1.516801,-6.602547 3.020023,-9.606581 5.76094,-15.362507 0.61537,-1.29228 1.220967,-2.591794 1.920314,-3.840627 0.422873,-0.755131 0.892183,-1.490513 1.440233,-2.160352 0.182684,-0.22328 0.435552,-0.527506 0.720119,-0.480079 0.334846,0.05581 0.604107,0.401089 0.720116,0.720118 0.537224,1.477362 0.974368,3.005042 1.200198,4.560744 1.017299,7.008077 1.271445,15.581065 1.200195,22.563681 -0.08397,8.228729 -0.234291,12.01947 -1.920314,19.683214 -0.133377,0.606263 -1.22051,4.341018 -2.160352,5.280861 -0.233275,0.233275 -0.689891,0.429225 -0.960157,0.240038 -1.76439,-1.235073 -2.626603,-5.375606 -2.880469,-6.721097 -0.493141,-2.613641 -0.739277,-5.270722 -0.960157,-7.921291 -0.694073,-8.328869 -0.735814,-10.813484 0.480079,-19.203133 0.328628,-2.267537 0.745527,-4.537731 1.440233,-6.721098 0.433983,-1.363939 1.205053,-2.60084 1.920314,-3.840627 0.557662,-0.966612 1.592797,-2.9932 3.120509,-3.120509 0.504298,-0.04202 1.121127,0.08733 1.440235,0.480079 0.789755,0.972007 1.259047,2.181108 1.680274,3.360548 1.923079,5.384621 2.656983,9.808473 3.120509,15.602546 0.26639,3.329864 0.620077,11.271922 -0.480079,15.122467 -0.839705,2.938973 -2.869731,5.546545 -5.760939,6.721097 -2.476619,1.006128 -6.484813,0.497003 -8.641411,-0.960157 -3.529105,-2.384531 -6.033312,-6.860228 -7.201175,-10.801763 -0.642921,-2.169866 -0.841208,-4.461113 -0.960154,-6.721097 -0.227018,-4.313245 0.06541,-9.263668 2.160352,-13.202152 1.82535,-3.431659 5.18746,-6.569835 8.881448,-7.921294 3.187005,-1.165976 6.867824,-1.001545 9.841606,0.720118 3.375628,1.954311 5.940806,5.497925 7.201175,9.121487 0.639564,1.838749 0.836144,3.818094 0.960157,5.760942 0.117338,1.838296 0.177207,3.726739 -0.24004,5.520899 -0.832054,3.577836 -2.804047,6.334514 -6.000978,8.161332 -1.384197,0.79097 -2.968389,1.36256 -4.560745,1.440236 -4.389855,0.214138 -8.396602,-2.056948 -11.0418,-5.520902 -1.954543,-2.559521 -3.373615,-5.563359 -4.320707,-8.64141 -0.998323,-3.244551 -1.176514,-6.697237 -1.440235,-10.081644 -0.342001,-4.389033 -0.464939,-10.441347 1.680276,-14.642389 1.586404,-3.1067107 4.516821,-6.2777906 8.161329,-6.961136 1.19008,-0.2231398 2.565599,-0.1483093 3.600588,0.4800785 3.416474,2.0742875 4.786786,7.5716555 5.520901,10.8017625 1.158748,5.098485 1.694477,11.820951 0.960158,17.042781 -0.637392,4.532569 -1.766885,8.411122 -5.520902,11.281841 -1.310301,1.001996 -2.955637,1.540155 -4.560745,1.920314 -1.48137,0.350851 -3.093929,0.647486 -4.560742,0.240038 -3.207183,-0.890884 -6.114438,-4.564557 -7.201174,-7.441213 -0.71591,-1.895052 -0.8412,-3.978706 -0.96016,-6.00098 -0.19246,-3.271917 0.21866,-8.924874 1.680276,-12.001959 0.707734,-1.489966 1.868106,-2.767139 3.120509,-3.840626 1.290606,-1.106233 4.483468,-2.70515 6.481058,-2.160353 2.918201,0.795873 3.220636,3.404647 3.600588,6.000979 0.584052,3.991036 0.341818,8.217012 -1.200198,12.001959 -0.947462,2.325589 -2.320046,4.482584 -3.840625,6.481058 -1.301845,1.710995 -2.82403,3.293412 -4.560745,4.560742 -1.656318,1.208665 -5.378403,2.640113 -7.681253,2.160355 -2.62282,-0.546423 -3.28126,-2.733418 -3.84063,-5.040823 -0.35969,-1.48372 -0.7578,-7.113913 -0.48008,-8.641411 0.23124,-1.271799 0.66465,-2.566466 1.44024,-3.600587 1.5886,-2.118131 4.45695,-2.954123 6.961136,-2.88047 1.396764,0.04108 2.889268,0.229945 4.080666,0.960157 3.031966,1.858302 4.944157,6.220056 5.760939,9.361526 0.795862,3.061007 1.124453,9.421032 0,12.482039 -1.618646,4.406317 -5.420756,7.743428 -9.601567,9.601565 -2.181284,0.969459 -4.585964,1.442757 -6.961134,1.680276 -5.15792,0.515792 -9.5402,0.09115 -13.68223,-3.36055 -3.8224101,-3.18534 -4.5232601,-6.416408 -4.8007901,-11.0418 -0.12469,-2.078141 -0.27351,-4.223478 0.24004,-6.241019 0.62727,-2.464273 1.75995,-4.812884 3.12051,-6.961137 3.4995701,-5.525636 7.8474601,-9.905803 13.6822301,-12.962115 2.30872,-1.209325 4.8806,-1.914757 7.44122,-2.400391 2.641734,-0.501019 8.19169,-0.779858 10.801762,1.200195 2.473365,1.876348 3.600587,6.029036 3.600587,8.88145 0,2.025769 -0.175715,4.133255 -0.960157,6.000978 -0.936712,2.230265 -2.431579,4.231227 -4.080666,6.00098 -3.422554,3.672985 -7.271572,5.925828 -12.241996,6.721096 -1.81891,0.291026 -3.76502,0.316707 -5.5209,-0.240037 -4.53301,-1.437297 -5.48325,-4.317577 -6.48106,-8.641411 -0.50665,-2.195486 -0.72012,-4.46791 -0.72012,-6.721097 0,-2.412365 0.0887,-4.872906 0.72012,-7.201175 1.3503,-4.979241 3.80547,-9.135688 8.40137,-11.761919 1.95632,-1.1178947 4.24974,-1.607146 6.48106,-1.9203137 2.377093,-0.3336272 4.88252,-0.6210678 7.201174,0 4.961803,1.3290547 8.341694,5.2468957 10.561722,9.6015667 0.988582,1.939138 1.501506,4.1051 1.920315,6.241018 0.633007,3.228335 0.829907,8.088747 -0.480079,11.281841 -1.378085,3.359079 -3.742349,5.306201 -7.201175,6.241018 -1.469623,0.397196 -3.055572,0.468096 -4.560745,0.240041 -3.017898,-0.457258 -4.350591,-1.867299 -5.040823,-4.800785 -0.640712,-2.723036 -0.245276,-7.610502 0.960157,-10.081644 0.849188,-1.740835 2.16739,-3.257837 3.600588,-4.560745 2.334471,-2.122245 5.248378,-3.360548 8.40137,-3.360548 1.223965,0 2.524366,0.137164 3.600587,0.720117 2.567102,1.390512 2.756535,4.180421 2.880472,6.721098 0.196484,4.02794 -0.126614,7.853907 -2.640431,11.281841 -2.878548,3.925289 -7.687786,6.747954 -12.241998,8.161329 -4.042616,1.254607 -8.924414,1.912597 -12.962114,0 -3.35786,-1.590561 -4.02513,-4.138239 -4.56075,-7.441213 -0.24368,-1.502722 -0.54594,-3.069444 -0.24003,-4.560744 0.94496,-4.606716 3.76641,-7.007601 7.92129,-9.121488 5.390397,-2.742484 9.71953,-3.12051 15.602543,-3.12051 1.847247,0 3.741047,-0.01432 5.520902,0.480079 1.17679,0.326886 2.216785,1.098747 3.120509,1.920313 2.672297,2.429362 3.909277,6.38112 2.64043,9.841606 -0.481837,1.314106 -1.170646,2.610882 -2.160351,3.600587 -1.067507,1.067507 -2.436006,1.847057 -3.840626,2.400393 -2.973686,1.171451 -5.984375,1.137893 -8.401373,-1.440236 -3.236161,-3.451905 -3.840625,-9.394536 -3.840625,-13.682232 0,-4.99889 0.983766,-9.739012 3.840625,-13.922272 0.989653,-1.449135 2.317015,-2.7299512 3.840628,-3.6005872 2.253634,-1.2877914 7.511251,-1.7498094 9.841606,-0.7201175 1.977401,0.8737351 3.673729,2.4059771 5.040823,4.0806657 3.987985,4.885282 6.059427,10.68624 7.201175,16.802743 0.545021,2.919764 0.625872,5.912744 0.720117,8.881448 0.137268,4.323964 0.474591,6.814619 -2.400393,10.081644 -0.835771,0.949743 -1.893165,1.853517 -3.120509,2.160355 -2.424366,0.606091 -4.029048,-2.148875 -4.560745,-3.840629 -0.532664,-1.694844 -0.60194,-3.508218 -0.720116,-5.280861 -0.122415,-1.836224 -0.207788,-3.692368 0,-5.520901 0.342463,-3.013678 1.372127,-6.474412 3.36055,-8.881449 0.937231,-1.134545 3.223559,-2.3356 4.800782,-2.160353 2.864345,0.318261 2.541064,2.896063 2.640431,5.280862 0.09999,2.399644 0.238048,4.847516 -0.240038,7.201175 -0.574273,2.827176 -1.453312,5.654157 -2.880471,8.161332 -2.909353,5.111025 -7.543075,9.603367 -12.962115,12.001958 -2.413378,1.068216 -5.050856,1.704708 -7.681254,1.920314 -2.324965,0.190572 -4.771442,0.08426 -6.961137,-0.720119 -3.812825,-1.40063 -6.427278,-5.1377 -7.441218,-8.881449 -0.54544,-2.013928 -0.59581,-4.157744 -0.48007,-6.241018 0.12624,-2.272302 0.43476,-4.577876 1.20019,-6.721096 2.240811,-6.274263 6.602496,-11.549556 13.442195,-12.722076 2.79613,-0.479336 4.867653,0.219571 6.241018,2.88047 0.756539,1.465789 0.991317,3.164552 1.200198,4.800783 0.273756,2.144432 0.583075,4.346614 0.240037,6.481058 -0.844809,5.256594 -3.64754,9.984727 -7.681253,13.442194 -1.876391,1.608335 -4.161272,2.74842 -6.481056,3.600587 -1.667621,0.612595 -3.540522,1.077111 -5.280861,0.720117 -4.551138,-0.933564 -5.594328,-5.241359 -6.241018,-9.121487 -1.01122,-6.06733 -0.50583,-15.456998 1.20019,-21.123448 1.12463,-3.735369 3.00665,-7.233075 5.040828,-10.561723 1.51184,-2.473921 3.375591,-4.7708162 5.520899,-6.7210967 1.481129,-1.3464821 6.841995,-4.1881486 9.361527,-3.8406268 3.011236,0.4153426 4.024003,5.0325675 4.320707,6.9611355 0.377359,2.452837 0.390167,4.964065 0.240037,7.441214 -0.375959,6.203354 -0.903091,9.853156 -4.560744,14.882428 -2.50612,3.445917 -4.751729,4.93672 -8.881449,5.280863 -1.364871,0.11374 -2.881471,0.181544 -4.080666,-0.480078 -3.629479,-2.00247 -3.750349,-6.668415 -4.080669,-10.081646 -0.26215,-2.708965 -0.32639,-5.441082 -0.24004,-8.161332 0.13318,-4.195146 0.3402,-8.227621 2.880474,-11.7619187 0.568145,-0.7904618 4.619733,-4.5107037 6.481058,-3.8406266 3.299103,1.1876768 4.741887,8.4465333 5.040823,10.3216843 0.491914,3.085645 0.558168,6.237893 0.480079,9.361527 -0.148542,5.941689 -0.696434,12.248726 -3.840628,17.522859 -1.130258,1.895919 -2.76143,3.522324 -4.560745,4.800785 -1.320704,0.938395 -2.955194,1.463307 -4.560741,1.680274 -3.13945,0.424248 -6.25034,-0.714391 -7.92129,-3.600588 -1.04079,-1.797717 -1.34483,-3.950986 -1.68028,-6.00098 -0.78082,-4.771681 -0.79787,-10.038024 0.96016,-14.642389 0.80776,-2.115561 2.14626,-4.025135 3.60059,-5.76094 1.05934,-1.264384 2.35637,-2.400871 3.84062,-3.120509 2.373883,-1.150972 5.702318,-0.940068 7.921296,0.480078 2.16952,1.388493 2.947432,4.478474 3.360547,6.721097 0.626464,3.40081 0.976976,6.693764 -0.960157,9.841607 -2.665825,4.331967 -6.110782,5.905984 -10.801766,7.441213 -2.17757,0.71266 -4.44272,1.197856 -6.72109,1.440235 -3.20242,0.340683 -5.2455,0.245523 -7.20118,-2.400392 -2.4038,-3.252206 -1.86735,-7.73421 0.96016,-10.561722 2.26538,-2.265378 7.73774,-4.857268 10.56172,-5.760941 1.94289,-0.621725 3.98638,-0.879691 6.000981,-1.200196 1.818978,-0.289383 5.658016,-0.919654 7.681253,0 0.877126,0.398693 1.643081,1.107458 2.160352,1.920313 1.44421,2.269472 1.491263,5.134415 1.200198,7.681254 -0.158668,1.38833 -0.335235,2.830822 -0.960157,4.080666 -0.609362,1.218721 -1.612225,2.226416 -2.640431,3.120509 -0.838803,0.729393 -1.864698,1.228821 -2.880471,1.680274 -0.444751,0.197667 -1.141428,0.624218 -1.440235,0.24004 -0.957337,-1.230865 0.681471,-6.85969 0.720119,-6.961137 1.301853,-3.417369 4.405939,-8.246565 6.961134,-10.801762 1.493698,-1.493696 3.254809,-2.712617 5.040823,-3.840627 2.805232,-1.771725 4.293087,-2.281434 7.441216,-2.160352 0.97268,0.03741 2.147911,-0.160911 2.880469,0.480078 0.761679,0.666468 0.845237,1.874922 0.960157,2.88047 0.20896,1.828398 0.329202,3.710285 0,5.520901 -1.064827,5.856545 -3.076959,9.615335 -6.481059,14.402351 -1.051266,1.478346 -2.272916,2.844557 -3.600588,4.080666 -0.268245,0.249746 -3.908115,3.744378 -5.520899,2.40039 -0.641741,-0.534784 -0.639654,-1.568916 -0.720119,-2.40039 -0.161851,-1.672463 -0.07992,-3.362452 0,-5.040823 0.154869,-3.252242 0.279982,-5.724136 1.680276,-8.641411 0.573427,-1.194641 1.716969,-2.85017 3.12051,-3.360548 0.375978,-0.13672 0.917305,-0.282889 1.200194,0 0.483402,0.4834 0.603965,1.24662 0.720117,1.920313 0.286782,1.663335 0.441727,3.353382 0.480078,5.040823 0.04185,1.841563 -0.03205,3.690641 -0.240037,5.520901 -0.378873,3.334073 -0.641933,5.659435 -2.880472,8.16133 -0.577093,0.644988 -1.334275,1.182087 -2.160352,1.440235 -2.137722,0.668039 -2.514769,-1.657704 -2.880471,-3.120509 -0.312912,-1.251651 -0.36327,-2.555753 -0.480076,-3.840625 -0.177186,-1.949032 -0.448519,-5.662922 0,-7.681254 0.413928,-1.86268 1.451968,-3.757945 3.120509,-4.800782 0.559512,-0.349697 1.265603,-0.39824 1.920312,-0.480079 1.408083,-0.176011 2.538751,-0.23795 3.36055,1.200195 0.365992,0.64049 0.34413,1.435304 0.480078,2.160352 0.07027,0.374772 0.36168,2.03223 0.240038,2.640431 -0.0222,0.110958 -0.200308,0.34599 -0.240038,0.24004 -0.259019,-0.690716 -0.381291,-1.429313 -0.480078,-2.160352 -0.932797,-6.902691 -0.840526,-7.89719 -0.72012,-15.362508 0.03358,-2.081607 -0.06141,-4.181081 0.240041,-6.241018 0.170847,-1.1674554 1.286277,-4.4067856 2.400393,-5.5209005 0.304678,-0.3046807 0.878149,-0.7663418 1.200195,-0.4800785 0.644091,0.5725268 0.804037,1.5528843 0.960157,2.4003918 0.408191,2.2159049 0.752768,4.4681452 0.720116,6.7210962 -0.109215,7.535831 -1.201994,12.981607 -4.320704,19.92325 -2.010349,4.474649 -4.564115,7.708035 -8.641411,10.321684 -2.037823,1.306299 -5.72965,3.324413 -8.40137,1.680277 -2.700488,-1.661838 -3.531498,-5.681004 -3.840628,-8.401373 -0.35372,-3.112767 -0.0609,-7.85926 1.200198,-10.801762 1.345909,-3.14046 3.949829,-6.227434 6.961134,-7.921292 1.169012,-0.65757 2.536809,-0.885482 3.840628,-1.200196 1.023025,-0.246938 2.07694,-0.616196 3.120509,-0.480079 0.887058,0.115704 1.787282,0.548768 2.40039,1.200196 1.909517,2.02886 1.857852,4.972558 0.960157,7.441215 -1.828964,5.029653 -6.140018,9.677427 -10.081643,12.962115 -2.352699,1.960581 -4.917009,3.722489 -7.681253,5.040821 -2.49029,1.187675 -5.20903,1.894715 -7.92129,2.400392 -1.84084,0.343207 -8.37179,0.658734 -10.56173,-0.720116 -2.4145801,-1.520291 -2.8256301,-5.617887 -2.8804701,-7.921294 -0.056,-2.35395 0.45184,-6.828404 1.6802801,-9.121487 1.08286,-2.021344 3.00315,-3.595533 5.04082,-4.560745 0.45376,-0.214941 2.66646,-0.757714 3.36055,-0.480078 1.39062,0.556249 1.44023,2.86257 1.44023,3.840627 0,3.748195 -0.5827,5.533915 -3.36055,8.401371 -2.33417,2.409471 -5.64087,4.204544 -8.8814501,5.040821 -1.01014,0.260683 -2.07856,0.292137 -3.1205,0.24004 -0.58178,-0.02909 -1.26839,-0.06818 -1.68028,-0.480078 -0.55723,-0.557226 -0.77763,-1.393746 -0.96016,-2.160352 -0.50284,-2.111933 -0.38898,-4.154789 0.96016,-6.00098 0.90193,-1.234215 2.12899,-2.214954 3.36055,-3.120509 2.95977,-2.1763 5.7617601,-3.620751 9.3615301,-4.320705 1.33752,-0.260074 2.72092,-0.152314 4.08066,-0.24004 1.0614,-0.06848 4.0085,-0.640829 5.28086,0.24004 0.56592,0.391786 0.93813,1.04382 1.2002,1.680274 0.59788,1.451989 0.70687,4.684903 0.24004,6.241018 -0.15917,0.530572 -0.48261,0.800976 -0.96016,0.960157 -0.0759,0.02529 -0.19565,0.06658 -0.24004,0 -0.41784,-0.626766 -0.2783,-1.878573 0,-2.400392 0.40026,-0.750486 1.0127,-1.393275 1.68028,-1.920314 2.79925,-2.209934 5.451182,-2.571904 8.881447,-2.400391 0.644281,0.03221 1.303755,0.05033 1.920314,0.24004 0.904317,0.27825 1.817431,1.279055 2.400392,1.920313 1.885826,2.07441 0.624518,0.844724 2.40039,3.360549 0.526103,0.74531 1.120183,1.440233 1.680276,2.160352 0.560092,0.800129 1.120183,1.600261 1.680274,2.40039"
       id="path2" />
    <path
       style="fill:none;stroke:#000000;stroke-width:6;stroke-linecap:round;stroke-linejoin:miter;stroke-dasharray:none;stroke-opacity:1"
       d="m 33.45431,63.049007 c -1.495047,0 -2.990097,0 -4.485147,0 -0.32005,0 -0.64257,0.0397 -0.96015,0 -0.32736,-0.04092 -0.63811,-0.168474 -0.96016,-0.240038 -0.39827,-0.08851 -0.81314,-0.111022 -1.2002,-0.240041 -0.4361,-0.14537 -1.88068,-1.004427 -2.16035,-1.200195 -0.41972,-0.293804 -0.76796,-0.685099 -1.20019,-0.960157 -0.45283,-0.288166 -0.98741,-0.431953 -1.44024,-0.720116 -0.43224,-0.275061 -0.78585,-0.658818 -1.2002,-0.960157 -0.46662,-0.339366 -0.96015,-0.640107 -1.44023,-0.960157 -0.48008,-0.320054 -0.97361,-0.620792 -1.44024,-0.960157 -0.82868,-0.602682 -1.56095,-1.332707 -2.40039,-1.920314 -1.31439,-0.920076 -1.02319,-0.445223 -2.16035,-1.440236 -0.34063,-0.298053 -0.6401,-0.640104 -0.96016,-0.960154 -0.56009,-0.560092 -1.15868,-1.084168 -1.6802696,-1.680277 -0.26344,-0.301079 -0.48008,-0.640103 -0.72012,-0.960157 -0.60305,-0.804066 -0.97726,-1.234403 -1.44023,-2.160352 -0.1927,-0.385392 -0.28738,-0.8148 -0.48008,-1.200195 -0.20865,-0.417298 -0.51147,-0.782899 -0.72012,-1.200194 -0.1927,-0.385395 -0.30508,-0.80645 -0.48008,-1.200198 -0.14532,-0.326988 -0.35443,-0.62511 -0.48007,-0.960157 -0.11584,-0.308896 -0.12421,-0.651259 -0.24004,-0.960155 -0.12565,-0.335047 -0.38178,-0.616095 -0.48008,-0.960157 -0.066,-0.230804 0.0339,-0.482491 0,-0.720119 -0.0467,-0.326585 -0.16003,-0.640103 -0.24004,-0.960157 -0.08,-0.32005 -0.16003,-0.640103 -0.24004,-0.960154 -0.08,-0.320053 -0.20361,-0.632272 -0.24004,-0.960157 -0.0795,-0.715714 0.0795,-1.444641 0,-2.160352 -0.0451,-0.405495 -0.19944,-0.794234 -0.24004,-1.200198 -0.0398,-0.398079 0,-0.800129 0,-1.200195 0,-0.400066 0,-0.800131 0,-1.200195 0,-1.920314 0,-3.840628 0,-5.760941 0,-0.720117 0,-1.440235 0,-2.160353 0,-0.240039 -0.0395,-0.483344 0,-0.720117 0.0416,-0.249581 0.12688,-0.493806 0.24004,-0.720118 0.12902,-0.258034 0.32005,-0.480078 0.48008,-0.720117 0.32005,-0.480078 0.59972,-0.989687 0.96016,-1.440235 0.14137,-0.176719 0.3387,-0.303359 0.48007,-0.480078 0.18022,-0.225274 0.29539,-0.498493 0.48008,-0.720118 0.21732,-0.260785 0.52281,-0.443882 0.72012,-0.720117 0.20798,-0.291178 0.27209,-0.668979 0.48008,-0.960157 0.39462,-0.552471 1.00559,-0.918664 1.44023,-1.440235 0.18469,-0.221625 0.30699,-0.489324 0.48008,-0.720117 0.27519,-0.366914 0.28329,-0.188862 0.7201196,-0.480079 0.1883,-0.125535 0.29177,-0.354543 0.48008,-0.480078 0.44209,-0.29473 0.98437,-0.446603 1.44023,-0.720118 0.24738,-0.148427 0.45495,-0.366436 0.72012,-0.480078 0.30323,-0.129955 0.65126,-0.124203 0.96016,-0.240039 0.33504,-0.125642 0.62511,-0.354436 0.96015,-0.480078 0.3089,-0.115837 0.64719,-0.135715 0.96016,-0.24004 0.40877,-0.136257 0.79525,-0.332826 1.20019,-0.480078 0.47558,-0.172938 0.96016,-0.320052 1.44024,-0.480078 0.48008,-0.160026 0.95202,-0.346929 1.44023,-0.480079 0.39362,-0.107349 0.80942,-0.122804 1.2002,-0.240039 0.41271,-0.123813 0.80013,-0.320052 1.2002,-0.480078 0.40006,-0.1600262 0.80793,-0.3017775 1.20019,-0.4800784 0.48864,-0.2221063 0.93927,-0.5274376 1.44024,-0.7201175 0.54367,-0.2091068 1.1317,-0.2841612 1.68027,-0.4800785 0.57386,-0.2049502 1.11153,-0.5013696 1.68027,-0.7201175 1.20213,-0.4623546 1.86386,-0.5734926 3.120514,-0.9601565 0.483672,-0.1488213 0.952021,-0.3469286 1.440236,-0.4800783 0.787225,-0.2146977 1.600261,-0.3200524 2.400392,-0.4800785 0.400066,-0.080013 0.800129,-0.1600261 1.200195,-0.240039 0.400066,-0.080013 0.794235,-0.1994429 1.200198,-0.2400392 0.398079,-0.039808 0.800129,0 1.200195,0 0.400066,0 0.800129,0 1.200195,0 1.120182,0 2.240367,0 3.360549,0 1.120183,0 2.240365,0 3.360547,0 0.560092,0 1.125813,-0.079209 1.680277,0 1.081352,0.1544788 2.186688,0.6554671 3.120509,1.2001957 0.498385,0.2907247 0.960154,0.6401046 1.440232,0.9601568 0.480079,0.3200521 0.960158,0.6401043 1.440236,0.9601565 0.480079,0.3200524 0.978649,0.6139674 1.440236,0.9601567 0.499938,0.3749532 0.956572,0.8044717 1.440235,1.2001957 1.035857,0.84752 1.295352,0.947189 2.160352,1.920314 2.843308,3.198721 -0.622583,-0.526315 1.680274,2.160352 0.220921,0.257742 0.522806,0.443882 0.720119,0.720118 0.0055,0.0077 0.947113,1.897486 0.960157,1.920313 0.143131,0.25048 0.351059,0.462083 0.480076,0.720117 0.113157,0.226312 0.140369,0.487553 0.24004,0.720118 0.140957,0.328897 0.339122,0.63126 0.480079,0.960157 0.14656,0.341974 0.436575,1.375753 0.480078,1.680274 0.03395,0.237626 -0.03946,0.483344 0,0.720117 0.0416,0.249581 0.198443,0.470537 0.240038,0.720118 0.03946,0.236773 0,0.480078 0,0.720117 0,0.480078 0,0.960157 0,1.440235 0,0.320052 0,0.640105 0,0.960157 0,0.320052 0.03535,0.642062 0,0.960157 -0.166068,1.494632 -0.325866,1.063424 -0.720116,2.640431 -0.118044,0.472167 -0.09691,0.975056 -0.240041,1.440235 -0.179202,0.582414 -0.52742,1.102183 -0.720116,1.680274 -0.208648,0.625946 -0.260483,1.298122 -0.480079,1.920314 -0.262273,0.743111 -0.660111,1.431671 -0.960157,2.160352 -0.589671,1.432062 -0.757809,2.235737 -1.440235,3.600587 -0.288492,0.576983 -0.65432,1.112296 -0.960155,1.680274 -1.762101,3.27247 0.451763,-0.534413 -1.680276,3.120509 -0.470165,0.805997 -0.987078,1.584711 -1.440235,2.400393 -0.173776,0.312798 -0.320051,0.640103 -0.480076,0.960157 -0.480079,0.960157 -0.960157,1.920311 -1.440236,2.880468 -0.160028,0.320053 -0.354436,0.625112 -0.480078,0.960157 -0.115838,0.308898 -0.110086,0.656929 -0.240041,0.960157 -0.113641,0.265165 -0.336947,0.469638 -0.480079,0.720116 -0.355065,0.621367 -0.580858,1.313437 -0.960154,1.920315 -0.212034,0.339254 -0.498202,0.627282 -0.720119,0.960157 -0.709298,1.063947 -0.841817,1.59236 -1.680273,2.64043 -0.282753,0.353438 -0.640104,0.640104 -0.960157,0.960157 -0.480079,0.480079 -0.918666,1.005591 -1.440236,1.440236 -0.221626,0.184687 -0.472739,0.33165 -0.720116,0.480078 -0.306838,0.1841 -0.62792,0.347184 -0.960158,0.480079 -0.234926,0.09397 -0.48519,0.146068 -0.720116,0.240038 -0.166119,0.06645 -0.306507,0.196646 -0.480078,0.24004 -0.15525,0.03881 -0.320054,0 -0.480079,0 -0.240041,0 -0.480079,0 -0.720119,0 -0.800129,0 -1.600261,0 -2.40039,0"
       id="path1" />
  </g>
</svg>
