<?xml version="1.0" encoding="UTF-8" standalone="no"?>
<!-- Created with Inkscape (http://www.inkscape.org/) -->

<svg
   width="25mm"
   height="25mm"
   viewBox="0 0 25 25"
   version="1.1"
   id="svg6315"
   inkscape:version="1.3 (0e150ed, 2023-07-21)"
   sodipodi:docname="particle.svg"
   xml:space="preserve"
   xmlns:inkscape="http://www.inkscape.org/namespaces/inkscape"
   xmlns:sodipodi="http://sodipodi.sourceforge.net/DTD/sodipodi-0.dtd"
   xmlns="http://www.w3.org/2000/svg"
   xmlns:svg="http://www.w3.org/2000/svg"><sodipodi:namedview
     id="namedview6317"
     pagecolor="#ffffff"
     bordercolor="#666666"
     borderopacity="1.0"
     inkscape:pageshadow="2"
     inkscape:pageopacity="0.0"
     inkscape:pagecheckerboard="0"
     inkscape:document-units="mm"
     showgrid="false"
     inkscape:zoom="2.9790302"
     inkscape:cx="48.505718"
     inkscape:cy="55.387152"
     inkscape:window-width="944"
     inkscape:window-height="777"
     inkscape:window-x="0"
     inkscape:window-y="25"
     inkscape:window-maximized="0"
     inkscape:current-layer="layer1"
     width="15mm"
     inkscape:showpageshadow="2"
     inkscape:deskcolor="#d1d1d1" /><defs
     id="defs6312" /><g
     inkscape:label="Layer 1"
     inkscape:groupmode="layer"
     id="layer1"><path
       style="fill:none;stroke:#6eab4e;stroke-width:4;stroke-linecap:butt;stroke-linejoin:miter;stroke-opacity:1;stroke-dasharray:none"
       d="m 7.8746698,9.9220839 c 0,-0.7349691 0,-1.4699382 0,-2.2049076 0,-0.1629296 -0.037122,-0.2176793 0.1574935,-0.3149867 0.046955,-0.023477 0.2099911,0 0.1574932,0 -0.6299734,0 -1.2599471,0 -1.8899205,0 -0.3674846,0 -0.7349694,0 -1.1024539,0 -0.052498,0 -0.120372,-0.037122 -0.1574933,0 -0.037122,0.037122 0,0.1049957 0,0.1574935 0,0.4199824 0,0.8399648 0,1.2599471 0,0.6299737 0,1.2599468 0,1.8899208 0,0.209991 -0.029697,0.422093 0,0.629974 0.023477,0.164344 0.1049954,0.314987 0.1574933,0.47248 0.052498,0.157493 0.08325,0.323994 0.1574934,0.47248 0.066405,0.13281 0.2485816,0.182177 0.3149868,0.314987 0.020706,0.04141 0,0.547617 0,0.629973 0,0.262489 0,0.524978 0,0.787467 0,0.0525 0,0.104996 0,0.157494 0,0.0525 0.023476,0.110538 0,0.157493 -0.033203,0.0664 -0.1049957,0.104996 -0.1574935,0.157494 -0.052498,0.0525 -0.095719,0.11631 -0.1574933,0.157493 -0.097673,0.06512 -0.2099913,0.104995 -0.3149867,0.157493 -0.1049956,0.0525 -0.2011031,0.129023 -0.314987,0.157494 -0.1018606,0.02547 -0.215379,-0.0332 -0.3149867,0 -0.070433,0.02348 -0.091088,0.124291 -0.1574935,0.157493 -0.062445,0.03122 -0.4402828,-0.0322 -0.4724802,0 -0.037122,0.03712 0,0.104996 0,0.157493 0,0.0525 0,0.104996 0,0.157494 0,0.104996 -0.033202,0.215379 0,0.314987 0.037122,0.111364 0.1203719,0.203622 0.1574935,0.314986 0.0166,0.0498 -0.023477,0.110539 0,0.157494 0.033203,0.0664 0.1049957,0.104996 0.1574935,0.157493 0.052498,0.0525 0.091088,0.124291 0.1574932,0.157494 0.046956,0.02348 0.1105382,-0.02348 0.1574935,0 0.066405,0.0332 0.091088,0.124291 0.1574935,0.157493 0.07156,0.03578 1.0737474,0 1.1024537,0 0.1574935,0 0.3149867,0 0.4724802,0 0.1574935,0 0.3171296,0.02589 0.4724802,0 0.2919224,-0.04865 0.5304144,-0.18646 0.7874669,-0.314987 0.1049957,-0.0525 0.2099913,-0.104995 0.3149867,-0.157493 0.1049957,-0.0525 0.2319806,-0.07449 0.314987,-0.157494 0.083006,-0.08301 0.074487,-0.23198 0.1574932,-0.314986 0.083006,-0.08301 0.2173137,-0.09238 0.314987,-0.157494 0.123548,-0.08237 0.1821768,-0.248581 0.3149867,-0.314987 0.046955,-0.02348 0.120372,-0.03712 0.1574935,0 0.037122,0.03712 0,0.104996 0,0.157494 0,0.0525 0,0.104996 0,0.157493 0,0.07093 0.023966,0.42455 0,0.47248 -0.080167,0.160334 -0.3445973,0.251046 -0.4724802,0.314987 -0.2099913,0.104996 -0.4072443,0.240744 -0.6299737,0.314987 -0.099607,0.0332 -0.2407436,-0.07424 -0.3149867,0 -0.037122,0.03712 -0.0166,0.10769 0,0.157494 0.037122,0.111364 0.1290225,0.201102 0.1574932,0.314986 0.025466,0.101861 -0.033202,0.21538 0,0.314987 0.023477,0.07043 0.124291,0.09109 0.1574935,0.157493 0.023476,0.04696 -0.052498,0.157494 0,0.157494 0.052498,0 0,-0.104996 0,-0.157494 0,-0.262488 0,-0.524978 0,-0.787466 0,-0.524978 0,-1.049957 0,-1.574935 0,-1.312445 0,-2.62489 0,-3.937334 0,-0.787467 0,-1.5749343 0,-2.3624013 0,-0.1049956 0,-0.2099913 0,-0.3149869 0,-0.1049954 -0.046955,-0.2210758 0,-0.3149868 0.023476,-0.046955 0.1049957,0 0.1574935,0 0.052498,0 0.1049957,0 0.1574932,0 0.3674849,0 0.7349694,0 1.102454,0 0.1049956,0 0.2131261,-0.025466 0.3149867,0 0.4758988,0.1189747 0.2602923,0.205598 0.4724798,0.6299737 0.08465,0.1693003 0.269079,0.288848 0.314987,0.4724802 0.06366,0.2546517 0,0.5249778 0,0.7874671 0,0.262489 0,0.524978 0,0.787467 0,0.314987 0.05178,0.634259 0,0.94496 -0.09731,0.583845 -0.372921,1.060829 -0.6299733,1.574934 -0.2624892,0.524978 0,0.157494 -0.4724802,0.47248 -0.079406,0.05294 -0.1647153,0.257675 -0.3149868,0.157494 C 8.3014877,13.723982 8.2833103,12.829394 8.1896565,12.126991 8.1337183,11.707454 8.09202,11.286041 8.0321633,10.867044 7.9870029,10.550922 7.8457588,10.240104 7.8746698,9.9220839 7.9002656,9.6405357 8.0130496,9.3553758 8.1896565,9.134617 c 0.06559,-0.081988 0.2120302,0.020592 0.314987,0 0.1627886,-0.032558 0.3064674,-0.1574933 0.4724802,-0.1574933 0.2164538,0 0.4199824,0.1049954 0.6299735,0.1574933 0.2099913,0.052498 0.4420388,0.050102 0.6299738,0.1574935 0.38884,0.2221947 0.460702,0.4489251 0.629973,0.7874665 0.0525,0.104996 0.134472,0.199878 0.157494,0.314987 0.09398,0.469874 -0.148313,1.028534 -0.314987,1.417441 -0.511629,1.193802 -0.59283,1.27722 -1.4174405,2.204907 -0.1479733,0.16647 -0.3333425,0.298558 -0.4724803,0.472481 -0.073332,0.09167 -0.074487,0.23198 -0.1574934,0.314986 -0.037122,0.03712 -0.1105379,0.02348 -0.1574933,0 C 8.1244206,14.614268 8.34715,13.914555 8.34715,13.701926 8.34715,12.280778 8.26389,10.843467 8.6621368,9.4496039 8.8686321,8.7268705 9.247166,8.0620634 9.6070972,7.4021896 9.7412608,7.1562232 10.660705,5.6444014 11.182031,5.3547755 c 0.54224,-0.3012445 1.241513,-0.1446082 1.732428,0.1574933 1.218715,0.7499789 1.60536,1.5679806 2.047414,2.9923747 0.492631,1.5873675 0.573567,3.5614955 0.629973,5.1972825 0.04605,1.335437 0.0472,1.921707 -0.157493,3.149868 -0.03558,0.213508 -0.0044,0.476917 -0.157494,0.629973 -0.153055,0.153056 -0.419982,0.104996 -0.629973,0.157493 -0.209991,0.0525 -0.415191,0.184342 -0.629974,0.157494 -0.232964,-0.02912 -0.475371,-0.138299 -0.629973,-0.314987 -0.474581,-0.542378 -0.690686,-1.749452 -0.787467,-2.362401 -0.199283,-1.262127 -0.157494,-1.629 -0.157494,-2.834881 0,-0.262489 -0.03256,-0.527005 0,-0.787467 0.02059,-0.164731 0.0401,-0.355091 0.157494,-0.47248 0.332456,-0.332456 1.874236,-0.13778 2.204907,0 0.349447,0.145602 0.64935,0.393484 0.944961,0.629974 0.701076,0.560861 0.642297,0.610338 0.94496,1.41744 0.190696,0.508522 0.157494,0.34667 0.157494,0.787467 0,0.0525 0.03712,0.120372 0,0.157493 -0.03712,0.03712 -0.104996,0 -0.157494,0 -0.209991,0 -0.424983,0.04555 -0.629974,0 -0.836386,-0.185863 -0.798704,-0.29922 -1.259947,-0.94496 -0.110019,-0.154026 -0.262986,-0.29048 -0.314986,-0.47248 -0.05769,-0.201912 0,-0.419983 0,-0.629974 0,-0.209991 -0.05769,-0.428062 0,-0.629973 0.195409,-0.683933 0.628846,-0.532882 1.259947,-0.629974 0.366899,-0.05645 0.73252,-0.126666 1.102454,-0.157493 0.261582,-0.0218 0.524978,0 0.787466,0 0.209992,0 0.424061,-0.04118 0.629974,0 0.193949,0.03879 0.314987,0.614978 0.314987,0.629973 0,0.825405 -1.449761,1.640898 -2.047414,1.889921 -0.247096,0.102957 -0.527772,0.09257 -0.787467,0.157493 -0.09462,0.02366 -0.669926,0.352623 -0.787467,0 -0.08301,-0.249019 -0.0218,-0.525884 0,-0.787467 0.03083,-0.369933 0.0401,-0.750288 0.157493,-1.102453 0.148486,-0.445459 0.326669,-0.901496 0.629974,-1.259948 0.427088,-0.504741 1.573304,-1.0656074 2.204907,-1.2599468 0.305211,-0.093911 0.627582,-0.122229 0.944961,-0.1574934 0.15653,-0.017391 0.326251,-0.058492 0.47248,0 0.789631,0.3158524 0.717392,2.7127742 0.629974,3.1498682 -0.21995,1.099745 -0.976679,1.921638 -1.732428,2.677388 -0.342244,0.342243 -0.704508,0.669459 -1.102454,0.94496 -0.289548,0.200456 -0.623147,0.329452 -0.94496,0.47248 -0.151704,0.06742 -0.311425,0.11723 -0.47248,0.157493 -0.05093,0.01273 -0.128373,0.04368 -0.157494,0 -0.290303,-0.435455 -0.157493,-1.408091 -0.157493,-1.732427 0,-0.990793 -0.114593,-1.746631 0.314987,-2.677387 0.06092,-0.131988 0.861521,-1.099326 1.102454,-1.259948 0.13813,-0.09209 0.309691,-0.124935 0.47248,-0.157493 0.667126,-0.133426 0.600785,0.589232 0.47248,1.102454 -0.28729,1.149161 -1.151748,2.615956 -1.889921,3.464854 -0.88794,1.021132 -2.465641,2.32942 -3.779842,2.834881 -0.701553,0.269829 -1.455647,0.41254 -2.2049071,0.472481 C 9.3440736,18.157981 8.7195368,18.18975 8.1896565,17.954247 7.7147472,17.743176 7.3475923,17.301557 7.0872029,16.851794 6.3657357,15.605623 6.4091705,14.439884 6.299736,13.071952 6.2564581,12.530979 5.8005066,9.8349212 6.6147227,9.2921105 6.7948232,9.1720433 7.0295661,9.1585205 7.2446964,9.134617 c 0.2608834,-0.028987 0.5416907,-0.092166 0.7874669,0 0.5510012,0.2066255 0.8748691,1.438045 0.9449604,1.732427 0.3360346,1.411346 0.3831791,2.505296 0.3149868,3.937335 -0.022611,0.47485 -0.042195,0.956247 -0.1574935,1.417441 -0.096969,0.387874 -0.2432034,0.774915 -0.4724802,1.102454 -0.3498554,0.499793 -1.2073446,0.800774 -1.5749339,0.157493 -0.5927743,-1.037355 -0.4724802,-2.321459 -0.4724802,-3.464855 0,-0.367484 -0.036566,-0.736793 0,-1.102453 0.016518,-0.165189 0.024683,-0.372873 0.1574935,-0.472481 0.1259946,-0.0945 0.3149867,0 0.4724802,0 0.1574932,0 0.3277208,-0.06204 0.4724799,0 0.7672933,0.32884 0.9389123,0.998634 1.2599474,1.732428 0.7040507,1.609259 0.3137027,0.781689 0.6299735,2.204907 0.036013,0.16206 0.1172294,0.311424 0.1574935,0.472481 0.036266,0.145065 -0.047166,0.33098 0,0.47248 0.037122,0.111364 0.1138962,0.205994 0.1574932,0.314986 0.061656,0.154139 0.092098,0.319891 0.1574931,0.472481 0.09248,0.215794 0.194195,0.428653 0.314987,0.629973 0.0764,0.127326 0.248582,0.182177 0.314987,0.314987 0.04696,0.09391 -0.07424,0.240744 0,0.314987 0.03712,0.03712 0.110538,-0.02348 0.157493,0 0.07293,0.03647 0.537345,0.537345 0.629974,0.629974 0.0525,0.0525 0.09109,0.12429 0.157494,0.157493 0.217239,0.10862 0.140873,-0.190733 0.314986,0.157493 0.02348,0.04696 -0.03712,0.120372 0,0.157493 0.03712,0.03712 0.110538,-0.02348 0.157493,0 0.06641,0.0332 0.09572,0.116311 0.157494,0.157494 0.09767,0.06512 0.217314,0.09238 0.314987,0.157493 0.255034,0.170023 0.11053,0.314987 0.47248,0.314987 0.0525,0 0.110538,0.02348 0.157493,0 0.03015,-0.01507 0.6149,-0.599826 0.629974,-0.629974 0.02348,-0.04696 -0.02348,-0.110537 0,-0.157493 0.0332,-0.0664 0.116311,-0.09572 0.157493,-0.157493 0.06512,-0.09767 0.0971,-0.214327 0.157494,-0.314987 0.09739,-0.162309 0.240424,-0.298501 0.314987,-0.47248 0.08526,-0.198953 0.07223,-0.431021 0.157493,-0.629974 0.07456,-0.173979 0.221076,-0.308136 0.314987,-0.47248 0.116482,-0.203844 0.219634,-0.415431 0.314986,-0.629974 0.875968,-1.970925 -0.177495,0.374993 0.472481,-1.574934 0.823576,-2.470727 -0.121605,1.116393 0.47248,-1.259947"
       id="path2" /><path
       style="fill:none;stroke:#000000;stroke-width:1;stroke-linecap:butt;stroke-linejoin:miter;stroke-dasharray:none;stroke-opacity:1"
       d="m 1.3856416,18.269234 c 1.049956,0.262489 2.1185451,0.459319 3.149868,0.787467 0.1414962,0.04502 0.209991,0.209991 0.3149867,0.314987 0.2099913,0.209991 0.4199824,0.419982 0.6299737,0.629974 0.1049954,0.104995 0.2258949,0.196197 0.3149867,0.314986 0.070433,0.09391 0.092378,0.217314 0.1574935,0.314987 0.098256,0.147385 0.5291085,0.529109 0.6299735,0.629974 0.1574934,0.157493 0.3149867,0.314986 0.4724802,0.47248 0.1049956,0.104995 0.1961978,0.225895 0.3149867,0.314987 0.093911,0.07043 0.2173136,0.09238 0.314987,0.157493 0.1235479,0.08237 0.1821767,0.248582 0.3149867,0.314987 0.013044,0.0065 0.4522155,0.0068 0.4724802,0 0.4227155,-0.140905 0.263706,-0.179466 0.6299734,-0.47248 0.1478058,-0.118245 0.3246747,-0.196743 0.4724802,-0.314987 0.2318968,-0.185517 0.4199824,-0.419982 0.6299739,-0.629974 0.104996,-0.104995 0.225895,-0.196198 0.314987,-0.314987 0.07043,-0.09391 0.08706,-0.221076 0.157493,-0.314987 0.08909,-0.118788 0.225895,-0.196197 0.314987,-0.314986 0.07043,-0.09391 0.08706,-0.221076 0.157493,-0.314987 0.08909,-0.118789 0.225895,-0.196198 0.314987,-0.314987 0.29836,0.01794 0.104996,-0.367484 0.157494,-0.47248 0.327725,-0.65545 -0.01087,0.168366 0.314987,-0.157493 0.325859,-0.32586 -0.497957,0.01274 0.157493,-0.314987 0.04793,-0.02397 0.401552,0 0.47248,0 0.157494,0 0.314987,0 0.472481,0 0.104995,0 0.212029,-0.02059 0.314986,0 0.46575,0.09315 0.546764,0.207016 0.944961,0.47248 0.157493,0.104996 0.324674,0.196742 0.47248,0.314987 0.115948,0.09276 0.199038,0.222228 0.314987,0.314987 0.147805,0.118244 0.324674,0.196742 0.47248,0.314987 0.115948,0.09276 0.196198,0.225894 0.314987,0.314986 0.09391,0.07043 0.217313,0.09238 0.314986,0.157493 0.06177,0.04118 0.09109,0.124291 0.157494,0.157494 0.484265,0.242133 1.052592,0.157493 1.574934,0.157493 0.523807,0 0.118851,0.04696 0.629973,-0.157493 0.154139,-0.06166 0.342846,-0.05379 0.47248,-0.157494 0.147806,-0.118244 0.196743,-0.324674 0.314987,-0.472479 0.09276,-0.115949 0.232622,-0.191439 0.314987,-0.314987 0.130231,-0.195347 0.209991,-0.419983 0.314987,-0.629974 0.104996,-0.209991 0.232551,-0.410145 0.314987,-0.629974 0.076,-0.202672 0.104995,-0.419982 0.157493,-0.629973 0.0525,-0.209991 0.130646,-0.415191 0.157493,-0.629974 0.02605,-0.208369 0,-0.419982 0,-0.629973 0,-0.524978 0,-1.049956 0,-1.574934 0,-0.798105 0.04696,0.187822 -0.157493,-0.629974 -0.02994,-0.119768 0,-0.655583 0,-0.787467 0,-0.0525 -0.03712,-0.120372 0,-0.157493 0.08301,-0.08301 0.209991,-0.104996 0.314987,-0.157494 0.104996,-0.0525 0.201103,-0.129022 0.314987,-0.157493 0.10186,-0.02547 0.21203,0.02059 0.314987,0 1.036485,-0.207297 -0.08685,-0.157493 0.94496,-0.157493 0.209991,0 0.419982,0 0.629973,0 0.0525,0 0.120372,0.03712 0.157494,0 0.03712,-0.03712 -0.0166,-0.10769 0,-0.157494 0.209991,-0.629974 0.151124,0.03185 0.314987,-0.787467 0.02059,-0.102957 -0.02547,-0.213126 0,-0.314986 0.02847,-0.113884 0.129022,-0.201104 0.157493,-0.314987 0.02547,-0.101861 0,-0.209992 0,-0.314987 0,-0.314987 0,-0.629974 0,-0.944961 0,-0.03743 0.01765,-0.5946742 0,-0.6299731 C 23.559011,9.3831989 23.4759,9.3538839 23.434718,9.2921105 22.944016,8.5560587 23.743127,9.4807552 22.962237,8.5046435 22.730341,8.2147729 22.412417,8.0023522 22.17477,7.7171763 21.22981,6.583224 22.542255,7.8536706 21.387304,6.9297094 21.11431,6.7113149 20.963804,6.3907278 20.599836,6.299736 c -0.10186,-0.025466 -0.21203,0.020592 -0.314986,0 -0.871698,-0.1743398 -0.05865,-0.1845109 -1.102454,-0.314987 -0.20837,-0.026046 -0.421267,0.023191 -0.629974,0 -0.26605,-0.029561 -0.521108,-0.1308574 -0.787467,-0.1574932 -0.522372,-0.052237 -1.053167,0.057974 -1.574934,0 -0.21513,-0.023902 -0.414267,-0.139518 -0.629973,-0.1574935 -0.418532,-0.034878 -0.839965,0 -1.259947,0 -0.157494,0 -0.314987,0 -0.472481,0 -0.104995,0 -0.21203,-0.020593 -0.314987,0 -0.162788,0.032558 -0.312855,0.1118862 -0.472479,0.1574935 -0.52269,0.1493398 -0.630435,0.1261792 -1.102454,0.3149867 -0.108993,0.043597 -0.205995,0.1138962 -0.314987,0.1574935 -0.307347,0.1229386 -0.797471,0.3049828 -1.102454,0 C 10.2662,6.045677 10.384205,5.2541807 10.362765,5.0397888 10.33613,4.7734299 10.231908,4.5186806 10.205272,4.2523216 c -0.02612,-0.2611863 0,-0.5249777 0,-0.7874669 0,-0.1049957 0.02547,-0.2131261 0,-0.3149867 -0.02847,-0.1138838 -0.129022,-0.2011032 -0.157493,-0.3149867 -0.0013,-0.00527 8.46e-4,-0.4716438 0,-0.4724804 -0.03712,-0.037122 -0.104996,0 -0.1574939,0 -0.1574935,0 -0.3196891,-0.038198 -0.4724802,0 C 9.0307335,2.4591688 8.6962137,2.9264988 8.4728445,3.149868 8.0003643,3.6223482 7.5520641,4.1203144 7.0554039,4.5673086 6.8055457,4.7921809 6.5191784,4.9739563 6.2679369,5.1972821 6.0459769,5.3945797 5.8479546,5.6172644 5.6379632,5.8272558 5.48047,5.984749 5.3080709,6.1286305 5.165483,6.299736 5.0443068,6.4451475 4.9687407,6.6244104 4.8504963,6.7722162 4.7577376,6.8881643 4.6246011,6.968414 4.5355096,7.0872029 4.4830118,7.1921986 4.4305139,7.297194 4.3780161,7.4021896 c 0,0.052498 0.023479,0.1105379 0,0.1574935 -0.033203,0.066405 -0.1340157,0.08706 -0.1574932,0.1574932 -0.031807,0.09542 0,1.2505058 0,1.2599474 0,0.7349691 0,1.4699383 0,2.2049073 0,0.489883 0.070633,0.961189 -0.1574935,1.417441 -0.08465,0.1693 -0.2303367,0.30318 -0.3149869,0.47248 -0.074243,0.148486 -0.07208,0.330126 -0.1574933,0.47248 -0.076396,0.127326 -0.2258951,0.196198 -0.3149868,0.314987 -0.1408664,0.187822 -0.1847558,0.434627 -0.3149868,0.629974 -0.041183,0.06177 -0.1163108,0.09572 -0.1574934,0.157493 -0.130231,0.195346 -0.1847558,0.434627 -0.3149868,0.629973 -0.041183,0.06178 -0.1242909,0.09109 -0.1574934,0.157494 -0.023478,0.04696 0.037122,0.120372 0,0.157493 -0.3258595,0.32586 0.012738,-0.497956 -0.3149868,0.157494 -0.023478,0.04696 0,0.104995 0,0.157493 -0.052498,0.104996 -0.08706,0.221076 -0.1574935,0.314987 -0.1049955,0.104996 -0.2099911,0.209991 -0.3149867,0.314987 0,0.0525 0.023478,0.110538 0,0.157493 -0.033203,0.06641 -0.1242909,0.09109 -0.1574934,0.157494 -0.023965,0.04793 0,0.401551 0,0.47248 0,0.314986 0,0.629973 0,0.94496 z"
       id="path1" /></g></svg>
