<?xml version="1.0" encoding="UTF-8" standalone="no"?>
<!-- Created with Inkscape (http://www.inkscape.org/) -->

<svg
   width="51mm"
   height="155.11mm"
   viewBox="0 0 51 155.11"
   version="1.1"
   id="svg5"
   inkscape:version="1.3 (0e150ed, 2023-07-21)"
   sodipodi:docname="scar_topdown.svg"
   xmlns:inkscape="http://www.inkscape.org/namespaces/inkscape"
   xmlns:sodipodi="http://sodipodi.sourceforge.net/DTD/sodipodi-0.dtd"
   xmlns="http://www.w3.org/2000/svg"
   xmlns:svg="http://www.w3.org/2000/svg">
  <sodipodi:namedview
     id="namedview7"
     pagecolor="#ffffff"
     bordercolor="#666666"
     borderopacity="1.0"
     inkscape:pageshadow="2"
     inkscape:pageopacity="0.0"
     inkscape:pagecheckerboard="0"
     inkscape:document-units="mm"
     showgrid="false"
     inkscape:zoom="0.77547854"
     inkscape:cx="16.119079"
     inkscape:cy="292.07772"
     inkscape:window-width="1312"
     inkscape:window-height="726"
     inkscape:window-x="0"
     inkscape:window-y="25"
     inkscape:window-maximized="0"
     inkscape:current-layer="layer1"
     inkscape:showpageshadow="2"
     inkscape:deskcolor="#d1d1d1" />
  <defs
     id="defs2" />
  <g
     inkscape:label="Layer 1"
     inkscape:groupmode="layer"
     id="layer1">
    <path
       style="fill:none;stroke:#000000;stroke-width:15;stroke-linecap:round;stroke-linejoin:miter;stroke-dasharray:none;stroke-opacity:1"
       d="m 28.532162,82.912599 c 0.0083,-10.349338 0.0044,-20.69869 0.0044,-31.048031 0,-1.36475 0,-2.729499 0,-4.094247 0,-1.251018 -0.06247,-2.503601 0,-3.753059 0.206433,-4.128653 0.423575,-1.9182 0.682374,-5.800182 0.05296,-0.79434 0,-1.592207 0,-2.388309 0,-0.796105 0,-1.592207 0,-2.388312 0,-0.682374 -0.05667,-1.367105 0,-2.047124 0.05745,-0.689395 0.278556,-1.358175 0.341187,-2.04712 0.09267,-1.019358 -0.126957,-2.055027 0,-3.070686 0.05816,-0.465296 0.289404,-0.898699 0.341188,-1.36475 0.0628,-0.565166 -0.07053,-1.14168 0,-1.705934 0.44908,-3.592641 0.341187,1.466255 0.341187,-2.047123 0,-0.289548 -0.0627,-1.859034 0,-2.047123 0.05086,-0.152584 0.290326,-0.188604 0.341187,-0.341188 0.06654,-0.199621 0,-1.754272 0,-2.047123 0,-0.113729 -0.05086,-0.239465 0,-0.341187 0.07193,-0.143857 0.290326,-0.188604 0.341187,-0.341187 0.07193,-0.215786 0,-0.454916 0,-0.682374 0,-0.454917 0,-0.909833 0,-1.364749 0,-0.227458 -0.04461,-0.459333 0,-0.682374 0.07053,-0.352659 0.270656,-0.670903 0.341187,-1.023562 0.08698,-0.434892 -0.115264,-1.70133 0,-2.047123 0.05086,-0.152584 0.290326,-0.188604 0.341188,-0.341187 0.0823,-0.2469 -0.112469,-1.252281 0,-1.364749 0.08042,-0.08042 0.227458,0 0.341187,0 0.311507,0 0.623015,0 0.934523,0"
       id="path2" />
    <path
       style="fill:none;stroke:#a26e41;stroke-width:9;stroke-linecap:butt;stroke-linejoin:miter;stroke-opacity:1;stroke-dasharray:none"
       d="m 23.468494,146.00691 c -1.89168,-6.87735 -2.232945,-10.05053 -5.044387,-15.67341 -0.706586,-1.41317 -1.57542,-2.73943 -2.38831,-4.09425 -0.552011,-0.92001 -1.226112,-1.76985 -1.705936,-2.72949 -0.143857,-0.28772 0.438141,0.47303 0.682375,0.68237 0.552906,0.47392 1.142323,0.90361 1.705936,1.36475 1.374938,1.12495 2.673042,2.34597 4.094246,3.41187 1.565975,1.17448 2.052713,1.22332 3.411871,2.38831 0.36635,0.31402 0.652886,0.71467 1.023562,1.02356 1.395992,1.16333 0.719757,0.25238 2.388309,1.36475 0.26765,0.17844 0.425035,0.48937 0.682376,0.68238 0.203444,0.15258 0.478928,0.1886 0.682374,0.34118 0.257339,0.19301 0.454917,0.45492 0.682374,0.68238 0.113728,0.11373 0.25197,0.20736 0.341188,0.34118 0.141062,0.2116 0.161364,0.50256 0.341185,0.68238 0.08042,0.0804 0.260771,-0.0804 0.341188,0 0.08042,0.0804 0,0.22746 0,0.34119 0,0.11372 0.107892,0.37715 0,0.34118 -0.389014,-0.12967 -0.656796,-0.49899 -1.023561,-0.68237 -0.774695,-0.38735 -1.613615,-0.63621 -2.388309,-1.02356 -3.876593,-1.9383 -7.51357,-4.31405 -11.259178,-6.48256 -2.786595,-1.61329 -3.042689,-1.69194 -5.800182,-3.07068 -0.454916,-0.22746 -0.9098323,-0.45492 -1.3647485,-0.68238 -0.227458,-0.11373 -0.4707792,-0.20012 -0.6823744,-0.34118 -0.1338246,-0.0892 -0.18035,-0.34119 -0.3411871,-0.34119 -0.113729,0 -0.063086,0.24656 0,0.34119 0.1784329,0.26765 0.4549161,0.45491 0.6823742,0.68237 0.4549164,0.45492 0.9098325,0.90983 1.3647489,1.36475 0.6823739,0.68237 1.3144229,1.41909 2.0471229,2.04712 0.863495,0.74014 1.826082,1.35628 2.729498,2.04712 1.030052,0.78769 2.047123,1.59221 3.070684,2.38831 3.266811,2.54086 2.509544,2.11987 5.800182,4.09425 5.702092,3.42126 0.01229,0.20963 3.75306,1.70594 0.106931,0.0428 0.85204,1.02541 1.023561,0.68237 0.160835,-0.32167 -0.207621,-0.68964 -0.341188,-1.02356 -0.321675,-0.80419 -0.60293,-1.63117 -1.023562,-2.38831 -0.720133,-1.29624 -1.647298,-2.46864 -2.38831,-3.75306 -2.33615,-4.04933 -2.998336,-5.81852 -5.117807,-9.89443 -0.657437,-1.2643 -1.409834,-2.47848 -2.047123,-3.75306 -0.614558,-1.22911 -1.142016,-2.4999 -1.705936,-3.75306 -0.47808,-1.0624 -1.76752,-3.71979 -2.047123,-5.1178 -0.08922,-0.44608 0,-0.90984 0,-1.36475 0,-0.34119 0,-0.68238 0,-1.02356 0,-0.11373 0,-0.22746 0,-0.34119 0,-0.11373 -0.110334,-0.36877 0,-0.34119 1.322008,0.3305 4.029198,2.7457 4.435433,3.07069 1.262192,1.00975 2.502039,2.04712 3.753059,3.07068 1.25102,1.02356 2.548456,1.99288 3.753059,3.07069 0.958899,0.85796 1.784028,1.85675 2.729498,2.72949 5.415055,4.99852 -1.016968,-1.35815 2.729498,2.38831 0.256259,0.25626 0.682373,0.75482 0.682373,0.34119 0,-0.2543 -0.210349,-0.46431 -0.341188,-0.68237 -0.552011,-0.92002 -1.160111,-1.8058 -1.705935,-2.7295 -0.932921,-1.57879 -1.712273,-3.25079 -2.729498,-4.77662 -1.034679,-1.55202 -2.292694,-2.9432 -3.411871,-4.43543 -0.92813,-1.23751 -1.83039,-2.49431 -2.729497,-3.75306 -4.801356,-6.721901 -0.281538,-0.69311 -4.094246,-5.458998 -0.355231,-0.444037 -0.659524,-0.927904 -1.023562,-1.36475 -0.411862,-0.494233 -1.007883,-0.82945 -1.364749,-1.364747 -0.06308,-0.09463 0.08042,-0.260771 0,-0.341188 -0.08042,-0.08042 -0.260768,0.08042 -0.341187,0 -0.08042,-0.08042 -0.107893,-0.37715 0,-0.341188 0.389013,0.129672 0.699883,0.430625 1.023562,0.682376 0.701144,0.545333 1.381078,1.118248 2.047123,1.705936 1.267754,1.118609 2.585668,2.188889 3.753059,3.411869 2.809443,2.94323 4.215072,5.39928 6.823742,8.52968 1.082363,1.29884 2.31689,2.46485 3.411874,3.75306 5.293214,6.22731 0.08893,0.22453 3.753059,5.45899 0.368935,0.52706 0.90983,0.90984 1.364747,1.36475 0.222014,0.22202 0.66562,0.57423 0.341188,0.68238 -0.323678,0.10789 -0.682374,0 -1.023562,0 -2.755021,0 -0.710356,0.0935 -3.753059,-0.34119 -0.907698,-0.12967 -1.83039,-0.16136 -2.729497,-0.34119 -1.324975,-0.26499 -2.841731,-0.80807 -4.094246,-1.36475 -0.907933,-0.40352 -1.432713,-0.83244 -2.388311,-1.02356 -0.223041,-0.0446 -0.466588,0.0719 -0.682374,0 -0.152583,-0.0509 -0.19733,-0.26926 -0.341187,-0.34118 -0.101722,-0.0509 -0.421606,-0.0804 -0.341187,0 0.402093,0.40209 0.914026,0.67685 1.364748,1.02356 1.027804,0.79062 2.078816,1.55305 3.070685,2.38831 3.577792,3.01288 6.818377,6.37894 9.894428,9.89443 3.605178,4.1202 0.457637,0.49645 2.388309,3.07068 0.0965,0.12867 0.454917,0.45492 0.341188,0.34119 -0.909833,-0.90983 -1.78885,-1.85156 -2.729497,-2.7295 -1.001165,-0.93442 -2.052759,-1.81336 -3.070685,-2.7295 -2.393974,-2.15457 -4.776621,-4.3217 -7.16493,-6.48255 -1.253718,-1.13432 -2.5273,-2.2474 -3.753059,-3.41188 -1.695462,-1.61068 -3.661846,-3.56624 -5.117808,-5.45899 -0.500031,-0.65004 -0.872681,-1.39103 -1.364748,-2.04712 -0.193005,-0.25734 -0.454917,-0.45492 -0.682375,-0.68238 -0.113729,-0.11373 -0.227458,-0.45491 -0.341187,-0.34119 -0.113729,0.11373 0.227458,0.22746 0.341187,0.34119 0.454917,0.45492 0.888709,0.93199 1.364749,1.36475 0.775849,0.70532 1.621777,1.33169 2.38831,2.04712 0.940647,0.87794 1.761159,1.8822 2.729498,2.7295 0.855898,0.74891 1.861305,1.3125 2.729497,2.04712 4.208974,4.20898 -0.09164,0.1314 2.729497,2.38832 0.251186,0.20094 0.414725,0.50394 0.682374,0.68237 0.09463,0.0631 0.377153,0.10789 0.341189,0 -0.129673,-0.38901 -0.447223,-0.68763 -0.682377,-1.02356 -0.561036,-0.80149 -1.153485,-1.58088 -1.705934,-2.38831 -3.234667,-4.72759 -6.439812,-9.82599 -8.870867,-15.01224 -0.779833,-1.66364 -1.364748,-3.41187 -2.047123,-5.117806 -0.454916,-1.13729 -0.941294,-2.262494 -1.364749,-3.411871 -0.372991,-1.012407 -0.706263,-2.039469 -1.023561,-3.070685 -0.137902,-0.44818 -0.264098,-0.902211 -0.341187,-1.36475 -0.03739,-0.224361 -0.160837,-0.521536 0,-0.682374 0.160837,-0.160837 0.478929,-0.101721 0.682374,0 0.959647,0.479825 1.819665,1.137291 2.729498,1.705936 4.741571,2.963484 7.67573,4.665488 12.282737,8.18849 4.557663,3.48527 4.225261,3.86224 8.188492,7.16493 0.873691,0.72808 1.849284,1.32695 2.729497,2.04713 0.373444,0.30554 0.682377,0.68237 1.023562,1.02356 0.113729,0.11373 0.22746,0.45491 0.341188,0.34118 0.160838,-0.16083 0.126172,-0.49311 0,-0.68237 -0.58162,-0.87243 -1.380564,-1.57892 -2.047123,-2.38831 -1.023337,-1.24262 -4.821407,-6.09294 -5.800183,-7.16493 -1.301369,-1.425311 -2.729497,-2.729498 -4.094244,-4.094245 -1.137292,-1.13729 -2.244271,-2.305724 -3.411873,-3.411873 -0.994177,-0.941851 -2.013542,-1.85891 -3.070684,-2.729498 -0.87791,-0.722984 -1.861306,-1.312497 -2.729498,-2.047123 -3.527968,-3.527967 -0.05854,-0.219374 -3.070684,-2.729497 -0.247117,-0.205931 -0.425035,-0.489368 -0.682375,-0.682374 -0.203445,-0.152582 -0.502553,-0.161367 -0.682374,-0.341188 -0.08042,-0.08042 -0.08042,-0.421606 0,-0.341186 0.179821,0.179822 0.200123,0.470779 0.341187,0.682374 0.315428,0.473141 0.663474,0.924642 1.023562,1.36475 1.544913,1.888225 2.631685,3.10171 4.435433,4.776618 0.768356,0.713476 1.646887,1.305703 2.38831,2.047124 0.989151,0.989152 1.635011,2.195097 2.729497,3.070685 0.346301,0.27704 0.806088,0.247428 1.023562,0.682374 0.05086,0.101724 0.08042,0.421605 0,0.341188 C 25.409216,97.740897 25.374022,97.459143 25.247851,97.238345 24.918837,96.66257 24.571844,96.097184 24.224289,95.532407 23.661976,94.61865 23.101217,93.7037 22.518353,92.80291 21.850063,91.770098 21.087589,90.796847 20.47123,89.732227 19.834148,88.631812 19.309619,87.469484 18.765295,86.320354 17.367303,83.36904 17.588505,83.813548 16.718172,81.202547 16.512096,80.584319 16.14645,79.847026 16.376984,79.155424 c 0.03597,-0.107892 0.239465,-0.05086 0.341188,0 0.593138,0.296569 1.13729,0.682374 1.705935,1.023562 5.557322,3.334393 1.325679,0.686752 6.823744,4.435432 1.355198,0.923999 2.775217,1.754564 4.094247,2.729498 5.411266,3.999632 1.912549,1.953955 6.482556,5.117808 2.576298,1.783591 0.948629,0.266253 2.388309,1.705936 0.113729,0.113728 0.180351,0.341188 0.341189,0.341188 0.113728,0 0.06824,-0.250206 0,-0.341188 -0.289508,-0.386009 -0.69899,-0.666533 -1.023562,-1.023562 -4.924901,-5.417391 0.432146,0.09096 -5.800183,-6.141368 -1.36475,-1.36475 -2.758837,-2.700777 -4.094247,-4.094247 -9.892495,-10.322605 1.59153,1.250341 -6.823742,-7.16493 -1.701075,-1.701075 -3.334374,-3.194812 -4.776621,-5.117809 -0.397889,-0.530518 -0.638114,-1.16631 -1.023561,-1.705935 -0.18697,-0.261758 -0.454917,-0.454917 -0.682375,-0.682374 -0.113729,-0.113728 -0.341187,-0.18035 -0.341187,-0.341188 0,-0.113728 0.235593,-0.04224 0.341187,0 0.472234,0.188894 0.909833,0.454917 1.364749,0.682374 1.137291,0.568645 2.274581,1.137293 3.411872,1.705938 1.364748,0.682373 2.785853,1.262086 4.094246,2.047121 1.132914,0.679749 6.91616,4.827222 8.188491,5.800182 0.705591,0.53957 1.34598,1.160603 2.047124,1.705936 0.323678,0.251751 0.656796,0.498993 1.023561,0.682376 0.101722,0.05086 0.260768,-0.08042 0.341189,0 0.08042,0.08042 -0.113732,0.341185 0,0.341185 0.113728,0 0.06308,-0.246557 0,-0.341185 -0.178435,-0.26765 -0.489371,-0.425037 -0.682377,-0.682376 -0.492067,-0.65609 -0.858065,-1.402252 -1.364747,-2.047121 -2.251964,-2.866136 -2.838019,-3.015396 -5.458994,-5.800183 -3.200816,-3.400867 -1.447143,-1.798629 -4.094247,-4.776621 -0.719992,-0.80999 -1.062546,-0.799327 -1.364749,-1.705935 -0.03596,-0.107894 -0.110333,-0.313605 0,-0.341188 0.760062,-0.190016 3.404964,0.271568 3.753059,0.341188 2.953227,0.590645 5.707802,1.721683 8.529678,2.729497 0.677384,0.241922 1.358173,0.475689 2.047124,0.682374 0.449141,0.134742 0.92937,0.167037 1.36475,0.341188 0.149333,0.05973 0.197329,0.269258 0.341185,0.341185 0.101725,0.05086 0.421606,0.08042 0.341188,0 -0.289954,-0.289951 -0.687631,-0.447222 -1.023561,-0.682373 -0.801484,-0.561039 -1.605643,-1.118936 -2.388309,-1.705936 -6.481215,-4.860911 0.469728,0.08998 -6.482557,-4.77662 -1.137293,-0.796103 -2.286455,-1.575509 -3.411872,-2.388309 -7.292095,-5.266516 0.707034,0.444976 -4.435434,-3.411874 -0.328044,-0.246033 -0.695517,-0.43634 -1.023561,-0.682374 -0.27986,-0.209893 -0.620336,-0.626543 -0.341187,-0.682373 0.557602,-0.111522 1.13729,0 1.705936,0 4.04429,0 1.60832,-0.09053 6.141368,0.341185 2.634795,0.250934 4.620197,0.275111 7.16493,1.023562 3.941826,1.159362 1.110597,0.5553 3.411874,1.705936 0.101721,0.05086 0.239464,-0.05086 0.341185,0 0.143859,0.07193 0.22746,0.454916 0.341188,0.341188 0.113729,-0.113729 -0.193354,-0.277831 -0.341188,-0.341188 -0.661127,-0.28334 -1.379281,-0.415238 -2.047121,-0.682374 -1.039989,-0.415994 -2.047123,-0.909833 -3.070685,-1.364747 -1.13729,-0.341189 -2.30524,-0.593207 -3.411871,-1.023562 -0.948057,-0.368689 -1.8059,-0.938475 -2.7295,-1.36475 -0.556078,-0.256651 -1.13248,-0.467328 -1.705934,-0.682374 -0.448963,-0.168362 -1.364749,-0.325927 -1.364749,-0.682373 0,-0.113732 0.260768,-0.08042 0.341187,0 0.08042,0.08042 -0.107893,0.30522 0,0.341185 3.875827,1.291942 -2.195493,-1.741977 2.047123,0.682376 0.441599,0.252341 0.938882,0.960446 1.36475,0.682374 0.75026,-0.489887 0.827725,-1.589463 1.241586,-2.384195"
       id="path3" />
    <path
       style="fill:none;stroke:#000000;stroke-width:10.999;stroke-linecap:round;stroke-linejoin:miter;stroke-dasharray:none;stroke-opacity:1"
       d="m 7.5142299,143.98388 c 1.3536952,-0.44955 2.9540561,-0.33765 4.0610851,-1.34868 0.532218,-0.48606 0,-1.57345 0,-2.36017 v -14.4983 -12.47528 -4.3832 c 0,-1.34868 -0.0483,-2.69853 0,-4.04604 0.356715,-9.950991 0.10328,1.60545 0.870233,-7.754904 0.09167,-1.118834 0,-2.247795 0,-3.371693 0.09669,-1.123901 0.18835,-2.248398 0.290077,-3.371699 0.121816,-1.345123 0.407929,-4.330577 0.580155,-5.731883 0.08318,-0.67677 0.244968,-1.34139 0.290078,-2.023016 0.05191,-0.784414 -0.04822,-1.575458 0,-2.360189 0.04871,-0.792696 0.193385,-1.573458 0.290077,-2.360186 0.400324,-3.257195 0.205273,-1.571609 0.580156,-5.057545 0.09669,-0.899117 0.238222,-1.793248 0.290077,-2.697357 0.08362,-1.457832 -1.264696,12.582617 -1.160308,11.126598 0.273724,-3.81794 0.256385,-0.321878 0.580155,-3.708866 0.08542,-0.893621 -0.09595,-1.805182 0,-2.697357 0.383883,-3.569631 0.290078,0.84624 0.290078,-2.697357 V 56.319785 54.633937 c 0,-0.449561 0.0547,-0.903638 0,-1.34868 -0.381808,-3.106543 -0.290078,1.027971 -0.290078,-2.023016 V 50.5879 c 0,-0.112388 0.06837,-0.257697 0,-0.337167 -0.06837,-0.07947 -0.290077,-0.112393 -0.290077,0 0,0.112389 0.193385,0 0.290077,0 0.193385,0 0.392544,0.05451 0.580155,0 0.209756,-0.06095 0.37504,-0.2577 0.580155,-0.337172 0.378215,-0.146538 0.773541,-0.224778 1.160311,-0.33717 0.483462,-0.224779 0.961032,-0.467501 1.450387,-0.674338 1.149438,-0.485834 2.331494,-0.862847 3.480931,-1.348678 0.489355,-0.206836 0.961033,-0.467504 1.450388,-0.67434 1.149437,-0.485833 2.311942,-0.930596 3.48093,-1.348677 0.672804,-0.240624 1.357739,-0.433715 2.030543,-0.674342 0.584493,-0.20904 1.147188,-0.501939 1.740465,-0.674338 0.570597,-0.165807 1.161794,-0.214877 1.740466,-0.337168 0.485085,-0.102516 0.969091,-0.212853 1.450387,-0.337171 0.386771,-0.112389 0.773541,-0.224778 1.160309,-0.33717 0.193387,-0.112389 0.370401,-0.276217 0.580158,-0.337168 0.258974,-0.07525 1.114614,0 1.450387,0 0.336973,0 -1.883268,15.61819 1.450387,0 0.09119,-0.42724 0.7408,0.552435 1.160312,0.674338 0.187609,0.05452 0.392542,-0.05451 0.580154,0 0.525021,-0.20322 0.539493,0.546196 0.870233,0.674339 0.183461,0.07108 0.396692,-0.07108 0.580154,0 0.129726,0.05026 0.193385,0.224781 0.290079,0.337171 0.619507,0.720079 0.67398,1.333684 0.870232,2.360186 0.358268,1.873934 0.265278,1.69589 0.580155,3.708865 0.780231,4.987924 -0.09758,-1.584845 0.290076,3.371698 0.05325,0.680833 0.193386,1.348677 0.290079,2.023015 0.09669,0.674342 0.193385,1.34868 0.290078,2.023019 0.09669,0.674339 0.241232,1.341737 0.290075,2.023018 0.04818,0.672009 0,1.348679 0,2.023018 v 7.080561 5.057546 c 0,0.786727 0.07475,1.578269 0,2.360186 -0.119382,1.248872 -0.402428,2.469406 -0.580153,3.708865 -0.209082,1.458146 0.773537,-12.587663 0.580153,-11.126597 -0.193387,1.46107 -0.393776,2.92091 -0.580155,4.383208 -0.200397,1.57227 -0.339773,3.155691 -0.580157,4.720372 -0.243367,1.58412 -0.659719,3.12991 -0.870233,4.720375 -1.013187,7.654872 0.327607,0.749782 -0.580154,7.080563 -0.146554,1.022083 -0.469583,2.006344 -0.580154,3.034525 -0.08396,0.780654 0.05191,1.575775 0,2.360188 -0.04511,0.681626 -0.241233,1.341736 -0.290079,2.023016 -0.04818,0.67201 0.04818,1.35101 0,2.02302 -0.04884,0.681284 -0.241233,1.341734 -0.290075,2.023024 -0.04818,0.67201 0.04449,1.35066 0,2.02301 -0.05244,0.79238 -0.237642,1.56782 -0.290079,2.36019 -0.04449,0.67236 0.04449,1.35066 0,2.02302 -0.05244,0.79237 -0.244598,1.56723 -0.290079,2.36019 -0.05145,0.89713 0.04543,1.79978 0,2.69736 -0.102831,2.03195 -0.483017,4.03671 -0.580154,6.06904 -0.04827,1.00996 0.05788,2.02526 0,3.03453 -0.136862,2.38621 -0.371111,1.52206 -0.580154,3.70887 -0.367475,3.84418 0.378393,-0.30796 -0.290079,2.02302 -0.03058,0.10661 0,0.22478 0,0.33717 v 1.01151 c 0,0.78672 0.06735,1.57736 0,2.36018 -0.05852,0.68025 -0.193384,1.34868 -0.290076,2.02302 -0.09669,0.67434 -0.193386,1.34868 -0.290078,2.02301 -0.09669,0.67435 -0.244967,1.3414 -0.290079,2.02303 0,5.72808 0.111274,-0.74838 -0.290075,4.3832 -0.07003,0.89543 0,1.79824 0,2.69736 0,0.33717 0.129725,0.70993 0,1.0115 -0.04324,0.10053 -0.193387,0 -0.29008,0 h -0.580153 -3.480932 c -5.769628,0 1.725889,-0.11126 -4.061085,0.33718 -0.771828,0.0598 -1.547081,0 -2.320621,0 h -5.801551 -2.320621 -0.870232 c -0.290077,0 -0.585788,0.0661 -0.870233,0 -0.212012,-0.0493 -0.368143,-0.28789 -0.580155,-0.33718 -0.306318,-0.0713 -1.611034,0 -2.030543,0 H 7.5142299 c -0.1933851,0 -0.396694,0.0711 -0.5801551,0 -1.2804643,-0.4961 1.0538996,-0.33717 -0.8702327,-0.33717 -0.096692,0 -0.2217056,0.0795 -0.2900775,0 -0.068372,-0.0794 -0.038984,-0.44001 0,-0.33716 0.6160312,1.62522 1.1603102,3.28594 1.7404653,4.92891"
       id="path1"
       sodipodi:nodetypes="cssccscscssssssssscscscssssssscsssssssccsssscsssssssssscssssssssssssssssssssssssssscsssscsssccsccsscscsc" />
  </g>
</svg>
