<?xml version="1.0" encoding="UTF-8" standalone="no"?>
<!-- Created with Inkscape (http://www.inkscape.org/) -->

<svg
   width="100mm"
   height="100mm"
   viewBox="0 0 100 100"
   version="1.1"
   id="svg5"
   inkscape:version="1.3 (0e150ed, 2023-07-21)"
   sodipodi:docname="cartridge.svg"
   xmlns:inkscape="http://www.inkscape.org/namespaces/inkscape"
   xmlns:sodipodi="http://sodipodi.sourceforge.net/DTD/sodipodi-0.dtd"
   xmlns="http://www.w3.org/2000/svg"
   xmlns:svg="http://www.w3.org/2000/svg">
  <sodipodi:namedview
     id="namedview7"
     pagecolor="#ffffff"
     bordercolor="#666666"
     borderopacity="1.0"
     inkscape:pageshadow="2"
     inkscape:pageopacity="0.0"
     inkscape:pagecheckerboard="0"
     inkscape:document-units="mm"
     showgrid="false"
     inkscape:zoom="0.47037037"
     inkscape:cx="288.07087"
     inkscape:cy="300.82677"
     inkscape:window-width="1312"
     inkscape:window-height="724"
     inkscape:window-x="0"
     inkscape:window-y="25"
     inkscape:window-maximized="0"
     inkscape:current-layer="layer1"
     inkscape:showpageshadow="2"
     inkscape:deskcolor="#d1d1d1" />
  <defs
     id="defs2" />
  <g
     inkscape:label="Layer 1"
     inkscape:groupmode="layer"
     id="layer1">
    <path
       style="fill:none;stroke:#c9a32c;stroke-width:8;stroke-linecap:round;stroke-linejoin:miter;stroke-opacity:1;stroke-dasharray:none"
       d="M 20.25,29.249999 C 25.678987,28.520945 31.108523,28.6875 36.5625,28.6875 c 1.312501,0 2.625001,0 3.937501,0 0.374999,0 0.749998,0 1.124997,0 0.375002,0 0.761199,-0.09095 1.125001,0 0.406746,0.101685 0.727252,0.429917 1.125,0.562499 0.353055,0.117684 1.797169,0 2.250001,0 1.499999,0 -0.1875,-0.187499 0.562499,0.562502 0.135355,0.135353 2.114645,-0.135356 2.25,0 0.132583,0.13258 -0.132582,0.429916 0,0.562499 0.132583,0.132582 0.562499,-0.1875 0.562499,0 0,1.004302 -2.979258,0.430588 -3.374998,0.562499 -0.64135,0.213783 -1.06612,0.858694 -1.687499,1.125 -1.009891,0.432811 -4.172628,0.858038 -5.062501,1.125 -0.967134,0.29014 -1.867072,0.770464 -2.8125,1.125001 -1.597726,0.599146 -2.948873,0.911936 -4.500001,1.687499 -0.374999,0.1875 -0.749999,0.375002 -1.125,0.562501 -0.375,0 -0.769242,-0.118586 -1.124998,0 -0.503116,0.167704 -0.650661,0.887828 -1.125001,1.124998 -0.335412,0.167706 -0.859834,-0.265163 -1.125,0 -0.132583,0.132583 -0.167706,0.47865 0,0.562502 0.77434,0.38717 2.261182,-0.493586 2.8125,-0.562502 0.930259,-0.116281 1.878851,0.08488 2.812499,0 9.501061,-0.863732 -3.355184,-0.304408 7.312502,-1.124998 5.9193,-0.455332 0.922104,0.607587 6.187498,-0.562501 0.754673,-0.167704 1.484688,-0.453168 2.25,-0.562499 0.928079,-0.132583 1.874999,0 2.8125,0 0.750001,0 1.5,0 2.250001,0 0.187499,0 0.562499,0.1875 0.562499,0 0,-0.681934 -0.702514,0.140012 -1.125001,0.562499 -1.81066,1.81066 1.092833,-0.827664 -1.687499,0.562501 -0.474342,0.23717 -0.650658,0.887828 -1.125,1.124998 -0.05773,0.02886 -4.386009,1.082255 -4.499999,1.125001 -0.785135,0.294425 -1.464866,0.830574 -2.250001,1.125 -0.72386,0.271447 -1.5,0.374999 -2.250001,0.562502 -1.888133,0.472032 -3.811865,0.962244 -5.624999,1.687499 -1.939721,0.775888 -0.325062,0.503139 -2.8125,1.125 -0.181901,0.04547 -0.394795,-0.08385 -0.562499,0 -0.237172,0.118584 -0.325329,0.443913 -0.562501,0.562499 -0.33541,0.167706 -0.859835,-0.265165 -1.125,0 -0.132583,0.132583 -0.181901,0.517025 0,0.562502 0.727606,0.181901 1.500002,0 2.25,0 1.5,0 3,0 4.499999,0 1.875002,0 3.758449,-0.177769 5.625002,0 2.086869,0.198749 4.128209,0.732752 6.187498,1.124997 1.878362,0.357786 3.745619,0.772618 5.625002,1.125001 1.120982,0.210185 2.268535,0.285885 3.374999,0.562501 0.406744,0.101685 0.750001,0.374999 1.125,0.562499 0.374999,0.1875 1.421463,0.266036 1.125,0.562502 -0.546653,0.54665 -1.489387,0.424206 -2.25,0.562498 -1.304438,0.23717 -2.631848,0.332092 -3.9375,0.562499 -1.883037,0.332301 -3.746638,0.767218 -5.625,1.125001 -3.918066,0.746299 -6.949627,1.099886 -10.687499,2.25 C 37.284932,53.171944 36.41707,53.755107 35.4375,54 34.891794,54.136427 34.3125,54 33.750001,54 33.562499,54 33,54 33.187499,54 38.25,54 43.3125,54 48.375001,54 c 1.124997,0 2.249998,0 3.374998,0 C 52.5,54 53.260204,53.876701 54,54 c 0.924962,0.154159 1.61471,0.880144 1.125,1.125 -0.335412,0.167704 -0.750001,0 -1.125,0 -1.3125,0 -2.625,0 -3.9375,0 -3.9375,0 -7.875,0 -11.8125,0 -1.6875,0 -3.375001,0 -5.062501,0 -0.187499,0 -0.429916,0.132583 -0.562499,0 -0.132582,-0.132583 -0.167706,-0.478647 0,-0.562501 0.33541,-0.167704 0.749999,0 1.125001,0 0.562499,0 1.124998,0 1.687499,0 1.280224,0 4.430826,-0.183859 5.624999,0.562501 0.945425,0.590891 2.38197,3.495426 2.8125,4.499999 0.233566,0.544986 0.342294,1.136981 0.562502,1.687499 0.155709,0.389276 0.562498,0.705739 0.562498,1.125001 0,0.265165 -0.325329,0.443915 -0.562498,0.562501 -0.205018,0.102508 -2.488391,0 -2.812503,0 -0.187499,0 -0.503205,0.177877 -0.562499,0 -0.177876,-0.533635 0,-1.125 0,-1.687502 0,-1.316357 -0.136427,-2.714379 0.562499,-3.9375 0.650121,-1.137708 2.694485,-2.536272 3.9375,-2.812499 0.915178,-0.203372 1.879653,-0.09328 2.812503,0 0.951319,0.09513 2.017003,0.03217 2.812499,0.562501 2.463924,1.642616 2.646461,4.20011 3.374999,6.75 1.057076,3.699769 1.737788,4.055308 0.562501,7.875 -0.369898,1.202166 -0.752594,2.533584 -1.687502,3.374998 -2.028592,1.825736 -5.427734,1.842125 -7.875,2.250001 -0.943057,0.157176 -1.863815,0.443915 -2.812499,0.562499 -0.412044,0.05151 -2.016006,0.37347 -2.249998,-0.562499 -0.136428,-0.545706 0,-1.125 0,-1.687499 0,-1.426599 -0.183859,-4.281554 0.562498,-5.625002 0.515102,-0.927182 1.412767,-1.598816 2.250001,-2.249998 1.261412,-0.981099 4.02953,-2.413632 5.624999,-2.8125 0.545706,-0.136427 1.125001,0 1.6875,0 0.750001,0 1.538488,-0.237172 2.25,0 0.576049,0.192016 2.139979,2.48244 2.250001,2.8125 0.134229,0.40269 0,3.123165 0,3.9375 0,0.187499 0.132583,0.429916 0,0.562499 -0.132583,0.132582 -0.375002,0 -0.562501,0"
       id="path5" />
    <path
       style="fill:none;stroke:#000000;stroke-width:20;stroke-linecap:butt;stroke-linejoin:miter;stroke-opacity:1;stroke-dasharray:none"
       d="m 25.875,85.5 c 0,-9.375 0,-18.750002 0,-28.125002 0,-1.124997 0,-2.249998 0,-3.374998 0,-0.374999 0,-0.750001 0,-1.125001 0,-0.374999 0.09095,-0.761195 0,-1.125 -0.101686,-0.406744 -0.460814,-0.718254 -0.5625,-1.125 -0.09095,-0.363802 0.09095,-0.761196 0,-1.125001 -0.101686,-0.406744 -0.460814,-0.718254 -0.5625,-1.124997 -0.09095,-0.363805 0,-0.750002 0,-1.125001 -0.1875,-0.375002 -0.429918,-0.727252 -0.5625,-1.125 -0.16875,-0.506251 0.16875,-1.181251 0,-1.687499 -0.08385,-0.251558 -0.478648,-0.310944 -0.5625,-0.562502 -0.118586,-0.355756 0.118585,-0.769244 0,-1.125 -0.08385,-0.251558 -0.478648,-0.310941 -0.5625,-0.562499 -0.237171,-0.711512 0.181901,-1.522394 0,-2.250001 -0.101686,-0.406744 -0.460814,-0.718254 -0.5625,-1.125 -0.09095,-0.363802 0.118585,-0.769242 0,-1.125001 -0.08385,-0.251555 -0.478648,-0.310941 -0.5625,-0.562499 -0.118586,-0.355756 0.09095,-0.761195 0,-1.125 -0.101686,-0.406744 -0.460814,-0.718254 -0.5625,-1.125 -0.09095,-0.363802 0.09095,-0.761196 0,-1.124998 -0.101686,-0.406747 -0.460814,-0.718257 -0.5625,-1.125001 -0.181902,-0.727606 0.181901,-1.522393 0,-2.25 -0.101686,-0.406744 -0.460814,-0.718257 -0.5625,-1.125001 -0.09095,-0.363802 0,-0.749998 0,-1.125 -0.1875,-0.374999 -0.429918,-0.727252 -0.5625,-1.125 -0.16875,-0.506249 0.16875,-1.181249 0,-1.687499 -0.08385,-0.251558 -0.443915,-0.325329 -0.5625,-0.5625 -0.08385,-0.167705 0.08385,-0.394795 0,-0.5625 -0.118586,-0.237171 -0.443915,-0.32533 -0.5625,-0.5625 -0.298824,-0.597647 0.298823,-0.527353 0,-1.125 C 18.443914,22.262829 18.118585,22.174671 18,21.9375 c -0.167705,-0.33541 0.265165,-0.859835 0,-1.125 -0.132583,-0.132583 -0.429918,0.132582 -0.5625,0 -0.265165,-0.265165 0.167705,-0.78959 0,-1.125 -0.118586,-0.237171 -0.443915,-0.325329 -0.5625,-0.5625 -0.08385,-0.167705 0.132582,-0.429918 0,-0.5625 -0.132583,-0.132583 -0.429918,0.132582 -0.5625,0 -0.05625,-0.05625 -0.05625,-1.63125 0,-1.6875 0.03502,-0.03502 2.710654,0.02546 2.8125,0 0.813489,-0.203373 1.422883,-0.987148 2.25,-1.125 0.739795,-0.123299 1.507538,0.106066 2.25,0 3.840451,-0.548636 -0.08395,-0.400888 2.8125,-1.125 0.363804,-0.09095 0.750001,0 1.125,0 0.937501,0 1.874999,0 2.8125,0 0.187499,0 0.429916,0.132582 0.562499,0 0.132582,-0.132583 -0.132583,-0.429918 0,-0.5625 0.132582,-0.132583 0.375001,0 0.562501,0 0.1875,0 0.374999,0 0.562499,0 0.937501,0 1.875001,0 2.8125,0 0.562501,0 1.153866,0.177878 1.687501,0 0.251558,-0.08385 0.310941,-0.478648 0.562499,-0.5625 0.355756,-0.118586 0.761196,0.09095 1.125001,0 0.406744,-0.101686 0.718256,-0.460814 1.125,-0.5625 0.363802,-0.09095 0.749999,0 1.125001,0 0.187499,0 0.394792,0.08385 0.562498,0 0.23717,-0.118586 0.325329,-0.443915 0.562499,-0.5625 0.145436,-0.07272 2.976301,0 3.375001,0 0.1875,0 0.429919,0.132582 0.562499,0 0.132583,-0.132583 -0.13258,-0.429918 0,-0.5625 0.132583,-0.132583 0.375002,0 0.562502,0 1.499999,0 2.999999,0 4.499999,0 0.187499,0 0.375002,0 0.562501,0 0.1875,0 0.429916,-0.132583 0.562499,0 0.132583,0.132582 -0.132583,0.429917 0,0.5625 0.132583,0.132582 0.429919,-0.132583 0.562502,0 0.265162,0.265165 -0.265166,0.859835 0,1.125 0.13258,0.132582 0.429916,-0.132583 0.562498,0 0.114996,0.114995 -0.111514,1.464473 0,1.6875 0.118587,0.237171 0.443916,0.325329 0.562499,0.5625 0.08385,0.167705 -0.08385,0.394795 0,0.5625 0.118587,0.237171 0.375002,0.375 0.562502,0.5625 0.187499,0.375 0.406789,0.735724 0.562499,1.125 0.440414,1.101038 0.799221,2.234773 1.125,3.375 0.212381,0.743337 0.318029,1.516589 0.562502,2.25 0.638601,1.915806 1.540928,3.734141 2.249998,5.624999 0.20819,0.555176 0.328935,1.142513 0.562501,1.6875 0.717137,1.673322 1.885545,3.240227 2.249998,5.0625 0.07354,0.367718 -0.09095,0.761198 0,1.125 0.101688,0.406744 0.460815,0.718257 0.562502,1.125001 0.127481,0.509931 0,2.159061 0,2.812499 0,0.1875 -0.05929,0.384623 0,0.562499 0.132583,0.397748 0.429916,0.727255 0.562499,1.125001 0.199239,0.59772 -0.199239,1.65228 0,2.25 0.132582,0.397749 0.429918,0.727253 0.562501,1.125001 0.1118,0.335401 0,2.830012 0,3.374998 0,0.187503 -0.08385,0.394796 0,0.562502 0.118584,0.23717 0.443913,0.325329 0.562499,0.562499 0.176771,0.353544 -0.176771,1.896456 0,2.25 0.118586,0.23717 0.443915,0.325329 0.562499,0.562499 0.08385,0.167706 -0.08385,0.394796 0,0.562502 0.118586,0.23717 0.443915,0.325329 0.562501,0.562499 0.08385,0.167706 -0.08385,0.394795 0,0.562501 0.118587,0.23717 0.478648,0.310941 0.562499,0.562499 0.118587,0.355756 -0.118583,0.769244 0,1.125 0.08385,0.251558 0.375002,0.375 0.562502,0.562499 0.187499,0.375002 0.460814,0.718257 0.562499,1.125001 0.09095,0.363804 -0.09095,0.761198 0,1.125 0.101687,0.406744 0.460814,0.718256 0.562501,1.125 0.09095,0.363803 -0.09095,0.761196 0,1.125001 0.203372,0.813488 0.921626,1.43651 1.124998,2.249998 0.09095,0.363805 -0.07354,0.757282 0,1.125 0.322892,1.614456 1.416804,2.875825 1.687502,4.500002 0.09247,0.554847 -0.17788,1.153864 0,1.687499 0.213783,0.64135 0.822664,1.082831 1.125,1.687499 1.294845,2.589692 0.03648,0.744929 0.562499,3.375001 0.164449,0.822241 0.921629,1.436511 1.125,2.250001 0.09095,0.363802 -0.09095,0.761196 0,1.124998 0.101685,0.406747 0.460815,0.718256 0.562499,1.125 0.09095,0.363805 -0.118583,0.769245 0,1.125001 0.08385,0.251558 0.478647,0.310943 0.562502,0.562501 0.118583,0.355756 -0.167706,0.789588 0,1.124998 0.749998,1.500002 0.562499,-1.687499 0.562499,0.562502 0,0.136421 0.0181,1.669409 0,1.687499 -0.132583,0.132582 -0.375,0 -0.562499,0 -0.1875,0 -0.375002,0 -0.562502,0 -2.625,0 -5.25,0 -7.875,0 -6.937499,0 -13.874998,0 -20.812497,0 -2.250001,0 -4.500002,0 -6.750003,0 -0.937498,0 -1.874999,0 -2.812499,0 -0.375,0 -0.761196,0.09095 -1.124998,0 C 33.343254,85.960814 33.022746,85.632583 32.625,85.5 c -0.325842,-0.108614 -1.762548,0 -2.25,0 -1.5,0 -3,0 -4.5,0 z"
       id="path4" />
  </g>
</svg>
